<?xml version="1.0" standalone="no"?>
<!DOCTYPE svg PUBLIC "-//W3C//DTD SVG 1.1//EN" "http://www.w3.org/Graphics/SVG/1.1/DTD/svg11.dtd" >
<svg>
<metadata>
Created by FontForge 20090914 at Sat Oct  5 16:58:25 2013
 By www-data
Copyright (c) 1990, 1991 Adobe Systems Incorporated.  All Rights Reserved.Helvetica is a trademark of Linotype AG and/or its subsidiaries.
</metadata>
<defs>
<font id="HelveticaRounded-Bold" horiz-adv-x="612" >
  <font-face 
    font-family="HelveticaRounded"
    font-weight="700"
    font-stretch="normal"
    units-per-em="1000"
    panose-1="2 11 8 0 0 0 0 0 0 0"
    ascent="800"
    descent="-200"
    x-height="522.998"
    cap-height="733"
    bbox="-44 -214.004 990 963"
    underline-thickness="50"
    underline-position="-50"
    unicode-range="U+0020-U+2122"
  />
<missing-glyph horiz-adv-x="502" 
d="M-1 0h500v500h-500v-500zM9 10v480h480v-480h-480z" />
    <glyph glyph-name=".notdef" horiz-adv-x="502" 
d="M-1 0h500v500h-500v-500zM9 10v480h480v-480h-480z" />
    <glyph glyph-name="space" unicode=" " horiz-adv-x="306" 
 />
    <glyph glyph-name="exclam" unicode="!" horiz-adv-x="316" 
d="M237 656c0 51.333 -26.333 77 -79 77s-79 -25.667 -79 -77v-116c0 -10 1.33301 -25.667 4 -47l31 -234c2 -14 6.5 -23.667 13.5 -29s17.167 -8 30.5 -8s23.5 2.66699 30.5 8s11.5 15 13.5 29l31 234c2.66699 21.333 4 37 4 47v116zM76 75c0 -22.667 8 -42 24 -58
s35.333 -24 58 -24s42 8 58 24s24 35.333 24 58s-8 42 -24 58s-35.333 24 -58 24s-42 -8 -58 -24s-24 -35.333 -24 -58z" />
    <glyph glyph-name="quotedbl" unicode="&#x22;" horiz-adv-x="537" 
d="M299 500c0 -20.667 6 -37.5 18 -50.5s28 -19.5 48 -19.5s36 6.5 48 19.5s18 29.833 18 50.5v163c0 20.667 -6 37.5 -18 50.5s-28 19.5 -48 19.5s-36 -6.5 -48 -19.5s-18 -29.833 -18 -50.5v-163zM106 500c0 -20.667 6 -37.5 18 -50.5s28 -19.5 48 -19.5s36 6.5 48 19.5
s18 29.833 18 50.5v163c0 20.667 -6 37.5 -18 50.5s-28 19.5 -48 19.5s-36 -6.5 -48 -19.5s-18 -29.833 -18 -50.5v-163z" />
    <glyph glyph-name="numbersign" unicode="#" 
d="M152 289l-52 0.00195312c-16 0 -28 -4.66699 -36 -14s-12 -20.666 -12 -33.999s4 -24.666 12 -33.999s20 -14 36 -14h38l-18 -130c-2 -18.667 -3 -30.334 -3 -35.001c0 -12 4.5 -21.833 13.5 -29.5s19.833 -11.5 32.5 -11.5c18.667 0 32.167 4.5 40.5 13.5
s13.5 21.833 15.5 38.5l21 154h88l-18 -130c-2 -18.667 -3 -30.334 -3 -35.001c0 -12 4.5 -21.833 13.5 -29.5s19.833 -11.5 32.5 -11.5c18.667 0 32.167 4.5 40.5 13.5s13.5 21.833 15.5 38.5l21 154h52c16 0 28 4.66699 36 14s12 20.666 12 33.999s-4 24.666 -12 33.999
s-20 14 -36 14h-38l16 120h52c16 0 28 4.66699 36 14s12 20.666 12 33.999s-4 24.666 -12 33.999s-20 14 -36 14h-38l18 130c2 19.333 3 31 3 35c0 12 -4.5 21.833 -13.5 29.5s-19.833 11.5 -32.5 11.5c-18.667 0 -32.167 -4.5 -40.5 -13.5s-13.5 -21.833 -15.5 -38.5
l-21 -154h-88l18 130c2 19.333 3 31 3 35c0 12 -4.5 21.833 -13.5 29.5s-19.833 11.5 -32.5 11.5c-18.667 0 -32.167 -4.5 -40.5 -13.5s-13.5 -21.833 -15.5 -38.5l-21 -154h-52c-16 0 -28 -4.66699 -36 -14s-12 -20.666 -12 -33.999s4 -24.666 12 -33.999s20 -14 36 -14h38
zM342 289.002h-88l16 120h88z" />
    <glyph glyph-name="dollar" unicode="$" 
d="M278 89c-21.333 0.666992 -39.1689 3.66504 -53.502 8.99805s-25.666 11.833 -33.999 19.5s-14.5 15.667 -18.5 24s-8.33301 19.166 -13 32.499c-7.33301 20.667 -15.5 35.834 -24.5 45.501s-24.833 14.5 -47.5 14.5c-18.667 0 -33.667 -5.5 -45 -16.5
s-17 -26.5 -17 -46.5s5.5 -40.667 16.5 -62s27 -41 48 -59s47.5 -32.833 79.5 -44.5s68.333 -17.834 109 -18.501v-62c0 -8.66699 3 -16.5 9 -23.5s13 -10.5 21 -10.5c8.66699 0 15.834 3.5 21.501 10.5s8.5 14.833 8.5 23.5v62
c77.333 4.66699 138.166 24.834 182.499 60.501s66.5 85.834 66.5 150.501c0 36.667 -6.5 67.834 -19.5 93.501s-30.667 46.5 -53 62.5s-47.666 28.833 -75.999 38.5s-61.833 18.5 -100.5 26.5v190c28 -0.666992 49.833 -6.5 65.5 -17.5s31.5 -27.167 47.5 -48.5
c12 -14.667 22.167 -25.5 30.5 -32.5s18.833 -10.5 31.5 -10.5c17.333 0 32.166 5.66699 44.499 17s18.5 26.333 18.5 45c0 23.333 -8.16699 44.166 -24.5 62.499s-37.166 33.833 -62.499 46.5s-51.666 22.334 -78.999 29.001s-51.333 10.334 -72 11.001v23
c0 8.66699 -2.83301 16.5 -8.5 23.5s-12.834 10.5 -21.501 10.5c-8 0 -15 -3.5 -21 -10.5s-9 -14.833 -9 -23.5v-23c-66.667 -2 -123 -21.333 -169 -58s-69 -87.334 -69 -152.001c0 -54 20.667 -97.833 62 -131.5s100 -57.5 176 -71.5v-209zM277.997 429.998
c-74.667 14.667 -112 45.998 -112 93.998c0 22.667 10.5 42.334 31.5 59.001s47.833 25.334 80.5 26.001v-179zM337.997 286.996c16.667 -4 31.667 -8.16797 45 -12.501s26 -10.166 38 -17.499s21.667 -16.833 29 -28.5s11 -25.5 11 -41.5c0 -30.667 -12 -54.167 -36 -70.5
s-53 -25.5 -87 -27.5v198z" />
    <glyph glyph-name="percent" unicode="%" horiz-adv-x="1000" 
d="M79 520c0 -58 13.667 -104.333 41 -139s69.666 -52 126.999 -52s99.666 17.333 126.999 52s41 81 41 139s-13.667 104.333 -41 139s-69.666 52 -126.999 52s-99.666 -17.333 -126.999 -52s-41 -81 -41 -139zM187 520c0 33.333 4.66797 60.5 14.001 81.5
s24.666 31.5 45.999 31.5s36.666 -10.5 45.999 -31.5s14 -48.167 14 -81.5c0 -34.667 -4.5 -62.167 -13.5 -82.5s-24.5 -30.5 -46.5 -30.5c-21.333 0 -36.666 10.167 -45.999 30.5s-14 47.833 -14 82.5zM585.001 178c0 -58 13.667 -104.333 41 -139s69.666 -52 126.999 -52
s99.666 17.333 126.999 52s41 81 41 139s-13.667 104.333 -41 139s-69.666 52 -126.999 52s-99.666 -17.333 -126.999 -52s-41 -81 -41 -139zM693.001 178c0 33.333 4.66797 60.5 14.001 81.5s24.666 31.5 45.999 31.5s36.666 -10.5 45.999 -31.5s14 -48.167 14 -81.5
c0 -34.667 -4.5 -62.167 -13.5 -82.5s-24.5 -30.5 -46.5 -30.5c-21.333 0 -36.666 10.167 -45.999 30.5s-14 47.833 -14 82.5zM287.002 29c-7.33301 -13.333 -10.999 -24.666 -10.999 -33.999c0 -8.66699 3.83301 -16.5 11.5 -23.5s16.834 -10.5 27.501 -10.5
c9.33301 0 17.166 2.66699 23.499 8s11.5 12 15.5 20l360 680c7.33301 13.333 11 24.666 11 33.999c0 8.66699 -3.83301 16.5 -11.5 23.5s-16.834 10.5 -27.501 10.5c-9.33301 0 -17 -2.66699 -23 -8s-11.333 -12 -16 -20z" />
    <glyph glyph-name="ampersand" unicode="&#x26;" horiz-adv-x="704" 
d="M414 373c37.333 18 67.498 42.8262 90.498 74.4932s34.5 66.834 34.5 105.501c0 20.667 -3.66699 41 -11 61s-19 38.5 -35 55.5s-37.5 30.833 -64.5 41.5s-59.167 16 -96.5 16c-56 0 -103.333 -15.833 -142 -47.5s-58 -75.167 -58 -130.5c0 -27.333 6 -51.666 18 -72.999
s29 -44.666 51 -69.999c-48 -23.333 -86.167 -53.166 -114.5 -89.499s-42.5 -79.833 -42.5 -130.5c0 -24.667 4.5 -48.834 13.5 -72.501s22.667 -45 41 -64s41.666 -34.167 69.999 -45.5s61.5 -17 99.5 -17c46.667 0 89.167 6.83301 127.5 20.5
s73.166 35.834 104.499 66.501l46 -53c8.66699 -9.33301 16.334 -16.333 23.001 -21s15.334 -7 26.001 -7c22.667 0 40.834 6.33301 54.501 19s20.5 27.334 20.5 44.001c0 15.333 -4.66699 28.666 -14 39.999l-60 72c9.33301 8.66699 18.333 18.834 27 30.501
s16.5 23.834 23.5 36.501s12.667 24.834 17 36.501s6.5 21.834 6.5 30.501c0 15.333 -6.66699 28.666 -20 39.999s-28.333 17 -45 17c-19.333 0 -36.666 -10.333 -51.999 -31c-5.33301 -7.33301 -14 -23 -26 -47l-13 -25zM419.998 161.993
c-20.667 -18.667 -41 -33.5 -61 -44.5s-43.667 -16.5 -71 -16.5c-30 0 -53.833 9 -71.5 27s-26.5 41.333 -26.5 70c0 24 8.5 45.5 25.5 64.5s41.5 37.167 73.5 54.5zM263.998 560.993c0 18 7.00098 33.168 21.001 45.501s31.667 18.5 53 18.5s39.166 -6.5 53.499 -19.5
s21.5 -28.5 21.5 -46.5c0 -24 -7.16699 -43.333 -21.5 -58s-33.5 -29.334 -57.5 -44.001l-3 -2v0c-23.333 20 -40.333 37 -51 51s-16 32.333 -16 55z" />
    <glyph glyph-name="quotesingle" unicode="'" horiz-adv-x="316" 
d="M92 500c0 -20.667 6 -37.5 18 -50.5s28 -19.5 48 -19.5s36 6.5 48 19.5s18 29.833 18 50.5v163c0 20.667 -6 37.5 -18 50.5s-28 19.5 -48 19.5s-36 -6.5 -48 -19.5s-18 -29.833 -18 -50.5v-163z" />
    <glyph glyph-name="parenleft" unicode="(" horiz-adv-x="333" 
d="M67 268c0 -50 6.16699 -102 18.5 -156s29.833 -108.333 52.5 -163c14.667 -34.667 26.834 -62 36.501 -82s18.167 -34.833 25.5 -44.5s14.333 -16 21 -19s14.667 -4.5 24 -4.5c14.667 0 27 4.5 37 13.5s15 19.833 15 32.5c0 10.667 -7.33301 37.667 -22 81
c-20.667 58.667 -37.167 114.334 -49.5 167.001s-18.5 111 -18.5 175s6.33301 122.667 19 176s29 108.666 49 165.999c14.667 43.333 22 70.333 22 81c0 12.667 -5 23.5 -15 32.5s-22.333 13.5 -37 13.5c-9.33301 0 -17.333 -1.5 -24 -4.5s-13.667 -9.5 -21 -19.5
s-15.833 -25 -25.5 -45s-21.834 -47 -36.501 -81c-22.667 -54.667 -40.167 -109 -52.5 -163s-18.5 -106 -18.5 -156z" />
    <glyph glyph-name="parenright" unicode=")" horiz-adv-x="333" 
d="M266 268c0 50 -5.99805 102 -17.998 156s-29.667 108.333 -53 163c-14.667 34.667 -26.834 62 -36.501 82s-18 34.833 -25 44.5s-13.833 16 -20.5 19s-15 4.5 -25 4.5c-14.667 0 -27 -4.5 -37 -13.5s-15 -19.833 -15 -32.5c0 -10.667 7.33301 -37.667 22 -81
c20.667 -58.667 37.167 -114.334 49.5 -167.001s18.5 -111 18.5 -175s-6.33301 -122.667 -19 -176s-29 -108.666 -49 -165.999c-14.667 -43.333 -22 -70.333 -22 -81c0 -12.667 5 -23.5 15 -32.5s22.333 -13.5 37 -13.5c10 0 18.167 1.5 24.5 4.5s13.166 9.5 20.499 19.5
s16 25 26 45s22 47 36 81c23.333 54.667 41 109 53 163s18 106 18 156z" />
    <glyph glyph-name="asterisk" unicode="*" horiz-adv-x="464" 
d="M190 599l-77.9961 28c-10.667 4 -19.334 6 -26.001 6c-8.66699 0 -17.667 -4 -27 -12s-14 -19 -14 -33c0 -19.333 11.667 -32.333 35 -39l88 -26l-60 -78c-8 -10 -12 -19.667 -12 -29c0 -14.667 5.16699 -25.334 15.5 -32.001s20.166 -10 29.499 -10
c16 0 27.333 5.33301 34 16l57 85l57 -85c6.66699 -10.667 18 -16 34 -16c9.33301 0 19.166 3.33301 29.499 10s15.5 17.334 15.5 32.001c0 9.33301 -4 19 -12 29l-60 78l88 26c23.333 6.66699 35 19.667 35 39c0 14 -4.66699 25 -14 33s-18.333 12 -27 12
c-6.66699 0 -15.334 -2 -26.001 -6l-78 -28v89c0 30 -14 45 -42 45s-42 -15 -42 -45v-89z" />
    <glyph glyph-name="plus" unicode="+" horiz-adv-x="600" 
d="M240 343h-153c-21.333 0 -38.333 -5.5 -51 -16.5s-19 -25.5 -19 -43.5c0 -16 6.66699 -30 20 -42s30 -18 50 -18h153v-153c0 -20.667 5.5 -37.5 16.5 -50.5s25.5 -19.5 43.5 -19.5c18.667 0 33.334 6.5 44.001 19.5s16 29.833 16 50.5v153h153
c21.333 0 38.333 5.5 51 16.5s19 25.5 19 43.5s-6.33301 32.5 -19 43.5s-29.667 16.5 -51 16.5h-153v153c0 20.667 -5.33301 37.5 -16 50.5s-25.334 19.5 -44.001 19.5c-18 0 -32.5 -6.5 -43.5 -19.5s-16.5 -29.833 -16.5 -50.5v-153z" />
    <glyph glyph-name="comma" unicode="," horiz-adv-x="306" 
d="M71 75c0 -20.667 6.50195 -38.668 19.502 -54.001s30.5 -23 52.5 -23c12 0 23.333 3 34 9c-1.33301 -26.667 -8 -46 -20 -58s-28.667 -22.667 -50 -32c-12.667 -5.33301 -21.834 -10.166 -27.501 -14.499s-8.5 -10.5 -8.5 -18.5c0 -8.66699 3 -15.834 9 -21.501
s14.333 -8.5 25 -8.5c14 0 30.167 4.83301 48.5 14.5s32.5 19.167 42.5 28.5c17.333 17.333 30.166 36 38.499 56s12.5 46 12.5 78c0 36.667 -8 66.834 -24 90.501s-39.333 35.5 -70 35.5c-22.667 0 -42 -8 -58 -24s-24 -35.333 -24 -58z" />
    <glyph glyph-name="hyphen" unicode="-" horiz-adv-x="407" 
d="M121 345c-24.667 0 -44.334 -5.5 -59.001 -16.5s-22 -28.5 -22 -52.5s7.33301 -41.5 22 -52.5s34.334 -16.5 59.001 -16.5h165c24.667 0 44.334 5.5 59.001 16.5s22 28.5 22 52.5s-7.33301 41.5 -22 52.5s-34.334 16.5 -59.001 16.5h-165z" />
    <glyph glyph-name="period" unicode="." horiz-adv-x="306" 
d="M71 75c0 -22.667 8 -42 24 -58s35.333 -24 58 -24s42 8 58 24s24 35.333 24 58s-8 42 -24 58s-35.333 24 -58 24s-42 -8 -58 -24s-24 -35.333 -24 -58z" />
    <glyph glyph-name="slash" unicode="/" horiz-adv-x="370" 
d="M16 67c-5.33301 -14.667 -8 -25.665 -8 -32.998c0 -14.667 5.5 -26.834 16.5 -36.501s22.833 -14.5 35.5 -14.5c17.333 0 29.666 3.83301 36.999 11.5s13.333 17.5 18 29.5l239 629c5.33301 14.667 8 25.667 8 33c0 15.333 -5.5 27.666 -16.5 36.999s-22.833 14 -35.5 14
c-17.333 0 -29.666 -3.83301 -36.999 -11.5s-13.333 -17.5 -18 -29.5z" />
    <glyph glyph-name="zero" unicode="0" 
d="M185 349c0 78.667 9.5 138.667 28.5 180s49.833 62 92.5 62s73.5 -20.667 92.5 -62s28.5 -101.333 28.5 -180c0 -86.667 -10.167 -148.667 -30.5 -186s-50.5 -56 -90.5 -56s-70.167 18.667 -90.5 56s-30.5 99.333 -30.5 186zM39 358
c0 -48.667 4.33105 -94.5 12.998 -137.5s23.167 -82.167 43.5 -117.5s48 -63.5 83 -84.5s77.5 -31.5 127.5 -31.5s92.5 10.5 127.5 31.5s62.667 49.167 83 84.5s34.833 74.5 43.5 117.5s13 88.833 13 137.5c0 115.333 -23.667 203 -71 263s-112.666 90 -195.999 90
s-148.666 -30 -195.999 -90s-71 -147.667 -71 -263z" />
    <glyph glyph-name="one" unicode="1" horiz-adv-x="407" 
d="M171 75c0 -27.333 6 -48.835 18 -64.502s31.333 -23.5 58 -23.5s46 7.83301 58 23.5s18 37.167 18 64.5v568c0 25.333 -5.16699 43 -15.5 53s-24.5 15 -42.5 15s-31.667 -4.5 -41 -13.5s-19.333 -23.5 -30 -43.5c-12 -22 -24.333 -39.667 -37 -53
s-31.667 -22.666 -57 -27.999l-37 -8c-27.333 -5.33301 -46.166 -11.666 -56.499 -18.999s-15.5 -20 -15.5 -38c0 -20 4.16699 -33.833 12.5 -41.5s21.166 -11.5 38.499 -11.5h129v-380z" />
    <glyph glyph-name="two" unicode="2" horiz-adv-x="593" 
d="M196 126c6 17.333 23.5059 36.1719 52.5059 56.5049s76.5 49.166 142.5 86.499c29.333 16.667 53.833 32.334 73.5 47.001s36.5 31.167 50.5 49.5s24.667 39.5 32 63.5s11 52.333 11 85c0 23.333 -5.83301 46.666 -17.5 69.999s-28.667 44.666 -51 63.999
s-49.333 34.666 -81 45.999s-66.834 17 -105.501 17c-36 0 -70.333 -5.33301 -103 -16s-61.334 -25.834 -86.001 -45.501s-43.834 -42.667 -57.501 -69s-20.5 -54.5 -20.5 -84.5c0 -23.333 6.66699 -40.333 20 -51s31 -16 53 -16c19.333 0 33.333 4.33301 42 13
s15.667 23 21 43c10.667 38.667 26.5 66 47.5 82s48.167 24 81.5 24c29.333 0 54.166 -9 74.499 -27s30.5 -42.667 30.5 -74c0 -17.333 -2.33301 -32.333 -7 -45s-12.334 -24.334 -23.001 -35.001s-23.834 -21.5 -39.501 -32.5s-38.5 -25.833 -68.5 -44.5l-49 -30
c-125.333 -79.333 -188 -155.666 -188 -228.999c0 -20 7 -37.333 21 -52s34.333 -22 61 -22h375c24 0 42.333 5 55 15s19 26 19 48c0 21.333 -6 37.166 -18 47.499s-28 15.5 -48 15.5h-300z" />
    <glyph glyph-name="three" unicode="3" horiz-adv-x="593" 
d="M31 160c0 -16 4.49805 -33.667 13.498 -53s23.167 -38.166 42.5 -56.499s45 -33.5 77 -45.5s70 -18 114 -18c37.333 0 72.5 4.83301 105.5 14.5s61.667 24.334 86 44.001s43.5 44.167 57.5 73.5s21 63.333 21 102c0 39.333 -8.83301 72.666 -26.5 99.999
s-44.5 46 -80.5 56c56.667 30.667 85 77.334 85 140.001c0 25.333 -4.33301 49.5 -13 72.5s-22.5 43.667 -41.5 62s-43.667 32.833 -74 43.5s-66.5 16 -108.5 16c-26 0 -53 -3.5 -81 -10.5s-54.167 -17.667 -78.5 -32s-44.166 -32.666 -59.499 -54.999
s-23 -47.833 -23 -76.5c0 -20.667 6.33301 -35.834 19 -45.501s28.667 -14.5 48 -14.5c16 0 28.333 4 37 12s18 20 28 36c12.667 21.333 26.334 37.666 41.001 48.999s36.667 17 66 17c28.667 0 52.5 -7.5 71.5 -22.5s28.5 -36.833 28.5 -65.5
c0 -48.667 -25.333 -74.667 -76 -78c-30.667 -1.33301 -52.834 -6.5 -66.501 -15.5s-20.5 -25.833 -20.5 -50.5c0 -10.667 2.66699 -19.5 8 -26.5s12.166 -12.167 20.499 -15.5s16.333 -5.83301 24 -7.5s17.167 -3.16699 28.5 -4.5h2
c32.667 -3.33301 55.834 -12.666 69.501 -27.999s20.5 -36 20.5 -62c0 -32 -10 -58 -30 -78s-48.333 -30 -85 -30c-34 0 -58.333 6.16699 -73 18.5s-28 30.166 -40 53.499c-9.33301 17.333 -18.166 30.166 -26.499 38.499s-21.5 12.5 -39.5 12.5
c-20.667 0 -37.667 -6.5 -51 -19.5s-20 -29.833 -20 -50.5z" />
    <glyph glyph-name="four" unicode="4" horiz-adv-x="611" 
d="M340 274h-195l193 259h2v-259zM340 57c0 -22.667 5.5 -40.002 16.5 -52.002s28.833 -18 53.5 -18s42.5 6 53.5 18s16.5 29.333 16.5 52v103h50c16.667 0 30.167 5.33301 40.5 16s15.5 24.334 15.5 41.001s-5.16699 30.334 -15.5 41.001s-23.833 16 -40.5 16h-50v365
c0 22.667 -6 40.334 -18 53.001s-31 19 -57 19c-29.333 0 -51 -9.33301 -65 -28l-308 -395c-12.667 -16.667 -19 -36.334 -19 -59.001c0 -18 6.66699 -34 20 -48s32 -21 56 -21h251v-103z" />
    <glyph glyph-name="five" unicode="5" horiz-adv-x="593" 
d="M47 422c-3.33301 -18.667 -5.00195 -36.332 -5.00195 -52.999c0 -22 6.66699 -38.5 20 -49.5s29.666 -16.5 48.999 -16.5c10 0 19.167 1.66699 27.5 5s18.5 8.33301 30.5 15c16.667 9.33301 31.834 16.5 45.501 21.5s30.167 7.5 49.5 7.5c40 0 72.5 -10.333 97.5 -31
s37.5 -51.334 37.5 -92.001c0 -34 -12.167 -63.833 -36.5 -89.5s-54.833 -38.5 -91.5 -38.5c-26.667 0 -47.667 5 -63 15s-30.666 24.333 -45.999 43c-10.667 14 -20 24 -28 30s-18 9 -30 9c-21.333 0 -38.666 -6.5 -51.999 -19.5s-20 -29.5 -20 -49.5
c0 -14 4.5 -29.167 13.5 -45.5s23 -31.833 42 -46.5s43.833 -26.667 74.5 -36s66.334 -14 107.001 -14c82 0 148.5 21.833 199.5 65.5s76.5 104.834 76.5 183.501c0 73.333 -22.833 130 -68.5 170s-101.834 60 -168.501 60c-26 0 -51.333 -3.83301 -76 -11.5
s-45.667 -19.167 -63 -34.5l-2 2l27 150h255c19.333 0 34.833 5.16699 46.5 15.5s17.5 26.166 17.5 47.499s-6 37.166 -18 47.499s-28 15.5 -48 15.5h-300c-16 0 -29.833 -6.16699 -41.5 -18.5s-19.167 -27.166 -22.5 -44.499z" />
    <glyph glyph-name="six" unicode="6" 
d="M185 410c0 24 2.6709 47.501 8.00391 70.501s13.666 43.667 24.999 62s26.166 33 44.499 44s39.833 16.5 64.5 16.5c19.333 0 34.833 -4 46.5 -12s24.167 -19.333 37.5 -34c12 -14 22.5 -24.167 31.5 -30.5s20.5 -9.5 34.5 -9.5c17.333 0 32.166 6.33301 44.499 19
s18.5 28 18.5 46c0 15.333 -4.83301 30.666 -14.5 45.999s-23.5 29.333 -41.5 42s-39.333 22.667 -64 30s-51.334 11 -80.001 11c-48 0 -90.333 -7.16699 -127 -21.5s-68 -37.333 -94 -69s-45.833 -73.167 -59.5 -124.5s-20.5 -113.333 -20.5 -186
c0 -42 4.66699 -82 14 -120s24.666 -72.333 45.999 -103s49.833 -55 85.5 -73s78.834 -27 129.501 -27c76 0 138.167 21.5 186.5 64.5s72.5 104.167 72.5 183.5c0 63.333 -20.5 116 -61.5 158s-97.833 63 -170.5 63c-32.667 0 -61.167 -5.33301 -85.5 -16
s-47.833 -26.667 -70.5 -48v18zM194.004 225.001c0 38 11 68.001 33 90.001s50 33 84 33c34.667 0 62.667 -10.333 84 -31s32 -51.334 32 -92.001c0 -38.667 -10.333 -69 -31 -91s-49 -33 -85 -33s-64.5 11 -85.5 33s-31.5 52.333 -31.5 91z" />
    <glyph glyph-name="seven" unicode="7" horiz-adv-x="574" 
d="M76 698c-20 0 -36.001 -5.16699 -48.001 -15.5s-18 -26.166 -18 -47.499s5.83301 -37.166 17.5 -47.499s27.167 -15.5 46.5 -15.5h323c-30.667 -28 -61.334 -65.333 -92.001 -112s-58.834 -95.834 -84.501 -147.501s-46 -100 -61 -145s-22.5 -79.833 -22.5 -104.5
c0 -24 5.5 -42.667 16.5 -56s29.833 -20 56.5 -20c22.667 0 39 5.5 49 16.5s18.333 31.833 25 62.5c16 71.333 33.833 134 53.5 188s39.167 99.167 58.5 135.5s37.333 65.666 54 87.999s35.334 45.5 56.001 69.5c16.667 19.333 28.334 34.333 35.001 45s10 22 10 34
c0 26 -6.16699 44.5 -18.5 55.5s-29.166 16.5 -50.499 16.5h-406z" />
    <glyph glyph-name="eight" unicode="8" 
d="M39 211c0 -40 7.66504 -74.499 22.998 -103.499s36 -52.333 62 -70s54.667 -30.5 86 -38.5s63.333 -12 96 -12s64.667 4 96 12s60 20.667 86 38s46.667 40.666 62 69.999s23 64 23 104c0 39.333 -9.66699 73.333 -29 102s-47.333 49 -84 61
c28.667 13.333 51.334 33.333 68.001 60s25 55.667 25 87c0 56 -22.167 101.667 -66.5 137s-104.5 53 -180.5 53s-136.167 -17.667 -180.5 -53s-66.5 -81 -66.5 -137c0 -31.333 8.33301 -60.333 25 -87s39.334 -46.667 68.001 -60c-36.667 -12 -64.667 -32.333 -84 -61
s-29 -62.667 -29 -102zM184.998 210.001c0 12 2.16504 24.333 6.49805 37s11.333 24.834 21 36.501s22.334 21.167 38.001 28.5s34.167 11 55.5 11s39.833 -3.66699 55.5 -11s28.334 -16.833 38.001 -28.5s16.667 -23.834 21 -36.501s6.5 -25 6.5 -37
c0 -34 -11.167 -60.667 -33.5 -80s-51.5 -29 -87.5 -29s-65.167 9.66699 -87.5 29s-33.5 46 -33.5 80zM198.996 511.001c0 28.667 10 51.167 30 67.5s45.667 24.5 77 24.5s57 -8.16699 77 -24.5s30 -38.833 30 -67.5c0 -30 -9.83301 -52.833 -29.5 -68.5
s-45.5 -23.5 -77.5 -23.5c-31.333 0 -57 7.83301 -77 23.5s-30 38.5 -30 68.5z" />
    <glyph glyph-name="nine" unicode="9" 
d="M427 288c0 -24 -2.66992 -47.501 -8.00293 -70.501s-13.666 -43.667 -24.999 -62s-26.166 -33 -44.499 -44s-39.833 -16.5 -64.5 -16.5c-18.667 0 -33.834 4 -45.501 12s-24.167 19.333 -37.5 34c-12.667 14 -23.5 24.167 -32.5 30.5s-20.5 9.5 -34.5 9.5
c-17.333 0 -32.166 -6.33301 -44.499 -19s-18.5 -28 -18.5 -46c0 -15.333 4.83301 -30.666 14.5 -45.999s23.5 -29.333 41.5 -42s39.333 -22.667 64 -30s51.334 -11 80.001 -11c48 0 90.333 7.16699 127 21.5s68 37.333 94 69s45.833 73.167 59.5 124.5
s20.5 113.333 20.5 186c0 42 -4.66699 82 -14 120s-24.5 72.333 -45.5 103s-49.5 55 -85.5 73s-79.333 27 -130 27c-76 0 -138.167 -21.5 -186.5 -64.5s-72.5 -104.167 -72.5 -183.5c0 -63.333 20.5 -116 61.5 -158s97.833 -63 170.5 -63c32.667 0 61.167 5.33301 85.5 16
s47.833 26.667 70.5 48v-18zM417.997 472.999c0 -38 -11 -68.001 -33 -90.001s-50 -33 -84 -33c-34.667 0 -62.667 10.333 -84 31s-32 51.334 -32 92.001c0 38.667 10.333 69 31 91s49 33 85 33s64.5 -11 85.5 -33s31.5 -52.333 31.5 -91z" />
    <glyph glyph-name="colon" unicode=":" horiz-adv-x="306" 
d="M71 441c0 -22.667 8 -42 24 -58s35.333 -24 58 -24s42 8 58 24s24 35.333 24 58s-8 42 -24 58s-35.333 24 -58 24s-42 -8 -58 -24s-24 -35.333 -24 -58zM71 75c0 -22.667 8 -42 24 -58s35.333 -24 58 -24s42 8 58 24s24 35.333 24 58s-8 42 -24 58s-35.333 24 -58 24
s-42 -8 -58 -24s-24 -35.333 -24 -58z" />
    <glyph glyph-name="semicolon" unicode=";" horiz-adv-x="306" 
d="M71 75c0 -20.667 6.50195 -38.668 19.502 -54.001s30.5 -23 52.5 -23c12 0 23.333 3 34 9c-1.33301 -26.667 -8 -46 -20 -58s-28.667 -22.667 -50 -32c-12.667 -5.33301 -21.834 -10.166 -27.501 -14.499s-8.5 -10.5 -8.5 -18.5c0 -8.66699 3 -15.834 9 -21.501
s14.333 -8.5 25 -8.5c14 0 30.167 4.83301 48.5 14.5s32.5 19.167 42.5 28.5c17.333 17.333 30.166 36 38.499 56s12.5 46 12.5 78c0 36.667 -8 66.834 -24 90.501s-39.333 35.5 -70 35.5c-22.667 0 -42 -8 -58 -24s-24 -35.333 -24 -58zM71.002 440.999
c0 -22.667 8 -42 24 -58s35.333 -24 58 -24s42 8 58 24s24 35.333 24 58s-8 42 -24 58s-35.333 24 -58 24s-42 -8 -58 -24s-24 -35.333 -24 -58z" />
    <glyph glyph-name="less" unicode="&#x3c;" horiz-adv-x="600" 
d="M530 424c19.333 8 32 16.998 38 26.998s9 22 9 36c0 16 -5.16699 29 -15.5 39s-23.5 15 -39.5 15c-8 0 -16.333 -1 -25 -3s-18.667 -5.66699 -30 -11l-407 -187c-10.667 -5.33301 -19.5 -13.166 -26.5 -23.499s-10.5 -21.5 -10.5 -33.5s3.5 -23.167 10.5 -33.5
s15.833 -18.166 26.5 -23.499l407 -187c11.333 -5.33301 21.333 -9 30 -11s17 -3 25 -3c16 0 29.167 5 39.5 15s15.5 23 15.5 39c0 14 -3 26 -9 36s-18.667 19 -38 27l-322 141z" />
    <glyph glyph-name="equal" unicode="=" horiz-adv-x="600" 
d="M87 461c-21.333 0 -38.333 -5.5 -51 -16.5s-19 -25.5 -19 -43.5c0 -16 6.66699 -30 20 -42s30 -18 50 -18h426c21.333 0 38.333 5.5 51 16.5s19 25.5 19 43.5s-6.33301 32.5 -19 43.5s-29.667 16.5 -51 16.5h-426zM87 225c-21.333 0 -38.333 -5.5 -51 -16.5
s-19 -25.5 -19 -43.5c0 -16 6.66699 -30 20 -42s30 -18 50 -18h426c21.333 0 38.333 5.5 51 16.5s19 25.5 19 43.5s-6.33301 32.5 -19 43.5s-29.667 16.5 -51 16.5h-426z" />
    <glyph glyph-name="greater" unicode="&#x3e;" horiz-adv-x="600" 
d="M70 142c-19.333 -8 -32 -16.998 -38 -26.998s-9 -22 -9 -36c0 -16 5.16699 -29 15.5 -39s23.5 -15 39.5 -15c8 0 16.333 1 25 3s18.667 5.66699 30 11l407 187c10.667 5.33301 19.5 13.166 26.5 23.499s10.5 21.5 10.5 33.5s-3.5 23.167 -10.5 33.5
s-15.833 18.166 -26.5 23.499l-407 187c-11.333 5.33301 -21.333 9 -30 11s-17 3 -25 3c-16 0 -29.167 -5 -39.5 -15s-15.5 -23 -15.5 -39c0 -14 3 -26 9 -36s18.667 -19 38 -27l322 -141z" />
    <glyph glyph-name="question" unicode="?" horiz-adv-x="574" 
d="M43 548c0 -19.333 6.16602 -34.333 18.499 -45s27.833 -16 46.5 -16c20 0 34.833 4.83301 44.5 14.5s19.167 24.5 28.5 44.5c10.667 24 22.834 42.167 36.501 54.5s35.5 18.5 65.5 18.5s53.5 -7.66699 70.5 -23s25.5 -36.333 25.5 -63
c0 -20.667 -6.66699 -38.834 -20 -54.501s-33.666 -33.834 -60.999 -54.501c-30.667 -24 -54 -45.5 -70 -64.5s-24 -42.5 -24 -70.5c0 -17.333 5.66699 -32.833 17 -46.5s27 -20.5 47 -20.5c21.333 0 36.166 4.16699 44.499 12.5s15.833 21.5 22.5 39.5
c5.33301 14.667 10.333 25.334 15 32.001c6 9.33301 24 24.333 54 45l48 37c13.333 10.667 26 23.167 38 37.5s21.833 30.5 29.5 48.5s11.5 37.667 11.5 59c0 34 -7 63.833 -21 89.5s-33 46.667 -57 63s-51 28.333 -81 36s-61.667 11.5 -95 11.5c-30 0 -59.167 -5 -87.5 -15
s-53.5 -23.667 -75.5 -41s-39.333 -37.166 -52 -59.499s-19 -45.5 -19 -69.5zM189.999 75c0 -22.667 8 -42 24 -58s35.333 -24 58 -24s42 8 58 24s24 35.333 24 58s-8 42 -24 58s-35.333 24 -58 24s-42 -8 -58 -24s-24 -35.333 -24 -58z" />
    <glyph glyph-name="at" unicode="@" horiz-adv-x="800" 
d="M312 336c0 30 9.5 55.833 28.5 77.5s42.833 32.5 71.5 32.5c24.667 0 43.667 -7.83301 57 -23.5s20 -36.5 20 -62.5c0 -32 -9 -58.833 -27 -80.5s-41.333 -32.5 -70 -32.5c-23.333 0 -42.5 7.83301 -57.5 23.5s-22.5 37.5 -22.5 65.5zM610 474
c2.66699 12.667 4.00293 22.334 4.00293 29.001c0 13.333 -4.16699 23.833 -12.5 31.5s-18.833 11.5 -31.5 11.5c-11.333 0 -21.333 -2.5 -30 -7.5s-14.667 -14.5 -18 -28.5l-4 -18c-15.333 22 -32.333 37.833 -51 47.5s-43 14.5 -73 14.5c-24.667 0 -48.5 -6 -71.5 -18
s-43.333 -28.833 -61 -50.5s-31.667 -47.167 -42 -76.5s-15.5 -60.666 -15.5 -93.999c0 -50 14 -91.833 42 -125.5s63 -50.5 105 -50.5c21.333 0 40.666 4.66699 57.999 14s32.666 21.666 45.999 36.999h2c1.33301 -34 21.333 -51 60 -51
c18.667 0 41.834 4.83301 69.501 14.5s55.667 25.5 84 47.5s52 52 71 90s28.5 83.333 28.5 136c0 46.667 -9.16699 89.167 -27.5 127.5s-43.666 71.166 -75.999 98.499s-69.833 48.166 -112.5 62.499s-88 21.5 -136 21.5c-52.667 0 -102.667 -9.5 -150 -28.5
s-88.833 -45.667 -124.5 -80s-63.5 -74.666 -83.5 -120.999s-30 -95.833 -30 -148.5c0 -54 10.167 -104 30.5 -150s48.666 -86 84.999 -120s78.5 -60.167 126.5 -78.5s98.667 -27.5 152 -27.5c24.667 0 51.834 3.5 81.501 10.5s57.5 16.333 83.5 28s47.167 24.5 63.5 38.5
s24.5 27.333 24.5 40c0 10.667 -3.83301 19.834 -11.5 27.501s-16.5 11.5 -26.5 11.5c-7.33301 0 -19.333 -5.33301 -36 -16c-23.333 -14.667 -47.833 -26.667 -73.5 -36s-60.834 -14 -105.501 -14c-40.667 0 -78.334 6.5 -113.001 19.5s-65 32 -91 57
s-46.167 55.333 -60.5 91s-21.5 75.167 -21.5 118.5c0 39.333 7.16699 76.5 21.5 111.5s34.166 65.833 59.499 92.5s54.833 47.334 88.5 62.001s69.5 22 107.5 22c79.333 0 143.333 -21.833 192 -65.5s73 -104.834 73 -183.501c0 -49.333 -9.33301 -87.333 -28 -114
s-38.667 -40 -60 -40c-12.667 0 -19 6.66699 -19 20c0 3.33301 0.5 8.16602 1.5 14.499s2.5 13.5 4.5 21.5z" />
    <glyph glyph-name="A" unicode="A" horiz-adv-x="667" 
d="M25 122c-4 -11.333 -7.66699 -22.832 -11 -34.499s-5 -21.167 -5 -28.5c0 -22 7 -39.5 21 -52.5s32.333 -19.5 55 -19.5c38.667 0 63 15 73 45l43 120h264l42 -120c11.333 -30 36 -45 74 -45c21.333 0 39.5 7 54.5 21s22.5 31 22.5 51c0 7.33301 -1.66699 16.833 -5 28.5
s-7 23.167 -11 34.5l-198 551c-8 23.333 -19.333 39.166 -34 47.499s-32.667 12.5 -54 12.5h-39c-20.667 0 -37.5 -3.83301 -50.5 -11.5s-22.833 -20.5 -29.5 -38.5zM429 266.001h-192l97 289h2z" />
    <glyph glyph-name="B" unicode="B" horiz-adv-x="722" 
d="M76 96c0 -34.667 8.16309 -59.3311 24.4961 -73.998s40.166 -22 71.499 -22h241c36.667 0 70.834 4.16699 102.501 12.5s59.834 21.166 84.501 38.499s43.834 39.5 57.501 66.5s20.5 58.833 20.5 95.5c0 48 -11 86.167 -33 114.5s-53 47.833 -93 58.5v2
c32.667 13.333 57.667 33 75 59s26 55 26 87c0 38 -7.66699 69.333 -23 94s-35.666 43.667 -60.999 57s-53 22.5 -83 27.5s-62 7.5 -96 7.5h-218c-31.333 0 -55.166 -7.33301 -71.499 -22s-24.5 -39.334 -24.5 -74.001v-528zM239.996 320.003l118.001 0.00195312
c22.667 0 43 -1.16699 61 -3.5s34.167 -6.83301 48.5 -13.5s25.666 -16.667 33.999 -30s12.5 -30.333 12.5 -51c0 -20 -3.83301 -36.333 -11.5 -49s-18 -22.334 -31 -29.001s-27.333 -11.334 -43 -14.001s-32.5 -4 -50.5 -4h-138v194zM239.997 600.005h130
c35.333 0 64 -6.66699 86 -20s33 -36 33 -68c0 -58.667 -38 -88 -114 -88h-135v176z" />
    <glyph glyph-name="C" unicode="C" horiz-adv-x="722" 
d="M53 360c0 -122.667 31.1621 -216.166 93.4951 -280.499s150.5 -96.5 264.5 -96.5c38.667 0 75.334 5.66699 110.001 17s65.167 27 91.5 47s46.833 42.5 61.5 67.5s22 50.167 22 75.5c0 19.333 -8 34.666 -24 45.999s-34.667 17 -56 17
c-15.333 0 -28.166 -4.5 -38.499 -13.5s-22.5 -23.167 -36.5 -42.5c-18.667 -26.667 -37 -47 -55 -61s-43 -21 -75 -21c-34 0 -63.5 6.33301 -88.5 19s-45.167 30.334 -60.5 53.001s-26.666 48.667 -33.999 78s-11 61 -11 95c0 75.333 18 135 54 179s80.667 66 134 66
c36.667 0 64.334 -6.5 83.001 -19.5s36.667 -31.833 54 -56.5c12.667 -18 24.5 -31.5 35.5 -40.5s25.833 -13.5 44.5 -13.5c49.333 0 74 24.667 74 74c0 18 -6.5 37.833 -19.5 59.5s-32.167 42.334 -57.5 62.001s-56.166 35.667 -92.499 48s-76.833 18.5 -121.5 18.5
c-56 0 -106.167 -9.83301 -150.5 -29.5s-81.5 -46.834 -111.5 -81.501s-52.5 -74.834 -67.5 -120.501s-22.5 -94.167 -22.5 -145.5z" />
    <glyph glyph-name="D" unicode="D" horiz-adv-x="759" 
d="M76 96c0 -34.667 8.16797 -59.332 24.501 -73.999s40.166 -22 71.499 -22h197c109.333 0 194.333 31.5 255 94.5s91 151.5 91 265.5c0 68 -9 125.5 -27 172.5s-42.833 84.167 -74.5 111.5s-67.834 46.833 -108.501 58.5s-85 17.5 -133 17.5h-200
c-31.333 0 -55.166 -7.33301 -71.499 -22s-24.5 -39.334 -24.5 -74.001v-528zM240.001 588.002l136.998 0.00195312c58.667 0 102.334 -19.833 131.001 -59.5s43 -95.834 43 -168.501c0 -29.333 -3 -57.5 -9 -84.5s-15.833 -51.333 -29.5 -73s-31.667 -38.834 -54 -51.501
s-49.166 -19 -80.499 -19h-138v456z" />
    <glyph glyph-name="E" unicode="E" horiz-adv-x="685" 
d="M80 96c0 -34.667 8.16699 -59.333 24.5 -74s40.166 -22 71.499 -22h393c26.667 0 47.167 5 61.5 15s21.5 27 21.5 51c0 24.667 -7.16699 41.834 -21.5 51.501s-34.833 14.5 -61.5 14.5h-325v174h278c24 0 42.833 4.66699 56.5 14s20.5 25.666 20.5 48.999
c0 24 -6.83301 40.5 -20.5 49.5s-32.5 13.5 -56.5 13.5h-278v156h317c26.667 0 47.167 5 61.5 15s21.5 27 21.5 51c0 24.667 -7.16699 41.834 -21.5 51.501s-34.833 14.5 -61.5 14.5h-385c-31.333 0 -55.166 -7.33301 -71.499 -22s-24.5 -39.334 -24.5 -74.001v-528z" />
    <glyph glyph-name="F" unicode="F" horiz-adv-x="630" 
d="M80 69c0 -24.667 7.49902 -44.499 22.499 -59.499s34.833 -22.5 59.5 -22.5c25.333 0 45.333 7.5 60 22.5s22 34.833 22 59.5v225h248c24 0 42.833 4.66699 56.5 14s20.5 25.666 20.5 48.999c0 24 -6.83301 40.5 -20.5 49.5s-32.5 13.5 -56.5 13.5h-248v168h293
c26.667 0 47.167 5 61.5 15s21.5 27 21.5 51c0 24.667 -7.16699 41.834 -21.5 51.501s-34.833 14.5 -61.5 14.5h-361c-31.333 0 -55.166 -7.33301 -71.499 -22s-24.5 -39.334 -24.5 -74.001v-555z" />
    <glyph glyph-name="G" unicode="G" horiz-adv-x="815" 
d="M744 313c0 23.333 -5.33691 40.666 -16.0039 51.999s-27.667 17 -51 17h-202c-42.667 0 -64 -21 -64 -63c0 -22.667 7.16699 -38.834 21.5 -48.501s31.833 -14.5 52.5 -14.5h107c-4 -43.333 -22.5 -78.666 -55.5 -105.999s-71.5 -41 -115.5 -41
c-65.333 0 -115.666 21.833 -150.999 65.5s-53 101.834 -53 174.501c0 86.667 18.5 151 55.5 193s85.833 63 146.5 63c22 0 41.167 -2 57.5 -6s29.833 -9.33301 40.5 -16s19.334 -13.667 26.001 -21s14 -16.666 22 -27.999c10.667 -14 20.334 -24.5 29.001 -31.5
s20.667 -10.5 36 -10.5c21.333 0 39.5 5.5 54.5 16.5s22.5 29.5 22.5 55.5c0 16.667 -6.16699 35 -18.5 55s-30.5 39 -54.5 57s-53.5 32.667 -88.5 44s-74.167 17 -117.5 17c-56 0 -107 -8.33301 -153 -25s-85.5 -41 -118.5 -73s-58.5 -71.5 -76.5 -118.5
s-27 -100.5 -27 -160.5c0 -52.667 6.66699 -101.5 20 -146.5s34 -84.833 62 -119.5s64.5 -61.834 109.5 -81.501s98.167 -29.5 159.5 -29.5c48.667 0 90.334 8.33301 125.001 25s64.334 40.667 89.001 72c5.33301 -34 12.666 -58 21.999 -72s25.333 -21 48 -21
c16 0 29.333 5.33301 40 16s16 23.667 16 39v271z" />
    <glyph glyph-name="H" unicode="H" horiz-adv-x="778" 
d="M76 69c0 -24.667 7.5 -44.5 22.5 -59.5s34.833 -22.5 59.5 -22.5c25.333 0 45.333 7.5 60 22.5s22 34.833 22 59.5v240h298v-240c0 -24.667 7.5 -44.5 22.5 -59.5s34.833 -22.5 59.5 -22.5c25.333 0 45.333 7.5 60 22.5s22 34.833 22 59.5v582
c0 24.667 -7.33301 44.5 -22 59.5s-34.667 22.5 -60 22.5c-24.667 0 -44.5 -7.5 -59.5 -22.5s-22.5 -34.833 -22.5 -59.5v-204h-298v204c0 24.667 -7.33301 44.5 -22 59.5s-34.667 22.5 -60 22.5c-24.667 0 -44.5 -7.5 -59.5 -22.5s-22.5 -34.833 -22.5 -59.5v-582z" />
    <glyph glyph-name="I" unicode="I" horiz-adv-x="316" 
d="M76 69c0 -24.667 7.5 -44.5 22.5 -59.5s34.833 -22.5 59.5 -22.5c25.333 0 45.333 7.5 60 22.5s22 34.833 22 59.5v582c0 24.667 -7.33301 44.5 -22 59.5s-34.667 22.5 -60 22.5c-24.667 0 -44.5 -7.5 -59.5 -22.5s-22.5 -34.833 -22.5 -59.5v-582z" />
    <glyph glyph-name="J" unicode="J" horiz-adv-x="574" 
d="M498 651c0 24.667 -7.33203 44.502 -21.999 59.502s-34.667 22.5 -60 22.5c-24.667 0 -44.5 -7.5 -59.5 -22.5s-22.5 -34.833 -22.5 -59.5v-424c0 -78.667 -28 -118 -84 -118c-27.333 0 -47.5 7.16699 -60.5 21.5s-19.5 34.166 -19.5 59.499c0 28 -5.5 50.833 -16.5 68.5
s-30.167 26.5 -57.5 26.5c-24.667 0 -43.834 -9 -57.501 -27s-20.5 -42.333 -20.5 -73c0 -20.667 3.33301 -42.334 10 -65.001s18.5 -44.5 35.5 -65.5s41.167 -38.167 72.5 -51.5s70 -20 116 -20c80 0 141 21.167 183 63.5s63 101.833 63 178.5v426z" />
    <glyph glyph-name="K" unicode="K" horiz-adv-x="685" 
d="M76 69c0 -24.667 7.5 -44.501 22.5 -59.501s34.833 -22.5 59.5 -22.5c25.333 0 45.333 7.5 60 22.5s22 34.833 22 59.5v163l90 90l189 -292c10.667 -16.667 21.167 -28 31.5 -34s24.166 -9 41.499 -9c23.333 0 43.166 6.16699 59.499 18.5s24.5 32.5 24.5 60.5
c0 12 -8.33301 30.667 -25 56l-6 9l-199 303l168 177c8.66699 8.66699 15.334 17.334 20.001 26.001s7 18.667 7 30c0 20 -7.83301 36 -23.5 48s-33.834 18 -54.501 18c-13.333 0 -24.666 -3 -33.999 -9s-19.666 -15 -30.999 -27l-258 -284v238
c0 24.667 -7.33301 44.5 -22 59.5s-34.667 22.5 -60 22.5c-24.667 0 -44.5 -7.5 -59.5 -22.5s-22.5 -34.833 -22.5 -59.5v-582z" />
    <glyph glyph-name="L" unicode="L" horiz-adv-x="611" 
d="M76 96c0 -34.667 8.16797 -59.333 24.501 -74s40.166 -22 71.499 -22h342c24.667 0 45 6 61 18s24 29 24 51s-8 39 -24 51s-36.333 18 -61 18h-274v513c0 24.667 -7.33301 44.5 -22 59.5s-34.667 22.5 -60 22.5c-24.667 0 -44.5 -7.5 -59.5 -22.5
s-22.5 -34.833 -22.5 -59.5v-555z" />
    <glyph glyph-name="M" unicode="M" horiz-adv-x="888" 
d="M73 67c0 -22.667 6.00195 -41.667 18.002 -57s30.333 -23 55 -23s43 7.66699 55 23s18 34.333 18 57v446h2l153 -478c10.667 -32 34 -48 70 -48c36.667 0 60 16 70 48l153 478h2v-446c0 -22.667 6 -41.667 18 -57s30.333 -23 55 -23s43 7.66699 55 23s18 34.333 18 57
v585c0 30 -8.33301 51 -25 63s-38 18 -64 18h-46c-25.333 0 -44.833 -5.66699 -58.5 -17s-24.834 -30.666 -33.501 -57.999l-141 -462h-2l-143 462c-8.66699 27.333 -19.834 46.666 -33.501 57.999s-33.167 17 -58.5 17h-48c-26 0 -47.333 -6 -64 -18s-25 -33 -25 -63v-585z
" />
    <glyph glyph-name="N" unicode="N" horiz-adv-x="778" 
d="M73 66c0 -52.667 26.332 -78.999 78.999 -78.999s79 26.333 79 79v415h2l285 -450c10.667 -17.333 22 -29 34 -35s30.667 -9 56 -9c34 0 58.667 8.66699 74 26s23 42.666 23 75.999v565c0 52.667 -26.333 79 -79 79s-79 -26.333 -79 -79v-427h-2l-287 463
c-17.333 28.667 -44.666 43 -81.999 43c-35.333 0 -61.333 -7.5 -78 -22.5s-25 -39.5 -25 -73.5v-571z" />
    <glyph glyph-name="O" unicode="O" horiz-adv-x="816" 
d="M44 369c0 -56 7 -107.333 21 -154s35.833 -87.334 65.5 -122.001s67.667 -61.667 114 -81s100.833 -29 163.5 -29c59.333 0 112 10.333 158 31s84.333 48.834 115 84.501s53.5 76.667 68.5 123s22.5 95.5 22.5 147.5c0 53.333 -8 102.333 -24 147s-39.5 83.667 -70.5 117
s-69.167 59 -114.5 77s-97 27 -155 27s-109.667 -9 -155 -27s-83.5 -43.667 -114.5 -77s-54.5 -72.333 -70.5 -117s-24 -93.667 -24 -147zM208 369c0 71.333 17 128.499 51 171.499s83.667 64.5 149 64.5s115 -21.5 149 -64.5s51 -100.167 51 -171.5
c0 -36 -3.5 -69.167 -10.5 -99.5s-18.5 -57.166 -34.5 -80.499s-36.833 -41.5 -62.5 -54.5s-56.5 -19.5 -92.5 -19.5c-37.333 0 -69 6.5 -95 19.5s-46.667 31 -62 54s-26.333 49.667 -33 80s-10 63.833 -10 100.5z" />
    <glyph glyph-name="P" unicode="P" horiz-adv-x="704" 
d="M76 69c0 -24.667 7.5 -44.498 22.5 -59.498s34.833 -22.5 59.5 -22.5c25.333 0 45.333 7.5 60 22.5s22 34.833 22 59.5v195h182c78 0 139.167 21.167 183.5 63.5s66.5 97.166 66.5 164.499c0 38.667 -6.33301 72.5 -19 101.5s-30.334 52.833 -53.001 71.5
s-49 32.5 -79 41.5s-62.667 13.5 -98 13.5h-251c-31.333 0 -55.166 -7.33301 -71.499 -22s-24.5 -39.334 -24.5 -74.001v-555zM240 594.002l136 0.00195312c42 0 74.5 -8.33301 97.5 -25s34.5 -42.334 34.5 -77.001c0 -30.667 -10.833 -55.334 -32.5 -74.001
s-49.167 -28 -82.5 -28h-153v204z" />
    <glyph glyph-name="Q" unicode="Q" horiz-adv-x="816" 
d="M44 369c0 -56 6.99902 -107.331 20.999 -153.998s35.833 -87.334 65.5 -122.001s67.667 -61.667 114 -81s100.833 -29 163.5 -29c66.667 0 125 13.333 175 40l63 -59c8.66699 -8 16 -13.5 22 -16.5s14.333 -4.5 25 -4.5c14 0 26.833 6.5 38.5 19.5s17.5 26.833 17.5 41.5
c0 11.333 -4.33301 20.666 -13 27.999l-63 59c32.667 34 57.334 75.167 74.001 123.5s25 99.833 25 154.5c0 53.333 -8 102.333 -24 147s-39.5 83.667 -70.5 117s-69.167 59 -114.5 77s-97 27 -155 27s-109.667 -9 -155 -27s-83.5 -43.667 -114.5 -77
s-54.5 -72.333 -70.5 -117s-24 -93.667 -24 -147zM207.999 369.002c0 71.333 17 128.499 51 171.499s83.667 64.5 149 64.5s115 -21.5 149 -64.5s51 -100.167 51 -171.5c0 -36 -3.5 -69 -10.5 -99s-17.833 -56 -32.5 -78l-57 52c-8.66699 8 -16 13.5 -22 16.5
s-14.333 4.5 -25 4.5c-14 0 -26.833 -6.5 -38.5 -19.5s-17.5 -26.833 -17.5 -41.5c0 -11.333 4.33301 -20.666 13 -27.999l56 -52c-18.667 -6 -40.667 -9 -66 -9c-37.333 0 -69 6.5 -95 19.5s-46.667 31 -62 54s-26.333 49.667 -33 80s-10 63.833 -10 100.5z" />
    <glyph glyph-name="R" unicode="R" horiz-adv-x="741" 
d="M76 69c0 -24.667 7.50098 -44.5 22.501 -59.5s34.833 -22.5 59.5 -22.5c25.333 0 45.333 7.5 60 22.5s22 34.833 22 59.5v211h162c44 0 73.833 -13.167 89.5 -39.5s23.5 -72.166 23.5 -137.499c0 -10.667 1 -22 3 -34s6.33301 -24.333 13 -37s16.667 -23.334 30 -32.001
s30.333 -13 51 -13c20 0 37.833 6.16699 53.5 18.5s23.5 27.5 23.5 45.5c0 9.33301 -2.33301 23.333 -7 42c-4.66699 16.667 -8.33398 32.834 -11.001 48.501s-4 34.834 -4 57.501c0 42 -6.83301 75.5 -20.5 100.5s-39.834 40.167 -78.501 45.5v2
c38 8.66699 68.167 29.5 90.5 62.5s33.5 69.833 33.5 110.5c0 25.333 -4 49.666 -12 72.999s-21.333 44.5 -40 63.5s-44.167 34.333 -76.5 46s-71.833 17.5 -118.5 17.5h-273c-31.333 0 -55.166 -7.33301 -71.499 -22s-24.5 -39.334 -24.5 -74.001v-555zM240.001 594h169
c39.333 0 69 -7 89 -21s30 -39.333 30 -76c0 -19.333 -3.33301 -35.5 -10 -48.5s-15.834 -23 -27.501 -30s-24.667 -11.833 -39 -14.5s-30.166 -4 -47.499 -4h-164v194z" />
    <glyph glyph-name="S" unicode="S" horiz-adv-x="685" 
d="M316 448c-34.667 8 -61.999 17.501 -81.999 28.501s-30 27.5 -30 49.5c0 25.333 10.333 45.833 31 61.5s49.667 23.5 87 23.5c39.333 0 69.166 -5.83301 89.499 -17.5s40.166 -28.167 59.499 -49.5c12 -14 22.5 -24.167 31.5 -30.5s20.5 -9.5 34.5 -9.5
c20.667 0 38.334 5.83301 53.001 17.5s22 27.5 22 47.5c0 23.333 -8.16699 45.333 -24.5 66s-38.333 38.667 -66 54s-58.167 27.166 -91.5 35.499s-65.666 12.5 -96.999 12.5c-36 0 -71 -4.16699 -105 -12.5s-64.667 -21.333 -92 -39s-49.166 -40.5 -65.499 -68.5
s-24.5 -61.333 -24.5 -100c0 -22 2.33301 -42.333 7 -61s13.334 -36.667 26.001 -54s30.834 -33 54.501 -47s53.167 -25.667 88.5 -35l185 -47c26 -6.66699 44.167 -16.667 54.5 -30s15.5 -28.333 15.5 -45c0 -26 -11.833 -48.333 -35.5 -67s-55.834 -28 -96.501 -28
c-22.667 0 -42.334 2.33301 -59.001 7s-30.834 10.667 -42.501 18s-21.334 15.166 -29.001 23.499s-16.167 18.833 -25.5 31.5c-13.333 17.333 -25.166 30 -35.499 38s-23.833 12 -40.5 12c-20 0 -36.5 -6.33301 -49.5 -19s-19.5 -29 -19.5 -49
c0 -20.667 6.16699 -41.5 18.5 -62.5s31 -40.667 56 -59s56.667 -33 95 -44s82.166 -16.5 131.499 -16.5c96 0 169.333 21 220 63s76 96.667 76 164c0 22.667 -3 44.334 -9 65.001s-16 40.167 -30 58.5s-33.333 34.833 -58 49.5s-55 26 -91 34z" />
    <glyph glyph-name="T" unicode="T" horiz-adv-x="668" 
d="M252 69c0 -24.667 7.5 -44.5 22.5 -59.5s34.833 -22.5 59.5 -22.5c25.333 0 45.333 7.5 60 22.5s22 34.833 22 59.5v513h155c24.667 0 45 6 61 18s24 29 24 51s-8 39 -24 51s-36.333 18 -61 18h-474c-24.667 0 -45 -6 -61 -18s-24 -29 -24 -51s8 -39 24 -51
s36.333 -18 61 -18h155v-513z" />
    <glyph glyph-name="U" unicode="U" horiz-adv-x="778" 
d="M76 270c0 -96 27.5 -167.833 82.5 -215.5s131.833 -71.5 230.5 -71.5s175.5 23.833 230.5 71.5s82.5 119.5 82.5 215.5v381c0 24.667 -7.33301 44.5 -22 59.5s-34.667 22.5 -60 22.5c-24.667 0 -44.5 -7.5 -59.5 -22.5s-22.5 -34.833 -22.5 -59.5v-394
c0 -48 -12.833 -83.667 -38.5 -107s-62.5 -35 -110.5 -35s-84.833 11.667 -110.5 35s-38.5 59 -38.5 107v394c0 24.667 -7.33301 44.5 -22 59.5s-34.667 22.5 -60 22.5c-24.667 0 -44.5 -7.5 -59.5 -22.5s-22.5 -34.833 -22.5 -59.5v-381z" />
    <glyph glyph-name="V" unicode="V" horiz-adv-x="648" 
d="M629 612c6.66699 18 10.001 33.999 10.001 47.999c0 25.333 -8 43.833 -24 55.5s-35.667 17.5 -59 17.5c-36.667 0 -62.334 -24 -77.001 -72l-154 -490h-2l-148 490c-7.33301 24.667 -17.5 42.834 -30.5 54.501s-30.5 17.5 -52.5 17.5c-23.333 0 -43 -5.83301 -59 -17.5
s-24 -30.167 -24 -55.5c0 -14 3.33301 -30 10 -48l202 -568c8 -22 19.833 -37 35.5 -45s37.167 -12 64.5 -12s48.833 4 64.5 12s27.5 23 35.5 45z" />
    <glyph glyph-name="W" unicode="W" horiz-adv-x="926" 
d="M909 612c5.33301 20 8 35.666 8 46.999c0 23.333 -8 41.5 -24 54.5s-34.333 19.5 -55 19.5c-40 0 -64.667 -22.333 -74 -67l-98 -478h-2l-109 467c-6 26.667 -15.167 46.334 -27.5 59.001s-34.166 19 -65.499 19c-28.667 0 -49 -4.83301 -61 -14.5
s-20.333 -25.167 -25 -46.5l-112 -484h-2l-97 478c-9.33301 44.667 -35 67 -77 67c-20.667 0 -39 -6.5 -55 -19.5s-24 -31.167 -24 -54.5c0 -11.333 2.66699 -27 8 -47l141 -547c7.33301 -28.667 18.333 -48.834 33 -60.501s36.667 -17.5 66 -17.5
c30 0 52.167 6.33301 66.5 19s24.833 33.334 31.5 62.001l107 439h2l107 -439c7.33301 -28.667 18 -49.334 32 -62.001s36 -19 66 -19s52.167 5.83301 66.5 17.5s25.166 31.834 32.499 60.501z" />
    <glyph glyph-name="X" unicode="X" horiz-adv-x="592" 
d="M33 120c-8.66699 -12.667 -14.499 -23.833 -17.499 -33.5s-4.5 -19.5 -4.5 -29.5c0 -20 7.16699 -36.667 21.5 -50s33.5 -20 57.5 -20c13.333 0 25.666 2.66699 36.999 8s20.333 13.333 27 24l142 227l132 -221c8.66699 -14.667 18.5 -24.667 29.5 -30s24.167 -8 39.5 -8
c24 0 44 7.16699 60 21.5s24 34.166 24 59.499c0 8 -1.66699 15.333 -5 22s-9 16.334 -17 29.001l-5 7l-163 245l167 244c4 6 7.5 13.167 10.5 21.5s4.5 15.833 4.5 22.5c0 24.667 -7.66699 43.167 -23 55.5s-34 18.5 -56 18.5c-16.667 0 -29.667 -3 -39 -9
s-18.666 -16.333 -27.999 -31l-127 -205l-119 205c-6.66699 11.333 -15.334 20.833 -26.001 28.5s-24.667 11.5 -42 11.5c-23.333 0 -42.833 -7.5 -58.5 -22.5s-23.5 -33.167 -23.5 -54.5c0 -16 5.66699 -32.667 17 -50l157 -235z" />
    <glyph glyph-name="Y" unicode="Y" 
d="M224 69c0 -24.667 7.49707 -44.501 22.4971 -59.501s34.833 -22.5 59.5 -22.5c25.333 0 45.333 7.5 60 22.5s22 34.833 22 59.5v212l201 334c9.33301 15.333 14 29.666 14 42.999c0 25.333 -8.66699 44.166 -26 56.499s-35.666 18.5 -54.999 18.5
c-17.333 0 -31.166 -3.5 -41.499 -10.5s-20.166 -19.5 -29.499 -37.5l-142 -263l-143 263c-8.66699 16.667 -18.5 28.834 -29.5 36.501s-25.833 11.5 -44.5 11.5c-20 0 -38.833 -6.16699 -56.5 -18.5s-26.5 -31.166 -26.5 -56.499c0 -13.333 4.66699 -27.666 14 -42.999
l201 -334v-212z" />
    <glyph glyph-name="Z" unicode="Z" horiz-adv-x="685" 
d="M57 144c-8.66699 -10 -15.333 -20.002 -20 -30.002s-7 -21 -7 -33c0 -29.333 8 -50.166 24 -62.499s39.667 -18.5 71 -18.5h445c24.667 0 45 6 61 18s24 29 24 51s-8 39 -24 51s-36.333 18 -61 18h-320l377 448c15.333 17.333 23 37 23 59
c0 26.667 -6.83301 45.834 -20.5 57.501s-32.167 17.5 -55.5 17.5h-432c-24.667 0 -45 -6 -61 -18s-24 -29 -24 -51s8 -39 24 -51s36.333 -18 61 -18h286z" />
    <glyph glyph-name="bracketleft" unicode="[" horiz-adv-x="352" 
d="M219 612l70 -0.00585938c18.667 0 33.5 4.33301 44.5 13s16.5 22.334 16.5 41.001s-5.5 32.334 -16.5 41.001s-25.833 13 -44.5 13h-121c-24 0 -43.5 -6.16699 -58.5 -18.5s-22.5 -34.166 -22.5 -65.499v-736c0 -31.333 7.5 -53.166 22.5 -65.499s34.5 -18.5 58.5 -18.5
h121c18.667 0 33.5 4.33301 44.5 13s16.5 22.334 16.5 41.001s-5.5 32.334 -16.5 41.001s-25.833 13 -44.5 13h-70v688z" />
    <glyph glyph-name="backslash" unicode="\" horiz-adv-x="370" 
d="M115 696c-4.66699 12 -10.667 21.8311 -18 29.498s-19.666 11.5 -36.999 11.5c-12.667 0 -24.5 -4.66699 -35.5 -14s-16.5 -21.666 -16.5 -36.999c0 -7.33301 2.66699 -18.333 8 -33l239 -629c4.66699 -12 10.667 -21.833 18 -29.5s19.666 -11.5 36.999 -11.5
c12.667 0 24.5 4.83301 35.5 14.5s16.5 21.834 16.5 36.501c0 7.33301 -2.66699 18.333 -8 33z" />
    <glyph glyph-name="bracketright" unicode="]" horiz-adv-x="352" 
d="M133 -76l-70 0.00585938c-18.667 0 -33.5 -4.33301 -44.5 -13s-16.5 -22.334 -16.5 -41.001s5.5 -32.334 16.5 -41.001s25.833 -13 44.5 -13h121c24 0 43.5 6.16699 58.5 18.5s22.5 34.166 22.5 65.499v736c0 31.333 -7.5 53.166 -22.5 65.499s-34.5 18.5 -58.5 18.5
h-121c-18.667 0 -33.5 -4.33301 -44.5 -13s-16.5 -22.334 -16.5 -41.001s5.5 -32.334 16.5 -41.001s25.833 -13 44.5 -13h70v-688z" />
    <glyph glyph-name="asciicircum" unicode="^" horiz-adv-x="600" 
d="M413 335c8.66699 -15.333 18.167 -25.833 28.5 -31.5s23.833 -8.5 40.5 -8.5c18.667 0 31.834 3.66699 39.501 11s11.5 15.666 11.5 24.999c0 12.667 -4.33301 27.334 -13 44.001l-154 280c-8.66699 16.667 -18.334 28 -29.001 34s-23 9 -37 9s-26.333 -3 -37 -9
s-20.334 -17.333 -29.001 -34l-154 -280c-8.66699 -16.667 -13 -31.334 -13 -44.001c0 -9.33301 3.83301 -17.666 11.5 -24.999s20.834 -11 39.501 -11c16.667 0 30.167 2.83301 40.5 8.5s19.833 16.167 28.5 31.5l113 207z" />
    <glyph glyph-name="underscore" unicode="_" horiz-adv-x="500" 
d="M500 -125c19.333 0 29 8.33301 29 25s-9.66699 25 -29 25h-500c-19.333 0 -29 -8.33301 -29 -25s9.66699 -25 29 -25h500z" />
    <glyph glyph-name="grave" unicode="`" horiz-adv-x="278" 
d="M121 727c-13.333 10.667 -25.165 18.999 -35.498 24.999s-20.833 9 -31.5 9c-18 0 -31.5 -6 -40.5 -18s-13.5 -24.333 -13.5 -37c0 -19.333 12.333 -37.333 37 -54l90 -61c11.333 -7.33301 20.166 -12.166 26.499 -14.499s12.833 -3.5 19.5 -3.5
c13.333 0 25.166 4.33301 35.499 13s15.5 20.667 15.5 36c0 9.33301 -2 17.5 -6 24.5s-11.667 14.833 -23 23.5z" />
    <glyph glyph-name="a" unicode="a" horiz-adv-x="611" 
d="M543 386c0 50.667 -21.168 88.3301 -63.501 112.997s-100.166 37 -173.499 37c-36 0 -68.5 -4 -97.5 -12s-53.5 -18.5 -73.5 -31.5s-35.167 -27.333 -45.5 -43s-15.5 -30.834 -15.5 -45.501c0 -15.333 5.83301 -28.5 17.5 -39.5s26.5 -16.5 44.5 -16.5
c10.667 0 20 2.5 28 7.5s17.333 12.833 28 23.5c16 15.333 32 27.333 48 36s37.667 13 65 13c26.667 0 48.667 -5 66 -15s26 -25 26 -45c0 -19.333 -5.33301 -32.5 -16 -39.5s-26.334 -11.833 -47.001 -14.5l-89 -10c-30 -3.33301 -57.167 -8.5 -81.5 -15.5
s-45.666 -16.667 -63.999 -29s-32.666 -28.666 -42.999 -48.999s-15.5 -45.166 -15.5 -74.499c0 -44 16.5 -79.833 49.5 -107.5s71.5 -41.5 115.5 -41.5c40.667 0 77.334 6.66699 110.001 20s62.667 35 90 65c1.33301 -25.333 8.66602 -45.833 21.999 -61.5
s34.666 -23.5 63.999 -23.5c18 0 33.5 5.33301 46.5 16s19.5 24 19.5 40c0 6 -1.66699 14.333 -5 25c-2.66699 10.667 -5 21.334 -7 32.001s-3 24.334 -3 41.001v245zM396.999 188.996c0 -28.667 -11.8311 -53.501 -35.498 -74.501s-54.834 -31.5 -93.501 -31.5
c-24.667 0 -44.334 5.83301 -59.001 17.5s-22 25.834 -22 42.501c0 21.333 7.66699 37.5 23 48.5s39 18.833 71 23.5l53 8h1c14 2.66699 26.167 5.66699 36.5 9s18.833 8 25.5 14v-57z" />
    <glyph glyph-name="b" unicode="b" horiz-adv-x="611" 
d="M58 56c0 -46 22.002 -68.998 66.002 -68.998s66 23 66 69v23h2c12 -30 31.5 -52.833 58.5 -68.5s58.833 -23.5 95.5 -23.5c31.333 0 60.666 5.66699 87.999 17s51.666 28.666 72.999 51.999s38 52.5 50 87.5s18 75.5 18 121.5c0 36 -4.66699 70.167 -14 102.5
s-23.333 61.166 -42 86.499s-42.167 45.333 -70.5 60s-61.166 22 -98.499 22c-32 0 -60.333 -6.33301 -85 -19s-44.334 -31 -59.001 -55h-2v198c0 23.333 -6.5 41.333 -19.5 54s-30.833 19 -53.5 19s-40.5 -6.33301 -53.5 -19s-19.5 -30.667 -19.5 -54v-604z
M429.002 260.002c0 -45.333 -10 -82.999 -30 -112.999s-48.667 -45.333 -86 -46c-40 0 -69.5 15 -88.5 45s-28.5 68 -28.5 114c0 20 2 39.5 6 58.5s10.5 36.333 19.5 52s21.167 28.167 36.5 37.5s33.666 14 54.999 14c22 0 40.667 -5 56 -15s27.333 -23 36 -39
s14.834 -33.333 18.501 -52s5.5 -37.334 5.5 -56.001z" />
    <glyph glyph-name="c" unicode="c" horiz-adv-x="537" 
d="M30 251c0 -80 22.5 -144.001 67.5 -192.001s110.833 -72 197.5 -72c35.333 0 67.166 4.66699 95.499 14s51.833 21.666 70.5 36.999s32.667 31.833 42 49.5s14 34.834 14 51.501c0 15.333 -5.66699 28.5 -17 39.5s-26 16.5 -44 16.5c-16 0 -28.5 -3.5 -37.5 -10.5
s-18.5 -17.5 -28.5 -31.5c-11.333 -16.667 -23.333 -29.5 -36 -38.5s-31 -13.5 -55 -13.5c-39.333 0 -69.666 13.5 -90.999 40.5s-32 63.5 -32 109.5c0 32 3.66699 59 11 81s17 39.667 29 53s25.167 22.833 39.5 28.5s29.166 8.5 44.499 8.5
c26 0 45.167 -4.16699 57.5 -12.5s24.166 -20.833 35.499 -37.5c8.66699 -12 16.667 -21 24 -27s18 -9 32 -9c19.333 0 35.5 5.5 48.5 16.5s19.5 26.5 19.5 46.5c0 16.667 -5.33301 33.334 -16 50.001s-25.667 31.5 -45 44.5s-42.166 23.333 -68.499 31
s-54.166 11.5 -83.499 11.5c-87.333 0 -154.833 -26 -202.5 -78s-71.5 -121 -71.5 -207z" />
    <glyph glyph-name="d" unicode="d" horiz-adv-x="611" 
d="M553 660c0 23.333 -6.49707 41.3311 -19.4971 53.998s-30.833 19 -53.5 19s-40.5 -6.33301 -53.5 -19s-19.5 -30.667 -19.5 -54v-198h-2c-14.667 24 -34.334 42.333 -59.001 55s-53 19 -85 19c-37.333 0 -70.166 -7.33301 -98.499 -22s-51.833 -34.667 -70.5 -60
s-32.667 -54.166 -42 -86.499s-14 -66.5 -14 -102.5c0 -46 6 -86.5 18 -121.5s28.667 -64.167 50 -87.5s45.666 -40.666 72.999 -51.999s56.666 -17 87.999 -17c36.667 0 68.667 7.83301 96 23.5s46.666 38.5 57.999 68.5h2v-23c0 -46 22 -69 66 -69s66 23 66 69v604z
M182.003 259.998c0 18.667 1.83301 37.333 5.5 56s9.83398 36 18.501 52s20.667 29 36 39s34 15 56 15c21.333 0 39.666 -4.66699 54.999 -14s27.5 -21.833 36.5 -37.5s15.5 -33 19.5 -52s6 -38.5 6 -58.5c0 -46 -9.5 -84 -28.5 -114s-48.5 -45 -88.5 -45
c-37.333 0.666992 -66 16 -86 46s-30 67.667 -30 113z" />
    <glyph glyph-name="e" unicode="e" 
d="M512 234c24.667 0 41.499 4.33008 50.499 12.9971s13.5 25.334 13.5 50.001c0 30.667 -5.83301 60.167 -17.5 88.5s-29 54 -52 77s-51 41 -84 54s-69.833 19.5 -110.5 19.5c-85.333 0 -152.666 -25.833 -201.999 -77.5s-74 -120.5 -74 -206.5
c0 -33.333 5.33301 -65.666 16 -96.999s27.334 -59.666 50.001 -84.999s52 -45.5 88 -60.5s78.333 -22.5 127 -22.5c23.333 0 48.166 2.66699 74.499 8s51.333 13.5 75 24.5s42.834 24.667 57.501 41s22 34.833 22 55.5c0 14 -5.83301 27 -17.5 39s-25.834 18 -42.501 18
c-11.333 0 -21 -2.33301 -29 -7s-17 -11.667 -27 -21c-16 -14 -31.833 -24.833 -47.5 -32.5s-37.5 -11.5 -65.5 -11.5c-42 0 -75 12.333 -99 37s-36 56.667 -36 96h330zM181.999 317.997c8 36.667 23.333 65.167 46 85.5s51.667 30.5 87 30.5c32 0 59.5 -10.833 82.5 -32.5
s36.5 -49.5 40.5 -83.5h-256z" />
    <glyph glyph-name="f" unicode="f" horiz-adv-x="370" 
d="M104 60c0 -23.333 6.50098 -41.333 19.501 -54s30.833 -19 53.5 -19s40.5 6.33301 53.5 19s19.5 30.667 19.5 54v367h45c44 0 66 16 66 48s-22 48 -66 48h-45v63c0 22.667 10.667 34 32 34c4 0 9.33301 -0.333008 16 -1c6.66699 -1.33301 12 -2 16 -2
c12.667 0 23.667 5 33 15s14 21.667 14 35c0 23.333 -8.83301 40.833 -26.5 52.5s-40.834 17.5 -69.501 17.5c-45.333 0 -83.5 -12.5 -114.5 -37.5s-46.5 -59.5 -46.5 -103.5v-73h-33c-38.667 0 -58 -16 -58 -48s19.333 -48 58 -48h33v-367z" />
    <glyph glyph-name="g" unicode="g" horiz-adv-x="611" 
d="M182 263c0 49.333 9.49902 88.166 28.499 116.499s50.5 42.5 94.5 42.5c34.667 0 61.334 -12.5 80.001 -37.5s28 -63.5 28 -115.5c0 -49.333 -10.5 -86.166 -31.5 -110.499s-48.833 -36.5 -83.5 -36.5c-38.667 0 -67.667 14 -87 42s-29 61 -29 99zM552.999 467
c0 46 -21.9971 69.002 -65.9971 69.002s-66 -23 -66 -69v-18h-2c-13.333 27.333 -33.5 48.666 -60.5 63.999s-58.167 23 -93.5 23c-31.333 0 -60.833 -5.66699 -88.5 -17s-51.834 -28.333 -72.501 -51c-45.333 -50 -68 -120 -68 -210c0 -74 20.167 -133.167 60.5 -177.5
s98.166 -66.5 173.499 -66.5c28 0 55.167 6.83301 81.5 20.5s46.166 30.167 59.499 49.5h2v-30c0 -57.333 -9.66699 -98.333 -29 -123s-51.333 -37 -96 -37c-19.333 0 -35.333 3.5 -48 10.5s-26.667 17.5 -42 31.5c-12.667 11.333 -23.5 19.666 -32.5 24.999
s-19.833 8 -32.5 8c-16 0 -30 -6 -42 -18s-18 -26.667 -18 -44s6.16699 -33.5 18.5 -48.5s28.833 -27.833 49.5 -38.5s44.167 -19 70.5 -25s53.5 -9 81.5 -9c79.333 0 142.5 21.667 189.5 65s70.5 107.333 70.5 192v424z" />
    <glyph glyph-name="h" unicode="h" horiz-adv-x="611" 
d="M58 60c0 -22 5.50098 -39.667 16.501 -53s29.833 -20 56.5 -20s45.5 6.66699 56.5 20s16.5 31 16.5 53v241c0 34.667 11.5 62.5 34.5 83.5s48.5 31.5 76.5 31.5c30.667 0 53.667 -9.16699 69 -27.5s23 -42.833 23 -73.5v-255c0 -22 5.5 -39.667 16.5 -53
s29.833 -20 56.5 -20s45.5 6.66699 56.5 20s16.5 31 16.5 53v284c0 35.333 -5.16699 65.5 -15.5 90.5s-24.333 45 -42 60s-37.334 25.667 -59.001 32s-44.167 9.5 -67.5 9.5c-38 0 -70.333 -7.16699 -97 -21.5s-48.667 -32.833 -66 -55.5h-2v201
c0 23.333 -6.5 41.333 -19.5 54s-30.833 19 -53.5 19s-40.5 -6.33301 -53.5 -19s-19.5 -30.667 -19.5 -54v-600z" />
    <glyph glyph-name="i" unicode="i" horiz-adv-x="278" 
d="M66 60c0 -22 5.5 -39.667 16.5 -53s29.833 -20 56.5 -20s45.5 6.66699 56.5 20s16.5 31 16.5 53v403c0 22 -5.5 39.667 -16.5 53s-29.833 20 -56.5 20s-45.5 -6.66699 -56.5 -20s-16.5 -31 -16.5 -53v-403zM63 661c0 -21.333 7.33301 -39.333 22 -54s32.667 -22 54 -22
s39.333 7.33301 54 22s22 32.667 22 54s-7.33301 39.333 -22 54s-32.667 22 -54 22s-39.333 -7.33301 -54 -22s-22 -32.667 -22 -54z" />
    <glyph glyph-name="j" unicode="j" horiz-adv-x="278" 
d="M66 -67c0 -17.333 -7 -26 -21 -26h-16c-30.667 0 -46 -17 -46 -51c0 -42 26.667 -63 80 -63s91.5 12.333 114.5 37s34.5 64 34.5 118v515c0 22 -5.5 39.667 -16.5 53s-29.833 20 -56.5 20s-45.5 -6.66699 -56.5 -20s-16.5 -31 -16.5 -53v-530zM63 661
c0 -21.333 7.33301 -39.333 22 -54s32.667 -22 54 -22s39.333 7.33301 54 22s22 32.667 22 54s-7.33301 39.333 -22 54s-32.667 22 -54 22s-39.333 -7.33301 -54 -22s-22 -32.667 -22 -54z" />
    <glyph glyph-name="k" unicode="k" horiz-adv-x="537" 
d="M58 60c0 -23.333 6.49902 -41.334 19.499 -54.001s30.833 -19 53.5 -19s40.5 6.33301 53.5 19s19.5 30.667 19.5 54v111l51 45l138 -195c6.66699 -10 15.334 -18.167 26.001 -24.5s24 -9.5 40 -9.5c19.333 0 35.666 7.16699 48.999 21.5s20 30.833 20 49.5
c0 10.667 -1.5 19.834 -4.5 27.501s-6.5 14.167 -10.5 19.5l-152 204l108 113l2 2c7.33301 8 12.5 14.833 15.5 20.5s4.5 14.167 4.5 25.5c0 18 -7.16699 33.5 -21.5 46.5s-30.166 19.5 -47.499 19.5c-20 0 -38.667 -9.33301 -56 -28l-162 -180v332
c0 23.333 -6.5 41.333 -19.5 54s-30.833 19 -53.5 19s-40.5 -6.33301 -53.5 -19s-19.5 -30.667 -19.5 -54v-600z" />
    <glyph glyph-name="l" unicode="l" horiz-adv-x="278" 
d="M66 60c0 -23.333 6.5 -41.333 19.5 -54s30.833 -19 53.5 -19s40.5 6.33301 53.5 19s19.5 30.667 19.5 54v600c0 23.333 -6.5 41.333 -19.5 54s-30.833 19 -53.5 19s-40.5 -6.33301 -53.5 -19s-19.5 -30.667 -19.5 -54v-600z" />
    <glyph glyph-name="m" unicode="m" horiz-adv-x="926" 
d="M58 60c0 -22 5.49609 -39.667 16.4961 -53s29.833 -20 56.5 -20s45.5 6.66699 56.5 20s16.5 31 16.5 53v243c0 33.333 10.5 60.5 31.5 81.5s45.833 31.5 74.5 31.5c27.333 0 47.5 -8.66699 60.5 -26s19.5 -40 19.5 -68v-262c0 -22 5.5 -39.667 16.5 -53
s29.833 -20 56.5 -20s45.5 6.66699 56.5 20s16.5 31 16.5 53v243c0 33.333 10.5 60.5 31.5 81.5s45.833 31.5 74.5 31.5c27.333 0 47.5 -8.66699 60.5 -26s19.5 -40 19.5 -68v-262c0 -22 5.5 -39.667 16.5 -53s29.833 -20 56.5 -20s45.5 6.66699 56.5 20s16.5 31 16.5 53
v299c0 62 -16.667 107 -50 135s-77.333 42 -132 42c-38 0 -70.833 -7.83301 -98.5 -23.5s-52.167 -38.5 -73.5 -68.5c-12.667 32 -32 55.333 -58 70s-53.333 22 -82 22c-37.333 0 -71.166 -8 -101.499 -24s-55.166 -38.667 -74.499 -68h-2v19c0 22 -6.16699 39.667 -18.5 53
s-29.166 20 -50.499 20s-38.166 -6.66699 -50.499 -20s-18.5 -31 -18.5 -53v-403z" />
    <glyph glyph-name="n" unicode="n" horiz-adv-x="611" 
d="M58 60c0 -22 5.50098 -39.667 16.501 -53s29.833 -20 56.5 -20s45.5 6.66699 56.5 20s16.5 31 16.5 53v241c0 34.667 11.5 62.5 34.5 83.5s48.5 31.5 76.5 31.5c30.667 0 53.667 -9.16699 69 -27.5s23 -42.833 23 -73.5v-255c0 -22 5.5 -39.667 16.5 -53
s29.833 -20 56.5 -20s45.5 6.66699 56.5 20s16.5 31 16.5 53v284c0 35.333 -5.16699 65.5 -15.5 90.5s-24.333 45 -42 60s-37.334 25.667 -59.001 32s-44.167 9.5 -67.5 9.5c-38.667 0 -72.167 -8 -100.5 -24s-53.833 -38.667 -76.5 -68h-2v19
c0 22.667 -5.5 40.5 -16.5 53.5s-27.5 19.5 -49.5 19.5s-38.5 -6.5 -49.5 -19.5s-16.5 -30.833 -16.5 -53.5v-403z" />
    <glyph glyph-name="o" unicode="o" 
d="M182 262c0 50 10.5 90.167 31.5 120.5s51.833 45.5 92.5 45.5s71.5 -15.167 92.5 -45.5s31.5 -70.5 31.5 -120.5c0 -48 -10.333 -87.833 -31 -119.5s-51.667 -47.5 -93 -47.5s-72.333 15.833 -93 47.5s-31 71.5 -31 119.5zM36 262c0 -38 5.00195 -73.501 15.002 -106.501
s25.667 -62.167 47 -87.5s49.333 -45.166 84 -59.499s76 -21.5 124 -21.5s89.5 7.33301 124.5 22s63 34.5 84 59.5s36.5 54 46.5 87s15 68.5 15 106.5c0 39.333 -5.83301 75.5 -17.5 108.5s-28.834 61.833 -51.501 86.5c-48.667 52.667 -115.667 79 -201 79
s-152.333 -26.333 -201 -79c-22.667 -24.667 -39.834 -53.5 -51.501 -86.5s-17.5 -69.167 -17.5 -108.5z" />
    <glyph glyph-name="p" unicode="p" horiz-adv-x="611" 
d="M58 -134c0 -23.333 6.49902 -41.3311 19.499 -53.998s30.833 -19 53.5 -19s40.5 6.33301 53.5 19s19.5 30.667 19.5 54v195h2c13.333 -24 32.333 -42.333 57 -55s53.667 -19 87 -19c37.333 0 70.166 7.33301 98.499 22s51.833 34.667 70.5 60s32.667 54.166 42 86.499
s14 66.5 14 102.5c0 46 -6 86.5 -18 121.5s-28.667 64.167 -50 87.5s-45.666 40.666 -72.999 51.999s-56.666 17 -87.999 17c-36.667 0 -68.5 -7.83301 -95.5 -23.5s-46.5 -38.5 -58.5 -68.5h-2v23c0 46 -22 69 -66 69s-66 -23 -66 -69v-601zM428.999 263.002
c0 -18.667 -1.83203 -37.333 -5.49902 -56s-9.83398 -36 -18.501 -52s-20.667 -29 -36 -39s-34 -15 -56 -15c-21.333 0 -39.5 4.66699 -54.5 14s-27.167 21.833 -36.5 37.5s-16 33 -20 52s-6 38.5 -6 58.5c0 46 9.5 84 28.5 114s48.5 45 88.5 45
c37.333 -0.666992 66 -16 86 -46s30 -67.667 30 -113z" />
    <glyph glyph-name="q" unicode="q" horiz-adv-x="611" 
d="M553 467c0 46 -22.002 68.998 -66.002 68.998s-66 -23 -66 -69v-23h-2c-11.333 30 -30.666 52.833 -57.999 68.5s-59.333 23.5 -96 23.5c-31.333 0 -60.666 -5.66699 -87.999 -17s-51.666 -28.666 -72.999 -51.999s-38 -52.5 -50 -87.5s-18 -75.5 -18 -121.5
c0 -36 4.66699 -70.167 14 -102.5s23.333 -61.166 42 -86.499s42.167 -45.333 70.5 -60s61.166 -22 98.499 -22c33.333 0 62.333 6.33301 87 19s43.667 31 57 55h2v-195c0 -23.333 6.5 -41.333 19.5 -54s30.833 -19 53.5 -19s40.5 6.33301 53.5 19s19.5 30.667 19.5 54v601z
M181.998 262.998c0 45.333 10 82.999 30 112.999s48.667 45.333 86 46c40 0 69.5 -15 88.5 -45s28.5 -68 28.5 -114c0 -20 -2 -39.5 -6 -58.5s-10.5 -36.333 -19.5 -52s-21.167 -28.167 -36.5 -37.5s-33.666 -14 -54.999 -14c-22 0 -40.667 5 -56 15s-27.333 23 -36 39
s-14.834 33.333 -18.501 52s-5.5 37.334 -5.5 56.001z" />
    <glyph glyph-name="r" unicode="r" horiz-adv-x="407" 
d="M66 60c0 -22 5.49707 -39.668 16.4971 -53.001s29.833 -20 56.5 -20s45.5 6.66699 56.5 20s16.5 31 16.5 53v170c0 58.667 7.5 100.334 22.5 125.001s37.833 37 68.5 37h26c20.667 0 37.834 5.83301 51.501 17.5s20.5 30.167 20.5 55.5c0 20.667 -7.5 37.667 -22.5 51
s-34.167 20 -57.5 20c-32.667 0 -58.5 -11.667 -77.5 -35s-33.5 -53 -43.5 -89h-2v56c0 21.333 -6.16699 38 -18.5 50s-28.166 18 -47.499 18s-35.166 -6 -47.499 -18s-18.5 -28.667 -18.5 -50v-408z" />
    <glyph glyph-name="s" unicode="s" horiz-adv-x="537" 
d="M35 373c0 -45.333 13.002 -79.3301 39.002 -101.997s63.333 -40 112 -52l86 -21l8 -2c28 -6.66699 47.667 -13.334 59 -20.001s17 -18 17 -34c0 -15.333 -7.83301 -28 -23.5 -38s-36.167 -15 -61.5 -15c-27.333 0 -49 4.66699 -65 14s-32.333 22.666 -49 39.999
c-12.667 12.667 -23.334 21.834 -32.001 27.501s-19 8.5 -31 8.5c-19.333 0 -34 -5.83301 -44 -17.5s-15 -26.167 -15 -43.5c0 -18 6.33301 -34.833 19 -50.5s30.167 -29.667 52.5 -42s48.166 -21.833 77.499 -28.5s60.333 -10 93 -10c28 0 55.5 3.5 82.5 10.5
s51.167 17.833 72.5 32.5s38.333 33 51 55s19 47.333 19 76c0 24 -5.33301 45 -16 63s-24.667 33 -42 45s-36 21.5 -56 28.5s-42.667 13.5 -68 19.5l-61 14c-27.333 6 -47.166 12.333 -59.499 19s-18.5 17.667 -18.5 33s7.33301 26.666 22 33.999s35.334 11 62.001 11
c22.667 0 40.667 -3.33301 54 -10s27 -16.334 41 -29.001c11.333 -10 20.666 -17.167 27.999 -21.5s16.666 -6.5 27.999 -6.5c18.667 0 33.5 6.16699 44.5 18.5s16.5 27.5 16.5 45.5c0 16 -6.16699 31 -18.5 45s-29.166 25.833 -50.499 35.5s-45.333 17.167 -72 22.5
s-54 8 -82 8c-26.667 0 -52.834 -3 -78.501 -9s-49.167 -15.5 -70.5 -28.5s-38.333 -30 -51 -51s-19 -45.833 -19 -74.5z" />
    <glyph glyph-name="t" unicode="t" horiz-adv-x="370" 
d="M96 117c0 -43.333 12 -75.833 36 -97.5s62 -32.5 114 -32.5c70.667 0 106 21.667 106 65c0 32.667 -17 49 -51 49h-21c-25.333 0 -38 11.333 -38 34v292h44c44 0 66 16 66 48s-22 48 -66 48h-44v89c0 23.333 -6.5 41.333 -19.5 54s-30.833 19 -53.5 19
s-40.5 -6.33301 -53.5 -19s-19.5 -30.667 -19.5 -54v-89h-25c-38.667 0 -58 -16 -58 -48s19.333 -48 58 -48h25v-310z" />
    <glyph glyph-name="u" unicode="u" horiz-adv-x="611" 
d="M553 463c0 22 -5.50195 39.667 -16.502 53s-29.833 20 -56.5 20s-45.5 -6.66699 -56.5 -20s-16.5 -31 -16.5 -53v-241c0 -34.667 -11.5 -62.5 -34.5 -83.5s-48.5 -31.5 -76.5 -31.5c-30.667 0 -53.667 9.16699 -69 27.5s-23 42.833 -23 73.5v255
c0 22 -5.5 39.667 -16.5 53s-29.833 20 -56.5 20s-45.5 -6.66699 -56.5 -20s-16.5 -31 -16.5 -53v-284c0 -35.333 5.16699 -65.5 15.5 -90.5s24.333 -45 42 -60s37.334 -25.667 59.001 -32s44.167 -9.5 67.5 -9.5c38.667 0 72.334 8 101.001 24s54 38.667 76 68h2v-19
c0 -22.667 5.5 -40.5 16.5 -53.5s27.5 -19.5 49.5 -19.5s38.5 6.5 49.5 19.5s16.5 30.833 16.5 53.5v403z" />
    <glyph glyph-name="v" unicode="v" horiz-adv-x="500" 
d="M154 39c7.33301 -21.333 16.498 -35.333 27.498 -42s33.833 -10 68.5 -10s57.5 3.33301 68.5 10s20.167 20.667 27.5 42l138 384c2.66699 7.33301 4.83398 14.333 6.50098 21s2.5 12 2.5 16c0 24.667 -7 43.5 -21 56.5s-30.667 19.5 -50 19.5
c-12.667 0 -23.5 -2.33301 -32.5 -7s-16.333 -10.334 -22 -17.001s-9.83398 -13.167 -12.501 -19.5s-4.66699 -12.166 -6 -17.499l-98 -330h-2l-98 330c-1.33301 5.33301 -3.33301 11.333 -6 18s-6.66699 13.167 -12 19.5s-12.666 11.833 -21.999 16.5s-20.333 7 -33 7
c-19.333 0 -36 -6.5 -50 -19.5s-21 -31.833 -21 -56.5c0 -4 0.833008 -9.33301 2.5 -16s3.83398 -13.667 6.50098 -21z" />
    <glyph glyph-name="w" unicode="w" horiz-adv-x="778" 
d="M130 66c10.667 -34 21.835 -55.667 33.502 -65s32.167 -14 61.5 -14c30 0 50.667 5.16699 62 15.5s21 30.5 29 60.5l72 287h2l72 -287c8 -30 17.667 -50.167 29 -60.5s32 -15.5 62 -15.5c29.333 0 50 4.66699 62 14s23 31 33 65l107 348c6.66699 21.333 10 39.333 10 54
c0 18.667 -7.16699 34.667 -21.5 48s-30.833 20 -49.5 20c-24.667 0 -41.5 -5.5 -50.5 -16.5s-16.167 -29.167 -21.5 -54.5l-72 -320h-2l-63 291c-7.33301 34.667 -17.333 60 -30 76s-34.667 24 -66 24c-30.667 0 -51.834 -8 -63.501 -24s-21.167 -41.333 -28.5 -76
l-62 -291h-2l-77 320c-6 25.333 -13.333 43.5 -22 54.5s-25.334 16.5 -50.001 16.5c-18.667 0 -35.167 -6.66699 -49.5 -20s-21.5 -29.333 -21.5 -48c0 -14.667 3.33301 -32.667 10 -54z" />
    <glyph glyph-name="x" unicode="x" horiz-adv-x="481" 
d="M240 169l84.001 -134.002c10.667 -16 21 -28 31 -36s22 -12 36 -12c22.667 0 40.667 6.66699 54 20s20 29.333 20 48c0 16.667 -4.66699 31.334 -14 44.001l-113 168l106 157c10 14.667 15 31 15 49c0 16.667 -6.66699 31.334 -20 44.001s-28.666 19 -45.999 19
c-13.333 0 -25.333 -2.83301 -36 -8.5s-21 -17.167 -31 -34.5l-79 -129l-82 135c-14.667 24.667 -34.334 37 -59.001 37s-43.834 -7.66699 -57.501 -23s-20.5 -32 -20.5 -50c0 -11.333 5 -24 15 -38l105 -158l-112 -165c-13.333 -19.333 -20 -35 -20 -47
c0 -19.333 7.33301 -35.5 22 -48.5s31 -19.5 49 -19.5c12.667 0 24 2.83301 34 8.5s17.667 12.5 23 20.5z" />
    <glyph glyph-name="y" unicode="y" horiz-adv-x="500" 
d="M158 481c-4.66699 17.333 -13.499 30.834 -26.499 40.501s-29.167 14.5 -48.5 14.5s-36 -6.66699 -50 -20s-21 -30 -21 -50c0 -7.33301 1.16699 -15 3.5 -23s6.16602 -20.333 11.499 -37c0.666992 -2 1.66699 -4.66699 3 -8l152 -433
c-4.66699 -20 -11.167 -32.667 -19.5 -38s-18.833 -8 -31.5 -8h-15c-20 0 -36.167 -5.16699 -48.5 -15.5s-18.5 -24.833 -18.5 -43.5c0 -19.333 7.66699 -35.333 23 -48s38.333 -19 69 -19c44 0 78.167 12 102.5 36s45.833 62.667 64.5 116l169 479
c7.33301 20 11 35.333 11 46c0 5.33301 -1.33301 11.666 -4 18.999s-6.83398 14.5 -12.501 21.5s-13.5 13 -23.5 18s-21.667 7.5 -35 7.5c-18.667 0 -33.667 -5.83301 -45 -17.5s-19.666 -27.5 -24.999 -47.5l-89 -331h-2z" />
    <glyph glyph-name="z" unicode="z" horiz-adv-x="556" 
d="M49 110c-12.667 -13.333 -19.001 -31.001 -19.001 -53.001c0 -15.333 5.83301 -28.666 17.5 -39.999s27.5 -17 47.5 -17h372c15.333 0 29 4.66699 41 14s18 23.666 18 42.999s-6 33.666 -18 42.999s-25.667 14 -41 14h-240l270 296c15.333 16.667 23 33 23 49
c0 19.333 -5.16699 34.833 -15.5 46.5s-25.166 17.5 -44.499 17.5h-347c-15.333 0 -29 -4.66699 -41 -14s-18 -23.666 -18 -42.999s6 -33.666 18 -42.999s25.667 -14 41 -14h211z" />
    <glyph glyph-name="braceleft" unicode="{" horiz-adv-x="352" 
d="M233 570c0 20 4.16504 34.999 12.498 44.999s19.833 15 34.5 15h25c13.333 0 24.166 3.83301 32.499 11.5s12.5 18.834 12.5 33.501c0 14 -4.16699 25 -12.5 33s-19.166 12 -32.499 12h-74c-86.667 0 -130 -44.333 -130 -133v-204c0 -27.333 -4.5 -45.333 -13.5 -54
s-21.5 -13 -37.5 -13c-15.333 0 -27.166 -4.66699 -35.499 -14s-12.5 -20.666 -12.5 -33.999s4.16699 -24.666 12.5 -33.999s20.166 -14 35.499 -14c16 0 28.5 -4.33301 37.5 -13s13.5 -26.667 13.5 -54v-204c0 -88.667 43.333 -133 130 -133h74
c13.333 0 24.166 4 32.499 12s12.5 19 12.5 33c0 14.667 -4.16699 25.834 -12.5 33.501s-19.166 11.5 -32.499 11.5h-25c-14.667 0 -26.167 5 -34.5 15s-12.5 25 -12.5 45v200c0 21.333 -3.5 38.666 -10.5 51.999s-16 23.5 -27 30.5s-21.667 11.5 -32 13.5
s-22.166 3.66699 -35.499 5v2c12.667 1.33301 24.334 3.16602 35.001 5.49902s21.5 6.83301 32.5 13.5s20 16.667 27 30s10.5 30.666 10.5 51.999v200z" />
    <glyph glyph-name="bar" unicode="|" horiz-adv-x="222" 
d="M51 48c0 -18.667 5.16699 -34.167 15.5 -46.5s25.166 -18.5 44.499 -18.5s34.166 6.16699 44.499 18.5s15.5 27.833 15.5 46.5v624c0 18.667 -5.16699 34.167 -15.5 46.5s-25.166 18.5 -44.499 18.5s-34.166 -6.16699 -44.499 -18.5s-15.5 -27.833 -15.5 -46.5v-624z" />
    <glyph glyph-name="braceright" unicode="}" horiz-adv-x="352" 
d="M119 -34c0 -20 -4.16504 -34.999 -12.498 -44.999s-19.833 -15 -34.5 -15h-25c-13.333 0 -24.166 -3.83301 -32.499 -11.5s-12.5 -18.834 -12.5 -33.501c0 -14 4.16699 -25 12.5 -33s19.166 -12 32.499 -12h74c86.667 0 130 44.333 130 133v204
c0 27.333 4.5 45.333 13.5 54s21.5 13 37.5 13c15.333 0 27.166 4.66699 35.499 14s12.5 20.666 12.5 33.999s-4.16699 24.666 -12.5 33.999s-20.166 14 -35.499 14c-16 0 -28.5 4.33301 -37.5 13s-13.5 26.667 -13.5 54v204c0 88.667 -43.333 133 -130 133h-74
c-13.333 0 -24.166 -4 -32.499 -12s-12.5 -19 -12.5 -33c0 -14.667 4.16699 -25.834 12.5 -33.501s19.166 -11.5 32.499 -11.5h25c14.667 0 26.167 -5 34.5 -15s12.5 -25 12.5 -45v-200c0 -21.333 3.5 -38.666 10.5 -51.999s16 -23.333 27 -30s21.667 -11.167 32 -13.5
s22.166 -4.16602 35.499 -5.49902v-2c-12.667 -0.666992 -24.334 -2.16699 -35.001 -4.5s-21.5 -7 -32.5 -14s-20 -17.167 -27 -30.5s-10.5 -30.666 -10.5 -51.999v-200z" />
    <glyph glyph-name="asciitilde" unicode="~" horiz-adv-x="600" 
d="M559 321c0 13.333 -3.49805 24.6631 -10.498 33.9961s-17.833 14 -32.5 14c-8.66699 0 -16.5 -2.16699 -23.5 -6.5s-14.833 -11.166 -23.5 -20.499c-11.333 -10.667 -21.5 -18.834 -30.5 -24.501s-20.167 -8.5 -33.5 -8.5c-10 0 -21.167 2.16699 -33.5 6.5
s-29.166 11.5 -50.499 21.5c-30 13.333 -55.333 23.333 -76 30s-41.667 10 -63 10c-20.667 0 -39.667 -3.83301 -57 -11.5s-32.333 -18 -45 -31s-22.334 -27.333 -29.001 -43s-10 -31.167 -10 -46.5c0 -13.333 3.5 -24.666 10.5 -33.999s17.833 -14 32.5 -14
c8.66699 0 16.5 2.33301 23.5 7s15.167 11.334 24.5 20.001c10.667 10.667 20.5 18.834 29.5 24.501s20.167 8.5 33.5 8.5c10 0 21.167 -2.16699 33.5 -6.5s29.833 -11.5 52.5 -21.5c27.333 -12.667 51.166 -22.5 71.499 -29.5s40.166 -10.5 59.499 -10.5
c22 0 42.167 4 60.5 12s34 18.333 47 31s22.833 26.834 29.5 42.501s10 31.167 10 46.5z" />
    <glyph glyph-name="exclamdown" unicode="&#xa1;" horiz-adv-x="316" 
d="M79 -130c0 -51.333 26.333 -77 79 -77s79 25.667 79 77v116c0 10 -1.33301 25.667 -4 47l-31 234c-2 14 -6.5 23.667 -13.5 29s-17.167 8 -30.5 8s-23.5 -2.66699 -30.5 -8s-11.5 -15 -13.5 -29l-31 -234c-2.66699 -21.333 -4 -37 -4 -47v-116zM240 451
c0 22.667 -8 42 -24 58s-35.333 24 -58 24s-42 -8 -58 -24s-24 -35.333 -24 -58s8 -42 24 -58s35.333 -24 58 -24s42 8 58 24s24 35.333 24 58z" />
    <glyph glyph-name="cent" unicode="&#xa2;" 
d="M302 106c-28.667 6.66699 -50.667 22.832 -66 48.499s-23 57.834 -23 96.501c0 49.333 8.33301 87.333 25 114s38 43.667 64 51v-310zM302 -81.002c0 -8.66699 3 -16.499 9 -23.499s13 -10.5 21 -10.5c8.66699 0 15.834 3.5 21.501 10.5s8.5 14.833 8.5 23.5v70
c60 5.33301 107 23.333 141 54s51 62.667 51 96c0 15.333 -5.66699 28.5 -17 39.5s-26 16.5 -44 16.5c-16 0 -28.333 -3.5 -37 -10.5s-18 -17.167 -28 -30.5c-10 -14 -19.5 -25 -28.5 -33s-21.5 -13.667 -37.5 -17v315c17.333 -2.66699 30.666 -7.83398 39.999 -15.501
s18.666 -18.167 27.999 -31.5c8.66699 -12.667 16.834 -21.834 24.501 -27.501s18.167 -8.5 31.5 -8.5c19.333 0 35.5 5.5 48.5 16.5s19.5 26.5 19.5 46.5c0 16 -4.66699 31.667 -14 47s-22.666 29.333 -39.999 42s-37.833 23.167 -61.5 31.5s-49.167 13.5 -76.5 15.5v64
c0 8.66699 -2.83301 16.5 -8.5 23.5s-12.834 10.5 -21.501 10.5c-8 0 -15 -3.5 -21 -10.5s-9 -14.833 -9 -23.5v-66c-75.333 -7.33301 -133.333 -36.333 -174 -87s-61 -115.667 -61 -195c0 -74.667 19.833 -135.667 59.5 -183s98.167 -73.666 175.5 -78.999v-70z" />
    <glyph glyph-name="sterling" unicode="&#xa3;" 
d="M261 393c-10 19.333 -17.9971 36.668 -23.9971 52.001s-9 30.666 -9 45.999c0 30.667 11.333 55 34 73s49.667 27 81 27c33.333 0 56.833 -6 70.5 -18s25.834 -29.667 36.501 -53c7.33301 -17.333 15.166 -30.166 23.499 -38.499s21.166 -12.5 38.499 -12.5
c22.667 0 40.834 6.16699 54.501 18.5s20.5 29.5 20.5 51.5c0 20 -5.5 40.167 -16.5 60.5s-27.5 39 -49.5 56s-49.5 30.5 -82.5 40.5s-70.167 15 -111.5 15c-34.667 0 -67.334 -5.16699 -98.001 -15.5s-57.5 -25 -80.5 -44s-40.833 -41.333 -53.5 -67
s-19 -53.834 -19 -84.501c0 -42.667 10 -78.334 30 -107.001h-21c-31.333 0 -47 -16 -47 -48s18 -48 54 -48h53c7.33301 -18 11 -34.667 11 -50c0 -24 -5.16699 -44.333 -15.5 -61s-25.166 -35.334 -44.499 -56.001c-15.333 -15.333 -26.5 -28.166 -33.5 -38.499
s-10.5 -22.166 -10.5 -35.499c0 -20 5.66699 -36.5 17 -49.5s27 -19.5 47 -19.5c10 0 22.667 4.33301 38 13c7.33301 4 11.333 6 12 6c10 6 21.333 10.667 34 14s28 5 46 5c31.333 0 74.666 -7 129.999 -21c45.333 -11.333 78.666 -17 99.999 -17
c31.333 0 58.333 7.16699 81 21.5s34 35.5 34 63.5c0 18.667 -5.16699 34 -15.5 46s-24.5 18 -42.5 18c-5.33301 0 -17.333 -1.66699 -36 -5c-19.333 -4 -32 -6 -38 -6c-16 0 -38 3 -66 9c-16.667 3.33301 -31.334 6 -44.001 8s-26.667 3 -42 3
c-17.333 0 -32.5 -1.83301 -45.5 -5.5s-28.5 -9.5 -46.5 -17.5c-9.33301 -4 -15.666 -6.66699 -18.999 -8l-2 2c29.333 22 53.666 46.833 72.999 74.5s29 55.167 29 82.5c0 7.33301 -1.66699 15.333 -5 24h79c41.333 0 62 16 62 48s-20.667 48 -62 48h-109z" />
    <glyph glyph-name="currency" unicode="&#xa4;" 
d="M67 182c-10.667 -10 -16 -21.667 -16 -35s5.33301 -25.5 16 -36.5s22.667 -16.5 36 -16.5c16.667 0 30.667 5.66699 42 17l24 24c42 -27.333 87.667 -41 137 -41s95 13.667 137 41l24 -24c11.333 -11.333 25.333 -17 42 -17c14 0 26.167 5.5 36.5 16.5
s15.5 23.167 15.5 36.5s-5 25 -15 35l-27 26c28 43.333 42 90.333 42 141s-14 97.667 -42 141l27 26c10 10 15 21.667 15 35s-5.16699 25.5 -15.5 36.5s-22.5 16.5 -36.5 16.5c-16.667 0 -30.667 -5.66699 -42 -17l-23 -24c-42 27.333 -88 41 -138 41
c-48.667 0 -94.667 -13.667 -138 -41l-23 24c-11.333 11.333 -25.333 17 -42 17c-13.333 0 -25.333 -5.5 -36 -16.5s-16 -23.167 -16 -36.5s5 -25.333 15 -36l27 -25c-28 -43.333 -42 -90.333 -42 -141c0 -51.333 14.333 -98.333 43 -141zM171 349
c0 39.333 13.167 72.666 39.5 99.999s58.166 41 95.499 41s69.166 -13.667 95.499 -41s39.5 -60.666 39.5 -99.999s-13.167 -72.666 -39.5 -99.999s-58.166 -41 -95.499 -41s-69.166 13.667 -95.499 41s-39.5 60.666 -39.5 99.999z" />
    <glyph glyph-name="yen" unicode="&#xa5;" 
d="M227 67c0 -24 7 -43.333 21 -58s33.333 -22 58 -22s44 7.33301 58 22s21 34 21 58v99h124c11.333 0 20.666 3.66699 27.999 11s11 16.666 11 27.999s-3.66699 20.666 -11 27.999s-16.666 11 -27.999 11h-124v29l17 29h107c11.333 0 20.666 3.66699 27.999 11
s11 16.666 11 27.999s-3.66699 20.666 -11 27.999s-16.666 11 -27.999 11h-61l132 217c9.33301 16 14 29.667 14 41c0 24.667 -9 43 -27 55s-37.667 18 -59 18c-18 0 -32.333 -4.83301 -43 -14.5s-19 -20.5 -25 -32.5l-134 -255l-134 255c-6 12 -14.333 22.833 -25 32.5
s-25 14.5 -43 14.5c-21.333 0 -41 -6 -59 -18s-27 -30.333 -27 -55c0 -11.333 4.66699 -25 14 -41l132 -217h-61c-11.333 0 -20.666 -3.66699 -27.999 -11s-11 -16.666 -11 -27.999s3.66699 -20.666 11 -27.999s16.666 -11 27.999 -11h107l17 -29v-29h-124
c-11.333 0 -20.666 -3.66699 -27.999 -11s-11 -16.666 -11 -27.999s3.66699 -20.666 11 -27.999s16.666 -11 27.999 -11h124v-99z" />
    <glyph glyph-name="brokenbar" unicode="&#xa6;" horiz-adv-x="222" 
d="M51 45c0 -18 5.16699 -32.833 15.5 -44.5s25.166 -17.5 44.499 -17.5s34.166 5.83301 44.499 17.5s15.5 26.5 15.5 44.5v189c0 18 -5.16699 32.833 -15.5 44.5s-25.166 17.5 -44.499 17.5s-34.166 -5.83301 -44.499 -17.5s-15.5 -26.5 -15.5 -44.5v-189zM51 486
c0 -18 5.16699 -32.833 15.5 -44.5s25.166 -17.5 44.499 -17.5s34.166 5.83301 44.499 17.5s15.5 26.5 15.5 44.5v189c0 18 -5.16699 32.833 -15.5 44.5s-25.166 17.5 -44.499 17.5s-34.166 -5.83301 -44.499 -17.5s-15.5 -26.5 -15.5 -44.5v-189z" />
    <glyph glyph-name="section" unicode="&#xa7;" horiz-adv-x="611" 
d="M320 485l-10.001 5.00586c-26 12 -46.167 24.167 -60.5 36.5s-21.5 28.833 -21.5 49.5c0 16.667 7 31.667 21 45s33.667 20 59 20c26 0 45.167 -5.33301 57.5 -16s23.5 -26 33.5 -46c8 -15.333 15.833 -26.833 23.5 -34.5s18.5 -11.5 32.5 -11.5
c16 0 29.333 5.83301 40 17.5s16 25.5 16 41.5c0 15.333 -4.5 31.5 -13.5 48.5s-22.167 32.833 -39.5 47.5s-38.5 26.5 -63.5 35.5s-52.833 13.5 -83.5 13.5c-59.333 0 -109 -15.833 -149 -47.5s-60 -76.834 -60 -135.501c0 -20.667 5.5 -40.667 16.5 -60
s25.833 -35 44.5 -47c-35.333 -19.333 -62 -40.833 -80 -64.5s-27 -54.167 -27 -91.5c0 -25.333 4.83301 -47.833 14.5 -67.5s22.834 -36.834 39.501 -51.501s34.167 -27.334 52.5 -38.001s42.5 -23.334 72.5 -38.001l17 -9l28 -14c40 -20 68.167 -36.333 84.5 -49
s24.5 -28.667 24.5 -48c0 -22 -8.5 -38.333 -25.5 -49s-36.167 -16 -57.5 -16c-26 0 -45.5 5.33301 -58.5 16s-25.833 26 -38.5 46c-9.33301 15.333 -18 26.666 -26 33.999s-18.667 11 -32 11c-16.667 0 -30.334 -5.5 -41.001 -16.5s-16 -24.5 -16 -40.5
c0 -14.667 4.16699 -30.334 12.5 -47.001s21.333 -32.5 39 -47.5s40.334 -27.333 68.001 -37s60.167 -14.5 97.5 -14.5c56 0 104 15.5 144 46.5s60 73.833 60 128.5c0 24 -5.33301 46.333 -16 67s-25.667 36.667 -45 48c32 14 56.833 34.167 74.5 60.5s26.5 57.5 26.5 93.5
c0 40.667 -12 74.667 -36 102s-62 54 -114 80zM208.999 248.006c-11.333 6.66699 -20.666 16.332 -27.999 28.999s-11 25 -11 37c0 18.667 5.16699 33.667 15.5 45s24.5 23 42.5 35c1.33301 0.666992 2.33301 1.33398 3 2.00098l147 -78c23.333 -12 39.666 -24 48.999 -36
s14 -26.667 14 -44c0 -21.333 -6.33301 -39.333 -19 -54s-27 -24 -43 -28z" />
    <glyph glyph-name="dieresis" unicode="&#xa8;" horiz-adv-x="278" 
d="M-36 662c0 -20 7.16699 -37.167 21.5 -51.5s31.5 -21.5 51.5 -21.5s37.167 7.16699 51.5 21.5s21.5 31.5 21.5 51.5s-7.16699 37.167 -21.5 51.5s-31.5 21.5 -51.5 21.5s-37.167 -7.16699 -51.5 -21.5s-21.5 -31.5 -21.5 -51.5zM168 662
c0 -20 7.16699 -37.167 21.5 -51.5s31.5 -21.5 51.5 -21.5s37.167 7.16699 51.5 21.5s21.5 31.5 21.5 51.5s-7.16699 37.167 -21.5 51.5s-31.5 21.5 -51.5 21.5s-37.167 -7.16699 -51.5 -21.5s-21.5 -31.5 -21.5 -51.5z" />
    <glyph glyph-name="copyright" unicode="&#xa9;" horiz-adv-x="800" 
d="M23 360c0 -58 10.1641 -110.5 30.4971 -157.5s48.166 -86.833 83.499 -119.5s75.666 -57.5 120.999 -74.5s92.666 -25.5 141.999 -25.5s96.5 8.5 141.5 25.5s85.333 41.833 121 74.5s63.667 72.5 84 119.5s30.5 99.5 30.5 157.5s-10.167 110.5 -30.5 157.5
s-48.166 86.833 -83.499 119.5s-75.666 57.5 -120.999 74.5s-92.666 25.5 -141.999 25.5s-96.666 -8.5 -141.999 -25.5s-85.666 -41.833 -120.999 -74.5s-63.166 -72.5 -83.499 -119.5s-30.5 -99.5 -30.5 -157.5zM136.997 360c0 42 6.66699 80.499 20 115.499
s32 65.5 56 91.5s52.167 45.833 84.5 59.5s66.5 20.5 102.5 20.5s70 -7 102 -21s60.167 -33.833 84.5 -59.5s43.166 -56.167 56.499 -91.5s20 -73.666 20 -114.999s-6.66699 -79.666 -20 -114.999s-32.166 -65.833 -56.499 -91.5s-52.5 -45.5 -84.5 -59.5s-66 -21 -102 -21
s-70.167 7 -102.5 21s-60.5 33.667 -84.5 59s-42.667 55.666 -56 90.999s-20 74 -20 116zM213.997 362.999c0 -30.667 4.83691 -59.167 14.5039 -85.5s23.334 -49.333 41.001 -69s39 -35 64 -46s52.167 -16.5 81.5 -16.5c25.333 0 48.5 4.66699 69.5 14s39 21.166 54 35.499
s26.333 28.833 34 43.5s11.5 27.334 11.5 38.001c0 13.333 -3.83301 24 -11.5 32s-17.834 12 -30.501 12s-22.334 -3 -29.001 -9s-14 -15.333 -22 -28c-9.33301 -16 -19.166 -28 -29.499 -36s-25.833 -12 -46.5 -12c-28 0 -50.5 12 -67.5 36s-25.5 55 -25.5 93
c0 38.667 8.33301 69.334 25 92.001s38.667 34 66 34c23.333 0 40 -4 50 -12s19 -19.667 27 -35c6 -12 12.167 -20.833 18.5 -26.5s16.166 -8.5 29.499 -8.5c9.33301 0 18.666 4.16699 27.999 12.5s14 20.833 14 37.5c0 14 -3.83301 28 -11.5 42
s-18.834 27.167 -33.501 39.5s-32.334 22.166 -53.001 29.499s-43.667 11 -69 11c-60 0 -108.167 -20.5 -144.5 -61.5s-54.5 -93.167 -54.5 -156.5z" />
    <glyph glyph-name="ordfeminine" unicode="&#xaa;" horiz-adv-x="397" 
d="M355 621c0 30 -14.002 52.498 -42.002 67.498s-66 22.5 -114 22.5c-46 0 -83 -8.33301 -111 -25s-42 -35 -42 -55c0 -9.33301 3.83301 -17.166 11.5 -23.499s17.834 -9.5 30.501 -9.5c8 0 14.667 1.5 20 4.5s11.666 7.83301 18.999 14.5
c10.667 9.33301 20.834 16.333 30.501 21s23.167 7 40.5 7c16 0 29.167 -2.83301 39.5 -8.5s15.5 -14.5 15.5 -26.5c0 -11.333 -2.83301 -19 -8.5 -23s-14.834 -7 -27.501 -9l-58 -7c-42.667 -5.33301 -75.5 -15.166 -98.5 -29.499s-34.5 -37.833 -34.5 -70.5
c0 -26.667 10.833 -48.334 32.5 -65.001s46.834 -25 75.501 -25c26.667 0 50.5 4 71.5 12s40.5 21 58.5 39c0.666992 -15.333 5.33398 -27.666 14.001 -36.999s22.667 -14 42 -14c12 0 22.5 3.16699 31.5 9.5s13.5 14.5 13.5 24.5c0 4 -1 9 -3 15
c-2.66699 8 -4.5 14.833 -5.5 20.5s-1.5 13.5 -1.5 23.5v147zM252.998 505.998c0 -16.667 -7 -30.667 -21 -42s-33.333 -17 -58 -17c-30.667 0 -46 10.667 -46 32c0 20 18.333 33 55 39l34 5c7.33301 1.33301 14 3 20 5s11.333 5 16 9v-31z" />
    <glyph glyph-name="guillemotleft" unicode="&#xab;" horiz-adv-x="593" 
d="M257 332c21.333 14 32.001 31.335 32.001 52.002c0 14 -4.5 26.167 -13.5 36.5s-20.167 15.5 -33.5 15.5c-7.33301 0 -13.5 -1.16699 -18.5 -3.5s-10.833 -5.83301 -17.5 -10.5c-1.33301 -0.666992 -2.33301 -1.33398 -3 -2.00098l-98 -71
c-22.667 -16 -34 -40.333 -34 -73s11.333 -57 34 -73l98 -71c0.666992 -0.666992 1.66699 -1.33398 3 -2.00098c6 -4.66699 11.667 -8.16699 17 -10.5s11.666 -3.5 18.999 -3.5c13.333 0 24.5 5.16699 33.5 15.5s13.5 22.5 13.5 36.5c0 20.667 -10.667 38 -32 52l-82 56z
M490.001 332.002c21.333 14 32.001 31.335 32.001 52.002c0 14 -4.5 26.167 -13.5 36.5s-20.167 15.5 -33.5 15.5c-7.33301 0 -13.5 -1.16699 -18.5 -3.5s-10.833 -5.83301 -17.5 -10.5c-1.33301 -0.666992 -2.33301 -1.33398 -3 -2.00098l-98 -71
c-22.667 -16 -34 -40.333 -34 -73s11.333 -57 34 -73l98 -71c0.666992 -0.666992 1.66699 -1.33398 3 -2.00098c6 -4.66699 11.667 -8.16699 17 -10.5s11.666 -3.5 18.999 -3.5c13.333 0 24.5 5.16699 33.5 15.5s13.5 22.5 13.5 36.5c0 20.667 -10.667 38 -32 52l-82 56z
" />
    <glyph glyph-name="logicalnot" unicode="&#xac;" horiz-adv-x="600" 
d="M463 184c0 -20.667 5.49902 -37.5 16.499 -50.5s25.5 -19.5 43.5 -19.5c18.667 0 33.334 6.5 44.001 19.5s16 29.833 16 50.5v203c0 26.667 -5.83301 45.667 -17.5 57s-32.5 17 -62.5 17h-416c-21.333 0 -38.333 -5.5 -51 -16.5s-19 -25.5 -19 -43.5
c0 -16 6.66699 -30 20 -42s30 -18 50 -18h376v-157z" />
    <glyph glyph-name="minus" unicode="&#xad;" horiz-adv-x="600" 
d="M87 343c-21.333 0 -38.333 -5.5 -51 -16.5s-19 -25.5 -19 -43.5c0 -16 6.66699 -30 20 -42s30 -18 50 -18h426c21.333 0 38.333 5.5 51 16.5s19 25.5 19 43.5s-6.33301 32.5 -19 43.5s-29.667 16.5 -51 16.5h-426z" />
    <glyph glyph-name="minus" unicode="&#x2212;" horiz-adv-x="600" 
d="M87 343c-21.333 0 -38.333 -5.5 -51 -16.5s-19 -25.5 -19 -43.5c0 -16 6.66699 -30 20 -42s30 -18 50 -18h426c21.333 0 38.333 5.5 51 16.5s19 25.5 19 43.5s-6.33301 32.5 -19 43.5s-29.667 16.5 -51 16.5h-426z" />
    <glyph glyph-name="registered" unicode="&#xae;" horiz-adv-x="800" 
d="M23 360c0 -58 10.167 -110.5 30.5 -157.5s48.166 -86.833 83.499 -119.5s75.666 -57.5 120.999 -74.5s92.666 -25.5 141.999 -25.5s96.5 8.5 141.5 25.5s85.333 41.833 121 74.5s63.667 72.5 84 119.5s30.5 99.5 30.5 157.5s-10.167 110.5 -30.5 157.5
s-48.166 86.833 -83.499 119.5s-75.666 57.5 -120.999 74.5s-92.666 25.5 -141.999 25.5s-96.5 -8.5 -141.5 -25.5s-85.333 -41.833 -121 -74.5s-63.667 -72.5 -84 -119.5s-30.5 -99.5 -30.5 -157.5zM137 360c0 42 6.66699 80.499 20 115.499s32 65.5 56 91.5
s52.167 45.833 84.5 59.5s66.5 20.5 102.5 20.5s70 -7 102 -21s60.167 -33.833 84.5 -59.5s43.166 -56.167 56.499 -91.5s20 -73.666 20 -114.999s-6.66699 -79.666 -20 -114.999s-32.166 -65.833 -56.499 -91.5s-52.5 -45.5 -84.5 -59.5s-66 -21 -102 -21
s-70.167 7 -102.5 21s-60.5 33.667 -84.5 59s-42.667 55.666 -56 90.999s-20 74 -20 116zM251 209.999c0 -14.667 4.33496 -26 13.002 -34s19.334 -12 32.001 -12c13.333 0 24.166 4 32.499 12s12.5 19.333 12.5 34v117h26l92 -131c14.667 -21.333 32 -32 52 -32
c12 0 22.167 3.66699 30.5 11s12.5 15.333 12.5 24c0 14.667 -4.33301 28 -13 40l-66 88c25.333 1.33301 47.166 12 65.499 32s27.5 47.333 27.5 82c0 44.667 -12.167 76 -36.5 94s-60.5 27 -108.5 27h-127c-12.667 0 -23.334 -4 -32.001 -12s-13 -19 -13 -33v-307z
M341.002 489.999l77 -0.000976562c16.667 0 29.834 -3.16699 39.501 -9.5s14.5 -18.166 14.5 -35.499s-4.83301 -29.333 -14.5 -36s-22.834 -10 -39.501 -10h-77v91z" />
    <glyph glyph-name="macron" unicode="&#xaf;" horiz-adv-x="278" 
d="M6 707c-15.333 0 -27.5 -4 -36.5 -12s-13.5 -19 -13.5 -33s4.5 -25 13.5 -33s21.167 -12 36.5 -12h266c15.333 0 27.5 4 36.5 12s13.5 19 13.5 33s-4.5 25 -13.5 33s-21.167 12 -36.5 12h-266z" />
    <glyph glyph-name="degree" unicode="&#xb0;" horiz-adv-x="400" 
d="M129 568c0 19.333 7 36 21 50s30.667 21 50 21s36 -7 50 -21s21 -30.667 21 -50s-7 -36 -21 -50s-30.667 -21 -50 -21s-36 7 -50 21s-21 30.667 -21 50zM57 568c0 -40 13.833 -73.833 41.5 -101.5s61.5 -41.5 101.5 -41.5s73.833 13.833 101.5 41.5s41.5 61.5 41.5 101.5
s-13.833 73.833 -41.5 101.5s-61.5 41.5 -101.5 41.5s-73.833 -13.833 -101.5 -41.5s-41.5 -61.5 -41.5 -101.5z" />
    <glyph glyph-name="plusminus" unicode="&#xb1;" horiz-adv-x="600" 
d="M240 424h-153c-21.333 0 -38.333 -5.5 -51 -16.5s-19 -25.5 -19 -43.5c0 -16 6.66699 -30 20 -42s30 -18 50 -18h153v-72c0 -20.667 5.5 -37.5 16.5 -50.5s25.5 -19.5 43.5 -19.5c18.667 0 33.334 6.5 44.001 19.5s16 29.833 16 50.5v72h153c20 0 36.667 6 50 18
s20 26 20 42c0 18 -6.33301 32.5 -19 43.5s-29.667 16.5 -51 16.5h-153v72c0 20.667 -5.33301 37.5 -16 50.5s-25.334 19.5 -44.001 19.5c-18 0 -32.5 -6.5 -43.5 -19.5s-16.5 -29.833 -16.5 -50.5v-72zM87 120c-21.333 0 -38.333 -5.5 -51 -16.5s-19 -25.5 -19 -43.5
c0 -16 6.66699 -30 20 -42s30 -18 50 -18h426c20 0 36.667 6 50 18s20 26 20 42c0 18 -6.33301 32.5 -19 43.5s-29.667 16.5 -51 16.5h-426z" />
    <glyph glyph-name="twosuperior" unicode="&#xb2;" horiz-adv-x="385" 
d="M141 373c4 6 12.998 13.167 26.998 21.5s38 21.5 72 39.5l22 11c36.667 19.333 62.667 39.333 78 60s23 49.667 23 87c0 34.667 -15 63.167 -45 85.5s-70.333 33.5 -121 33.5c-48 0 -89 -12.333 -123 -37c-16 -12 -28.5 -25.833 -37.5 -41.5s-13.5 -32.5 -13.5 -50.5
c0 -14 4.33301 -24.333 13 -31s20.334 -10 35.001 -10c12 0 20.667 2.66699 26 8s10.333 14 15 26c6.66699 17.333 16.667 30.333 30 39s29.333 13 48 13c18 0 33.333 -4.5 46 -13.5s19 -20.833 19 -35.5c0 -20 -5.66699 -35.5 -17 -46.5s-36 -27.5 -74 -49.5
c-5.33301 -2.66699 -14.666 -8 -27.999 -16c-40 -23.333 -69.333 -45.666 -88 -66.999s-28 -43 -28 -65c0 -14.667 4.5 -26.834 13.5 -36.501s22.167 -14.5 39.5 -14.5h244c16 0 28 3.5 36 10.5s12 18.5 12 34.5c0 30 -16 45 -48 45h-176z" />
    <glyph glyph-name="threesuperior" unicode="&#xb3;" horiz-adv-x="385" 
d="M15 380c0 -9.33301 2.83203 -19.999 8.49902 -31.999s14.834 -23.5 27.501 -34.5s29.667 -20 51 -27s46.666 -10.5 75.999 -10.5c52 0 94.833 12.167 128.5 36.5s50.5 59.166 50.5 104.499c0 24 -5.83301 44 -17.5 60s-29.834 26.667 -54.501 32v2
c41.333 17.333 62 45 62 83c0 32.667 -13.333 60.334 -40 83.001s-67.334 34 -122.001 34c-17.333 0 -35.333 -2.16699 -54 -6.5s-36 -10.833 -52 -19.5s-29 -19.667 -39 -33s-15 -28.666 -15 -45.999c0 -12.667 4.16699 -21.834 12.5 -27.501s19.5 -8.5 33.5 -8.5
c10.667 0 18.834 2 24.501 6s11.834 10.333 18.501 19c8 10 16.5 17.833 25.5 23.5s22.5 8.5 40.5 8.5c16.667 0 30.667 -3.66699 42 -11s17 -17.333 17 -30c0 -27.333 -14.333 -42 -43 -44c-20.667 -1.33301 -35.334 -4.66602 -44.001 -9.99902s-13 -16.333 -13 -33
c0 -12.667 5 -21.167 15 -25.5s22.333 -7.5 37 -9.5h2c21.333 -2 36 -7.33301 44 -16s12 -20.334 12 -35.001s-6.16699 -27.167 -18.5 -37.5s-30.166 -15.5 -53.499 -15.5c-21.333 0 -36.666 3 -45.999 9s-17.333 15 -24 27c-6 8.66699 -11.833 15.167 -17.5 19.5
s-14.167 6.5 -25.5 6.5c-14.667 0 -26.5 -3.83301 -35.5 -11.5s-13.5 -17.834 -13.5 -30.501z" />
    <glyph glyph-name="acute" unicode="&#xb4;" horiz-adv-x="278" 
d="M83 670c-10.667 -8.66699 -18.168 -16.499 -22.501 -23.499s-6.5 -15.167 -6.5 -24.5c0 -15.333 5.33301 -27.333 16 -36s22.334 -13 35.001 -13c6.66699 0 13.167 1.16699 19.5 3.5s15.166 7.16602 26.499 14.499l90 61c24.667 16.667 37 34.667 37 54
c0 12.667 -4.5 25 -13.5 37s-22.5 18 -40.5 18c-10.667 0 -21.167 -3 -31.5 -9s-22.166 -14.333 -35.499 -25z" />
    <glyph glyph-name="mu" unicode="&#xb5;" horiz-adv-x="611" 
d="M553 463c0 22 -5.49902 39.667 -16.499 53s-29.833 20 -56.5 20s-45.5 -6.66699 -56.5 -20s-16.5 -31 -16.5 -53v-241c0 -34.667 -11.5 -62.5 -34.5 -83.5s-48.5 -31.5 -76.5 -31.5c-30.667 0 -53.667 9.16699 -69 27.5s-23 42.833 -23 73.5v255
c0 22 -5.5 39.667 -16.5 53s-29.833 20 -56.5 20s-45.5 -6.66699 -56.5 -20s-16.5 -31 -16.5 -53v-597c0 -23.333 6.5 -41.333 19.5 -54s30.833 -19 53.5 -19s40.5 6.33301 53.5 19s19.5 30.667 19.5 54v134c4 -3.33301 11.333 -6.33301 22 -9s22.667 -4 36 -4
c27.333 0 55.166 8.5 83.499 25.5s52.833 39.167 73.5 66.5h2v-19c0 -22.667 5.5 -40.5 16.5 -53.5s27.5 -19.5 49.5 -19.5s38.5 6.5 49.5 19.5s16.5 30.833 16.5 53.5v403z" />
    <glyph glyph-name="paragraph" unicode="&#xb6;" horiz-adv-x="620" 
d="M233 -112c0 -18 5.33203 -32.502 15.999 -43.502s25.334 -16.5 44.001 -16.5s33.334 5.5 44.001 16.5s16 25.5 16 43.5v742h97v-742c0 -18 5.33301 -32.5 16 -43.5s25.334 -16.5 44.001 -16.5s33.334 5.5 44.001 16.5s16 25.5 16 43.5v772c0 18 -5.33301 32.5 -16 43.5
s-25.334 16.5 -44.001 16.5h-254c-36.667 0 -69.834 -2.66699 -99.501 -8s-55.334 -14.666 -77.001 -27.999s-38.667 -31.666 -51 -54.999s-18.5 -52.333 -18.5 -87c0 -54 19.167 -96 57.5 -126s93.5 -45 165.5 -45v-483z" />
    <glyph glyph-name="periodcentered" unicode="&#xb7;" horiz-adv-x="306" 
d="M65 290c0 -24.667 8.5 -45.5 25.5 -62.5s37.833 -25.5 62.5 -25.5s45.5 8.5 62.5 25.5s25.5 37.833 25.5 62.5s-8.5 45.5 -25.5 62.5s-37.833 25.5 -62.5 25.5s-45.5 -8.5 -62.5 -25.5s-25.5 -37.833 -25.5 -62.5z" />
    <glyph glyph-name="periodcentered" unicode="&#x2219;" horiz-adv-x="306" 
d="M65 290c0 -24.667 8.5 -45.5 25.5 -62.5s37.833 -25.5 62.5 -25.5s45.5 8.5 62.5 25.5s25.5 37.833 25.5 62.5s-8.5 45.5 -25.5 62.5s-37.833 25.5 -62.5 25.5s-45.5 -8.5 -62.5 -25.5s-25.5 -37.833 -25.5 -62.5z" />
    <glyph glyph-name="cedilla" unicode="&#xb8;" horiz-adv-x="278" 
d="M76 -59l-0.999023 -2c-6.66699 -10.667 -10 -18 -10 -22c0 -13.333 7.66699 -20 23 -20c2 0 6 0.333008 12 1c8 1.33301 14.667 2 20 2c16.667 0 25 -8.66699 25 -26c0 -21.333 -11.667 -32 -35 -32c-8 0 -19.667 2.33301 -35 7c-10 2.66699 -16.667 4 -20 4
c-6.66699 0 -12.334 -2.66699 -17.001 -8s-7 -11.333 -7 -18c0 -10.667 6.83301 -20.167 20.5 -28.5s34.5 -12.5 62.5 -12.5c33.333 0 61.833 8.16699 85.5 24.5s35.5 37.833 35.5 64.5c0 24 -8.5 41.667 -25.5 53s-39.833 17 -68.5 17h-7l37 55h-56z" />
    <glyph glyph-name="onesuperior" unicode="&#xb9;" horiz-adv-x="265" 
d="M102 333c0 -16.667 4.50098 -29.667 13.501 -39s22.5 -14 40.5 -14c19.333 0 33.166 4.5 41.499 13.5s12.5 22.167 12.5 39.5v337c0 15.333 -3.66699 26 -11 32s-18.333 9 -33 9c-12.667 0 -22.167 -3 -28.5 -9s-12.833 -15.333 -19.5 -28
c-7.33301 -13.333 -15 -24 -23 -32s-20 -13.333 -36 -16l-24 -4c-18.667 -3.33301 -31.167 -7.33301 -37.5 -12s-9.5 -13.667 -9.5 -27c0 -24.667 11.667 -37 35 -37h79v-213z" />
    <glyph glyph-name="ordmasculine" unicode="&#xba;" horiz-adv-x="398" 
d="M125 546c0 30 6.16699 54 18.5 72s30.833 27 55.5 27s43.167 -9 55.5 -27s18.5 -42 18.5 -72c0 -28.667 -6.16699 -52.334 -18.5 -71.001s-30.833 -28 -55.5 -28s-43.167 9.33301 -55.5 28s-18.5 42.334 -18.5 71.001zM23 546c0 -22.667 3.16699 -43.834 9.5 -63.501
s16.5 -37.167 30.5 -52.5s32.333 -27.333 55 -36s49.667 -13 81 -13s58.333 4.33301 81 13s41 20.667 55 36s24.167 32.833 30.5 52.5s9.5 40.834 9.5 63.501c0 48.667 -15.5 88.334 -46.5 119.001s-74.167 46 -129.5 46s-98.5 -15.333 -129.5 -46
s-46.5 -70.334 -46.5 -119.001z" />
    <glyph glyph-name="guillemotright" unicode="&#xbb;" horiz-adv-x="593" 
d="M336 220c-21.333 -14 -32.001 -31.335 -32.001 -52.002c0 -14 4.5 -26.167 13.5 -36.5s20.167 -15.5 33.5 -15.5c7.33301 0 13.5 1.16699 18.5 3.5s10.833 5.83301 17.5 10.5c1.33301 0.666992 2.33301 1.33398 3 2.00098l98 71c22.667 16 34 40.333 34 73
s-11.333 57 -34 73l-98 71c-0.666992 0.666992 -1.66699 1.33398 -3 2.00098c-6 4.66699 -11.667 8.16699 -17 10.5s-11.666 3.5 -18.999 3.5c-13.333 0 -24.5 -5.16699 -33.5 -15.5s-13.5 -22.5 -13.5 -36.5c0 -20.667 10.667 -38 32 -52l82 -56zM102.999 219.998
c-21.333 -14 -32.001 -31.335 -32.001 -52.002c0 -14 4.5 -26.167 13.5 -36.5s20.167 -15.5 33.5 -15.5c7.33301 0 13.5 1.16699 18.5 3.5s10.833 5.83301 17.5 10.5c1.33301 0.666992 2.33301 1.33398 3 2.00098l98 71c22.667 16 34 40.333 34 73s-11.333 57 -34 73l-98 71
c-0.666992 0.666992 -1.66699 1.33398 -3 2.00098c-6 4.66699 -11.667 8.16699 -17 10.5s-11.666 3.5 -18.999 3.5c-13.333 0 -24.5 -5.16699 -33.5 -15.5s-13.5 -22.5 -13.5 -36.5c0 -20.667 10.667 -38 32 -52l82 -56z" />
    <glyph glyph-name="onequarter" unicode="&#xbc;" horiz-adv-x="916" 
d="M722 169h-116l114 145h2v-145zM722 38c0 -13.333 3.83203 -23.6641 11.499 -30.9971s20.834 -11 39.501 -11s31.834 3.66699 39.501 11s11.5 17.666 11.5 30.999v53h24c10.667 0 19.334 3.66699 26.001 11s10 16.666 10 27.999s-3.33301 20.666 -10 27.999
s-15.334 11 -26.001 11h-24v212c0 14 -5.16699 25.167 -15.5 33.5s-23.5 12.5 -39.5 12.5c-14.667 0 -26.334 -2.33301 -35.001 -7s-17 -11.667 -25 -21l-188 -229c-6.66699 -8 -10 -20 -10 -36c0 -10.667 4.33301 -20.5 13 -29.5s21 -13.5 37 -13.5h161v-53z
M183.999 29.002c-7.33301 -13.333 -10.999 -24.666 -10.999 -33.999c0 -8.66699 3.83301 -16.5 11.5 -23.5s16.834 -10.5 27.501 -10.5c9.33301 0 17.166 2.66699 23.499 8s11.5 12 15.5 20l360 680c7.33301 13.333 11 24.666 11 33.999c0 8.66699 -3.83301 16.5 -11.5 23.5
s-16.834 10.5 -27.501 10.5c-9.33301 0 -17 -2.66699 -23 -8s-11.333 -12 -16 -20zM102 333.002c0 -16.667 4.50098 -29.667 13.501 -39s22.5 -14 40.5 -14c19.333 0 33.166 4.5 41.499 13.5s12.5 22.167 12.5 39.5v337c0 15.333 -3.66699 26 -11 32s-18.333 9 -33 9
c-12.667 0 -22.167 -3 -28.5 -9s-12.833 -15.333 -19.5 -28c-7.33301 -13.333 -15 -24 -23 -32s-20 -13.333 -36 -16l-24 -4c-18.667 -3.33301 -31.167 -7.33301 -37.5 -12s-9.5 -13.667 -9.5 -27c0 -24.667 11.667 -37 35 -37h79v-213z" />
    <glyph glyph-name="onehalf" unicode="&#xbd;" horiz-adv-x="916" 
d="M184 29c-7.33301 -13.333 -10.999 -24.666 -10.999 -33.999c0 -8.66699 3.83301 -16.5 11.5 -23.5s16.834 -10.5 27.501 -10.5c9.33301 0 17.166 2.66699 23.499 8s11.5 12 15.5 20l360 680c7.33301 13.333 11 24.666 11 33.999c0 8.66699 -3.83301 16.5 -11.5 23.5
s-16.834 10.5 -27.501 10.5c-9.33301 0 -17 -2.66699 -23 -8s-11.333 -12 -16 -20zM660.001 90c4 6 12.998 13.167 26.998 21.5s38 21.5 72 39.5l22 11c36.667 19.333 62.667 39.333 78 60s23 49.667 23 87c0 34.667 -15 63.167 -45 85.5s-70.333 33.5 -121 33.5
c-48 0 -89 -12.333 -123 -37c-16 -12 -28.5 -25.833 -37.5 -41.5s-13.5 -32.5 -13.5 -50.5c0 -14 4.33301 -24.333 13 -31s20.334 -10 35.001 -10c12 0 20.667 2.66699 26 8s10.333 14 15 26c6.66699 17.333 16.667 30.333 30 39s29.333 13 48 13c18 0 33.333 -4.5 46 -13.5
s19 -20.833 19 -35.5c0 -20 -5.66699 -35.5 -17 -46.5s-36 -27.5 -74 -49.5c-5.33301 -2.66699 -14.666 -8 -27.999 -16c-40 -23.333 -69.333 -45.666 -88 -66.999s-28 -43 -28 -65c0 -14.667 4.5 -26.834 13.5 -36.501s22.167 -14.5 39.5 -14.5h244c16 0 28 3.5 36 10.5
s12 18.5 12 34.5c0 30 -16 45 -48 45h-176zM101.999 333c0 -16.667 4.50098 -29.667 13.501 -39s22.5 -14 40.5 -14c19.333 0 33.166 4.5 41.499 13.5s12.5 22.167 12.5 39.5v337c0 15.333 -3.66699 26 -11 32s-18.333 9 -33 9c-12.667 0 -22.167 -3 -28.5 -9
s-12.833 -15.333 -19.5 -28c-7.33301 -13.333 -15 -24 -23 -32s-20 -13.333 -36 -16l-24 -4c-18.667 -3.33301 -31.167 -7.33301 -37.5 -12s-9.5 -13.667 -9.5 -27c0 -24.667 11.667 -37 35 -37h79v-213z" />
    <glyph glyph-name="threequarters" unicode="&#xbe;" horiz-adv-x="916" 
d="M722 169h-116l114 145h2v-145zM722 38c0 -13.333 3.83203 -23.6641 11.499 -30.9971s20.834 -11 39.501 -11s31.834 3.66699 39.501 11s11.5 17.666 11.5 30.999v53h24c10.667 0 19.334 3.66699 26.001 11s10 16.666 10 27.999s-3.33301 20.666 -10 27.999
s-15.334 11 -26.001 11h-24v212c0 14 -5.16699 25.167 -15.5 33.5s-23.5 12.5 -39.5 12.5c-14.667 0 -26.334 -2.33301 -35.001 -7s-17 -11.667 -25 -21l-188 -229c-6.66699 -8 -10 -20 -10 -36c0 -10.667 4.33301 -20.5 13 -29.5s21 -13.5 37 -13.5h161v-53z
M254.999 29.002c-7.33301 -13.333 -10.999 -24.666 -10.999 -33.999c0 -8.66699 3.83301 -16.5 11.5 -23.5s16.834 -10.5 27.501 -10.5c9.33301 0 17.166 2.66699 23.499 8s11.5 12 15.5 20l360 680c7.33301 13.333 11 24.666 11 33.999c0 8.66699 -3.83301 16.5 -11.5 23.5
s-16.834 10.5 -27.501 10.5c-9.33301 0 -17 -2.66699 -23 -8s-11.333 -12 -16 -20zM15 380.002c0 -9.33301 2.83203 -19.999 8.49902 -31.999s14.834 -23.5 27.501 -34.5s29.667 -20 51 -27s46.666 -10.5 75.999 -10.5c52 0 94.833 12.167 128.5 36.5
s50.5 59.166 50.5 104.499c0 24 -5.83301 44 -17.5 60s-29.834 26.667 -54.501 32v2c41.333 17.333 62 45 62 83c0 32.667 -13.333 60.334 -40 83.001s-67.334 34 -122.001 34c-17.333 0 -35.333 -2.16699 -54 -6.5s-36 -10.833 -52 -19.5s-29 -19.667 -39 -33
s-15 -28.666 -15 -45.999c0 -12.667 4.16699 -21.834 12.5 -27.501s19.5 -8.5 33.5 -8.5c10.667 0 18.834 2 24.501 6s11.834 10.333 18.501 19c8 10 16.5 17.833 25.5 23.5s22.5 8.5 40.5 8.5c16.667 0 30.667 -3.66699 42 -11s17 -17.333 17 -30
c0 -27.333 -14.333 -42 -43 -44c-20.667 -1.33301 -35.334 -4.66602 -44.001 -9.99902s-13 -16.333 -13 -33c0 -12.667 5 -21.167 15 -25.5s22.333 -7.5 37 -9.5h2c21.333 -2 36 -7.33301 44 -16s12 -20.334 12 -35.001s-6.16699 -27.167 -18.5 -37.5
s-30.166 -15.5 -53.499 -15.5c-21.333 0 -36.666 3 -45.999 9s-17.333 15 -24 27c-6 8.66699 -11.833 15.167 -17.5 19.5s-14.167 6.5 -25.5 6.5c-14.667 0 -26.5 -3.83301 -35.5 -11.5s-13.5 -17.834 -13.5 -30.501z" />
    <glyph glyph-name="questiondown" unicode="&#xbf;" horiz-adv-x="574" 
d="M531 -22c0 19.333 -6.16699 34.3311 -18.5 44.998s-27.833 16 -46.5 16c-20 0 -34.833 -4.83301 -44.5 -14.5s-19.167 -24.5 -28.5 -44.5c-10.667 -24 -22.667 -42.167 -36 -54.5s-35.333 -18.5 -66 -18.5c-30 0 -53.5 7.66699 -70.5 23s-25.5 36.333 -25.5 63
c0 20.667 6.66699 38.834 20 54.501s33.666 33.834 60.999 54.501c30.667 24 54 45.5 70 64.5s24 42.5 24 70.5c0 18 -5.66699 33.667 -17 47s-27 20 -47 20c-21.333 0 -36.166 -4.16699 -44.499 -12.5s-15.833 -21.5 -22.5 -39.5c-5.33301 -14 -10.333 -24.667 -15 -32
c-6 -9.33301 -24 -24.333 -54 -45c-18.667 -14 -34.5 -26.333 -47.5 -37s-25.667 -23 -38 -37s-22.333 -30.167 -30 -48.5s-11.5 -38.166 -11.5 -59.499c0 -34 7 -63.833 21 -89.5s33 -46.667 57 -63s51 -28.333 81 -36s61.667 -11.5 95 -11.5c30 0 59.167 5 87.5 15
s53.5 23.667 75.5 41s39.333 37.166 52 59.499s19 45.5 19 69.5zM384 450.998c0 22.667 -8 42 -24 58s-35.333 24 -58 24s-42 -8 -58 -24s-24 -35.333 -24 -58s8 -42 24 -58s35.333 -24 58 -24s42 8 58 24s24 35.333 24 58z" />
    <glyph glyph-name="Agrave" unicode="&#xc0;" horiz-adv-x="667" 
d="M316 909c-13.333 10.667 -25.165 18.999 -35.498 24.999s-20.833 9 -31.5 9c-18 0 -31.5 -6 -40.5 -18s-13.5 -24.333 -13.5 -37c0 -19.333 12.333 -37.333 37 -54l90 -61c11.333 -7.33301 20.166 -12.166 26.499 -14.499s12.833 -3.5 19.5 -3.5
c13.333 0 25.166 4.33301 35.499 13s15.5 20.667 15.5 36c0 9.33301 -2 17.5 -6 24.5s-11.667 14.833 -23 23.5zM25.001 121.999c-4 -11.333 -7.66699 -22.832 -11 -34.499s-5 -21.167 -5 -28.5c0 -22 7 -39.5 21 -52.5s32.333 -19.5 55 -19.5c38.667 0 63 15 73 45l43 120
h264l42 -120c11.333 -30 36 -45 74 -45c21.333 0 39.5 7 54.5 21s22.5 31 22.5 51c0 7.33301 -1.66699 16.833 -5 28.5s-7 23.167 -11 34.5l-198 551c-8 23.333 -19.333 39.166 -34 47.499s-32.667 12.5 -54 12.5h-39c-20.667 0 -37.5 -3.83301 -50.5 -11.5
s-22.833 -20.5 -29.5 -38.5zM429.001 266h-192l97 289h2z" />
    <glyph glyph-name="Aacute" unicode="&#xc1;" horiz-adv-x="667" 
d="M278 852c-10.667 -8.66699 -18.168 -16.499 -22.501 -23.499s-6.5 -15.167 -6.5 -24.5c0 -15.333 5.33301 -27.333 16 -36s22.334 -13 35.001 -13c6.66699 0 13.167 1.16699 19.5 3.5s15.166 7.16602 26.499 14.499l90 61c24.667 16.667 37 34.667 37 54
c0 12.667 -4.5 25 -13.5 37s-22.5 18 -40.5 18c-10.667 0 -21.167 -3 -31.5 -9s-22.166 -14.333 -35.499 -25zM24.999 122.001c-4 -11.333 -7.66699 -22.832 -11 -34.499s-5 -21.167 -5 -28.5c0 -22 7 -39.5 21 -52.5s32.333 -19.5 55 -19.5c38.667 0 63 15 73 45l43 120
h264l42 -120c11.333 -30 36 -45 74 -45c21.333 0 39.5 7 54.5 21s22.5 31 22.5 51c0 7.33301 -1.66699 16.833 -5 28.5s-7 23.167 -11 34.5l-198 551c-8 23.333 -19.333 39.166 -34 47.499s-32.667 12.5 -54 12.5h-39c-20.667 0 -37.5 -3.83301 -50.5 -11.5
s-22.833 -20.5 -29.5 -38.5zM428.999 266.002h-192l97 289h2z" />
    <glyph glyph-name="Acircumflex" unicode="&#xc2;" horiz-adv-x="667" 
d="M334 848l63.998 -64c10.667 -11.333 19.667 -19 27 -23s16 -6 26 -6c10.667 0 20.834 5 30.501 15s14.5 22.333 14.5 37c0 8.66699 -6.83301 20.5 -20.5 35.5s-31.5 32.5 -53.5 52.5c-18 16.667 -32.833 27.5 -44.5 32.5s-26.167 7.5 -43.5 7.5s-31.833 -2.5 -43.5 -7.5
s-26.5 -15.833 -44.5 -32.5c-21.333 -20 -39 -37.5 -53 -52.5s-21 -26.833 -21 -35.5c0 -14.667 4.83301 -27 14.5 -37s19.834 -15 30.501 -15c10 0 18.667 2 26 6s16.333 11.667 27 23zM24.998 122c-4 -11.333 -7.66699 -22.832 -11 -34.499s-5 -21.167 -5 -28.5
c0 -22 7 -39.5 21 -52.5s32.333 -19.5 55 -19.5c38.667 0 63 15 73 45l43 120h264l42 -120c11.333 -30 36 -45 74 -45c21.333 0 39.5 7 54.5 21s22.5 31 22.5 51c0 7.33301 -1.66699 16.833 -5 28.5s-7 23.167 -11 34.5l-198 551c-8 23.333 -19.333 39.166 -34 47.499
s-32.667 12.5 -54 12.5h-39c-20.667 0 -37.5 -3.83301 -50.5 -11.5s-22.833 -20.5 -29.5 -38.5zM428.998 266.001h-192l97 289h2z" />
    <glyph glyph-name="Atilde" unicode="&#xc3;" horiz-adv-x="667" 
d="M156 831c0 -18 4.83203 -31.333 14.499 -40s20.834 -13 33.501 -13c9.33301 0 21.666 5.66699 36.999 17c8 6.66699 15.167 11.5 21.5 14.5s13.166 4.5 20.499 4.5c6.66699 0 20.334 -4.33301 41.001 -13c17.333 -7.33301 32.333 -13 45 -17s25 -6 37 -6
c11.333 0 23.166 2.66699 35.499 8s23.833 12.5 34.5 21.5s19.334 19 26.001 30s10 22.167 10 33.5c0 16 -4.33301 27.5 -13 34.5s-21 10.5 -37 10.5c-8 0 -15.167 -1.5 -21.5 -4.5s-12.833 -6.83301 -19.5 -11.5l-1 -1c-2 -1.33301 -3.33301 -2.33301 -4 -3
c-12.667 -10 -23.667 -15 -33 -15c-11.333 0 -30.666 5.66699 -57.999 17c-0.666992 0 -1.66699 0.333008 -3 1l-2 1c-30 10.667 -53.333 16 -70 16c-22.667 0 -44 -8.5 -64 -25.5s-30 -36.833 -30 -59.5zM24.999 122c-4 -11.333 -7.66699 -22.832 -11 -34.499
s-5 -21.167 -5 -28.5c0 -22 7 -39.5 21 -52.5s32.333 -19.5 55 -19.5c38.667 0 63 15 73 45l43 120h264l42 -120c11.333 -30 36 -45 74 -45c21.333 0 39.5 7 54.5 21s22.5 31 22.5 51c0 7.33301 -1.66699 16.833 -5 28.5s-7 23.167 -11 34.5l-198 551
c-8 23.333 -19.333 39.166 -34 47.499s-32.667 12.5 -54 12.5h-39c-20.667 0 -37.5 -3.83301 -50.5 -11.5s-22.833 -20.5 -29.5 -38.5zM428.999 266.001h-192l97 289h2z" />
    <glyph glyph-name="Adieresis" unicode="&#xc4;" horiz-adv-x="667" 
d="M159 844c0 -20 7.16699 -37.167 21.5 -51.5s31.5 -21.5 51.5 -21.5s37.167 7.16699 51.5 21.5s21.5 31.5 21.5 51.5s-7.16699 37.167 -21.5 51.5s-31.5 21.5 -51.5 21.5s-37.167 -7.16699 -51.5 -21.5s-21.5 -31.5 -21.5 -51.5zM363 844
c0 -20 7.16699 -37.167 21.5 -51.5s31.5 -21.5 51.5 -21.5s37.167 7.16699 51.5 21.5s21.5 31.5 21.5 51.5s-7.16699 37.167 -21.5 51.5s-31.5 21.5 -51.5 21.5s-37.167 -7.16699 -51.5 -21.5s-21.5 -31.5 -21.5 -51.5zM25 122c-4 -11.333 -7.66699 -22.832 -11 -34.499
s-5 -21.167 -5 -28.5c0 -22 7 -39.5 21 -52.5s32.333 -19.5 55 -19.5c38.667 0 63 15 73 45l43 120h264l42 -120c11.333 -30 36 -45 74 -45c21.333 0 39.5 7 54.5 21s22.5 31 22.5 51c0 7.33301 -1.66699 16.833 -5 28.5s-7 23.167 -11 34.5l-198 551
c-8 23.333 -19.333 39.166 -34 47.499s-32.667 12.5 -54 12.5h-39c-20.667 0 -37.5 -3.83301 -50.5 -11.5s-22.833 -20.5 -29.5 -38.5zM429 266.001h-192l97 289h2z" />
    <glyph glyph-name="Aring" unicode="&#xc5;" horiz-adv-x="667" 
d="M226 855c0 -30 10.5 -55.5 31.5 -76.5s46.5 -31.5 76.5 -31.5s55.5 10.5 76.5 31.5s31.5 46.5 31.5 76.5s-10.5 55.5 -31.5 76.5s-46.5 31.5 -76.5 31.5s-55.5 -10.5 -76.5 -31.5s-31.5 -46.5 -31.5 -76.5zM282 855c0 14.667 5 27 15 37s22.333 15 37 15s27 -5 37 -15
s15 -22.333 15 -37s-5 -27 -15 -37s-22.333 -15 -37 -15s-27 5 -37 15s-15 22.333 -15 37zM25 122c-4 -11.333 -7.66699 -22.832 -11 -34.499s-5 -21.167 -5 -28.5c0 -22 7 -39.5 21 -52.5s32.333 -19.5 55 -19.5c38.667 0 63 15 73 45l43 120h264l42 -120
c11.333 -30 36 -45 74 -45c21.333 0 39.5 7 54.5 21s22.5 31 22.5 51c0 7.33301 -1.66699 16.833 -5 28.5s-7 23.167 -11 34.5l-198 551c-8 23.333 -19.333 39.166 -34 47.499s-32.667 12.5 -54 12.5h-39c-20.667 0 -37.5 -3.83301 -50.5 -11.5s-22.833 -20.5 -29.5 -38.5z
M429 266.001h-192l97 289h2z" />
    <glyph glyph-name="AE" unicode="&#xc6;" horiz-adv-x="963" 
d="M416 96c0 -34.667 8.16895 -59.334 24.502 -74.001s40.166 -22 71.499 -22h335c26.667 0 47.167 5 61.5 15s21.5 27 21.5 51c0 24.667 -7.16699 41.834 -21.5 51.501s-34.833 14.5 -61.5 14.5h-267v174h236c24 0 42.833 4.66699 56.5 14s20.5 25.666 20.5 48.999
c0 24 -6.83301 40.5 -20.5 49.5s-32.5 13.5 -56.5 13.5h-236v156h259c26.667 0 47.167 5 61.5 15s21.5 27 21.5 51c0 24.667 -7.16699 41.834 -21.5 51.501s-34.833 14.5 -61.5 14.5h-552c-21.333 0 -37.833 -4.5 -49.5 -13.5s-21.5 -24.833 -29.5 -47.5l-194 -548
c-8 -21.333 -12 -40.666 -12 -57.999c0 -20.667 7.5 -36.834 22.5 -48.501s32.167 -17.5 51.5 -17.5c39.333 0 64.666 17.333 75.999 52l41 121h223v-64zM416.002 274h-186l109 320h77v-320z" />
    <glyph glyph-name="Ccedilla" unicode="&#xc7;" horiz-adv-x="722" 
d="M330 -59l-1.00293 -2.00391c-6.66699 -10.667 -10 -18 -10 -22c0 -13.333 7.66699 -20 23 -20c2 0 6 0.333008 12 1c8 1.33301 14.667 2 20 2c16.667 0 25 -8.66699 25 -26c0 -21.333 -11.667 -32 -35 -32c-8 0 -19.667 2.33301 -35 7c-10 2.66699 -16.667 4 -20 4
c-6.66699 0 -12.334 -2.66699 -17.001 -8s-7 -11.333 -7 -18c0 -10.667 6.83301 -20.167 20.5 -28.5s34.5 -12.5 62.5 -12.5c33.333 0 61.833 8.16699 85.5 24.5s35.5 37.833 35.5 64.5c0 24 -8.5 41.667 -25.5 53s-39.833 17 -68.5 17h-7l26 38
c38.667 0.666992 75.167 6.83398 109.5 18.501s64.5 27.334 90.5 47.001s46.167 41.834 60.5 66.501s21.5 49.667 21.5 75c0 19.333 -8 34.666 -24 45.999s-34.667 17 -56 17c-15.333 0 -28.166 -4.5 -38.499 -13.5s-22.5 -23.167 -36.5 -42.5
c-18.667 -26.667 -37 -47 -55 -61s-43 -21 -75 -21c-34 0 -63.5 6.33301 -88.5 19s-45.167 30.334 -60.5 53.001s-26.666 48.667 -33.999 78s-11 61 -11 95c0 75.333 18 135 54 179s80.667 66 134 66c36.667 0 64.334 -6.5 83.001 -19.5s36.667 -31.833 54 -56.5
c12.667 -18 24.5 -31.5 35.5 -40.5s25.833 -13.5 44.5 -13.5c49.333 0 74 24.667 74 74c0 18 -6.5 37.833 -19.5 59.5s-32.167 42.334 -57.5 62.001s-56.166 35.667 -92.499 48s-76.833 18.5 -121.5 18.5c-56 0 -106.167 -9.83301 -150.5 -29.5
s-81.5 -46.834 -111.5 -81.501s-52.5 -74.834 -67.5 -120.501s-22.5 -94.167 -22.5 -145.5c0 -113.333 26.667 -201.666 80 -264.999s129 -99.666 227 -108.999z" />
    <glyph glyph-name="Egrave" unicode="&#xc8;" horiz-adv-x="685" 
d="M345 909c-13.333 10.667 -25.165 18.999 -35.498 24.999s-20.833 9 -31.5 9c-18 0 -31.5 -6 -40.5 -18s-13.5 -24.333 -13.5 -37c0 -19.333 12.333 -37.333 37 -54l90 -61c11.333 -7.33301 20.166 -12.166 26.499 -14.499s12.833 -3.5 19.5 -3.5
c13.333 0 25.166 4.33301 35.499 13s15.5 20.667 15.5 36c0 9.33301 -2 17.5 -6 24.5s-11.667 14.833 -23 23.5zM80.001 95.999c0 -34.667 8.16699 -59.333 24.5 -74s40.166 -22 71.499 -22h393c26.667 0 47.167 5 61.5 15s21.5 27 21.5 51
c0 24.667 -7.16699 41.834 -21.5 51.501s-34.833 14.5 -61.5 14.5h-325v174h278c24 0 42.833 4.66699 56.5 14s20.5 25.666 20.5 48.999c0 24 -6.83301 40.5 -20.5 49.5s-32.5 13.5 -56.5 13.5h-278v156h317c26.667 0 47.167 5 61.5 15s21.5 27 21.5 51
c0 24.667 -7.16699 41.834 -21.5 51.501s-34.833 14.5 -61.5 14.5h-385c-31.333 0 -55.166 -7.33301 -71.499 -22s-24.5 -39.334 -24.5 -74.001v-528z" />
    <glyph glyph-name="Eacute" unicode="&#xc9;" horiz-adv-x="685" 
d="M307 852c-10.667 -8.66699 -18.168 -16.499 -22.501 -23.499s-6.5 -15.167 -6.5 -24.5c0 -15.333 5.33301 -27.333 16 -36s22.334 -13 35.001 -13c6.66699 0 13.167 1.16699 19.5 3.5s15.166 7.16602 26.499 14.499l90 61c24.667 16.667 37 34.667 37 54
c0 12.667 -4.5 25 -13.5 37s-22.5 18 -40.5 18c-10.667 0 -21.167 -3 -31.5 -9s-22.166 -14.333 -35.499 -25zM79.999 96.001c0 -34.667 8.16699 -59.333 24.5 -74s40.166 -22 71.499 -22h393c26.667 0 47.167 5 61.5 15s21.5 27 21.5 51
c0 24.667 -7.16699 41.834 -21.5 51.501s-34.833 14.5 -61.5 14.5h-325v174h278c24 0 42.833 4.66699 56.5 14s20.5 25.666 20.5 48.999c0 24 -6.83301 40.5 -20.5 49.5s-32.5 13.5 -56.5 13.5h-278v156h317c26.667 0 47.167 5 61.5 15s21.5 27 21.5 51
c0 24.667 -7.16699 41.834 -21.5 51.501s-34.833 14.5 -61.5 14.5h-385c-31.333 0 -55.166 -7.33301 -71.499 -22s-24.5 -39.334 -24.5 -74.001v-528z" />
    <glyph glyph-name="Ecircumflex" unicode="&#xca;" horiz-adv-x="685" 
d="M363 848l63.998 -64c10.667 -11.333 19.667 -19 27 -23s16 -6 26 -6c10.667 0 20.834 5 30.501 15s14.5 22.333 14.5 37c0 8.66699 -6.83301 20.5 -20.5 35.5s-31.5 32.5 -53.5 52.5c-18 16.667 -32.833 27.5 -44.5 32.5s-26.167 7.5 -43.5 7.5s-31.833 -2.5 -43.5 -7.5
s-26.5 -15.833 -44.5 -32.5c-21.333 -20 -39 -37.5 -53 -52.5s-21 -26.833 -21 -35.5c0 -14.667 4.83301 -27 14.5 -37s19.834 -15 30.501 -15c10 0 18.667 2 26 6s16.333 11.667 27 23zM79.998 96c0 -34.667 8.16699 -59.333 24.5 -74s40.166 -22 71.499 -22h393
c26.667 0 47.167 5 61.5 15s21.5 27 21.5 51c0 24.667 -7.16699 41.834 -21.5 51.501s-34.833 14.5 -61.5 14.5h-325v174h278c24 0 42.833 4.66699 56.5 14s20.5 25.666 20.5 48.999c0 24 -6.83301 40.5 -20.5 49.5s-32.5 13.5 -56.5 13.5h-278v156h317
c26.667 0 47.167 5 61.5 15s21.5 27 21.5 51c0 24.667 -7.16699 41.834 -21.5 51.501s-34.833 14.5 -61.5 14.5h-385c-31.333 0 -55.166 -7.33301 -71.499 -22s-24.5 -39.334 -24.5 -74.001v-528z" />
    <glyph glyph-name="Edieresis" unicode="&#xcb;" horiz-adv-x="685" 
d="M188 844c0 -20 7.16699 -37.167 21.5 -51.5s31.5 -21.5 51.5 -21.5s37.167 7.16699 51.5 21.5s21.5 31.5 21.5 51.5s-7.16699 37.167 -21.5 51.5s-31.5 21.5 -51.5 21.5s-37.167 -7.16699 -51.5 -21.5s-21.5 -31.5 -21.5 -51.5zM392 844
c0 -20 7.16699 -37.167 21.5 -51.5s31.5 -21.5 51.5 -21.5s37.167 7.16699 51.5 21.5s21.5 31.5 21.5 51.5s-7.16699 37.167 -21.5 51.5s-31.5 21.5 -51.5 21.5s-37.167 -7.16699 -51.5 -21.5s-21.5 -31.5 -21.5 -51.5zM80 96c0 -34.667 8.16699 -59.333 24.5 -74
s40.166 -22 71.499 -22h393c26.667 0 47.167 5 61.5 15s21.5 27 21.5 51c0 24.667 -7.16699 41.834 -21.5 51.501s-34.833 14.5 -61.5 14.5h-325v174h278c24 0 42.833 4.66699 56.5 14s20.5 25.666 20.5 48.999c0 24 -6.83301 40.5 -20.5 49.5s-32.5 13.5 -56.5 13.5h-278
v156h317c26.667 0 47.167 5 61.5 15s21.5 27 21.5 51c0 24.667 -7.16699 41.834 -21.5 51.501s-34.833 14.5 -61.5 14.5h-385c-31.333 0 -55.166 -7.33301 -71.499 -22s-24.5 -39.334 -24.5 -74.001v-528z" />
    <glyph glyph-name="Igrave" unicode="&#xcc;" horiz-adv-x="316" 
d="M140 909c-13.333 10.667 -25.165 18.999 -35.498 24.999s-20.833 9 -31.5 9c-18 0 -31.5 -6 -40.5 -18s-13.5 -24.333 -13.5 -37c0 -19.333 12.333 -37.333 37 -54l90 -61c11.333 -7.33301 20.166 -12.166 26.499 -14.499s12.833 -3.5 19.5 -3.5
c13.333 0 25.166 4.33301 35.499 13s15.5 20.667 15.5 36c0 9.33301 -2 17.5 -6 24.5s-11.667 14.833 -23 23.5zM76.001 68.999c0 -24.667 7.5 -44.5 22.5 -59.5s34.833 -22.5 59.5 -22.5c25.333 0 45.333 7.5 60 22.5s22 34.833 22 59.5v582
c0 24.667 -7.33301 44.5 -22 59.5s-34.667 22.5 -60 22.5c-24.667 0 -44.5 -7.5 -59.5 -22.5s-22.5 -34.833 -22.5 -59.5v-582z" />
    <glyph glyph-name="Iacute" unicode="&#xcd;" horiz-adv-x="316" 
d="M102 852c-10.667 -8.66699 -18.168 -16.499 -22.501 -23.499s-6.5 -15.167 -6.5 -24.5c0 -15.333 5.33301 -27.333 16 -36s22.334 -13 35.001 -13c6.66699 0 13.167 1.16699 19.5 3.5s15.166 7.16602 26.499 14.499l90 61c24.667 16.667 37 34.667 37 54
c0 12.667 -4.5 25 -13.5 37s-22.5 18 -40.5 18c-10.667 0 -21.167 -3 -31.5 -9s-22.166 -14.333 -35.499 -25zM75.999 69.001c0 -24.667 7.5 -44.5 22.5 -59.5s34.833 -22.5 59.5 -22.5c25.333 0 45.333 7.5 60 22.5s22 34.833 22 59.5v582c0 24.667 -7.33301 44.5 -22 59.5
s-34.667 22.5 -60 22.5c-24.667 0 -44.5 -7.5 -59.5 -22.5s-22.5 -34.833 -22.5 -59.5v-582z" />
    <glyph glyph-name="Icircumflex" unicode="&#xce;" horiz-adv-x="316" 
d="M158 848l63.998 -64c10.667 -11.333 19.667 -19 27 -23s16 -6 26 -6c10.667 0 20.834 5 30.501 15s14.5 22.333 14.5 37c0 8.66699 -6.83301 20.5 -20.5 35.5s-31.5 32.5 -53.5 52.5c-18 16.667 -32.833 27.5 -44.5 32.5s-26.167 7.5 -43.5 7.5s-31.833 -2.5 -43.5 -7.5
s-26.5 -15.833 -44.5 -32.5c-22 -20 -39.833 -37.5 -53.5 -52.5s-20.5 -26.833 -20.5 -35.5c0 -14.667 4.83301 -27 14.5 -37s19.834 -15 30.501 -15c10 0 18.667 2 26 6s16.333 11.667 27 23zM75.998 69c0 -24.667 7.5 -44.5 22.5 -59.5s34.833 -22.5 59.5 -22.5
c25.333 0 45.333 7.5 60 22.5s22 34.833 22 59.5v582c0 24.667 -7.33301 44.5 -22 59.5s-34.667 22.5 -60 22.5c-24.667 0 -44.5 -7.5 -59.5 -22.5s-22.5 -34.833 -22.5 -59.5v-582z" />
    <glyph glyph-name="Idieresis" unicode="&#xcf;" horiz-adv-x="316" 
d="M-17 844c0 -20 7.16699 -37.167 21.5 -51.5s31.5 -21.5 51.5 -21.5s37.167 7.16699 51.5 21.5s21.5 31.5 21.5 51.5s-7.16699 37.167 -21.5 51.5s-31.5 21.5 -51.5 21.5s-37.167 -7.16699 -51.5 -21.5s-21.5 -31.5 -21.5 -51.5zM187 844
c0 -20 7.16699 -37.167 21.5 -51.5s31.5 -21.5 51.5 -21.5s37.167 7.16699 51.5 21.5s21.5 31.5 21.5 51.5s-7.16699 37.167 -21.5 51.5s-31.5 21.5 -51.5 21.5s-37.167 -7.16699 -51.5 -21.5s-21.5 -31.5 -21.5 -51.5zM76 69c0 -24.667 7.5 -44.5 22.5 -59.5
s34.833 -22.5 59.5 -22.5c25.333 0 45.333 7.5 60 22.5s22 34.833 22 59.5v582c0 24.667 -7.33301 44.5 -22 59.5s-34.667 22.5 -60 22.5c-24.667 0 -44.5 -7.5 -59.5 -22.5s-22.5 -34.833 -22.5 -59.5v-582z" />
    <glyph glyph-name="Eth" unicode="&#xd0;" horiz-adv-x="759" 
d="M240 588l136.998 0.00195312c58.667 0 102.334 -19.833 131.001 -59.5s43 -95.834 43 -168.501c0 -29.333 -3 -57.5 -9 -84.5s-15.833 -51.333 -29.5 -73s-31.667 -38.834 -54 -51.501s-49.166 -19 -80.499 -19h-138v190h131c31.333 0 47 15 47 45s-15.667 45 -47 45
h-131v176zM75.998 96.002c0 -34.667 8.16797 -59.332 24.501 -73.999s40.166 -22 71.499 -22h197c109.333 0 194.333 31.5 255 94.5s91 151.5 91 265.5c0 68 -9 125.5 -27 172.5s-42.833 84.167 -74.5 111.5s-67.834 46.833 -108.501 58.5s-85 17.5 -133 17.5h-200
c-31.333 0 -55.166 -7.33301 -71.499 -22s-24.5 -39.334 -24.5 -74.001v-212h-35c-31.333 0 -47 -15 -47 -45s15.667 -45 47 -45h35v-226z" />
    <glyph glyph-name="Ntilde" unicode="&#xd1;" horiz-adv-x="778" 
d="M211 831c0 -18 4.83203 -31.333 14.499 -40s20.834 -13 33.501 -13c9.33301 0 21.666 5.66699 36.999 17c8 6.66699 15.167 11.5 21.5 14.5s13.166 4.5 20.499 4.5c6.66699 0 20.334 -4.33301 41.001 -13c17.333 -7.33301 32.333 -13 45 -17s25 -6 37 -6
c11.333 0 23.166 2.66699 35.499 8s23.833 12.5 34.5 21.5s19.334 19 26.001 30s10 22.167 10 33.5c0 16 -4.33301 27.5 -13 34.5s-21 10.5 -37 10.5c-8 0 -15.167 -1.5 -21.5 -4.5s-12.833 -6.83301 -19.5 -11.5l-1 -1c-2 -1.33301 -3.33301 -2.33301 -4 -3
c-12.667 -10 -23.667 -15 -33 -15c-11.333 0 -30.666 5.66699 -57.999 17c-0.666992 0 -1.66699 0.333008 -3 1l-2 1c-30 10.667 -53.333 16 -70 16c-22.667 0 -44 -8.5 -64 -25.5s-30 -36.833 -30 -59.5zM72.999 66c0 -52.667 26.332 -78.999 78.999 -78.999
s79 26.333 79 79v415h2l285 -450c10.667 -17.333 22 -29 34 -35s30.667 -9 56 -9c34 0 58.667 8.66699 74 26s23 42.666 23 75.999v565c0 52.667 -26.333 79 -79 79s-79 -26.333 -79 -79v-427h-2l-287 463c-17.333 28.667 -44.666 43 -81.999 43
c-35.333 0 -61.333 -7.5 -78 -22.5s-25 -39.5 -25 -73.5v-571z" />
    <glyph glyph-name="Ograve" unicode="&#xd2;" horiz-adv-x="816" 
d="M390 909c-13.333 10.667 -25.165 18.999 -35.498 24.999s-20.833 9 -31.5 9c-18 0 -31.5 -6 -40.5 -18s-13.5 -24.333 -13.5 -37c0 -19.333 12.333 -37.333 37 -54l90 -61c11.333 -7.33301 20.166 -12.166 26.499 -14.499s12.833 -3.5 19.5 -3.5
c13.333 0 25.166 4.33301 35.499 13s15.5 20.667 15.5 36c0 9.33301 -2 17.5 -6 24.5s-11.667 14.833 -23 23.5zM44.001 368.999c0 -56 7 -107.333 21 -154s35.833 -87.334 65.5 -122.001s67.667 -61.667 114 -81s100.833 -29 163.5 -29c59.333 0 112 10.333 158 31
s84.333 48.834 115 84.501s53.5 76.667 68.5 123s22.5 95.5 22.5 147.5c0 53.333 -8 102.333 -24 147s-39.5 83.667 -70.5 117s-69.167 59 -114.5 77s-97 27 -155 27s-109.667 -9 -155 -27s-83.5 -43.667 -114.5 -77s-54.5 -72.333 -70.5 -117s-24 -93.667 -24 -147z
M208.001 368.999c0 71.333 17 128.499 51 171.499s83.667 64.5 149 64.5s115 -21.5 149 -64.5s51 -100.167 51 -171.5c0 -36 -3.5 -69.167 -10.5 -99.5s-18.5 -57.166 -34.5 -80.499s-36.833 -41.5 -62.5 -54.5s-56.5 -19.5 -92.5 -19.5c-37.333 0 -69 6.5 -95 19.5
s-46.667 31 -62 54s-26.333 49.667 -33 80s-10 63.833 -10 100.5z" />
    <glyph glyph-name="Oacute" unicode="&#xd3;" horiz-adv-x="816" 
d="M352 852c-10.667 -8.66699 -18.168 -16.499 -22.501 -23.499s-6.5 -15.167 -6.5 -24.5c0 -15.333 5.33301 -27.333 16 -36s22.334 -13 35.001 -13c6.66699 0 13.167 1.16699 19.5 3.5s15.166 7.16602 26.499 14.499l90 61c24.667 16.667 37 34.667 37 54
c0 12.667 -4.5 25 -13.5 37s-22.5 18 -40.5 18c-10.667 0 -21.167 -3 -31.5 -9s-22.166 -14.333 -35.499 -25zM43.999 369.001c0 -56 7 -107.333 21 -154s35.833 -87.334 65.5 -122.001s67.667 -61.667 114 -81s100.833 -29 163.5 -29c59.333 0 112 10.333 158 31
s84.333 48.834 115 84.501s53.5 76.667 68.5 123s22.5 95.5 22.5 147.5c0 53.333 -8 102.333 -24 147s-39.5 83.667 -70.5 117s-69.167 59 -114.5 77s-97 27 -155 27s-109.667 -9 -155 -27s-83.5 -43.667 -114.5 -77s-54.5 -72.333 -70.5 -117s-24 -93.667 -24 -147z
M207.999 369.001c0 71.333 17 128.499 51 171.499s83.667 64.5 149 64.5s115 -21.5 149 -64.5s51 -100.167 51 -171.5c0 -36 -3.5 -69.167 -10.5 -99.5s-18.5 -57.166 -34.5 -80.499s-36.833 -41.5 -62.5 -54.5s-56.5 -19.5 -92.5 -19.5c-37.333 0 -69 6.5 -95 19.5
s-46.667 31 -62 54s-26.333 49.667 -33 80s-10 63.833 -10 100.5z" />
    <glyph glyph-name="Ocircumflex" unicode="&#xd4;" horiz-adv-x="816" 
d="M408 848l63.998 -64c10.667 -11.333 19.667 -19 27 -23s16 -6 26 -6c10.667 0 20.834 5 30.501 15s14.5 22.333 14.5 37c0 8.66699 -6.83301 20.5 -20.5 35.5s-31.5 32.5 -53.5 52.5c-18 16.667 -32.833 27.5 -44.5 32.5s-26.167 7.5 -43.5 7.5s-31.833 -2.5 -43.5 -7.5
s-26.5 -15.833 -44.5 -32.5c-21.333 -20 -39 -37.5 -53 -52.5s-21 -26.833 -21 -35.5c0 -14.667 4.83301 -27 14.5 -37s19.834 -15 30.501 -15c10 0 18.667 2 26 6s16.333 11.667 27 23zM43.998 369c0 -56 7 -107.333 21 -154s35.833 -87.334 65.5 -122.001
s67.667 -61.667 114 -81s100.833 -29 163.5 -29c59.333 0 112 10.333 158 31s84.333 48.834 115 84.501s53.5 76.667 68.5 123s22.5 95.5 22.5 147.5c0 53.333 -8 102.333 -24 147s-39.5 83.667 -70.5 117s-69.167 59 -114.5 77s-97 27 -155 27s-109.667 -9 -155 -27
s-83.5 -43.667 -114.5 -77s-54.5 -72.333 -70.5 -117s-24 -93.667 -24 -147zM207.998 369c0 71.333 17 128.499 51 171.499s83.667 64.5 149 64.5s115 -21.5 149 -64.5s51 -100.167 51 -171.5c0 -36 -3.5 -69.167 -10.5 -99.5s-18.5 -57.166 -34.5 -80.499
s-36.833 -41.5 -62.5 -54.5s-56.5 -19.5 -92.5 -19.5c-37.333 0 -69 6.5 -95 19.5s-46.667 31 -62 54s-26.333 49.667 -33 80s-10 63.833 -10 100.5z" />
    <glyph glyph-name="Otilde" unicode="&#xd5;" horiz-adv-x="816" 
d="M230 831c0 -18 4.83203 -31.333 14.499 -40s20.834 -13 33.501 -13c9.33301 0 21.666 5.66699 36.999 17c8 6.66699 15.167 11.5 21.5 14.5s13.166 4.5 20.499 4.5c6.66699 0 20.334 -4.33301 41.001 -13c17.333 -7.33301 32.333 -13 45 -17s25 -6 37 -6
c11.333 0 23.166 2.66699 35.499 8s23.833 12.5 34.5 21.5s19.334 19 26.001 30s10 22.167 10 33.5c0 16 -4.33301 27.5 -13 34.5s-21 10.5 -37 10.5c-8 0 -15.167 -1.5 -21.5 -4.5s-12.833 -6.83301 -19.5 -11.5l-1 -1c-2 -1.33301 -3.33301 -2.33301 -4 -3
c-12.667 -10 -23.667 -15 -33 -15c-11.333 0 -30.666 5.66699 -57.999 17c-0.666992 0 -1.66699 0.333008 -3 1l-2 1c-30 10.667 -53.333 16 -70 16c-22.667 0 -44 -8.5 -64 -25.5s-30 -36.833 -30 -59.5zM43.999 369c0 -56 7 -107.333 21 -154
s35.833 -87.334 65.5 -122.001s67.667 -61.667 114 -81s100.833 -29 163.5 -29c59.333 0 112 10.333 158 31s84.333 48.834 115 84.501s53.5 76.667 68.5 123s22.5 95.5 22.5 147.5c0 53.333 -8 102.333 -24 147s-39.5 83.667 -70.5 117s-69.167 59 -114.5 77
s-97 27 -155 27s-109.667 -9 -155 -27s-83.5 -43.667 -114.5 -77s-54.5 -72.333 -70.5 -117s-24 -93.667 -24 -147zM207.999 369c0 71.333 17 128.499 51 171.499s83.667 64.5 149 64.5s115 -21.5 149 -64.5s51 -100.167 51 -171.5c0 -36 -3.5 -69.167 -10.5 -99.5
s-18.5 -57.166 -34.5 -80.499s-36.833 -41.5 -62.5 -54.5s-56.5 -19.5 -92.5 -19.5c-37.333 0 -69 6.5 -95 19.5s-46.667 31 -62 54s-26.333 49.667 -33 80s-10 63.833 -10 100.5z" />
    <glyph glyph-name="Odieresis" unicode="&#xd6;" horiz-adv-x="816" 
d="M233 844c0 -20 7.16699 -37.167 21.5 -51.5s31.5 -21.5 51.5 -21.5s37.167 7.16699 51.5 21.5s21.5 31.5 21.5 51.5s-7.16699 37.167 -21.5 51.5s-31.5 21.5 -51.5 21.5s-37.167 -7.16699 -51.5 -21.5s-21.5 -31.5 -21.5 -51.5zM437 844
c0 -20 7.16699 -37.167 21.5 -51.5s31.5 -21.5 51.5 -21.5s37.167 7.16699 51.5 21.5s21.5 31.5 21.5 51.5s-7.16699 37.167 -21.5 51.5s-31.5 21.5 -51.5 21.5s-37.167 -7.16699 -51.5 -21.5s-21.5 -31.5 -21.5 -51.5zM44 369c0 -56 7 -107.333 21 -154
s35.833 -87.334 65.5 -122.001s67.667 -61.667 114 -81s100.833 -29 163.5 -29c59.333 0 112 10.333 158 31s84.333 48.834 115 84.501s53.5 76.667 68.5 123s22.5 95.5 22.5 147.5c0 53.333 -8 102.333 -24 147s-39.5 83.667 -70.5 117s-69.167 59 -114.5 77
s-97 27 -155 27s-109.667 -9 -155 -27s-83.5 -43.667 -114.5 -77s-54.5 -72.333 -70.5 -117s-24 -93.667 -24 -147zM208 369c0 71.333 17 128.499 51 171.499s83.667 64.5 149 64.5s115 -21.5 149 -64.5s51 -100.167 51 -171.5c0 -36 -3.5 -69.167 -10.5 -99.5
s-18.5 -57.166 -34.5 -80.499s-36.833 -41.5 -62.5 -54.5s-56.5 -19.5 -92.5 -19.5c-37.333 0 -69 6.5 -95 19.5s-46.667 31 -62 54s-26.333 49.667 -33 80s-10 63.833 -10 100.5z" />
    <glyph glyph-name="multiply" unicode="&#xd7;" horiz-adv-x="600" 
d="M385 283l137 138c12.667 12.667 19 26 19 40c0 18.667 -6.16699 33.834 -18.5 45.501s-27.833 17.5 -46.5 17.5c-12.667 0 -25.334 -6.33301 -38.001 -19l-138 -137l-138 137c-12.667 12.667 -25.334 19 -38.001 19c-18.667 0 -34.167 -5.83301 -46.5 -17.5
s-18.5 -26.834 -18.5 -45.501c0 -14 6.33301 -27.333 19 -40l137 -138l-137 -138c-12.667 -12.667 -19 -26 -19 -40c0 -18.667 6.16699 -33.834 18.5 -45.501s27.833 -17.5 46.5 -17.5c12.667 0 25.334 6.33301 38.001 19l138 137l138 -137
c12.667 -12.667 25.334 -19 38.001 -19c18.667 0 34.167 5.83301 46.5 17.5s18.5 26.834 18.5 45.501c0 14 -6.33301 27.333 -19 40z" />
    <glyph glyph-name="Oslash" unicode="&#xd8;" horiz-adv-x="816" 
d="M229 233c-14 37.333 -21 82.667 -21 136c0 71.333 17 128.5 51 171.5s83.667 64.5 149 64.5c50 0 90.667 -13 122 -39zM585 490.001c15.333 -34.667 23.001 -75.001 23.001 -121.001c0 -36 -3.5 -69.167 -10.5 -99.5s-18.5 -57.166 -34.5 -80.499
s-36.833 -41.5 -62.5 -54.5s-56.5 -19.5 -92.5 -19.5c-50.667 0 -92.334 13 -125.001 39zM78.001 66l-1.99805 -2.00098c-10 -11.333 -17.333 -20.833 -22 -28.5s-7 -16.167 -7 -25.5c0 -10 3.83301 -20 11.5 -30s18.167 -15 31.5 -15c15.333 0 29.666 7.33301 42.999 22
l52 58c56.667 -41.333 131 -62 223 -62c59.333 0 112 10.333 158 31s84.333 48.834 115 84.501s53.5 76.667 68.5 123s22.5 95.5 22.5 147.5c0 48 -6.5 92.667 -19.5 134s-32.167 77.666 -57.5 108.999l45 50l2 2c9.33301 10.667 16 19.334 20 26.001s6 14 6 22
c0 15.333 -4.33301 26.333 -13 33s-19.334 10 -32.001 10c-10 0 -19.167 -3 -27.5 -9s-16.5 -13.667 -24.5 -23l-43 -48c-60 41.333 -133.333 62 -220 62c-58 0 -109.667 -9 -155 -27s-83.5 -43.667 -114.5 -77s-54.5 -72.333 -70.5 -117s-24 -93.667 -24 -147
c0 -52 6.16699 -100 18.5 -144s30.833 -82.333 55.5 -115z" />
    <glyph glyph-name="Ugrave" unicode="&#xd9;" horiz-adv-x="778" 
d="M371 909c-13.333 10.667 -25.165 18.999 -35.498 24.999s-20.833 9 -31.5 9c-18 0 -31.5 -6 -40.5 -18s-13.5 -24.333 -13.5 -37c0 -19.333 12.333 -37.333 37 -54l90 -61c11.333 -7.33301 20.166 -12.166 26.499 -14.499s12.833 -3.5 19.5 -3.5
c13.333 0 25.166 4.33301 35.499 13s15.5 20.667 15.5 36c0 9.33301 -2 17.5 -6 24.5s-11.667 14.833 -23 23.5zM76.001 269.999c0 -96 27.5 -167.833 82.5 -215.5s131.833 -71.5 230.5 -71.5s175.5 23.833 230.5 71.5s82.5 119.5 82.5 215.5v381
c0 24.667 -7.33301 44.5 -22 59.5s-34.667 22.5 -60 22.5c-24.667 0 -44.5 -7.5 -59.5 -22.5s-22.5 -34.833 -22.5 -59.5v-394c0 -48 -12.833 -83.667 -38.5 -107s-62.5 -35 -110.5 -35s-84.833 11.667 -110.5 35s-38.5 59 -38.5 107v394c0 24.667 -7.33301 44.5 -22 59.5
s-34.667 22.5 -60 22.5c-24.667 0 -44.5 -7.5 -59.5 -22.5s-22.5 -34.833 -22.5 -59.5v-381z" />
    <glyph glyph-name="Uacute" unicode="&#xda;" horiz-adv-x="778" 
d="M333 852c-10.667 -8.66699 -18.168 -16.499 -22.501 -23.499s-6.5 -15.167 -6.5 -24.5c0 -15.333 5.33301 -27.333 16 -36s22.334 -13 35.001 -13c6.66699 0 13.167 1.16699 19.5 3.5s15.166 7.16602 26.499 14.499l90 61c24.667 16.667 37 34.667 37 54
c0 12.667 -4.5 25 -13.5 37s-22.5 18 -40.5 18c-10.667 0 -21.167 -3 -31.5 -9s-22.166 -14.333 -35.499 -25zM75.999 270.001c0 -96 27.5 -167.833 82.5 -215.5s131.833 -71.5 230.5 -71.5s175.5 23.833 230.5 71.5s82.5 119.5 82.5 215.5v381
c0 24.667 -7.33301 44.5 -22 59.5s-34.667 22.5 -60 22.5c-24.667 0 -44.5 -7.5 -59.5 -22.5s-22.5 -34.833 -22.5 -59.5v-394c0 -48 -12.833 -83.667 -38.5 -107s-62.5 -35 -110.5 -35s-84.833 11.667 -110.5 35s-38.5 59 -38.5 107v394c0 24.667 -7.33301 44.5 -22 59.5
s-34.667 22.5 -60 22.5c-24.667 0 -44.5 -7.5 -59.5 -22.5s-22.5 -34.833 -22.5 -59.5v-381z" />
    <glyph glyph-name="Ucircumflex" unicode="&#xdb;" horiz-adv-x="778" 
d="M389 848l63.998 -64c10.667 -11.333 19.667 -19 27 -23s16 -6 26 -6c10.667 0 20.834 5 30.501 15s14.5 22.333 14.5 37c0 8.66699 -6.83301 20.5 -20.5 35.5s-31.5 32.5 -53.5 52.5c-18 16.667 -32.833 27.5 -44.5 32.5s-26.167 7.5 -43.5 7.5s-31.833 -2.5 -43.5 -7.5
s-26.5 -15.833 -44.5 -32.5c-21.333 -20 -39 -37.5 -53 -52.5s-21 -26.833 -21 -35.5c0 -14.667 4.83301 -27 14.5 -37s19.834 -15 30.501 -15c10 0 18.667 2 26 6s16.333 11.667 27 23zM75.998 270c0 -96 27.5 -167.833 82.5 -215.5s131.833 -71.5 230.5 -71.5
s175.5 23.833 230.5 71.5s82.5 119.5 82.5 215.5v381c0 24.667 -7.33301 44.5 -22 59.5s-34.667 22.5 -60 22.5c-24.667 0 -44.5 -7.5 -59.5 -22.5s-22.5 -34.833 -22.5 -59.5v-394c0 -48 -12.833 -83.667 -38.5 -107s-62.5 -35 -110.5 -35s-84.833 11.667 -110.5 35
s-38.5 59 -38.5 107v394c0 24.667 -7.33301 44.5 -22 59.5s-34.667 22.5 -60 22.5c-24.667 0 -44.5 -7.5 -59.5 -22.5s-22.5 -34.833 -22.5 -59.5v-381z" />
    <glyph glyph-name="Udieresis" unicode="&#xdc;" horiz-adv-x="778" 
d="M214 844c0 -20 7.16699 -37.167 21.5 -51.5s31.5 -21.5 51.5 -21.5s37.167 7.16699 51.5 21.5s21.5 31.5 21.5 51.5s-7.16699 37.167 -21.5 51.5s-31.5 21.5 -51.5 21.5s-37.167 -7.16699 -51.5 -21.5s-21.5 -31.5 -21.5 -51.5zM418 844
c0 -20 7.16699 -37.167 21.5 -51.5s31.5 -21.5 51.5 -21.5s37.167 7.16699 51.5 21.5s21.5 31.5 21.5 51.5s-7.16699 37.167 -21.5 51.5s-31.5 21.5 -51.5 21.5s-37.167 -7.16699 -51.5 -21.5s-21.5 -31.5 -21.5 -51.5zM76 270c0 -96 27.5 -167.833 82.5 -215.5
s131.833 -71.5 230.5 -71.5s175.5 23.833 230.5 71.5s82.5 119.5 82.5 215.5v381c0 24.667 -7.33301 44.5 -22 59.5s-34.667 22.5 -60 22.5c-24.667 0 -44.5 -7.5 -59.5 -22.5s-22.5 -34.833 -22.5 -59.5v-394c0 -48 -12.833 -83.667 -38.5 -107s-62.5 -35 -110.5 -35
s-84.833 11.667 -110.5 35s-38.5 59 -38.5 107v394c0 24.667 -7.33301 44.5 -22 59.5s-34.667 22.5 -60 22.5c-24.667 0 -44.5 -7.5 -59.5 -22.5s-22.5 -34.833 -22.5 -59.5v-381z" />
    <glyph glyph-name="Yacute" unicode="&#xdd;" 
d="M250 852c-10.667 -8.66699 -18.168 -16.499 -22.501 -23.499s-6.5 -15.167 -6.5 -24.5c0 -15.333 5.33301 -27.333 16 -36s22.334 -13 35.001 -13c6.66699 0 13.167 1.16699 19.5 3.5s15.166 7.16602 26.499 14.499l90 61c24.667 16.667 37 34.667 37 54
c0 12.667 -4.5 25 -13.5 37s-22.5 18 -40.5 18c-10.667 0 -21.167 -3 -31.5 -9s-22.166 -14.333 -35.499 -25zM223.999 69.001c0 -24.667 7.49707 -44.501 22.4971 -59.501s34.833 -22.5 59.5 -22.5c25.333 0 45.333 7.5 60 22.5s22 34.833 22 59.5v212l201 334
c9.33301 15.333 14 29.666 14 42.999c0 25.333 -8.66699 44.166 -26 56.499s-35.666 18.5 -54.999 18.5c-17.333 0 -31.166 -3.5 -41.499 -10.5s-20.166 -19.5 -29.499 -37.5l-142 -263l-143 263c-8.66699 16.667 -18.5 28.834 -29.5 36.501s-25.833 11.5 -44.5 11.5
c-20 0 -38.833 -6.16699 -56.5 -18.5s-26.5 -31.166 -26.5 -56.499c0 -13.333 4.66699 -27.666 14 -42.999l201 -334v-212z" />
    <glyph glyph-name="Thorn" unicode="&#xde;" horiz-adv-x="704" 
d="M76 69c0 -24.667 7.50098 -44.499 22.501 -59.499s34.833 -22.5 59.5 -22.5c25.333 0 45.333 7.5 60 22.5s22 34.833 22 59.5v77h182c78 0 139.167 21.167 183.5 63.5s66.5 97.166 66.5 164.499c0 38.667 -6.33301 72.5 -19 101.5s-30.334 52.833 -53.001 71.5
s-49 32.5 -79 41.5s-62.667 13.5 -98 13.5h-183v49c0 24.667 -7.33301 44.5 -22 59.5s-34.667 22.5 -60 22.5c-24.667 0 -44.5 -7.5 -59.5 -22.5s-22.5 -34.833 -22.5 -59.5v-582zM240.001 476.001l136 0.00195312c42 0 74.5 -8.33301 97.5 -25s34.5 -42.334 34.5 -77.001
c0 -30.667 -10.833 -55.334 -32.5 -74.001s-49.167 -28 -82.5 -28h-153v204z" />
    <glyph glyph-name="germandbls" unicode="&#xdf;" horiz-adv-x="611" 
d="M58 60c0 -23.333 6.50098 -41.333 19.501 -54s30.833 -19 53.5 -19s40.5 6.33301 53.5 19s19.5 30.667 19.5 54v454c0 32 7 59 21 81s37.667 33 71 33c29.333 0 51.833 -8.5 67.5 -25.5s23.5 -40.5 23.5 -70.5c0 -32 -5.66699 -52.833 -17 -62.5s-31.333 -17.5 -60 -23.5
c-30 -6 -45 -23.667 -45 -53c0 -14.667 4.66699 -26 14 -34s21.666 -13.333 36.999 -16c38 -6.66699 64.667 -18.667 80 -36s23 -45.666 23 -84.999c0 -37.333 -7.16699 -65 -21.5 -83s-32.833 -28.667 -55.5 -32l-5 -1c-24.667 -3.33301 -42.834 -8.5 -54.501 -15.5
s-17.5 -21.833 -17.5 -44.5c0 -19.333 7.83301 -34 23.5 -44s34.5 -15 56.5 -15c32.667 0 63 5.83301 91 17.5s52 28.167 72 49.5s35.5 46.5 46.5 75.5s16.5 60.167 16.5 93.5c0 44.667 -10.667 83.5 -32 116.5s-52.666 55.167 -93.999 66.5
c29.333 17.333 51.333 37.166 66 59.499s22 49.5 22 81.5c0 31.333 -6.5 58.833 -19.5 82.5s-30.667 43.5 -53 59.5s-47 27.833 -74 35.5s-54.5 11.5 -82.5 11.5c-80 0 -141 -19.5 -183 -58.5s-63 -95.5 -63 -169.5v-448z" />
    <glyph glyph-name="agrave" unicode="&#xe0;" horiz-adv-x="611" 
d="M288 727c-13.333 10.667 -25.165 18.999 -35.498 24.999s-20.833 9 -31.5 9c-18 0 -31.5 -6 -40.5 -18s-13.5 -24.333 -13.5 -37c0 -19.333 12.333 -37.333 37 -54l90 -61c11.333 -7.33301 20.166 -12.166 26.499 -14.499s12.833 -3.5 19.5 -3.5
c13.333 0 25.166 4.33301 35.499 13s15.5 20.667 15.5 36c0 9.33301 -2 17.5 -6 24.5s-11.667 14.833 -23 23.5zM543.001 385.999c0 50.667 -21.168 88.3301 -63.501 112.997s-100.166 37 -173.499 37c-36 0 -68.5 -4 -97.5 -12s-53.5 -18.5 -73.5 -31.5
s-35.167 -27.333 -45.5 -43s-15.5 -30.834 -15.5 -45.501c0 -15.333 5.83301 -28.5 17.5 -39.5s26.5 -16.5 44.5 -16.5c10.667 0 20 2.5 28 7.5s17.333 12.833 28 23.5c16 15.333 32 27.333 48 36s37.667 13 65 13c26.667 0 48.667 -5 66 -15s26 -25 26 -45
c0 -19.333 -5.33301 -32.5 -16 -39.5s-26.334 -11.833 -47.001 -14.5l-89 -10c-30 -3.33301 -57.167 -8.5 -81.5 -15.5s-45.666 -16.667 -63.999 -29s-32.666 -28.666 -42.999 -48.999s-15.5 -45.166 -15.5 -74.499c0 -44 16.5 -79.833 49.5 -107.5s71.5 -41.5 115.5 -41.5
c40.667 0 77.334 6.66699 110.001 20s62.667 35 90 65c1.33301 -25.333 8.66602 -45.833 21.999 -61.5s34.666 -23.5 63.999 -23.5c18 0 33.5 5.33301 46.5 16s19.5 24 19.5 40c0 6 -1.66699 14.333 -5 25c-2.66699 10.667 -5 21.334 -7 32.001s-3 24.334 -3 41.001v245z
M397 188.995c0 -28.667 -11.8311 -53.501 -35.498 -74.501s-54.834 -31.5 -93.501 -31.5c-24.667 0 -44.334 5.83301 -59.001 17.5s-22 25.834 -22 42.501c0 21.333 7.66699 37.5 23 48.5s39 18.833 71 23.5l53 8h1c14 2.66699 26.167 5.66699 36.5 9s18.833 8 25.5 14v-57z
" />
    <glyph glyph-name="aacute" unicode="&#xe1;" horiz-adv-x="611" 
d="M250 670c-10.667 -8.66699 -18.168 -16.499 -22.501 -23.499s-6.5 -15.167 -6.5 -24.5c0 -15.333 5.33301 -27.333 16 -36s22.334 -13 35.001 -13c6.66699 0 13.167 1.16699 19.5 3.5s15.166 7.16602 26.499 14.499l90 61c24.667 16.667 37 34.667 37 54
c0 12.667 -4.5 25 -13.5 37s-22.5 18 -40.5 18c-10.667 0 -21.167 -3 -31.5 -9s-22.166 -14.333 -35.499 -25zM542.999 386.001c0 50.667 -21.168 88.3301 -63.501 112.997s-100.166 37 -173.499 37c-36 0 -68.5 -4 -97.5 -12s-53.5 -18.5 -73.5 -31.5
s-35.167 -27.333 -45.5 -43s-15.5 -30.834 -15.5 -45.501c0 -15.333 5.83301 -28.5 17.5 -39.5s26.5 -16.5 44.5 -16.5c10.667 0 20 2.5 28 7.5s17.333 12.833 28 23.5c16 15.333 32 27.333 48 36s37.667 13 65 13c26.667 0 48.667 -5 66 -15s26 -25 26 -45
c0 -19.333 -5.33301 -32.5 -16 -39.5s-26.334 -11.833 -47.001 -14.5l-89 -10c-30 -3.33301 -57.167 -8.5 -81.5 -15.5s-45.666 -16.667 -63.999 -29s-32.666 -28.666 -42.999 -48.999s-15.5 -45.166 -15.5 -74.499c0 -44 16.5 -79.833 49.5 -107.5s71.5 -41.5 115.5 -41.5
c40.667 0 77.334 6.66699 110.001 20s62.667 35 90 65c1.33301 -25.333 8.66602 -45.833 21.999 -61.5s34.666 -23.5 63.999 -23.5c18 0 33.5 5.33301 46.5 16s19.5 24 19.5 40c0 6 -1.66699 14.333 -5 25c-2.66699 10.667 -5 21.334 -7 32.001s-3 24.334 -3 41.001v245z
M396.998 188.997c0 -28.667 -11.8311 -53.501 -35.498 -74.501s-54.834 -31.5 -93.501 -31.5c-24.667 0 -44.334 5.83301 -59.001 17.5s-22 25.834 -22 42.501c0 21.333 7.66699 37.5 23 48.5s39 18.833 71 23.5l53 8h1c14 2.66699 26.167 5.66699 36.5 9s18.833 8 25.5 14
v-57z" />
    <glyph glyph-name="acircumflex" unicode="&#xe2;" horiz-adv-x="611" 
d="M306 666l63.998 -64c10.667 -11.333 19.667 -19 27 -23s16 -6 26 -6c10.667 0 20.834 5 30.501 15s14.5 22.333 14.5 37c0 8.66699 -6.83301 20.5 -20.5 35.5s-31.5 32.5 -53.5 52.5c-18 16.667 -32.833 27.5 -44.5 32.5s-26.167 7.5 -43.5 7.5s-31.833 -2.5 -43.5 -7.5
s-26.5 -15.833 -44.5 -32.5c-21.333 -20 -39 -37.5 -53 -52.5s-21 -26.833 -21 -35.5c0 -14.667 4.83301 -27 14.5 -37s19.834 -15 30.501 -15c10 0 18.667 2 26 6s16.333 11.667 27 23zM542.998 386c0 50.667 -21.168 88.3301 -63.501 112.997s-100.166 37 -173.499 37
c-36 0 -68.5 -4 -97.5 -12s-53.5 -18.5 -73.5 -31.5s-35.167 -27.333 -45.5 -43s-15.5 -30.834 -15.5 -45.501c0 -15.333 5.83301 -28.5 17.5 -39.5s26.5 -16.5 44.5 -16.5c10.667 0 20 2.5 28 7.5s17.333 12.833 28 23.5c16 15.333 32 27.333 48 36s37.667 13 65 13
c26.667 0 48.667 -5 66 -15s26 -25 26 -45c0 -19.333 -5.33301 -32.5 -16 -39.5s-26.334 -11.833 -47.001 -14.5l-89 -10c-30 -3.33301 -57.167 -8.5 -81.5 -15.5s-45.666 -16.667 -63.999 -29s-32.666 -28.666 -42.999 -48.999s-15.5 -45.166 -15.5 -74.499
c0 -44 16.5 -79.833 49.5 -107.5s71.5 -41.5 115.5 -41.5c40.667 0 77.334 6.66699 110.001 20s62.667 35 90 65c1.33301 -25.333 8.66602 -45.833 21.999 -61.5s34.666 -23.5 63.999 -23.5c18 0 33.5 5.33301 46.5 16s19.5 24 19.5 40c0 6 -1.66699 14.333 -5 25
c-2.66699 10.667 -5 21.334 -7 32.001s-3 24.334 -3 41.001v245zM396.997 188.996c0 -28.667 -11.8311 -53.501 -35.498 -74.501s-54.834 -31.5 -93.501 -31.5c-24.667 0 -44.334 5.83301 -59.001 17.5s-22 25.834 -22 42.501c0 21.333 7.66699 37.5 23 48.5
s39 18.833 71 23.5l53 8h1c14 2.66699 26.167 5.66699 36.5 9s18.833 8 25.5 14v-57z" />
    <glyph glyph-name="atilde" unicode="&#xe3;" horiz-adv-x="611" 
d="M128 649c0 -18 4.83203 -31.333 14.499 -40s20.834 -13 33.501 -13c9.33301 0 21.666 5.66699 36.999 17c8 6.66699 15.167 11.5 21.5 14.5s13.166 4.5 20.499 4.5c6.66699 0 20.334 -4.33301 41.001 -13c17.333 -7.33301 32.333 -13 45 -17s25 -6 37 -6
c11.333 0 23.166 2.66699 35.499 8s23.833 12.5 34.5 21.5s19.334 19 26.001 30s10 22.167 10 33.5c0 16 -4.33301 27.5 -13 34.5s-21 10.5 -37 10.5c-8 0 -15.167 -1.5 -21.5 -4.5s-12.833 -6.83301 -19.5 -11.5l-1 -1c-2 -1.33301 -3.33301 -2.33301 -4 -3
c-12.667 -10 -23.667 -15 -33 -15c-11.333 0 -30.666 5.66699 -57.999 17c-0.666992 0 -1.66699 0.333008 -3 1l-2 1c-30 10.667 -53.333 16 -70 16c-22.667 0 -44 -8.5 -64 -25.5s-30 -36.833 -30 -59.5zM542.999 386c0 50.667 -21.168 88.3301 -63.501 112.997
s-100.166 37 -173.499 37c-36 0 -68.5 -4 -97.5 -12s-53.5 -18.5 -73.5 -31.5s-35.167 -27.333 -45.5 -43s-15.5 -30.834 -15.5 -45.501c0 -15.333 5.83301 -28.5 17.5 -39.5s26.5 -16.5 44.5 -16.5c10.667 0 20 2.5 28 7.5s17.333 12.833 28 23.5
c16 15.333 32 27.333 48 36s37.667 13 65 13c26.667 0 48.667 -5 66 -15s26 -25 26 -45c0 -19.333 -5.33301 -32.5 -16 -39.5s-26.334 -11.833 -47.001 -14.5l-89 -10c-30 -3.33301 -57.167 -8.5 -81.5 -15.5s-45.666 -16.667 -63.999 -29s-32.666 -28.666 -42.999 -48.999
s-15.5 -45.166 -15.5 -74.499c0 -44 16.5 -79.833 49.5 -107.5s71.5 -41.5 115.5 -41.5c40.667 0 77.334 6.66699 110.001 20s62.667 35 90 65c1.33301 -25.333 8.66602 -45.833 21.999 -61.5s34.666 -23.5 63.999 -23.5c18 0 33.5 5.33301 46.5 16s19.5 24 19.5 40
c0 6 -1.66699 14.333 -5 25c-2.66699 10.667 -5 21.334 -7 32.001s-3 24.334 -3 41.001v245zM396.998 188.996c0 -28.667 -11.8311 -53.501 -35.498 -74.501s-54.834 -31.5 -93.501 -31.5c-24.667 0 -44.334 5.83301 -59.001 17.5s-22 25.834 -22 42.501
c0 21.333 7.66699 37.5 23 48.5s39 18.833 71 23.5l53 8h1c14 2.66699 26.167 5.66699 36.5 9s18.833 8 25.5 14v-57z" />
    <glyph glyph-name="adieresis" unicode="&#xe4;" horiz-adv-x="611" 
d="M131 662c0 -20 7.16699 -37.167 21.5 -51.5s31.5 -21.5 51.5 -21.5s37.167 7.16699 51.5 21.5s21.5 31.5 21.5 51.5s-7.16699 37.167 -21.5 51.5s-31.5 21.5 -51.5 21.5s-37.167 -7.16699 -51.5 -21.5s-21.5 -31.5 -21.5 -51.5zM335 662
c0 -20 7.16699 -37.167 21.5 -51.5s31.5 -21.5 51.5 -21.5s37.167 7.16699 51.5 21.5s21.5 31.5 21.5 51.5s-7.16699 37.167 -21.5 51.5s-31.5 21.5 -51.5 21.5s-37.167 -7.16699 -51.5 -21.5s-21.5 -31.5 -21.5 -51.5zM543 386c0 50.667 -21.168 88.3301 -63.501 112.997
s-100.166 37 -173.499 37c-36 0 -68.5 -4 -97.5 -12s-53.5 -18.5 -73.5 -31.5s-35.167 -27.333 -45.5 -43s-15.5 -30.834 -15.5 -45.501c0 -15.333 5.83301 -28.5 17.5 -39.5s26.5 -16.5 44.5 -16.5c10.667 0 20 2.5 28 7.5s17.333 12.833 28 23.5
c16 15.333 32 27.333 48 36s37.667 13 65 13c26.667 0 48.667 -5 66 -15s26 -25 26 -45c0 -19.333 -5.33301 -32.5 -16 -39.5s-26.334 -11.833 -47.001 -14.5l-89 -10c-30 -3.33301 -57.167 -8.5 -81.5 -15.5s-45.666 -16.667 -63.999 -29s-32.666 -28.666 -42.999 -48.999
s-15.5 -45.166 -15.5 -74.499c0 -44 16.5 -79.833 49.5 -107.5s71.5 -41.5 115.5 -41.5c40.667 0 77.334 6.66699 110.001 20s62.667 35 90 65c1.33301 -25.333 8.66602 -45.833 21.999 -61.5s34.666 -23.5 63.999 -23.5c18 0 33.5 5.33301 46.5 16s19.5 24 19.5 40
c0 6 -1.66699 14.333 -5 25c-2.66699 10.667 -5 21.334 -7 32.001s-3 24.334 -3 41.001v245zM396.999 188.996c0 -28.667 -11.8311 -53.501 -35.498 -74.501s-54.834 -31.5 -93.501 -31.5c-24.667 0 -44.334 5.83301 -59.001 17.5s-22 25.834 -22 42.501
c0 21.333 7.66699 37.5 23 48.5s39 18.833 71 23.5l53 8h1c14 2.66699 26.167 5.66699 36.5 9s18.833 8 25.5 14v-57z" />
    <glyph glyph-name="aring" unicode="&#xe5;" horiz-adv-x="611" 
d="M198 673c0 -30 10.5 -55.5 31.5 -76.5s46.5 -31.5 76.5 -31.5s55.5 10.5 76.5 31.5s31.5 46.5 31.5 76.5s-10.5 55.5 -31.5 76.5s-46.5 31.5 -76.5 31.5s-55.5 -10.5 -76.5 -31.5s-31.5 -46.5 -31.5 -76.5zM254 673c0 14.667 5 27 15 37s22.333 15 37 15s27 -5 37 -15
s15 -22.333 15 -37s-5 -27 -15 -37s-22.333 -15 -37 -15s-27 5 -37 15s-15 22.333 -15 37zM543 386c0 50.667 -21.168 88.3301 -63.501 112.997s-100.166 37 -173.499 37c-36 0 -68.5 -4 -97.5 -12s-53.5 -18.5 -73.5 -31.5s-35.167 -27.333 -45.5 -43
s-15.5 -30.834 -15.5 -45.501c0 -15.333 5.83301 -28.5 17.5 -39.5s26.5 -16.5 44.5 -16.5c10.667 0 20 2.5 28 7.5s17.333 12.833 28 23.5c16 15.333 32 27.333 48 36s37.667 13 65 13c26.667 0 48.667 -5 66 -15s26 -25 26 -45c0 -19.333 -5.33301 -32.5 -16 -39.5
s-26.334 -11.833 -47.001 -14.5l-89 -10c-30 -3.33301 -57.167 -8.5 -81.5 -15.5s-45.666 -16.667 -63.999 -29s-32.666 -28.666 -42.999 -48.999s-15.5 -45.166 -15.5 -74.499c0 -44 16.5 -79.833 49.5 -107.5s71.5 -41.5 115.5 -41.5c40.667 0 77.334 6.66699 110.001 20
s62.667 35 90 65c1.33301 -25.333 8.66602 -45.833 21.999 -61.5s34.666 -23.5 63.999 -23.5c18 0 33.5 5.33301 46.5 16s19.5 24 19.5 40c0 6 -1.66699 14.333 -5 25c-2.66699 10.667 -5 21.334 -7 32.001s-3 24.334 -3 41.001v245zM396.999 188.996
c0 -28.667 -11.8311 -53.501 -35.498 -74.501s-54.834 -31.5 -93.501 -31.5c-24.667 0 -44.334 5.83301 -59.001 17.5s-22 25.834 -22 42.501c0 21.333 7.66699 37.5 23 48.5s39 18.833 71 23.5l53 8h1c14 2.66699 26.167 5.66699 36.5 9s18.833 8 25.5 14v-57z" />
    <glyph glyph-name="ae" unicode="&#xe6;" horiz-adv-x="944" 
d="M844 234c24.667 0 41.5 4.3291 50.5 12.9961s13.5 25.334 13.5 50.001c0 30 -5.83301 59.333 -17.5 88s-28.5 54.334 -50.5 77.001s-48.667 40.667 -80 54s-66 20 -104 20s-71.333 -6.5 -100 -19.5s-52 -27.833 -70 -44.5c-24.667 24 -51.667 40.667 -81 50
s-62.333 14 -99 14c-36 0 -68.5 -4 -97.5 -12s-53.5 -18.5 -73.5 -31.5s-35.167 -27.333 -45.5 -43s-15.5 -30.834 -15.5 -45.501c0 -15.333 5.83301 -28.5 17.5 -39.5s26.5 -16.5 44.5 -16.5c10.667 0 20 2.5 28 7.5s17.333 12.833 28 23.5c16 15.333 32 27.333 48 36
s37.667 13 65 13c26.667 0 48.667 -5 66 -15s26 -25 26 -45c0 -19.333 -5.33301 -32.5 -16 -39.5s-26.334 -11.833 -47.001 -14.5l-89 -10c-30 -3.33301 -57.167 -8.5 -81.5 -15.5s-45.666 -16.667 -63.999 -29s-32.666 -28.666 -42.999 -48.999
s-15.5 -45.166 -15.5 -74.499c0 -45.333 18 -81.5 54 -108.5s81.667 -40.5 137 -40.5c44.667 0 84.5 7.33301 119.5 22s67.5 39.334 97.5 74.001c28 -36 57.167 -61 87.5 -75s67.833 -21 112.5 -21c23.333 0 48.166 2.66699 74.499 8s51.333 13.5 75 24.5
s42.834 24.667 57.501 41s22 34.833 22 55.5c0 14 -5.83301 27 -17.5 39s-25.834 18 -42.501 18c-11.333 0 -21 -2.33301 -29 -7s-17 -11.667 -27 -21c-16 -14 -31.833 -24.833 -47.5 -32.5s-37.5 -11.5 -65.5 -11.5c-34 0 -63.5 12.333 -88.5 37s-37.5 56.667 -37.5 96h321
zM397 188.996c0 -28.667 -11.8311 -53.501 -35.498 -74.501s-54.834 -31.5 -93.501 -31.5c-24.667 0 -44.334 5.83301 -59.001 17.5s-22 25.834 -22 42.501c0 21.333 7.66699 37.5 23 48.5s39 18.833 71 23.5l53 8h1c14 2.66699 26.167 5.66699 36.5 9s18.833 8 25.5 14v-57
zM523.002 317.995c8.66699 38 23.5 66.833 44.5 86.5s50.5 29.5 88.5 29.5c28 0 53 -11 75 -33s35 -49.667 39 -83h-247z" />
    <glyph glyph-name="ccedilla" unicode="&#xe7;" horiz-adv-x="537" 
d="M241 -59l-1 -1.99902c-6.66699 -10.667 -10 -18 -10 -22c0 -13.333 7.66699 -20 23 -20c2 0 6 0.333008 12 1c8 1.33301 14.667 2 20 2c16.667 0 25 -8.66699 25 -26c0 -21.333 -11.667 -32 -35 -32c-8 0 -19.667 2.33301 -35 7c-10 2.66699 -16.667 4 -20 4
c-6.66699 0 -12.334 -2.66699 -17.001 -8s-7 -11.333 -7 -18c0 -10.667 6.83301 -20.167 20.5 -28.5s34.5 -12.5 62.5 -12.5c33.333 0 61.833 8.16699 85.5 24.5s35.5 37.833 35.5 64.5c0 24 -8.5 41.667 -25.5 53s-39.833 17 -68.5 17h-7l30 45
c58.667 5.33301 104.667 23.166 138 53.499s50 62.166 50 95.499c0 15.333 -5.66699 28.5 -17 39.5s-26 16.5 -44 16.5c-16 0 -28.5 -3.5 -37.5 -10.5s-18.5 -17.5 -28.5 -31.5c-11.333 -16.667 -23.333 -29.5 -36 -38.5s-31 -13.5 -55 -13.5
c-39.333 0 -69.666 13.5 -90.999 40.5s-32 63.5 -32 109.5c0 32 3.66699 59 11 81s17 39.667 29 53s25.167 22.833 39.5 28.5s29.166 8.5 44.499 8.5c26 0 45.167 -4.16699 57.5 -12.5s24.166 -20.833 35.499 -37.5c8.66699 -12 16.667 -21 24 -27s18 -9 32 -9
c19.333 0 35.5 5.5 48.5 16.5s19.5 26.5 19.5 46.5c0 16.667 -5.33301 33.334 -16 50.001s-25.667 31.5 -45 44.5s-42.166 23.333 -68.499 31s-54.166 11.5 -83.499 11.5c-87.333 0 -154.833 -26 -202.5 -78s-71.5 -121 -71.5 -207c0 -76 20.5 -137.667 61.5 -185
s101.167 -73 180.5 -77z" />
    <glyph glyph-name="egrave" unicode="&#xe8;" 
d="M288 727c-13.333 10.667 -25.165 18.999 -35.498 24.999s-20.833 9 -31.5 9c-18 0 -31.5 -6 -40.5 -18s-13.5 -24.333 -13.5 -37c0 -19.333 12.333 -37.333 37 -54l90 -61c11.333 -7.33301 20.166 -12.166 26.499 -14.499s12.833 -3.5 19.5 -3.5
c13.333 0 25.166 4.33301 35.499 13s15.5 20.667 15.5 36c0 9.33301 -2 17.5 -6 24.5s-11.667 14.833 -23 23.5zM512.001 233.999c24.667 0 41.499 4.33008 50.499 12.9971s13.5 25.334 13.5 50.001c0 30.667 -5.83301 60.167 -17.5 88.5s-29 54 -52 77s-51 41 -84 54
s-69.833 19.5 -110.5 19.5c-85.333 0 -152.666 -25.833 -201.999 -77.5s-74 -120.5 -74 -206.5c0 -33.333 5.33301 -65.666 16 -96.999s27.334 -59.666 50.001 -84.999s52 -45.5 88 -60.5s78.333 -22.5 127 -22.5c23.333 0 48.166 2.66699 74.499 8s51.333 13.5 75 24.5
s42.834 24.667 57.501 41s22 34.833 22 55.5c0 14 -5.83301 27 -17.5 39s-25.834 18 -42.501 18c-11.333 0 -21 -2.33301 -29 -7s-17 -11.667 -27 -21c-16 -14 -31.833 -24.833 -47.5 -32.5s-37.5 -11.5 -65.5 -11.5c-42 0 -75 12.333 -99 37s-36 56.667 -36 96h330z
M182 317.996c8 36.667 23.333 65.167 46 85.5s51.667 30.5 87 30.5c32 0 59.5 -10.833 82.5 -32.5s36.5 -49.5 40.5 -83.5h-256z" />
    <glyph glyph-name="eacute" unicode="&#xe9;" 
d="M250 670c-10.667 -8.66699 -18.168 -16.499 -22.501 -23.499s-6.5 -15.167 -6.5 -24.5c0 -15.333 5.33301 -27.333 16 -36s22.334 -13 35.001 -13c6.66699 0 13.167 1.16699 19.5 3.5s15.166 7.16602 26.499 14.499l90 61c24.667 16.667 37 34.667 37 54
c0 12.667 -4.5 25 -13.5 37s-22.5 18 -40.5 18c-10.667 0 -21.167 -3 -31.5 -9s-22.166 -14.333 -35.499 -25zM511.999 234.001c24.667 0 41.499 4.33008 50.499 12.9971s13.5 25.334 13.5 50.001c0 30.667 -5.83301 60.167 -17.5 88.5s-29 54 -52 77s-51 41 -84 54
s-69.833 19.5 -110.5 19.5c-85.333 0 -152.666 -25.833 -201.999 -77.5s-74 -120.5 -74 -206.5c0 -33.333 5.33301 -65.666 16 -96.999s27.334 -59.666 50.001 -84.999s52 -45.5 88 -60.5s78.333 -22.5 127 -22.5c23.333 0 48.166 2.66699 74.499 8s51.333 13.5 75 24.5
s42.834 24.667 57.501 41s22 34.833 22 55.5c0 14 -5.83301 27 -17.5 39s-25.834 18 -42.501 18c-11.333 0 -21 -2.33301 -29 -7s-17 -11.667 -27 -21c-16 -14 -31.833 -24.833 -47.5 -32.5s-37.5 -11.5 -65.5 -11.5c-42 0 -75 12.333 -99 37s-36 56.667 -36 96h330z
M181.998 317.998c8 36.667 23.333 65.167 46 85.5s51.667 30.5 87 30.5c32 0 59.5 -10.833 82.5 -32.5s36.5 -49.5 40.5 -83.5h-256z" />
    <glyph glyph-name="ecircumflex" unicode="&#xea;" 
d="M306 666l63.998 -64c10.667 -11.333 19.667 -19 27 -23s16 -6 26 -6c10.667 0 20.834 5 30.501 15s14.5 22.333 14.5 37c0 8.66699 -6.83301 20.5 -20.5 35.5s-31.5 32.5 -53.5 52.5c-18 16.667 -32.833 27.5 -44.5 32.5s-26.167 7.5 -43.5 7.5s-31.833 -2.5 -43.5 -7.5
s-26.5 -15.833 -44.5 -32.5c-21.333 -20 -39 -37.5 -53 -52.5s-21 -26.833 -21 -35.5c0 -14.667 4.83301 -27 14.5 -37s19.834 -15 30.501 -15c10 0 18.667 2 26 6s16.333 11.667 27 23zM511.998 234c24.667 0 41.499 4.33008 50.499 12.9971s13.5 25.334 13.5 50.001
c0 30.667 -5.83301 60.167 -17.5 88.5s-29 54 -52 77s-51 41 -84 54s-69.833 19.5 -110.5 19.5c-85.333 0 -152.666 -25.833 -201.999 -77.5s-74 -120.5 -74 -206.5c0 -33.333 5.33301 -65.666 16 -96.999s27.334 -59.666 50.001 -84.999s52 -45.5 88 -60.5
s78.333 -22.5 127 -22.5c23.333 0 48.166 2.66699 74.499 8s51.333 13.5 75 24.5s42.834 24.667 57.501 41s22 34.833 22 55.5c0 14 -5.83301 27 -17.5 39s-25.834 18 -42.501 18c-11.333 0 -21 -2.33301 -29 -7s-17 -11.667 -27 -21c-16 -14 -31.833 -24.833 -47.5 -32.5
s-37.5 -11.5 -65.5 -11.5c-42 0 -75 12.333 -99 37s-36 56.667 -36 96h330zM181.997 317.997c8 36.667 23.333 65.167 46 85.5s51.667 30.5 87 30.5c32 0 59.5 -10.833 82.5 -32.5s36.5 -49.5 40.5 -83.5h-256z" />
    <glyph glyph-name="edieresis" unicode="&#xeb;" 
d="M131 662c0 -20 7.16699 -37.167 21.5 -51.5s31.5 -21.5 51.5 -21.5s37.167 7.16699 51.5 21.5s21.5 31.5 21.5 51.5s-7.16699 37.167 -21.5 51.5s-31.5 21.5 -51.5 21.5s-37.167 -7.16699 -51.5 -21.5s-21.5 -31.5 -21.5 -51.5zM335 662
c0 -20 7.16699 -37.167 21.5 -51.5s31.5 -21.5 51.5 -21.5s37.167 7.16699 51.5 21.5s21.5 31.5 21.5 51.5s-7.16699 37.167 -21.5 51.5s-31.5 21.5 -51.5 21.5s-37.167 -7.16699 -51.5 -21.5s-21.5 -31.5 -21.5 -51.5zM512 234c24.667 0 41.499 4.33008 50.499 12.9971
s13.5 25.334 13.5 50.001c0 30.667 -5.83301 60.167 -17.5 88.5s-29 54 -52 77s-51 41 -84 54s-69.833 19.5 -110.5 19.5c-85.333 0 -152.666 -25.833 -201.999 -77.5s-74 -120.5 -74 -206.5c0 -33.333 5.33301 -65.666 16 -96.999s27.334 -59.666 50.001 -84.999
s52 -45.5 88 -60.5s78.333 -22.5 127 -22.5c23.333 0 48.166 2.66699 74.499 8s51.333 13.5 75 24.5s42.834 24.667 57.501 41s22 34.833 22 55.5c0 14 -5.83301 27 -17.5 39s-25.834 18 -42.501 18c-11.333 0 -21 -2.33301 -29 -7s-17 -11.667 -27 -21
c-16 -14 -31.833 -24.833 -47.5 -32.5s-37.5 -11.5 -65.5 -11.5c-42 0 -75 12.333 -99 37s-36 56.667 -36 96h330zM181.999 317.997c8 36.667 23.333 65.167 46 85.5s51.667 30.5 87 30.5c32 0 59.5 -10.833 82.5 -32.5s36.5 -49.5 40.5 -83.5h-256z" />
    <glyph glyph-name="igrave" unicode="&#xec;" horiz-adv-x="278" 
d="M121 727c-13.333 10.667 -25.165 18.999 -35.498 24.999s-20.833 9 -31.5 9c-18 0 -31.5 -6 -40.5 -18s-13.5 -24.333 -13.5 -37c0 -19.333 12.333 -37.333 37 -54l90 -61c11.333 -7.33301 20.166 -12.166 26.499 -14.499s12.833 -3.5 19.5 -3.5
c13.333 0 25.166 4.33301 35.499 13s15.5 20.667 15.5 36c0 9.33301 -2 17.5 -6 24.5s-11.667 14.833 -23 23.5zM66.001 59.999c0 -22 5.5 -39.667 16.5 -53s29.833 -20 56.5 -20s45.5 6.66699 56.5 20s16.5 31 16.5 53v403c0 22 -5.5 39.667 -16.5 53s-29.833 20 -56.5 20
s-45.5 -6.66699 -56.5 -20s-16.5 -31 -16.5 -53v-403z" />
    <glyph glyph-name="iacute" unicode="&#xed;" horiz-adv-x="278" 
d="M83 670c-10.667 -8.66699 -18.168 -16.499 -22.501 -23.499s-6.5 -15.167 -6.5 -24.5c0 -15.333 5.33301 -27.333 16 -36s22.334 -13 35.001 -13c6.66699 0 13.167 1.16699 19.5 3.5s15.166 7.16602 26.499 14.499l90 61c24.667 16.667 37 34.667 37 54
c0 12.667 -4.5 25 -13.5 37s-22.5 18 -40.5 18c-10.667 0 -21.167 -3 -31.5 -9s-22.166 -14.333 -35.499 -25zM65.999 60.001c0 -22 5.5 -39.667 16.5 -53s29.833 -20 56.5 -20s45.5 6.66699 56.5 20s16.5 31 16.5 53v403c0 22 -5.5 39.667 -16.5 53s-29.833 20 -56.5 20
s-45.5 -6.66699 -56.5 -20s-16.5 -31 -16.5 -53v-403z" />
    <glyph glyph-name="icircumflex" unicode="&#xee;" horiz-adv-x="278" 
d="M139 666l63.998 -64c10.667 -11.333 19.667 -19 27 -23s16 -6 26 -6c10.667 0 20.834 5 30.501 15s14.5 22.333 14.5 37c0 8.66699 -6.83301 20.5 -20.5 35.5s-31.5 32.5 -53.5 52.5c-18 16.667 -32.833 27.5 -44.5 32.5s-26.167 7.5 -43.5 7.5s-31.833 -2.5 -43.5 -7.5
s-26.5 -15.833 -44.5 -32.5c-22 -20 -39.833 -37.5 -53.5 -52.5s-20.5 -26.833 -20.5 -35.5c0 -14.667 4.83301 -27 14.5 -37s19.834 -15 30.501 -15c10 0 18.667 2 26 6s16.333 11.667 27 23zM65.998 60c0 -22 5.5 -39.667 16.5 -53s29.833 -20 56.5 -20
s45.5 6.66699 56.5 20s16.5 31 16.5 53v403c0 22 -5.5 39.667 -16.5 53s-29.833 20 -56.5 20s-45.5 -6.66699 -56.5 -20s-16.5 -31 -16.5 -53v-403z" />
    <glyph glyph-name="idieresis" unicode="&#xef;" horiz-adv-x="278" 
d="M-36 662c0 -20 7.16699 -37.167 21.5 -51.5s31.5 -21.5 51.5 -21.5s37.167 7.16699 51.5 21.5s21.5 31.5 21.5 51.5s-7.16699 37.167 -21.5 51.5s-31.5 21.5 -51.5 21.5s-37.167 -7.16699 -51.5 -21.5s-21.5 -31.5 -21.5 -51.5zM168 662
c0 -20 7.16699 -37.167 21.5 -51.5s31.5 -21.5 51.5 -21.5s37.167 7.16699 51.5 21.5s21.5 31.5 21.5 51.5s-7.16699 37.167 -21.5 51.5s-31.5 21.5 -51.5 21.5s-37.167 -7.16699 -51.5 -21.5s-21.5 -31.5 -21.5 -51.5zM66 60c0 -22 5.5 -39.667 16.5 -53
s29.833 -20 56.5 -20s45.5 6.66699 56.5 20s16.5 31 16.5 53v403c0 22 -5.5 39.667 -16.5 53s-29.833 20 -56.5 20s-45.5 -6.66699 -56.5 -20s-16.5 -31 -16.5 -53v-403z" />
    <glyph glyph-name="eth" unicode="&#xf0;" 
d="M182 262c0 50 10.5 90.167 31.5 120.5s51.833 45.5 92.5 45.5s71.5 -15.167 92.5 -45.5s31.5 -70.5 31.5 -120.5c0 -48 -10.333 -87.833 -31 -119.5s-51.667 -47.5 -93 -47.5s-72.333 15.833 -93 47.5s-31 71.5 -31 119.5zM324 613
c17.333 -14.667 31.833 -30.1689 43.5 -46.502s22.167 -36.166 31.5 -59.499l-2 -2c-9.33301 9.33301 -21.833 16.833 -37.5 22.5s-35.167 8.5 -58.5 8.5c-40.667 0 -77.5 -6.83301 -110.5 -20.5s-61 -33 -84 -58s-40.5 -54.167 -52.5 -87.5s-18 -69.333 -18 -108
c0 -38 5 -73.5 15 -106.5s25.667 -62.167 47 -87.5s49.333 -45.166 84 -59.499s76 -21.5 124 -21.5s89.333 7.33301 124 22s62.667 35.5 84 62.5s37 58.5 47 94.5s15 76 15 120c0 74 -12 144.667 -36 212s-60 121.666 -108 162.999l45 20
c19.333 8.66699 29 20.334 29 35.001c0 8.66699 -3 16 -9 22s-13.333 9 -22 9c-8 0 -16.667 -2 -26 -6l-83 -37c-42 22 -89.333 33 -142 33c-31.333 0 -47 -10.333 -47 -31c0 -8.66699 2.83301 -14.667 8.5 -18s15.167 -6.66602 28.5 -9.99902
c21.333 -6 38.333 -12.333 51 -19l-72 -32c-19.333 -8.66699 -29 -20.334 -29 -35.001c0 -8.66699 3 -16 9 -22s13.333 -9 22 -9c8 0 16.667 2 26 6z" />
    <glyph glyph-name="ntilde" unicode="&#xf1;" horiz-adv-x="611" 
d="M128 649c0 -18 4.83203 -31.333 14.499 -40s20.834 -13 33.501 -13c9.33301 0 21.666 5.66699 36.999 17c8 6.66699 15.167 11.5 21.5 14.5s13.166 4.5 20.499 4.5c6.66699 0 20.334 -4.33301 41.001 -13c17.333 -7.33301 32.333 -13 45 -17s25 -6 37 -6
c11.333 0 23.166 2.66699 35.499 8s23.833 12.5 34.5 21.5s19.334 19 26.001 30s10 22.167 10 33.5c0 16 -4.33301 27.5 -13 34.5s-21 10.5 -37 10.5c-8 0 -15.167 -1.5 -21.5 -4.5s-12.833 -6.83301 -19.5 -11.5l-1 -1c-2 -1.33301 -3.33301 -2.33301 -4 -3
c-12.667 -10 -23.667 -15 -33 -15c-11.333 0 -30.666 5.66699 -57.999 17c-0.666992 0 -1.66699 0.333008 -3 1l-2 1c-30 10.667 -53.333 16 -70 16c-22.667 0 -44 -8.5 -64 -25.5s-30 -36.833 -30 -59.5zM57.999 60c0 -22 5.50098 -39.667 16.501 -53s29.833 -20 56.5 -20
s45.5 6.66699 56.5 20s16.5 31 16.5 53v241c0 34.667 11.5 62.5 34.5 83.5s48.5 31.5 76.5 31.5c30.667 0 53.667 -9.16699 69 -27.5s23 -42.833 23 -73.5v-255c0 -22 5.5 -39.667 16.5 -53s29.833 -20 56.5 -20s45.5 6.66699 56.5 20s16.5 31 16.5 53v284
c0 35.333 -5.16699 65.5 -15.5 90.5s-24.333 45 -42 60s-37.334 25.667 -59.001 32s-44.167 9.5 -67.5 9.5c-38.667 0 -72.167 -8 -100.5 -24s-53.833 -38.667 -76.5 -68h-2v19c0 22.667 -5.5 40.5 -16.5 53.5s-27.5 19.5 -49.5 19.5s-38.5 -6.5 -49.5 -19.5
s-16.5 -30.833 -16.5 -53.5v-403z" />
    <glyph glyph-name="ograve" unicode="&#xf2;" 
d="M288 727c-13.333 10.667 -25.165 18.999 -35.498 24.999s-20.833 9 -31.5 9c-18 0 -31.5 -6 -40.5 -18s-13.5 -24.333 -13.5 -37c0 -19.333 12.333 -37.333 37 -54l90 -61c11.333 -7.33301 20.166 -12.166 26.499 -14.499s12.833 -3.5 19.5 -3.5
c13.333 0 25.166 4.33301 35.499 13s15.5 20.667 15.5 36c0 9.33301 -2 17.5 -6 24.5s-11.667 14.833 -23 23.5zM182.001 261.999c0 50 10.5 90.167 31.5 120.5s51.833 45.5 92.5 45.5s71.5 -15.167 92.5 -45.5s31.5 -70.5 31.5 -120.5c0 -48 -10.333 -87.833 -31 -119.5
s-51.667 -47.5 -93 -47.5s-72.333 15.833 -93 47.5s-31 71.5 -31 119.5zM36.001 261.999c0 -38 5.00195 -73.501 15.002 -106.501s25.667 -62.167 47 -87.5s49.333 -45.166 84 -59.499s76 -21.5 124 -21.5s89.5 7.33301 124.5 22s63 34.5 84 59.5s36.5 54 46.5 87
s15 68.5 15 106.5c0 39.333 -5.83301 75.5 -17.5 108.5s-28.834 61.833 -51.501 86.5c-48.667 52.667 -115.667 79 -201 79s-152.333 -26.333 -201 -79c-22.667 -24.667 -39.834 -53.5 -51.501 -86.5s-17.5 -69.167 -17.5 -108.5z" />
    <glyph glyph-name="oacute" unicode="&#xf3;" 
d="M250 670c-10.667 -8.66699 -18.168 -16.499 -22.501 -23.499s-6.5 -15.167 -6.5 -24.5c0 -15.333 5.33301 -27.333 16 -36s22.334 -13 35.001 -13c6.66699 0 13.167 1.16699 19.5 3.5s15.166 7.16602 26.499 14.499l90 61c24.667 16.667 37 34.667 37 54
c0 12.667 -4.5 25 -13.5 37s-22.5 18 -40.5 18c-10.667 0 -21.167 -3 -31.5 -9s-22.166 -14.333 -35.499 -25zM181.999 262.001c0 50 10.5 90.167 31.5 120.5s51.833 45.5 92.5 45.5s71.5 -15.167 92.5 -45.5s31.5 -70.5 31.5 -120.5c0 -48 -10.333 -87.833 -31 -119.5
s-51.667 -47.5 -93 -47.5s-72.333 15.833 -93 47.5s-31 71.5 -31 119.5zM35.999 262.001c0 -38 5.00195 -73.501 15.002 -106.501s25.667 -62.167 47 -87.5s49.333 -45.166 84 -59.499s76 -21.5 124 -21.5s89.5 7.33301 124.5 22s63 34.5 84 59.5s36.5 54 46.5 87
s15 68.5 15 106.5c0 39.333 -5.83301 75.5 -17.5 108.5s-28.834 61.833 -51.501 86.5c-48.667 52.667 -115.667 79 -201 79s-152.333 -26.333 -201 -79c-22.667 -24.667 -39.834 -53.5 -51.501 -86.5s-17.5 -69.167 -17.5 -108.5z" />
    <glyph glyph-name="ocircumflex" unicode="&#xf4;" 
d="M306 666l63.998 -64c10.667 -11.333 19.667 -19 27 -23s16 -6 26 -6c10.667 0 20.834 5 30.501 15s14.5 22.333 14.5 37c0 8.66699 -6.83301 20.5 -20.5 35.5s-31.5 32.5 -53.5 52.5c-18 16.667 -32.833 27.5 -44.5 32.5s-26.167 7.5 -43.5 7.5s-31.833 -2.5 -43.5 -7.5
s-26.5 -15.833 -44.5 -32.5c-21.333 -20 -39 -37.5 -53 -52.5s-21 -26.833 -21 -35.5c0 -14.667 4.83301 -27 14.5 -37s19.834 -15 30.501 -15c10 0 18.667 2 26 6s16.333 11.667 27 23zM181.998 262c0 50 10.5 90.167 31.5 120.5s51.833 45.5 92.5 45.5
s71.5 -15.167 92.5 -45.5s31.5 -70.5 31.5 -120.5c0 -48 -10.333 -87.833 -31 -119.5s-51.667 -47.5 -93 -47.5s-72.333 15.833 -93 47.5s-31 71.5 -31 119.5zM35.998 262c0 -38 5.00195 -73.501 15.002 -106.501s25.667 -62.167 47 -87.5s49.333 -45.166 84 -59.499
s76 -21.5 124 -21.5s89.5 7.33301 124.5 22s63 34.5 84 59.5s36.5 54 46.5 87s15 68.5 15 106.5c0 39.333 -5.83301 75.5 -17.5 108.5s-28.834 61.833 -51.501 86.5c-48.667 52.667 -115.667 79 -201 79s-152.333 -26.333 -201 -79
c-22.667 -24.667 -39.834 -53.5 -51.501 -86.5s-17.5 -69.167 -17.5 -108.5z" />
    <glyph glyph-name="otilde" unicode="&#xf5;" 
d="M128 649c0 -18 4.83203 -31.333 14.499 -40s20.834 -13 33.501 -13c9.33301 0 21.666 5.66699 36.999 17c8 6.66699 15.167 11.5 21.5 14.5s13.166 4.5 20.499 4.5c6.66699 0 20.334 -4.33301 41.001 -13c17.333 -7.33301 32.333 -13 45 -17s25 -6 37 -6
c11.333 0 23.166 2.66699 35.499 8s23.833 12.5 34.5 21.5s19.334 19 26.001 30s10 22.167 10 33.5c0 16 -4.33301 27.5 -13 34.5s-21 10.5 -37 10.5c-8 0 -15.167 -1.5 -21.5 -4.5s-12.833 -6.83301 -19.5 -11.5l-1 -1c-2 -1.33301 -3.33301 -2.33301 -4 -3
c-12.667 -10 -23.667 -15 -33 -15c-11.333 0 -30.666 5.66699 -57.999 17c-0.666992 0 -1.66699 0.333008 -3 1l-2 1c-30 10.667 -53.333 16 -70 16c-22.667 0 -44 -8.5 -64 -25.5s-30 -36.833 -30 -59.5zM181.999 262c0 50 10.5 90.167 31.5 120.5s51.833 45.5 92.5 45.5
s71.5 -15.167 92.5 -45.5s31.5 -70.5 31.5 -120.5c0 -48 -10.333 -87.833 -31 -119.5s-51.667 -47.5 -93 -47.5s-72.333 15.833 -93 47.5s-31 71.5 -31 119.5zM35.999 262c0 -38 5.00195 -73.501 15.002 -106.501s25.667 -62.167 47 -87.5s49.333 -45.166 84 -59.499
s76 -21.5 124 -21.5s89.5 7.33301 124.5 22s63 34.5 84 59.5s36.5 54 46.5 87s15 68.5 15 106.5c0 39.333 -5.83301 75.5 -17.5 108.5s-28.834 61.833 -51.501 86.5c-48.667 52.667 -115.667 79 -201 79s-152.333 -26.333 -201 -79
c-22.667 -24.667 -39.834 -53.5 -51.501 -86.5s-17.5 -69.167 -17.5 -108.5z" />
    <glyph glyph-name="odieresis" unicode="&#xf6;" 
d="M131 662c0 -20 7.16699 -37.167 21.5 -51.5s31.5 -21.5 51.5 -21.5s37.167 7.16699 51.5 21.5s21.5 31.5 21.5 51.5s-7.16699 37.167 -21.5 51.5s-31.5 21.5 -51.5 21.5s-37.167 -7.16699 -51.5 -21.5s-21.5 -31.5 -21.5 -51.5zM335 662
c0 -20 7.16699 -37.167 21.5 -51.5s31.5 -21.5 51.5 -21.5s37.167 7.16699 51.5 21.5s21.5 31.5 21.5 51.5s-7.16699 37.167 -21.5 51.5s-31.5 21.5 -51.5 21.5s-37.167 -7.16699 -51.5 -21.5s-21.5 -31.5 -21.5 -51.5zM182 262c0 50 10.5 90.167 31.5 120.5
s51.833 45.5 92.5 45.5s71.5 -15.167 92.5 -45.5s31.5 -70.5 31.5 -120.5c0 -48 -10.333 -87.833 -31 -119.5s-51.667 -47.5 -93 -47.5s-72.333 15.833 -93 47.5s-31 71.5 -31 119.5zM36 262c0 -38 5.00195 -73.501 15.002 -106.501s25.667 -62.167 47 -87.5
s49.333 -45.166 84 -59.499s76 -21.5 124 -21.5s89.5 7.33301 124.5 22s63 34.5 84 59.5s36.5 54 46.5 87s15 68.5 15 106.5c0 39.333 -5.83301 75.5 -17.5 108.5s-28.834 61.833 -51.501 86.5c-48.667 52.667 -115.667 79 -201 79s-152.333 -26.333 -201 -79
c-22.667 -24.667 -39.834 -53.5 -51.501 -86.5s-17.5 -69.167 -17.5 -108.5z" />
    <glyph glyph-name="divide" unicode="&#xf7;" horiz-adv-x="600" 
d="M87 343c-21.333 0 -38.333 -5.5 -51 -16.5s-19 -25.5 -19 -43.5c0 -16 6.66699 -30 20 -42s30 -18 50 -18h426c21.333 0 38.333 5.5 51 16.5s19 25.5 19 43.5s-6.33301 32.5 -19 43.5s-29.667 16.5 -51 16.5h-426zM212 76c0 -24.667 8.5 -45.5 25.5 -62.5
s37.833 -25.5 62.5 -25.5s45.5 8.5 62.5 25.5s25.5 37.833 25.5 62.5s-8.5 45.5 -25.5 62.5s-37.833 25.5 -62.5 25.5s-45.5 -8.5 -62.5 -25.5s-25.5 -37.833 -25.5 -62.5zM212 490c0 -24.667 8.5 -45.5 25.5 -62.5s37.833 -25.5 62.5 -25.5s45.5 8.5 62.5 25.5
s25.5 37.833 25.5 62.5s-8.5 45.5 -25.5 62.5s-37.833 25.5 -62.5 25.5s-45.5 -8.5 -62.5 -25.5s-25.5 -37.833 -25.5 -62.5z" />
    <glyph glyph-name="oslash" unicode="&#xf8;" 
d="M190 196c-5.33301 18.667 -7.99902 40.667 -7.99902 66c0 50 10.5 90.167 31.5 120.5s51.833 45.5 92.5 45.5c31.333 0 57.666 -10 78.999 -30zM43.001 43c-14 -14 -21 -26.666 -21 -37.999c0 -10 3.5 -18.5 10.5 -25.5s15.167 -10.5 24.5 -10.5
c7.33301 0 14.5 2.16699 21.5 6.5s13.833 9.83301 20.5 16.5l39 41c43.333 -30.667 99.333 -46 168 -46c48 0 89.5 7.33301 124.5 22s63 34.5 84 59.5s36.5 54 46.5 87s15 68.5 15 106.5c0 68 -17 125.333 -51 172l44 46c14 14 21 26.667 21 38c0 10 -3.5 18.5 -10.5 25.5
s-15.167 10.5 -24.5 10.5c-7.33301 0 -14.5 -2.16699 -21.5 -6.5s-13.833 -9.83301 -20.5 -16.5l-42 -43c-44.667 32 -99.667 48 -165 48c-85.333 0 -152.333 -26.333 -201 -79c-22.667 -24.667 -39.834 -53.5 -51.501 -86.5s-17.5 -69.167 -17.5 -108.5
c0 -34.667 3.83301 -66.834 11.5 -96.501s19.834 -56.167 36.501 -79.5zM423.001 328.001c4.66699 -18.667 7 -40.667 7 -66c0 -48 -10.333 -87.833 -31 -119.5s-51.667 -47.5 -93 -47.5c-31.333 0 -57.333 10.333 -78 31z" />
    <glyph glyph-name="ugrave" unicode="&#xf9;" horiz-adv-x="611" 
d="M288 727c-13.333 10.667 -25.165 18.999 -35.498 24.999s-20.833 9 -31.5 9c-18 0 -31.5 -6 -40.5 -18s-13.5 -24.333 -13.5 -37c0 -19.333 12.333 -37.333 37 -54l90 -61c11.333 -7.33301 20.166 -12.166 26.499 -14.499s12.833 -3.5 19.5 -3.5
c13.333 0 25.166 4.33301 35.499 13s15.5 20.667 15.5 36c0 9.33301 -2 17.5 -6 24.5s-11.667 14.833 -23 23.5zM553.001 462.999c0 22 -5.50195 39.667 -16.502 53s-29.833 20 -56.5 20s-45.5 -6.66699 -56.5 -20s-16.5 -31 -16.5 -53v-241
c0 -34.667 -11.5 -62.5 -34.5 -83.5s-48.5 -31.5 -76.5 -31.5c-30.667 0 -53.667 9.16699 -69 27.5s-23 42.833 -23 73.5v255c0 22 -5.5 39.667 -16.5 53s-29.833 20 -56.5 20s-45.5 -6.66699 -56.5 -20s-16.5 -31 -16.5 -53v-284c0 -35.333 5.16699 -65.5 15.5 -90.5
s24.333 -45 42 -60s37.334 -25.667 59.001 -32s44.167 -9.5 67.5 -9.5c38.667 0 72.334 8 101.001 24s54 38.667 76 68h2v-19c0 -22.667 5.5 -40.5 16.5 -53.5s27.5 -19.5 49.5 -19.5s38.5 6.5 49.5 19.5s16.5 30.833 16.5 53.5v403z" />
    <glyph glyph-name="uacute" unicode="&#xfa;" horiz-adv-x="611" 
d="M250 670c-10.667 -8.66699 -18.168 -16.499 -22.501 -23.499s-6.5 -15.167 -6.5 -24.5c0 -15.333 5.33301 -27.333 16 -36s22.334 -13 35.001 -13c6.66699 0 13.167 1.16699 19.5 3.5s15.166 7.16602 26.499 14.499l90 61c24.667 16.667 37 34.667 37 54
c0 12.667 -4.5 25 -13.5 37s-22.5 18 -40.5 18c-10.667 0 -21.167 -3 -31.5 -9s-22.166 -14.333 -35.499 -25zM552.999 463.001c0 22 -5.50195 39.667 -16.502 53s-29.833 20 -56.5 20s-45.5 -6.66699 -56.5 -20s-16.5 -31 -16.5 -53v-241
c0 -34.667 -11.5 -62.5 -34.5 -83.5s-48.5 -31.5 -76.5 -31.5c-30.667 0 -53.667 9.16699 -69 27.5s-23 42.833 -23 73.5v255c0 22 -5.5 39.667 -16.5 53s-29.833 20 -56.5 20s-45.5 -6.66699 -56.5 -20s-16.5 -31 -16.5 -53v-284c0 -35.333 5.16699 -65.5 15.5 -90.5
s24.333 -45 42 -60s37.334 -25.667 59.001 -32s44.167 -9.5 67.5 -9.5c38.667 0 72.334 8 101.001 24s54 38.667 76 68h2v-19c0 -22.667 5.5 -40.5 16.5 -53.5s27.5 -19.5 49.5 -19.5s38.5 6.5 49.5 19.5s16.5 30.833 16.5 53.5v403z" />
    <glyph glyph-name="ucircumflex" unicode="&#xfb;" horiz-adv-x="611" 
d="M306 666l63.998 -64c10.667 -11.333 19.667 -19 27 -23s16 -6 26 -6c10.667 0 20.834 5 30.501 15s14.5 22.333 14.5 37c0 8.66699 -6.83301 20.5 -20.5 35.5s-31.5 32.5 -53.5 52.5c-18 16.667 -32.833 27.5 -44.5 32.5s-26.167 7.5 -43.5 7.5s-31.833 -2.5 -43.5 -7.5
s-26.5 -15.833 -44.5 -32.5c-21.333 -20 -39 -37.5 -53 -52.5s-21 -26.833 -21 -35.5c0 -14.667 4.83301 -27 14.5 -37s19.834 -15 30.501 -15c10 0 18.667 2 26 6s16.333 11.667 27 23zM552.998 463c0 22 -5.50195 39.667 -16.502 53s-29.833 20 -56.5 20
s-45.5 -6.66699 -56.5 -20s-16.5 -31 -16.5 -53v-241c0 -34.667 -11.5 -62.5 -34.5 -83.5s-48.5 -31.5 -76.5 -31.5c-30.667 0 -53.667 9.16699 -69 27.5s-23 42.833 -23 73.5v255c0 22 -5.5 39.667 -16.5 53s-29.833 20 -56.5 20s-45.5 -6.66699 -56.5 -20
s-16.5 -31 -16.5 -53v-284c0 -35.333 5.16699 -65.5 15.5 -90.5s24.333 -45 42 -60s37.334 -25.667 59.001 -32s44.167 -9.5 67.5 -9.5c38.667 0 72.334 8 101.001 24s54 38.667 76 68h2v-19c0 -22.667 5.5 -40.5 16.5 -53.5s27.5 -19.5 49.5 -19.5s38.5 6.5 49.5 19.5
s16.5 30.833 16.5 53.5v403z" />
    <glyph glyph-name="udieresis" unicode="&#xfc;" horiz-adv-x="611" 
d="M131 662c0 -20 7.16699 -37.167 21.5 -51.5s31.5 -21.5 51.5 -21.5s37.167 7.16699 51.5 21.5s21.5 31.5 21.5 51.5s-7.16699 37.167 -21.5 51.5s-31.5 21.5 -51.5 21.5s-37.167 -7.16699 -51.5 -21.5s-21.5 -31.5 -21.5 -51.5zM335 662
c0 -20 7.16699 -37.167 21.5 -51.5s31.5 -21.5 51.5 -21.5s37.167 7.16699 51.5 21.5s21.5 31.5 21.5 51.5s-7.16699 37.167 -21.5 51.5s-31.5 21.5 -51.5 21.5s-37.167 -7.16699 -51.5 -21.5s-21.5 -31.5 -21.5 -51.5zM553 463c0 22 -5.50195 39.667 -16.502 53
s-29.833 20 -56.5 20s-45.5 -6.66699 -56.5 -20s-16.5 -31 -16.5 -53v-241c0 -34.667 -11.5 -62.5 -34.5 -83.5s-48.5 -31.5 -76.5 -31.5c-30.667 0 -53.667 9.16699 -69 27.5s-23 42.833 -23 73.5v255c0 22 -5.5 39.667 -16.5 53s-29.833 20 -56.5 20
s-45.5 -6.66699 -56.5 -20s-16.5 -31 -16.5 -53v-284c0 -35.333 5.16699 -65.5 15.5 -90.5s24.333 -45 42 -60s37.334 -25.667 59.001 -32s44.167 -9.5 67.5 -9.5c38.667 0 72.334 8 101.001 24s54 38.667 76 68h2v-19c0 -22.667 5.5 -40.5 16.5 -53.5
s27.5 -19.5 49.5 -19.5s38.5 6.5 49.5 19.5s16.5 30.833 16.5 53.5v403z" />
    <glyph glyph-name="yacute" unicode="&#xfd;" horiz-adv-x="500" 
d="M194 670c-10.667 -8.66699 -18.168 -16.499 -22.501 -23.499s-6.5 -15.167 -6.5 -24.5c0 -15.333 5.33301 -27.333 16 -36s22.334 -13 35.001 -13c6.66699 0 13.167 1.16699 19.5 3.5s15.166 7.16602 26.499 14.499l90 61c24.667 16.667 37 34.667 37 54
c0 12.667 -4.5 25 -13.5 37s-22.5 18 -40.5 18c-10.667 0 -21.167 -3 -31.5 -9s-22.166 -14.333 -35.499 -25zM157.999 481.001c-4.66699 17.333 -13.499 30.834 -26.499 40.501s-29.167 14.5 -48.5 14.5s-36 -6.66699 -50 -20s-21 -30 -21 -50
c0 -7.33301 1.16699 -15 3.5 -23s6.16602 -20.333 11.499 -37c0.666992 -2 1.66699 -4.66699 3 -8l152 -433c-4.66699 -20 -11.167 -32.667 -19.5 -38s-18.833 -8 -31.5 -8h-15c-20 0 -36.167 -5.16699 -48.5 -15.5s-18.5 -24.833 -18.5 -43.5
c0 -19.333 7.66699 -35.333 23 -48s38.333 -19 69 -19c44 0 78.167 12 102.5 36s45.833 62.667 64.5 116l169 479c7.33301 20 11 35.333 11 46c0 5.33301 -1.33301 11.666 -4 18.999s-6.83398 14.5 -12.501 21.5s-13.5 13 -23.5 18s-21.667 7.5 -35 7.5
c-18.667 0 -33.667 -5.83301 -45 -17.5s-19.666 -27.5 -24.999 -47.5l-89 -331h-2z" />
    <glyph glyph-name="thorn" unicode="&#xfe;" horiz-adv-x="611" 
d="M58 -134c0 -23.333 6.49902 -41.3301 19.499 -53.9971s30.833 -19 53.5 -19s40.5 6.33301 53.5 19s19.5 30.667 19.5 54v195h2c13.333 -24 32.333 -42.333 57 -55s53.667 -19 87 -19c37.333 0 70.166 7.33301 98.499 22s51.833 34.667 70.5 60s32.667 54.166 42 86.499
s14 66.5 14 102.5c0 46 -6 86.5 -18 121.5s-28.667 64.167 -50 87.5s-45.666 40.666 -72.999 51.999s-56.666 17 -87.999 17c-34.667 0 -64 -6.33301 -88 -19s-41.333 -28.334 -52 -47.001h-2v190c0 23.333 -6.5 41.333 -19.5 54s-30.833 19 -53.5 19
s-40.5 -6.33301 -53.5 -19s-19.5 -30.667 -19.5 -54v-794zM428.999 263.003c0 -18.667 -1.83203 -37.333 -5.49902 -56s-9.83398 -36 -18.501 -52s-20.667 -29 -36 -39s-34 -15 -56 -15c-21.333 0 -39.5 4.66699 -54.5 14s-27.167 21.833 -36.5 37.5s-16 33 -20 52
s-6 38.5 -6 58.5c0 46 9.5 84 28.5 114s48.5 45 88.5 45c37.333 -0.666992 66 -16 86 -46s30 -67.667 30 -113z" />
    <glyph glyph-name="ydieresis" unicode="&#xff;" horiz-adv-x="500" 
d="M75 662c0 -20 7.16699 -37.167 21.5 -51.5s31.5 -21.5 51.5 -21.5s37.167 7.16699 51.5 21.5s21.5 31.5 21.5 51.5s-7.16699 37.167 -21.5 51.5s-31.5 21.5 -51.5 21.5s-37.167 -7.16699 -51.5 -21.5s-21.5 -31.5 -21.5 -51.5zM279 662c0 -20 7.16699 -37.167 21.5 -51.5
s31.5 -21.5 51.5 -21.5s37.167 7.16699 51.5 21.5s21.5 31.5 21.5 51.5s-7.16699 37.167 -21.5 51.5s-31.5 21.5 -51.5 21.5s-37.167 -7.16699 -51.5 -21.5s-21.5 -31.5 -21.5 -51.5zM158 481c-4.66699 17.333 -13.499 30.834 -26.499 40.501s-29.167 14.5 -48.5 14.5
s-36 -6.66699 -50 -20s-21 -30 -21 -50c0 -7.33301 1.16699 -15 3.5 -23s6.16602 -20.333 11.499 -37c0.666992 -2 1.66699 -4.66699 3 -8l152 -433c-4.66699 -20 -11.167 -32.667 -19.5 -38s-18.833 -8 -31.5 -8h-15c-20 0 -36.167 -5.16699 -48.5 -15.5
s-18.5 -24.833 -18.5 -43.5c0 -19.333 7.66699 -35.333 23 -48s38.333 -19 69 -19c44 0 78.167 12 102.5 36s45.833 62.667 64.5 116l169 479c7.33301 20 11 35.333 11 46c0 5.33301 -1.33301 11.666 -4 18.999s-6.83398 14.5 -12.501 21.5s-13.5 13 -23.5 18
s-21.667 7.5 -35 7.5c-18.667 0 -33.667 -5.83301 -45 -17.5s-19.666 -27.5 -24.999 -47.5l-89 -331h-2z" />
    <glyph glyph-name="OE" unicode="&#x152;" horiz-adv-x="1000" 
d="M516 285c0 -52 -14.333 -93.668 -43 -125.001s-63.667 -47 -105 -47c-47.333 0 -85.833 19.333 -115.5 58s-44.5 95.334 -44.5 170.001c0 85.333 14.167 151 42.5 197s68.5 69 120.5 69c44 0 79.167 -17 105.5 -51s39.5 -74.667 39.5 -122v-149zM674 587.999
l223.002 -0.000976562c26.667 0 47.167 5 61.5 15s21.5 27 21.5 51c0 24.667 -7.16699 41.834 -21.5 51.501s-34.833 14.5 -61.5 14.5h-294c-22.667 0 -40.5 -5.16699 -53.5 -15.5s-21.167 -28.5 -24.5 -54.5c-18 24.667 -41.333 44.667 -70 60s-64.334 23 -107.001 23
c-55.333 0 -102.666 -11 -141.999 -33s-70.833 -51.5 -94.5 -88.5s-40.834 -78.5 -51.501 -124.5s-16 -94 -16 -144c0 -46.667 5.83301 -91.334 17.5 -134.001s29.5 -80.667 53.5 -114s54.167 -59.666 90.5 -78.999s78.166 -29 125.499 -29c42 0 79.667 6.5 113 19.5
s60.333 33.833 81 62.5c4 -24 11.333 -41.5 22 -52.5s31 -16.5 61 -16.5h297c26.667 0 47.167 5 61.5 15s21.5 27 21.5 51c0 24.667 -7.16699 41.834 -21.5 51.501s-34.833 14.5 -61.5 14.5h-231v174h219c24 0 42.833 4.66699 56.5 14s20.5 25.666 20.5 48.999
c0 24 -6.83301 40.5 -20.5 49.5s-32.5 13.5 -56.5 13.5h-219v156z" />
    <glyph glyph-name="oe" unicode="&#x153;" horiz-adv-x="963" 
d="M863 234c24.667 0 41.502 4.33203 50.502 12.999s13.5 25.334 13.5 50.001c0 30 -5.83301 59.333 -17.5 88s-28.5 54.334 -50.5 77.001s-48.667 40.667 -80 54s-66 20 -104 20c-42 0 -77.667 -7 -107 -21s-56.666 -34.667 -81.999 -62
c-22 26.667 -48.167 47.167 -78.5 61.5s-64.166 21.5 -101.499 21.5c-85.333 0 -152.333 -26.333 -201 -79c-22.667 -24.667 -39.834 -53.5 -51.501 -86.5s-17.5 -69.167 -17.5 -108.5c0 -38 4.83301 -73.333 14.5 -106s24.667 -61.834 45 -87.501
s46.666 -45.667 78.999 -60s70.166 -21.5 113.499 -21.5c47.333 0 86.333 7.5 117 22.5s57 35.833 79 62.5c17.333 -28 42 -49.167 74 -63.5s68.667 -21.5 110 -21.5c23.333 0 48.166 2.66699 74.499 8s51.333 13.5 75 24.5s42.834 24.667 57.501 41s22 34.833 22 55.5
c0 14 -5.83301 27 -17.5 39s-25.834 18 -42.501 18c-11.333 0 -21 -2.33301 -29 -7s-17 -11.667 -27 -21c-16 -14 -31.833 -24.833 -47.5 -32.5s-37.5 -11.5 -65.5 -11.5c-32 0 -59.5 12.333 -82.5 37s-34.5 56.667 -34.5 96h312zM182.002 261.999
c0 50 10.5 90.167 31.5 120.5s51.833 45.5 92.5 45.5c39.333 0 69 -15.167 89 -45.5s30 -70.5 30 -120.5c0 -48 -9.83301 -87.833 -29.5 -119.5s-49.5 -47.5 -89.5 -47.5c-41.333 0 -72.333 15.833 -93 47.5s-31 71.5 -31 119.5zM551.002 317.999
c8.66699 38 22.5 66.833 41.5 86.5s46.5 29.5 82.5 29.5c28 0 53 -11 75 -33s35 -49.667 39 -83h-238z" />
    <glyph glyph-name="Scaron" unicode="&#x160;" horiz-adv-x="685" 
d="M343 842l-63.998 64c-10.667 11.333 -19.667 19 -27 23s-16 6 -26 6c-10.667 0 -20.834 -5 -30.501 -15s-14.5 -22.333 -14.5 -37c0 -8.66699 7 -20.5 21 -35.5s31.667 -32.5 53 -52.5c18 -16.667 32.833 -27.5 44.5 -32.5s26.167 -7.5 43.5 -7.5s31.833 2.5 43.5 7.5
s26.5 15.833 44.5 32.5c22 20 39.833 37.5 53.5 52.5s20.5 26.833 20.5 35.5c0 14.667 -4.83301 27 -14.5 37s-19.834 15 -30.501 15c-10 0 -18.667 -2 -26 -6s-16.333 -11.667 -27 -23zM316.002 448c-34.667 8 -61.999 17.501 -81.999 28.501s-30 27.5 -30 49.5
c0 25.333 10.333 45.833 31 61.5s49.667 23.5 87 23.5c39.333 0 69.166 -5.83301 89.499 -17.5s40.166 -28.167 59.499 -49.5c12 -14 22.5 -24.167 31.5 -30.5s20.5 -9.5 34.5 -9.5c20.667 0 38.334 5.83301 53.001 17.5s22 27.5 22 47.5c0 23.333 -8.16699 45.333 -24.5 66
s-38.333 38.667 -66 54s-58.167 27.166 -91.5 35.499s-65.666 12.5 -96.999 12.5c-36 0 -71 -4.16699 -105 -12.5s-64.667 -21.333 -92 -39s-49.166 -40.5 -65.499 -68.5s-24.5 -61.333 -24.5 -100c0 -22 2.33301 -42.333 7 -61s13.334 -36.667 26.001 -54
s30.834 -33 54.501 -47s53.167 -25.667 88.5 -35l185 -47c26 -6.66699 44.167 -16.667 54.5 -30s15.5 -28.333 15.5 -45c0 -26 -11.833 -48.333 -35.5 -67s-55.834 -28 -96.501 -28c-22.667 0 -42.334 2.33301 -59.001 7s-30.834 10.667 -42.501 18
s-21.334 15.166 -29.001 23.499s-16.167 18.833 -25.5 31.5c-13.333 17.333 -25.166 30 -35.499 38s-23.833 12 -40.5 12c-20 0 -36.5 -6.33301 -49.5 -19s-19.5 -29 -19.5 -49c0 -20.667 6.16699 -41.5 18.5 -62.5s31 -40.667 56 -59s56.667 -33 95 -44
s82.166 -16.5 131.499 -16.5c96 0 169.333 21 220 63s76 96.667 76 164c0 22.667 -3 44.334 -9 65.001s-16 40.167 -30 58.5s-33.333 34.833 -58 49.5s-55 26 -91 34z" />
    <glyph glyph-name="scaron" unicode="&#x161;" horiz-adv-x="537" 
d="M269 660l-63.998 64c-10.667 11.333 -19.667 19 -27 23s-16 6 -26 6c-10.667 0 -20.834 -5 -30.501 -15s-14.5 -22.333 -14.5 -37c0 -8.66699 7 -20.5 21 -35.5s31.667 -32.5 53 -52.5c18 -16.667 32.833 -27.5 44.5 -32.5s26.167 -7.5 43.5 -7.5s31.833 2.5 43.5 7.5
s26.5 15.833 44.5 32.5c22 20 39.833 37.5 53.5 52.5s20.5 26.833 20.5 35.5c0 14.667 -4.83301 27 -14.5 37s-19.834 15 -30.501 15c-10 0 -18.667 -2 -26 -6s-16.333 -11.667 -27 -23zM35.002 373c0 -45.333 13.002 -79.3301 39.002 -101.997s63.333 -40 112 -52l86 -21
l8 -2c28 -6.66699 47.667 -13.334 59 -20.001s17 -18 17 -34c0 -15.333 -7.83301 -28 -23.5 -38s-36.167 -15 -61.5 -15c-27.333 0 -49 4.66699 -65 14s-32.333 22.666 -49 39.999c-12.667 12.667 -23.334 21.834 -32.001 27.501s-19 8.5 -31 8.5
c-19.333 0 -34 -5.83301 -44 -17.5s-15 -26.167 -15 -43.5c0 -18 6.33301 -34.833 19 -50.5s30.167 -29.667 52.5 -42s48.166 -21.833 77.499 -28.5s60.333 -10 93 -10c28 0 55.5 3.5 82.5 10.5s51.167 17.833 72.5 32.5s38.333 33 51 55s19 47.333 19 76
c0 24 -5.33301 45 -16 63s-24.667 33 -42 45s-36 21.5 -56 28.5s-42.667 13.5 -68 19.5l-61 14c-27.333 6 -47.166 12.333 -59.499 19s-18.5 17.667 -18.5 33s7.33301 26.666 22 33.999s35.334 11 62.001 11c22.667 0 40.667 -3.33301 54 -10s27 -16.334 41 -29.001
c11.333 -10 20.666 -17.167 27.999 -21.5s16.666 -6.5 27.999 -6.5c18.667 0 33.5 6.16699 44.5 18.5s16.5 27.5 16.5 45.5c0 16 -6.16699 31 -18.5 45s-29.166 25.833 -50.499 35.5s-45.333 17.167 -72 22.5s-54 8 -82 8c-26.667 0 -52.834 -3 -78.501 -9
s-49.167 -15.5 -70.5 -28.5s-38.333 -30 -51 -51s-19 -45.833 -19 -74.5z" />
    <glyph glyph-name="Ydieresis" unicode="&#x178;" 
d="M131 844c0 -20 7.16699 -37.167 21.5 -51.5s31.5 -21.5 51.5 -21.5s37.167 7.16699 51.5 21.5s21.5 31.5 21.5 51.5s-7.16699 37.167 -21.5 51.5s-31.5 21.5 -51.5 21.5s-37.167 -7.16699 -51.5 -21.5s-21.5 -31.5 -21.5 -51.5zM335 844
c0 -20 7.16699 -37.167 21.5 -51.5s31.5 -21.5 51.5 -21.5s37.167 7.16699 51.5 21.5s21.5 31.5 21.5 51.5s-7.16699 37.167 -21.5 51.5s-31.5 21.5 -51.5 21.5s-37.167 -7.16699 -51.5 -21.5s-21.5 -31.5 -21.5 -51.5zM224 69c0 -24.667 7.49707 -44.501 22.4971 -59.501
s34.833 -22.5 59.5 -22.5c25.333 0 45.333 7.5 60 22.5s22 34.833 22 59.5v212l201 334c9.33301 15.333 14 29.666 14 42.999c0 25.333 -8.66699 44.166 -26 56.499s-35.666 18.5 -54.999 18.5c-17.333 0 -31.166 -3.5 -41.499 -10.5s-20.166 -19.5 -29.499 -37.5l-142 -263
l-143 263c-8.66699 16.667 -18.5 28.834 -29.5 36.501s-25.833 11.5 -44.5 11.5c-20 0 -38.833 -6.16699 -56.5 -18.5s-26.5 -31.166 -26.5 -56.499c0 -13.333 4.66699 -27.666 14 -42.999l201 -334v-212z" />
    <glyph glyph-name="florin" unicode="&#x192;" 
d="M164 -31c-4 -23.333 -8.5 -38.5029 -13.5 -45.5029s-14.833 -10.5 -29.5 -10.5h-30c-22 0 -38 -5 -48 -15s-15 -23 -15 -39c0 -25.333 9 -42.666 27 -51.999s43 -14 75 -14c57.333 0 97.833 10.833 121.5 32.5s40.5 58.834 50.5 111.501l69 367h72c38.667 0 58 16 58 48
s-19.333 48 -58 48h-56l26 143c2.66699 14.667 7.5 26.334 14.5 35.001s16.833 13 29.5 13h36c16 0 29.167 4.16699 39.5 12.5s15.5 22.166 15.5 41.499c0 22.667 -9.33301 39.334 -28 50.001s-45.667 16 -81 16c-51.333 0 -89.333 -11 -114 -33s-41 -54.333 -49 -97
l-35 -181h-72c-38.667 0 -58 -16 -58 -48s19.333 -48 58 -48h56z" />
    <glyph glyph-name="circumflex" unicode="&#x2c6;" horiz-adv-x="278" 
d="M139 666l63.998 -64c10.667 -11.333 19.667 -19 27 -23s16 -6 26 -6c10.667 0 20.834 5 30.501 15s14.5 22.333 14.5 37c0 8.66699 -6.83301 20.5 -20.5 35.5s-31.5 32.5 -53.5 52.5c-18 16.667 -32.833 27.5 -44.5 32.5s-26.167 7.5 -43.5 7.5s-31.833 -2.5 -43.5 -7.5
s-26.5 -15.833 -44.5 -32.5c-21.333 -20 -39 -37.5 -53 -52.5s-21 -26.833 -21 -35.5c0 -14.667 4.83301 -27 14.5 -37s19.834 -15 30.501 -15c10 0 18.667 2 26 6s16.333 11.667 27 23z" />
    <glyph glyph-name="tilde" unicode="&#x2dc;" horiz-adv-x="278" 
d="M-39 649c0 -18 4.83203 -31.333 14.499 -40s20.834 -13 33.501 -13c9.33301 0 21.666 5.66699 36.999 17c8 6.66699 15.167 11.5 21.5 14.5s13.166 4.5 20.499 4.5c6.66699 0 20.334 -4.33301 41.001 -13c17.333 -7.33301 32.333 -13 45 -17s25 -6 37 -6
c11.333 0 23.166 2.66699 35.499 8s23.833 12.5 34.5 21.5s19.334 19 26.001 30s10 22.167 10 33.5c0 16 -4.33301 27.5 -13 34.5s-21 10.5 -37 10.5c-8 0 -15.167 -1.5 -21.5 -4.5s-12.833 -6.83301 -19.5 -11.5l-1 -1c-2 -1.33301 -3.33301 -2.33301 -4 -3
c-12.667 -10 -23.667 -15 -33 -15c-11.333 0 -30.666 5.66699 -57.999 17c-0.666992 0 -1.66699 0.333008 -3 1l-2 1c-30 10.667 -53.333 16 -70 16c-22.667 0 -44 -8.5 -64 -25.5s-30 -36.833 -30 -59.5z" />
    <glyph glyph-name="endash" unicode="&#x2013;" horiz-adv-x="500" 
d="M69 330c-17.333 0 -31.5 -4.33301 -42.5 -13s-16.5 -22.334 -16.5 -41.001c0 -18 5.5 -31.5 16.5 -40.5s25.167 -13.5 42.5 -13.5h362c17.333 0 31.5 4.5 42.5 13.5s16.5 22.5 16.5 40.5c0 18.667 -5.5 32.334 -16.5 41.001s-25.167 13 -42.5 13h-362z" />
    <glyph glyph-name="emdash" unicode="&#x2014;" horiz-adv-x="1000" 
d="M69 330c-17.333 0 -31.5 -4.33301 -42.5 -13s-16.5 -22.334 -16.5 -41.001c0 -18 5.5 -31.5 16.5 -40.5s25.167 -13.5 42.5 -13.5h862c17.333 0 31.5 4.5 42.5 13.5s16.5 22.5 16.5 40.5c0 18.667 -5.5 32.334 -16.5 41.001s-25.167 13 -42.5 13h-862z" />
    <glyph glyph-name="quoteleft" unicode="&#x2018;" horiz-adv-x="316" 
d="M246 512c0 21.333 -6.50195 39.501 -19.502 54.501s-30.5 22.5 -52.5 22.5c-12 0 -23.333 -3 -34 -9c1.33301 26.667 8 46 20 58s28.667 22.667 50 32c12.667 5.33301 21.834 10.166 27.501 14.499s8.5 10.5 8.5 18.5c0 8.66699 -3 15.834 -9 21.501s-14.333 8.5 -25 8.5
c-14 0 -30.167 -4.83301 -48.5 -14.5s-32.5 -19.167 -42.5 -28.5c-17.333 -17.333 -30.166 -36 -38.499 -56s-12.5 -46 -12.5 -78c0 -36.667 8 -66.834 24 -90.501s39.333 -35.5 70 -35.5c22.667 0 42 8 58 24s24 35.333 24 58z" />
    <glyph glyph-name="quoteright" unicode="&#x2019;" horiz-adv-x="316" 
d="M70 651c0 -20.667 6.50195 -38.668 19.502 -54.001s30.5 -23 52.5 -23c12 0 23.333 3 34 9c-1.33301 -26.667 -8 -46 -20 -58s-28.667 -22.667 -50 -32c-12.667 -5.33301 -21.834 -10.166 -27.501 -14.499s-8.5 -10.5 -8.5 -18.5c0 -8.66699 3 -15.834 9 -21.501
s14.333 -8.5 25 -8.5c14 0 30.167 4.83301 48.5 14.5s32.5 19.167 42.5 28.5c17.333 18 30.166 36.833 38.499 56.5s12.5 45.5 12.5 77.5c0 36.667 -8 66.834 -24 90.501s-39.333 35.5 -70 35.5c-22.667 0 -42 -8 -58 -24s-24 -35.333 -24 -58z" />
    <glyph glyph-name="quotesinglbase" unicode="&#x201a;" horiz-adv-x="316" 
d="M70 75c0 -20.667 6.50195 -38.668 19.502 -54.001s30.5 -23 52.5 -23c12 0 23.333 3 34 9c-1.33301 -26.667 -8 -46 -20 -58s-28.667 -22.667 -50 -32c-12.667 -5.33301 -21.834 -10.166 -27.501 -14.499s-8.5 -10.5 -8.5 -18.5c0 -8.66699 3 -15.834 9 -21.501
s14.333 -8.5 25 -8.5c14 0 30.167 4.83301 48.5 14.5s32.5 19.167 42.5 28.5c17.333 17.333 30.166 36 38.499 56s12.5 46 12.5 78c0 36.667 -8 66.834 -24 90.501s-39.333 35.5 -70 35.5c-22.667 0 -42 -8 -58 -24s-24 -35.333 -24 -58z" />
    <glyph glyph-name="quotedblleft" unicode="&#x201c;" horiz-adv-x="537" 
d="M243 512c0 21.333 -6.50195 39.501 -19.502 54.501s-30.5 22.5 -52.5 22.5c-12 0 -23.333 -3 -34 -9c1.33301 26.667 8 46 20 58s28.667 22.667 50 32c12.667 5.33301 21.834 10.166 27.501 14.499s8.5 10.5 8.5 18.5c0 8.66699 -3 15.834 -9 21.501s-14.333 8.5 -25 8.5
c-14 0 -30.167 -4.83301 -48.5 -14.5s-32.5 -19.167 -42.5 -28.5c-17.333 -17.333 -30.166 -36 -38.499 -56s-12.5 -46 -12.5 -78c0 -36.667 8 -66.834 24 -90.501s39.333 -35.5 70 -35.5c22.667 0 42 8 58 24s24 35.333 24 58zM469.998 512.001
c0 21.333 -6.50195 39.501 -19.502 54.501s-30.5 22.5 -52.5 22.5c-12 0 -23.333 -3 -34 -9c1.33301 26.667 8 46 20 58s28.667 22.667 50 32c12.667 5.33301 21.834 10.166 27.501 14.499s8.5 10.5 8.5 18.5c0 8.66699 -3 15.834 -9 21.501s-14.333 8.5 -25 8.5
c-14 0 -30.167 -4.83301 -48.5 -14.5s-32.5 -19.167 -42.5 -28.5c-17.333 -17.333 -30.166 -36 -38.499 -56s-12.5 -46 -12.5 -78c0 -36.667 8 -66.834 24 -90.501s39.333 -35.5 70 -35.5c22.667 0 42 8 58 24s24 35.333 24 58z" />
    <glyph glyph-name="quotedblright" unicode="&#x201d;" horiz-adv-x="537" 
d="M67 651c0 -20.667 6.50195 -38.668 19.502 -54.001s30.5 -23 52.5 -23c12 0 23.333 3 34 9c-1.33301 -26.667 -8 -46 -20 -58s-28.667 -22.667 -50 -32c-12.667 -5.33301 -21.834 -10.166 -27.501 -14.499s-8.5 -10.5 -8.5 -18.5c0 -8.66699 3 -15.834 9 -21.501
s14.333 -8.5 25 -8.5c14 0 30.167 4.83301 48.5 14.5s32.5 19.167 42.5 28.5c17.333 18 30.166 36.833 38.499 56.5s12.5 45.5 12.5 77.5c0 36.667 -8 66.834 -24 90.501s-39.333 35.5 -70 35.5c-22.667 0 -42 -8 -58 -24s-24 -35.333 -24 -58zM294.002 650.999
c0 -20.667 6.50195 -38.668 19.502 -54.001s30.5 -23 52.5 -23c12 0 23.333 3 34 9c-1.33301 -26.667 -8 -46 -20 -58s-28.667 -22.667 -50 -32c-12.667 -5.33301 -21.834 -10.166 -27.501 -14.499s-8.5 -10.5 -8.5 -18.5c0 -8.66699 3 -15.834 9 -21.501
s14.333 -8.5 25 -8.5c14 0 30.167 4.83301 48.5 14.5s32.5 19.167 42.5 28.5c17.333 18 30.166 36.833 38.499 56.5s12.5 45.5 12.5 77.5c0 36.667 -8 66.834 -24 90.501s-39.333 35.5 -70 35.5c-22.667 0 -42 -8 -58 -24s-24 -35.333 -24 -58z" />
    <glyph glyph-name="quotedblbase" unicode="&#x201e;" horiz-adv-x="537" 
d="M67 75c0 -20.667 6.50195 -38.668 19.502 -54.001s30.5 -23 52.5 -23c12 0 23.333 3 34 9c-1.33301 -26.667 -8 -46 -20 -58s-28.667 -22.667 -50 -32c-12.667 -5.33301 -21.834 -10.166 -27.501 -14.499s-8.5 -10.5 -8.5 -18.5c0 -8.66699 3 -15.834 9 -21.501
s14.333 -8.5 25 -8.5c14 0 30.167 4.83301 48.5 14.5s32.5 19.167 42.5 28.5c17.333 17.333 30.166 36 38.499 56s12.5 46 12.5 78c0 36.667 -8 66.834 -24 90.501s-39.333 35.5 -70 35.5c-22.667 0 -42 -8 -58 -24s-24 -35.333 -24 -58zM294.002 74.999
c0 -20.667 6.50195 -38.668 19.502 -54.001s30.5 -23 52.5 -23c12 0 23.333 3 34 9c-1.33301 -26.667 -8 -46 -20 -58s-28.667 -22.667 -50 -32c-12.667 -5.33301 -21.834 -10.166 -27.501 -14.499s-8.5 -10.5 -8.5 -18.5c0 -8.66699 3 -15.834 9 -21.501
s14.333 -8.5 25 -8.5c14 0 30.167 4.83301 48.5 14.5s32.5 19.167 42.5 28.5c17.333 17.333 30.166 36 38.499 56s12.5 46 12.5 78c0 36.667 -8 66.834 -24 90.501s-39.333 35.5 -70 35.5c-22.667 0 -42 -8 -58 -24s-24 -35.333 -24 -58z" />
    <glyph glyph-name="dagger" unicode="&#x2020;" horiz-adv-x="574" 
d="M217 -95c0 -23.333 6.5 -42 19.5 -56s29.833 -21 50.5 -21s37.5 7 50.5 21s19.5 32.667 19.5 56v495h129c16.667 0 30.834 5.5 42.501 16.5s17.5 24.5 17.5 40.5s-5.83301 29.5 -17.5 40.5s-25.834 16.5 -42.501 16.5h-129v142c0 23.333 -6.5 42 -19.5 56
s-29.833 21 -50.5 21s-37.5 -7 -50.5 -21s-19.5 -32.667 -19.5 -56v-142h-129c-16.667 0 -30.834 -5.5 -42.501 -16.5s-17.5 -24.5 -17.5 -40.5s5.83301 -29.5 17.5 -40.5s25.834 -16.5 42.501 -16.5h129v-495z" />
    <glyph glyph-name="daggerdbl" unicode="&#x2021;" horiz-adv-x="574" 
d="M221 529h-130c-16.667 0 -30.667 -4.5 -42 -13.5s-17 -22.5 -17 -40.5s5.66699 -31.5 17 -40.5s25.333 -13.5 42 -13.5h130v-281h-130c-16.667 0 -30.667 -4.5 -42 -13.5s-17 -22.5 -17 -40.5s5.66699 -31.5 17 -40.5s25.333 -13.5 42 -13.5h130v-132
c0 -21.333 6 -38.666 18 -51.999s28 -20 48 -20s36 6.66699 48 20s18 30.666 18 51.999v132h130c16.667 0 30.667 4.5 42 13.5s17 22.5 17 40.5s-5.66699 31.5 -17 40.5s-25.333 13.5 -42 13.5h-130v281h130c16.667 0 30.667 4.5 42 13.5s17 22.5 17 40.5
s-5.66699 31.5 -17 40.5s-25.333 13.5 -42 13.5h-130v132c0 21.333 -6 38.666 -18 51.999s-28 20 -48 20s-36 -6.66699 -48 -20s-18 -30.666 -18 -51.999v-132z" />
    <glyph glyph-name="bullet" unicode="&#x2022;" horiz-adv-x="500" 
d="M70 360c0 -24.667 4.66699 -47.834 14 -69.501s22.333 -40.834 39 -57.501s35.834 -29.667 57.501 -39s44.834 -14 69.501 -14s47.834 4.66699 69.501 14s40.834 22.333 57.501 39s29.667 35.834 39 57.501s14 44.834 14 69.501s-4.66699 47.834 -14 69.501
s-22.333 40.834 -39 57.501s-35.834 29.667 -57.501 39s-44.834 14 -69.501 14s-47.834 -4.66699 -69.501 -14s-40.834 -22.333 -57.501 -39s-29.667 -35.834 -39 -57.501s-14 -44.834 -14 -69.501z" />
    <glyph glyph-name="ellipsis" unicode="&#x2026;" horiz-adv-x="1000" 
d="M85 75c0 -22.667 8 -42 24 -58s35.333 -24 58 -24s42 8 58 24s24 35.333 24 58s-8 42 -24 58s-35.333 24 -58 24s-42 -8 -58 -24s-24 -35.333 -24 -58zM418 75c0 -22.667 8 -42 24 -58s35.333 -24 58 -24s42 8 58 24s24 35.333 24 58s-8 42 -24 58s-35.333 24 -58 24
s-42 -8 -58 -24s-24 -35.333 -24 -58zM751 75c0 -22.667 8 -42 24 -58s35.333 -24 58 -24s42 8 58 24s24 35.333 24 58s-8 42 -24 58s-35.333 24 -58 24s-42 -8 -58 -24s-24 -35.333 -24 -58z" />
    <glyph glyph-name="perthousand" unicode="&#x2030;" horiz-adv-x="1000" 
d="M115 539c0 30 3.5 54.167 10.5 72.5s17.5 27.5 31.5 27.5s24.5 -9.16699 31.5 -27.5s10.5 -42.5 10.5 -72.5c0 -30.667 -3 -55 -9 -73s-17 -27 -33 -27s-27 9 -33 27s-9 42.333 -9 73zM13 539c0 -22.667 2.66699 -44.334 8 -65.001s13.666 -39 24.999 -55
s26.166 -28.667 44.499 -38s40.5 -14 66.5 -14s48.333 4.66699 67 14s33.667 22 45 38s19.5 34.333 24.5 55s7.5 42.334 7.5 65.001c0 22 -2.66699 43.167 -8 63.5s-13.666 38.666 -24.999 54.999s-26.333 29.333 -45 39s-40.667 14.5 -66 14.5s-47.333 -4.83301 -66 -14.5
s-33.667 -22.667 -45 -39s-19.666 -34.666 -24.999 -54.999s-8 -41.5 -8 -63.5zM356 159c0 -22.667 2.66699 -44.334 8 -65.001s13.666 -39 24.999 -55s26.166 -28.667 44.499 -38s40.5 -14 66.5 -14s48.333 4.66699 67 14s33.667 22 45 38s19.5 34.333 24.5 55
s7.5 42.334 7.5 65.001c0 22 -2.66699 43.167 -8 63.5s-13.666 38.666 -24.999 54.999s-26.333 29.333 -45 39s-40.667 14.5 -66 14.5s-47.333 -4.83301 -66 -14.5s-33.667 -22.667 -45 -39s-19.666 -34.666 -24.999 -54.999s-8 -41.5 -8 -63.5zM458 159
c0 30 3.5 54.167 10.5 72.5s17.5 27.5 31.5 27.5s24.5 -9.16699 31.5 -27.5s10.5 -42.5 10.5 -72.5c0 -30.667 -3 -55 -9 -73s-17 -27 -33 -27s-27 9 -33 27s-9 42.333 -9 73zM699 159c0 -22.667 2.66699 -44.334 8 -65.001s13.666 -39 24.999 -55
s26.166 -28.667 44.499 -38s40.5 -14 66.5 -14s48.333 4.66699 67 14s33.667 22 45 38s19.5 34.333 24.5 55s7.5 42.334 7.5 65.001c0 22 -2.66699 43.167 -8 63.5s-13.666 38.666 -24.999 54.999s-26.333 29.333 -45 39s-40.667 14.5 -66 14.5s-47.333 -4.83301 -66 -14.5
s-33.667 -22.667 -45 -39s-19.666 -34.666 -24.999 -54.999s-8 -41.5 -8 -63.5zM801 159c0 30 3.5 54.167 10.5 72.5s17.5 27.5 31.5 27.5s24.5 -9.16699 31.5 -27.5s10.5 -42.5 10.5 -72.5c0 -30.667 -3 -55 -9 -73s-17 -27 -33 -27s-27 9 -33 27s-9 42.333 -9 73zM116 29
c-7.33301 -13.333 -10.999 -24.666 -10.999 -33.999c0 -8.66699 3.83301 -16.5 11.5 -23.5s16.834 -10.5 27.501 -10.5c9.33301 0 17.166 2.66699 23.499 8s11.5 12 15.5 20l360 680c7.33301 13.333 11 24.666 11 33.999c0 8.66699 -3.83301 16.5 -11.5 23.5
s-16.834 10.5 -27.501 10.5c-9.33301 0 -17 -2.66699 -23 -8s-11.333 -12 -16 -20z" />
    <glyph glyph-name="guilsinglleft" unicode="&#x2039;" horiz-adv-x="370" 
d="M262 332c21.333 14 32.001 31.335 32.001 52.002c0 14 -4.5 26.167 -13.5 36.5s-20.167 15.5 -33.5 15.5c-7.33301 0 -13.5 -1.16699 -18.5 -3.5s-10.833 -5.83301 -17.5 -10.5c-1.33301 -0.666992 -2.33301 -1.33398 -3 -2.00098l-98 -71
c-22.667 -16 -34 -40.333 -34 -73s11.333 -57 34 -73l98 -71c0.666992 -0.666992 1.66699 -1.33398 3 -2.00098c6 -4.66699 11.667 -8.16699 17 -10.5s11.666 -3.5 18.999 -3.5c13.333 0 24.5 5.16699 33.5 15.5s13.5 22.5 13.5 36.5c0 20.667 -10.667 38 -32 52l-82 56z
" />
    <glyph glyph-name="guilsinglright" unicode="&#x203a;" horiz-adv-x="370" 
d="M108 220c-21.333 -14 -32.001 -31.335 -32.001 -52.002c0 -14 4.5 -26.167 13.5 -36.5s20.167 -15.5 33.5 -15.5c7.33301 0 13.5 1.16699 18.5 3.5s10.833 5.83301 17.5 10.5c1.33301 0.666992 2.33301 1.33398 3 2.00098l98 71c22.667 16 34 40.333 34 73
s-11.333 57 -34 73l-98 71c-0.666992 0.666992 -1.66699 1.33398 -3 2.00098c-6 4.66699 -11.667 8.16699 -17 10.5s-11.666 3.5 -18.999 3.5c-13.333 0 -24.5 -5.16699 -33.5 -15.5s-13.5 -22.5 -13.5 -36.5c0 -20.667 10.667 -38 32 -52l82 -56z" />
    <glyph glyph-name="trademark" unicode="&#x2122;" horiz-adv-x="1000" 
d="M129 364c0 -23.333 6.66895 -40 20.002 -50s26.666 -15 39.999 -15s26.666 5 39.999 15s20 26.667 20 50v266h64c16.667 0 28.834 4.5 36.501 13.5s11.5 19.5 11.5 31.5s-3.83301 22.5 -11.5 31.5s-19.834 13.5 -36.501 13.5h-247c-16.667 0 -29 -4.5 -37 -13.5
s-12 -19.5 -12 -31.5s4 -22.5 12 -31.5s20.333 -13.5 37 -13.5h63v-266zM803.002 364c0 -23.333 6.67188 -40 20.0049 -50s26.666 -15 39.999 -15s26.666 5 39.999 15s20 26.667 20 50v272c0 32 -8.5 55 -25.5 69s-36.167 21 -57.5 21
c-50.667 0 -86.334 -25.667 -107.001 -77l-65 -167l-65 167c-20 51.333 -55.667 77 -107 77c-21.333 0 -40.5 -7 -57.5 -21s-25.5 -37 -25.5 -69v-272c0 -23.333 6.66699 -40 20 -50s26.666 -15 39.999 -15s26.666 5 39.999 15s20 26.667 20 50v186h2l73 -198
c13.333 -35.333 33.333 -53 60 -53s46.667 17.667 60 53l73 198h2v-186z" />
    </font>
</defs>
</svg>
