<?xml version="1.0" standalone="no"?>
<!DOCTYPE svg PUBLIC "-//W3C//DTD SVG 1.1//EN" "http://www.w3.org/Graphics/SVG/1.1/DTD/svg11.dtd" >
<svg>
<metadata>
Created by FontForge 20090914 at Wed Sep 25 21:04:25 2013
 By www-data
Copyright (c) EuroFONT, 2004. All rights reserved.
</metadata>
<defs>
<font id="OliveaCTTEFN" horiz-adv-x="1090" >
  <font-face 
    font-family="OliveaC TT EFN"
    font-weight="400"
    font-stretch="normal"
    units-per-em="2048"
    panose-1="2 0 6 6 3 0 0 2 0 4"
    ascent="1638"
    descent="-410"
    x-height="1071"
    cap-height="1487"
    bbox="-173.997 -422.002 2087 1968"
    underline-thickness="102"
    underline-position="-103"
    unicode-range="U+0020-U+FB02"
  />
<missing-glyph horiz-adv-x="551" 
 />
    <glyph glyph-name=".notdef" horiz-adv-x="551" 
 />
    <glyph glyph-name="space" unicode=" " horiz-adv-x="551" 
 />
    <glyph glyph-name="exclam" unicode="!" horiz-adv-x="528" 
d="M156 424c-6.66699 178 -12.5 354.667 -17.5 530l-15.5 531h283c-6.66699 -178.667 -12.667 -355.667 -18 -531s-11 -352 -17 -530h-215zM106 150c0 22 3.83301 42.165 11.5 60.498s18.167 34.333 31.5 48s29.333 24.167 48 31.5s39 11 61 11
c20.667 0 40.167 -3.83301 58.5 -11.5s34.333 -18.334 48 -32.001s24.334 -29.667 32.001 -48s11.5 -38.166 11.5 -59.499c0 -22 -3.83301 -42.167 -11.5 -60.5s-18.334 -34.166 -32.001 -47.499s-29.667 -23.666 -48 -30.999s-37.833 -11 -58.5 -11
c-22 0 -42.333 3.66699 -61 11s-34.667 17.5 -48 30.5s-23.833 28.833 -31.5 47.5s-11.5 39 -11.5 61z" />
    <glyph glyph-name="quotedbl" unicode="&#x22;" horiz-adv-x="874" 
d="M350 981h-184l-6 504h196zM709 981h-185l-6 504h197z" />
    <glyph glyph-name="numbersign" unicode="#" horiz-adv-x="1165" 
d="M84 434v160.001h203c7.33301 47.333 13.833 94.666 19.5 141.999s12.167 95 19.5 143h-183v159h203c10.667 72.667 20.667 145 30 217s19.333 144.667 30 218h165l-28.5 -218l-28.5 -217h221c10.667 72.667 20.667 145 30 217s19.333 144.667 30 218h168
c-10.667 -73.333 -20.667 -146 -30 -218s-19.333 -144.333 -30 -217h176v-159h-196l-9.5 -66.5c-3 -21.667 -6.16699 -43.167 -9.5 -64.5c-4 -26 -7.33301 -51.833 -10 -77.5s-6 -51.167 -10 -76.5h176v-160h-199l-27.5 -217l-27.5 -217h-168l28 217l29 217h-221l-29.5 -217
l-29.5 -217h-166l28.5 217l28.5 217h-182zM494 879.001l-19 -143l-18 -142h221l18 142l19 143h-221z" />
    <glyph glyph-name="dollar" unicode="$" horiz-adv-x="1165" 
d="M498 -25c-60 1.33301 -119.671 11.835 -179.004 31.502s-111.666 49.5 -156.999 89.5v310c16.667 -26 37.834 -50 63.501 -72s53.667 -41 84 -57s62 -28.333 95 -37s65.5 -13 97.5 -13c22.667 0 47.334 4 74.001 12s51.667 20 75 36s42.833 36.167 58.5 60.5
s23.5 53.166 23.5 86.499s-6 61.333 -18 84s-29.5 42.5 -52.5 59.5s-51.5 32.167 -85.5 45.5s-73.333 27.333 -118 42c-48.667 16 -93.334 34.333 -134.001 55s-75.5 46.334 -104.5 77.001s-51.5 67.334 -67.5 110.001s-24 94 -24 154s8.33301 114.667 25 164
s40.834 92.666 72.501 129.999s70.334 68.166 116.001 92.499s97.5 41.5 155.5 51.5v252h178v-244c53.333 -4 103.833 -15 151.5 -33s93.5 -44 137.5 -78v-301c-20 22 -42.167 42.333 -66.5 61s-50.166 35 -77.499 49s-55.833 24.833 -85.5 32.5s-59.834 11.5 -90.501 11.5
c-24 0 -49.5 -5.16699 -76.5 -15.5s-52 -24.166 -75 -41.499s-42 -37.833 -57 -61.5s-22.5 -48.5 -22.5 -74.5c0 -28.667 5.66699 -52.834 17 -72.501s28.333 -37.167 51 -52.5s51.167 -29.5 85.5 -42.5s74.5 -26.5 120.5 -40.5c45.333 -14.667 88 -31.834 128 -51.501
s75 -44.667 105 -75s53.667 -67.5 71 -111.5s26 -97.333 26 -160c0 -58 -7.66699 -111.5 -23 -160.5s-37.5 -92.333 -66.5 -130s-64.833 -69.5 -107.5 -95.5s-91 -45.333 -145 -58v-260h-178v241v0z" />
    <glyph glyph-name="percent" unicode="%" horiz-adv-x="1575" 
d="M1509 401c0 -31.333 -1.83105 -63.498 -5.49805 -96.498s-10 -65 -19 -96s-20.667 -60.5 -35 -88.5s-32.333 -52.333 -54 -73s-47.167 -37 -76.5 -49s-63.333 -18 -102 -18s-72.834 6 -102.501 18s-55.334 28.333 -77.001 49s-39.667 44.667 -54 72s-26 56.5 -35 87.5
s-15.333 62.667 -19 95s-5.5 64.166 -5.5 95.499c0 48 4.33301 96.333 13 145s24 92.5 46 131.5s52 70.667 90 95s86.667 36.5 146 36.5c56.667 0 103.667 -12.333 141 -37s67 -56.334 89 -95.001s37.5 -82 46.5 -130s13.5 -95.333 13.5 -142zM530.002 -9.99805l-151 24
l653 1479l152 -25zM651.002 1102c0 -46.667 -4.33496 -94.9971 -13.002 -144.997s-24.167 -95.667 -46.5 -137s-52.333 -75.333 -90 -102s-85.5 -40 -143.5 -40s-105.833 13 -143.5 39s-67.5 59.333 -89.5 100s-37.333 85.834 -46 135.501s-13 98.167 -13 145.5
s4.33301 95.166 13 143.499s24.167 92 46.5 131s52.5 70.833 90.5 95.5s86 37 144 37s105.833 -12.333 143.5 -37s67.334 -56.334 89.001 -95.001s36.834 -81.834 45.501 -129.501s13 -94.834 13 -141.501zM1341 401.005c0 22 -0.998047 46.668 -2.99805 74.001
s-7.16699 53 -15.5 77s-20.833 44.167 -37.5 60.5s-39.334 24.5 -68.001 24.5c-30 0 -53.333 -8.83301 -70 -26.5s-29.334 -39.5 -38.001 -65.5s-14 -53.333 -16 -82s-3 -54 -3 -76c0 -21.333 0.833008 -46 2.5 -74s6.5 -54.833 14.5 -80.5s20.333 -47.334 37 -65.001
s40 -26.5 70 -26.5s53.5 9.66699 70.5 29s29.667 42.666 38 69.999s13.5 55.833 15.5 85.5s3 54.834 3 75.501zM485.002 1102.01c0 22.667 -0.99707 47.6699 -2.99707 75.0029s-7.33301 52.833 -16 76.5s-21.334 43.5 -38.001 59.5s-40 24 -70 24
c-29.333 0 -52.333 -8.83301 -69 -26.5s-29.334 -39.167 -38.001 -64.5s-14.167 -52.5 -16.5 -81.5s-3.5 -54.833 -3.5 -77.5c0 -20.667 1 -45 3 -73s7.16699 -54.833 15.5 -80.5s21 -47.334 38 -65.001s40.5 -26.5 70.5 -26.5c20 0 37.167 4.5 51.5 13.5
s26.166 20.833 35.499 35.5s16.666 31.167 21.999 49.5s9.33301 37.166 12 56.499s4.33398 38.166 5.00098 56.499s1 34.5 1 48.5z" />
    <glyph glyph-name="ampersand" unicode="&#x26;" horiz-adv-x="1343" 
d="M1026 0l-44.9971 63.501l-45 63.5c-113.333 -98 -245 -147 -395 -147c-62 0 -120.833 9.33301 -176.5 28s-104.334 45.5 -146.001 80.5s-74.834 77.833 -99.501 128.5s-37 108 -37 172c0 50 7.5 96 22.5 138s35.667 80.667 62 116s57.166 67.5 92.499 96.5
s73.333 56.167 114 81.5c-42 47.333 -76.833 98 -104.5 152s-41.5 113.333 -41.5 178c0 56.667 9.83301 107.167 29.5 151.5s47 81.666 82 111.999s76.167 53.333 123.5 69s98.666 23.5 153.999 23.5c50 0 98.333 -6.83301 145 -20.5s88 -34.167 124 -61.5
s64.833 -61.5 86.5 -102.5s32.5 -89.167 32.5 -144.5c0 -44 -7.16699 -85.167 -21.5 -123.5s-33.666 -73.5 -57.999 -105.5s-53 -61.167 -86 -87.5s-68.167 -49.833 -105.5 -70.5l252 -295c32 44 61 91.833 87 143.5s46.333 100.5 61 146.5l11.5 13l10.5 12l105 -270
c-9.33301 -21.333 -19.833 -42.5 -31.5 -63.5s-23.667 -41.5 -36 -61.5s-24.833 -39.167 -37.5 -57.5s-25 -34.833 -37 -49.5c36 -51.333 68.833 -102 98.5 -152s58.5 -102.333 86.5 -157h-277v0zM573.003 215.001c46 0 88.001 10.168 126.001 30.501s72.667 46.5 104 78.5
l-138 171.5l-141 170.5c-21.333 -14 -42.333 -29.333 -63 -46s-39.5 -34.834 -56.5 -54.501s-30.667 -41.167 -41 -64.5s-15.5 -49 -15.5 -77c0 -30.667 6 -58.834 18 -84.501s28.167 -47.667 48.5 -66s44.166 -32.666 71.499 -42.999s56.333 -15.5 87 -15.5zM475.004 1145
c0 -15.333 2.49902 -30.5 7.49902 -45.5s11.667 -29.833 20 -44.5s17.833 -28.667 28.5 -42s21.334 -26 32.001 -38c4 -5.33301 8.16699 -10.333 12.5 -15s8.5 -8.66699 12.5 -12c20.667 12.667 41.167 26.167 61.5 40.5s38.5 30.333 54.5 48s29 37 39 58s15 44.5 15 70.5
c0 42 -12.5 75 -37.5 99s-57.5 36 -97.5 36c-48.667 0 -85.5 -14.333 -110.5 -43s-37.5 -66 -37.5 -112z" />
    <glyph glyph-name="quotesingle" unicode="'" horiz-adv-x="514" 
d="M348 981h-184l-6 504h196z" />
    <glyph glyph-name="parenleft" unicode="(" horiz-adv-x="655" 
d="M575 1554c-52 -67.333 -94.999 -135.505 -128.999 -204.505s-61 -139.667 -81 -212s-34 -147.166 -42 -224.499s-12 -158.333 -12 -243c0 -84 4 -164.667 12 -242s22 -152.166 42 -224.499s47.333 -142.666 82 -210.999s79 -135.5 133 -201.5
c-20.667 -9.33301 -41.334 -18.166 -62.001 -26.499l-63 -24.5c-116 130.667 -203.5 274.834 -262.5 432.501s-88.5 324.167 -88.5 499.5c0 176 29.167 342.833 87.5 500.5s144.833 301.5 259.5 431.5l62 -25z" />
    <glyph glyph-name="parenright" unicode=")" horiz-adv-x="655" 
d="M80 -209c52.667 68 95.998 136 129.998 204s61 137.667 81 209s33.833 145.5 41.5 222.5s11.5 158.167 11.5 243.5c0 82.667 -3.83301 163 -11.5 241s-21.667 153.667 -42 227s-48 144.333 -83 213s-79.5 135.667 -133.5 201l62.5 27l62.5 27
c115.333 -130 202.833 -275 262.5 -435s89.5 -327.667 89.5 -503c0 -86 -7.33301 -170.833 -22 -254.5s-36.667 -164.834 -66 -243.501s-65.666 -154.167 -108.999 -226.5s-93.666 -140.166 -150.999 -203.499c-41.333 16 -82.333 33 -123 51z" />
    <glyph glyph-name="asterisk" unicode="*" horiz-adv-x="887" 
d="M561 1075l170 -205.001l-145 -108l-144 229l-147 -225l-148 111c1.33301 1.33301 6.66602 7.33301 15.999 18l33 37.5l41 46.5l41 46.5l32 36c8.66699 9.66699 13.334 14.834 14.001 15.501l-258 70l59 174l244 -107l-17 271h185l-21 -271l246 103l57 -174z" />
    <glyph glyph-name="plus" unicode="+" horiz-adv-x="1223" 
d="M707 483v-413h-193v413h-416v193h416v414h193v-414h417v-193h-417z" />
    <glyph glyph-name="comma" unicode="," horiz-adv-x="582" 
d="M289 -203h-185l117 461h252z" />
    <glyph glyph-name="hyphen" unicode="-" horiz-adv-x="737" 
d="M100 492v221h537v-221h-537z" />
    <glyph glyph-name="period" unicode="." horiz-adv-x="551" 
d="M125 150c0 22 3.66699 42.165 11 60.498s17.833 34.333 31.5 48s29.667 24.167 48 31.5s38.5 11 60.5 11c20.667 0 40.167 -3.83301 58.5 -11.5s34.333 -18.334 48 -32.001s24.334 -29.667 32.001 -48s11.5 -38.166 11.5 -59.499c0 -22 -3.83301 -42.167 -11.5 -60.5
s-18.334 -34.166 -32.001 -47.499s-29.667 -23.666 -48 -30.999s-37.833 -11 -58.5 -11c-22 0 -42.167 3.66699 -60.5 11s-34.333 17.5 -48 30.5s-24.167 28.833 -31.5 47.5s-11 39 -11 61z" />
    <glyph glyph-name="slash" unicode="/" horiz-adv-x="918" 
d="M684 1518l91.5 -14c30.333 -4.66699 60.5 -9 90.5 -13l-338 -792.5l-338 -790.5l-90 12l-90 12l337 793z" />
    <glyph glyph-name="zero" unicode="0" horiz-adv-x="1192" 
d="M596 -23c-70.667 0 -132.671 11.5 -186.004 34.5s-99.5 53.833 -138.5 92.5s-71.5 84 -97.5 136s-46.667 107 -62 165s-26.166 117.333 -32.499 178s-9.5 119.667 -9.5 177c0 58 3.33301 116.833 10 176.5s17.834 117.167 33.501 172.5s36.5 107.166 62.5 155.499
s58.667 90.5 98 126.5s85.833 64.333 139.5 85s115.834 31 186.501 31c69.333 0 130.333 -10.333 183 -31s98.334 -49 137.001 -85s71 -78.167 97 -126.5s46.667 -99.833 62 -154.5s26.333 -111.5 33 -170.5s10 -116.833 10 -173.5s-3.16699 -115.5 -9.5 -176.5
s-17.333 -120.667 -33 -179s-36.5 -113.833 -62.5 -166.5s-58.5 -98.667 -97.5 -138s-85.167 -70.666 -138.5 -93.999s-115 -35 -185 -35zM333.996 731c0 -24.667 1.83789 -54.166 5.50488 -88.499s9.5 -70.166 17.5 -107.499s18.667 -74.333 32 -111
s29.666 -69.667 48.999 -99s42 -53 68 -71s56 -27 90 -27c40 0 74.333 9.33301 103 28s52.834 43.334 72.501 74.001s35.167 65.334 46.5 104.001s20 78 26 118s9.83301 79 11.5 117s2.5 71.333 2.5 100c0 29.333 -1 61.166 -3 95.499s-6.33301 69.166 -13 104.499
s-15.834 69.333 -27.501 102s-27.334 61.667 -47.001 87s-43.5 45.666 -71.5 60.999s-61.333 23 -100 23c-40.667 0 -75.334 -8.5 -104.001 -25.5s-52.667 -39.5 -72 -67.5s-34.833 -60 -46.5 -96s-20.334 -72.833 -26.001 -110.5s-9.33398 -74.834 -11.001 -111.501
s-2.5 -69.667 -2.5 -99z" />
    <glyph glyph-name="one" unicode="1" horiz-adv-x="944" 
d="M436 1194c-16 -16.667 -38.333 -36.167 -67 -58.5l-89.5 -67l-88.5 -62.5l-66 -45v225l101.5 63.5c33 21.667 65.5 44.5 97.5 68.5s63.5 49.333 94.5 76s62.167 55.667 93.5 87c32 0 63.667 0.333008 95 1s63 1 95 1v-1483h-266v1194v0z" />
    <glyph glyph-name="two" unicode="2" horiz-adv-x="1104" 
d="M117 205l83.499 87.498l102.5 110.5l109.5 127c37 44.667 71.5 90 103.5 136l60.5 93c19 30.667 35.5 60.834 49.5 90.501s25.167 58.334 33.5 86.001s12.5 53.834 12.5 78.501c0 30 -5.66699 59.667 -17 89s-27 55.333 -47 78s-43.667 41 -71 55s-56.666 21 -87.999 21
c-35.333 0 -68.5 -6 -99.5 -18s-60 -27.833 -87 -47.5s-51.667 -42.334 -74 -68.001s-42.833 -52.167 -61.5 -79.5v299c29.333 22.667 58.5 44 87.5 64s59.333 37.333 91 52s65.5 26.334 101.5 35.001s75.667 13 119 13c64.667 0 123.334 -10.833 176.001 -32.5
s97.667 -51.667 135 -90s66.166 -83.833 86.499 -136.5s30.5 -110.334 30.5 -173.001c0 -58 -7.16699 -112.667 -21.5 -164s-34.833 -101.333 -61.5 -150s-58.5 -96.667 -95.5 -144s-78.5 -96 -124.5 -146l-48.5 -51l-59.5 -59l-61 -58l-52 -49h539v-254h-852v205v0z" />
    <glyph glyph-name="three" unicode="3" horiz-adv-x="1053" 
d="M948 412c0 -65.333 -11.4961 -124.664 -34.4961 -177.997s-55 -99.333 -96 -138s-89.333 -68.5 -145 -89.5s-115.834 -31.5 -180.501 -31.5c-72 0 -138.667 8.83301 -200 26.5s-121 47.167 -179 88.5v256c16 -18.667 35.833 -35.834 59.5 -51.501s49 -29.334 76 -41.001
s54.667 -20.667 83 -27s55.166 -9.5 80.499 -9.5c36.667 0 71 4.5 103 13.5s59.667 22.833 83 41.5s41.833 42.334 55.5 71.001s20.5 62.334 20.5 101.001c0 41.333 -9.5 75.5 -28.5 102.5s-43.333 48.167 -73 63.5s-62.167 26.166 -97.5 32.499s-69.333 9.83301 -102 10.5
h-40c-11.333 0 -22.666 -0.333008 -33.999 -1s-23.5 -1.5 -36.5 -2.5s-28.833 -2.5 -47.5 -4.5v217c18.667 -3.33301 35.667 -5.66602 51 -6.99902s29.666 -2.5 42.999 -3.5s26.5 -1.5 39.5 -1.5h40.5c34.667 0 69.167 2.83301 103.5 8.5s65.333 15.834 93 30.501
s50 35 67 61s25.5 59.667 25.5 101c0 38 -6.83301 71 -20.5 99s-32.167 51.167 -55.5 69.5s-51 32 -83 41s-66.333 13.5 -103 13.5c-24.667 0 -51 -3.16699 -79 -9.5s-55.5 -15 -82.5 -26s-52.333 -24.167 -76 -39.5s-43.5 -32 -59.5 -50v250
c57.333 41.333 116.666 70.666 177.999 87.999s127.666 26 198.999 26c64.667 0 124.667 -10.333 180 -31s103.333 -49.834 144 -87.501s72.5 -82.834 95.5 -135.501s34.5 -110.667 34.5 -174c0 -74.667 -16.5 -140 -49.5 -196s-76.5 -102.333 -130.5 -139
c54 -37.333 97.167 -84.333 129.5 -141s48.5 -122.334 48.5 -197.001z" />
    <glyph glyph-name="four" unicode="4" horiz-adv-x="1110" 
d="M59 334v278l236 436.5l235 436.5h383v-920h154v-229h-154v-336h-256v334h-598zM258 565h401v750h-2z" />
    <glyph glyph-name="five" unicode="5" horiz-adv-x="1057" 
d="M901 1485l-0.000976562 -252.001h-516v-342c26.667 10 54 17.333 82 22s56 7 84 7c64.667 0 122.834 -11 174.501 -33s95.5 -52.5 131.5 -91.5s63.667 -85.333 83 -139s29 -112.167 29 -175.5c0 -75.333 -12.5 -144 -37.5 -206s-60 -115 -105 -159
s-98.833 -78.167 -161.5 -102.5s-131.334 -36.5 -206.001 -36.5c-67.333 0 -129 8.5 -185 25.5s-110.333 46.167 -163 87.5v264c34 -42 76 -76 126 -102s102.667 -39 158 -39c42.667 0 81.834 6.16699 117.501 18.5s66.5 30.333 92.5 54s46.333 52.667 61 87
s22 73.166 22 116.499c0 36.667 -7.83301 70.334 -23.5 101.001s-36.5 56.834 -62.5 78.501s-55.5 38.5 -88.5 50.5s-66.833 18 -101.5 18c-50.667 0 -98.5 -6 -143.5 -18s-89.5 -29.667 -133.5 -53v819h766z" />
    <glyph glyph-name="six" unicode="6" horiz-adv-x="1155" 
d="M1071 512c0 -77.333 -11.0059 -148.667 -33.0059 -214s-54.333 -121.833 -97 -169.5s-95 -84.834 -157 -111.501s-133 -40 -213 -40c-66.667 0 -125.167 8 -175.5 24s-93.666 38.5 -129.999 67.5s-66.5 63.667 -90.5 104s-43 85 -57 134s-23.833 101.333 -29.5 157
s-8.5 113.5 -8.5 173.5c0 40.667 4.83301 85.334 14.5 134.001s23.834 98.667 42.501 150s41.334 103.333 68.001 156s57.334 103.5 92.001 152.5s72.667 95.333 114 139s86 82.5 134 116.5h381c-34.667 -13.333 -70.667 -33.833 -108 -61.5s-74.5 -60 -111.5 -97
s-72.833 -77.167 -107.5 -120.5s-66.667 -87.5 -96 -132.5s-54.833 -89.5 -76.5 -133.5s-38.167 -85 -49.5 -123c17.333 22 37.5 42.333 60.5 61s48 35 75 49s55.333 24.833 85 32.5s59.834 11.5 90.501 11.5c64.667 0 121 -13 169 -39s87.833 -60.5 119.5 -103.5
s55.334 -92 71.001 -147s23.5 -111.5 23.5 -169.5zM812.994 503.999c0 34 -4.83594 66.334 -14.5029 97.001s-24 57.5 -43 80.5s-42.5 41.167 -70.5 54.5s-60.333 20 -97 20c-38.667 0 -72.5 -7 -101.5 -21s-53.167 -33 -72.5 -57s-33.833 -51.833 -43.5 -83.5
s-14.5 -65.167 -14.5 -100.5c0 -37.333 4.33301 -72.5 13 -105.5s22.334 -61.833 41.001 -86.5s42.334 -44.334 71.001 -59.001s63 -22 103 -22s74.5 8 103.5 24s52.833 37.333 71.5 64s32.334 57 41.001 91s13 68.667 13 104z" />
    <glyph glyph-name="seven" unicode="7" horiz-adv-x="1022" 
d="M418 0l-285 0.000976562l522 1233h-577v252h864v-18.5c0 -10.333 0.166992 -22.833 0.5 -37.5s0.5 -30.334 0.5 -47.001v-46c0 -14 -0.166992 -26 -0.5 -36s-0.5 -15.333 -0.5 -16z" />
    <glyph glyph-name="eight" unicode="8" horiz-adv-x="1155" 
d="M584 1509c64 0 126 -7.50195 186 -22.502s113.167 -38.667 159.5 -71s83.5 -74.166 111.5 -125.499s42 -113.333 42 -186c0 -87.333 -22.667 -158.5 -68 -213.5s-108.666 -95.833 -189.999 -122.5h2c92 -22.667 160.5 -64.667 205.5 -126s67.5 -138.666 67.5 -231.999
c0 -74.667 -14 -139.167 -42 -193.5s-65.5 -99.333 -112.5 -135s-101.333 -62 -163 -79s-126.5 -25.5 -194.5 -25.5c-69.333 0 -135 8.16699 -197 24.5s-116.5 42 -163.5 77s-84.333 79.833 -112 134.5s-41.5 120.334 -41.5 197.001c0 94.667 22.667 172.5 68 233.5
s114.666 101.833 207.999 122.5c-82.667 28 -146.667 70.167 -192 126.5s-68 128.833 -68 217.5c0 70.667 14 131.167 42 181.5s65 91.666 111 123.999s98.667 56 158 71s120.333 22.5 183 22.5zM586 654.998c-34 0 -66.167 -5.00195 -96.5 -15.002
s-56.833 -24.5 -79.5 -43.5s-40.667 -42.5 -54 -70.5s-20 -60 -20 -96c0 -36.667 6.66699 -68.834 20 -96.501s31.333 -50.667 54 -69s49.167 -32.166 79.5 -41.499s62.5 -14 96.5 -14c34.667 0 67.167 5 97.5 15s56.833 24.5 79.5 43.5s40.5 42.667 53.5 71
s19.5 60.833 19.5 97.5c0 38 -6.33301 70.833 -19 98.5s-30.334 50.334 -53.001 68.001s-49.167 30.834 -79.5 39.501s-63.166 13 -98.499 13zM586 851.996c33.333 0 64.333 5.16797 93 15.501s53.5 25 74.5 44s37.5 42.167 49.5 69.5s18 58 18 92s-6.5 63.333 -19.5 88
s-30.333 45.334 -52 62.001s-46.667 29 -75 37s-57.833 12 -88.5 12c-32 0 -62 -4.16699 -90 -12.5s-52.5 -20.833 -73.5 -37.5s-37.667 -37.834 -50 -63.501s-18.5 -55.5 -18.5 -89.5s6 -64.333 18 -91s28.333 -49.334 49 -68.001s45.167 -33 73.5 -43s58.833 -15 91.5 -15
z" />
    <glyph glyph-name="nine" unicode="9" horiz-adv-x="1155" 
d="M1083 846c0 -40.667 -4.82715 -85.333 -14.4941 -134s-23.834 -98.667 -42.501 -150s-41.334 -103.333 -68.001 -156s-57.334 -103.5 -92.001 -152.5s-72.667 -95.333 -114 -139s-86 -82.5 -134 -116.5h-380c34.667 13.333 70.5 33.833 107.5 61.5s74 59.834 111 96.501
s72.833 76.834 107.5 120.501s66.667 88 96 133s54.833 89.5 76.5 133.5s38.167 85 49.5 123c-17.333 -22 -37.5 -42.333 -60.5 -61s-48 -35 -75 -49s-55.333 -24.833 -85 -32.5s-59.834 -11.5 -90.501 -11.5c-64.667 0 -121 13 -169 39s-87.833 60.5 -119.5 103.5
s-55.334 92 -71.001 147s-23.5 111.5 -23.5 169.5c0 77.333 11 148.666 33 213.999s54.333 121.666 97 168.999s95 84.333 157 111s133 40 213 40c66.667 0 125.167 -8 175.5 -24s93.666 -38.5 129.999 -67.5s66.5 -63.667 90.5 -104s43 -84.833 57 -133.5
s23.833 -101 29.5 -157s8.5 -113.667 8.5 -173zM807.006 989.001c0 36.667 -4.33105 71.665 -12.998 104.998s-22.334 62.333 -41.001 87s-42.167 44.334 -70.5 59.001s-62.5 22 -102.5 22c-40.667 0 -75.5 -8.16699 -104.5 -24.5s-52.833 -37.666 -71.5 -63.999
s-32.334 -56.5 -41.001 -90.5s-13 -68.667 -13 -104c0 -34 4.83301 -66.333 14.5 -97s24 -57.5 43 -80.5s42.5 -41.167 70.5 -54.5s60.333 -20 97 -20c38.667 0 72.5 7 101.5 21s53.167 33 72.5 57s33.833 51.833 43.5 83.5s14.5 65.167 14.5 100.5z" />
    <glyph glyph-name="colon" unicode=":" horiz-adv-x="551" 
d="M125 150c0 20.667 4.00098 40.167 12.001 58.5s18.833 34.333 32.5 48s29.667 24.5 48 32.5s37.833 12 58.5 12s40 -4 58 -12s33.833 -18.833 47.5 -32.5s24.5 -29.667 32.5 -48s12 -37.833 12 -58.5c0 -21.333 -3.83301 -41 -11.5 -59s-18.334 -33.833 -32.001 -47.5
s-29.667 -24.334 -48 -32.001s-37.833 -11.5 -58.5 -11.5s-40.167 3.83301 -58.5 11.5s-34.333 18.334 -48 32.001s-24.5 29.5 -32.5 47.5s-12 37.667 -12 59zM125.001 848c0 20.667 4.00098 39.999 12.001 57.999s18.833 33.667 32.5 47s29.667 24 48 32s37.833 12 58.5 12
s40 -3.83301 58 -11.5s33.833 -18.167 47.5 -31.5s24.5 -29.166 32.5 -47.499s12 -37.833 12 -58.5c0 -21.333 -3.83301 -41.166 -11.5 -59.499s-18.334 -34.333 -32.001 -48s-29.667 -24.5 -48 -32.5s-37.833 -12 -58.5 -12s-40.167 4 -58.5 12s-34.333 18.833 -48 32.5
s-24.5 29.667 -32.5 48s-12 38.166 -12 59.499z" />
    <glyph glyph-name="semicolon" unicode=";" horiz-adv-x="569" 
d="M279 -203h-187l117 461h252zM139 848c0 20.667 4.00098 39.999 12.001 57.999s18.833 33.667 32.5 47s29.667 24 48 32s38.166 12 59.499 12c20.667 0 40.334 -3.83301 59.001 -11.5s34.667 -18.167 48 -31.5s24 -29.166 32 -47.499s12 -37.833 12 -58.5
c0 -21.333 -4 -41.166 -12 -59.499s-18.667 -34.333 -32 -48s-29.333 -24.5 -48 -32.5s-38.334 -12 -59.001 -12s-40.167 4 -58.5 12s-34.5 18.833 -48.5 32.5s-25 29.667 -33 48s-12 38.166 -12 59.499z" />
    <glyph glyph-name="less" unicode="&#x3c;" horiz-adv-x="1204" 
d="M90 494v161l1022 445v-189l-780 -338l780 -335v-189z" />
    <glyph glyph-name="equal" unicode="=" horiz-adv-x="1223" 
d="M98 688v193h1026v-193h-1026zM98 281v192h1026v-192h-1026z" />
    <glyph glyph-name="greater" unicode="&#x3e;" horiz-adv-x="1204" 
d="M90 49v189l782 335l-782 338v189l1022 -445v-161z" />
    <glyph glyph-name="question" unicode="?" horiz-adv-x="938" 
d="M96 1378c56 40 113.668 71.5 173.001 94.5s124 34.5 194 34.5c56.667 0 109 -8.33301 157 -25s89.5 -41 124.5 -73s62.333 -71 82 -117s29.5 -98.333 29.5 -157c0 -45.333 -9.66699 -88.666 -29 -129.999s-42.833 -81.333 -70.5 -120s-57.167 -76.667 -88.5 -114
s-59.166 -74.833 -83.499 -112.5s-42.5 -76 -54.5 -115s-12.667 -79.5 -2 -121.5c-40 0 -80.167 0.333008 -120.5 1s-80.5 1 -120.5 1c-4 19.333 -6.33301 39.5 -7 60.5s-1 41.167 -1 60.5c0 32.667 7.5 64.5 22.5 95.5s33.5 61.833 55.5 92.5s46.167 61.167 72.5 91.5
s50.5 60.666 72.5 90.999s40.5 60.833 55.5 91.5s22.5 61.667 22.5 93c0 29.333 -5 54.5 -15 75.5s-23.833 38.333 -41.5 52s-38.167 23.834 -61.5 30.501s-48.333 10 -75 10c-32 0 -61.667 -5 -89 -15s-52.833 -23.333 -76.5 -40s-45.834 -35.834 -66.501 -57.501
s-40.334 -44.5 -59.001 -68.5v291v0zM254.001 150c0 22 3.66699 42.168 11 60.501s17.833 34.333 31.5 48s29.834 24.167 48.501 31.5s39 11 61 11c20.667 0 40 -4 58 -12s33.833 -18.833 47.5 -32.5s24.334 -29.667 32.001 -48s11.5 -37.833 11.5 -58.5
c0 -21.333 -3.83301 -41 -11.5 -59s-18.334 -33.833 -32.001 -47.5s-29.5 -24.334 -47.5 -32.001s-37.333 -11.5 -58 -11.5c-22 0 -42.333 3.66699 -61 11s-34.834 17.5 -48.501 30.5s-24.167 28.833 -31.5 47.5s-11 39 -11 61z" />
    <glyph glyph-name="at" unicode="@" horiz-adv-x="1679" 
d="M1143 131c-20.667 0 -41.5049 2.50391 -62.5049 7.50391s-40.333 12.833 -58 23.5s-32.334 24.5 -44.001 41.5s-18.5 37.167 -20.5 60.5c-14 -19.333 -30.5 -37.166 -49.5 -53.499s-39.5 -30.166 -61.5 -41.499s-45.167 -20.166 -69.5 -26.499s-48.5 -9.5 -72.5 -9.5
c-44 0 -83.167 8.16699 -117.5 24.5s-63.166 38.333 -86.499 66s-41 60 -53 97s-18 76.167 -18 117.5c0 42 4.66699 85 14 129s23.166 86.667 41.499 128s40.666 80.333 66.999 117s56.333 68.667 90 96s70.834 49 111.501 65s84.334 24 131.001 24
c44 0 83 -10.167 117 -30.5s61.667 -49.5 83 -87.5l25 88h182c-5.33301 -18.667 -13.833 -45.667 -25.5 -81l-38.5 -117.5l-44 -134.5l-41.5 -131c-12.333 -40.667 -22.5 -76.167 -30.5 -106.5s-12 -51.166 -12 -62.499c0 -20.667 7.5 -36.834 22.5 -48.501
s32.167 -17.5 51.5 -17.5c32 0 61.833 6.83301 89.5 20.5s53.167 32 76.5 55s43.833 49.5 61.5 79.5s32.834 61 45.501 93s22.167 63.833 28.5 95.5s9.5 61.167 9.5 88.5c0 82.667 -15.333 157.167 -46 223.5s-72.334 122.5 -125.001 168.5s-114.167 81.333 -184.5 106
s-145.166 37 -224.499 37c-65.333 0 -127.666 -8.83301 -186.999 -26.5s-114.166 -42.5 -164.499 -74.5s-95.833 -70 -136.5 -114s-75.5 -92.667 -104.5 -146s-51.167 -110 -66.5 -170s-23 -122 -23 -186c0 -99.333 16.5 -188 49.5 -266s78.833 -144 137.5 -198
s128.5 -95.333 209.5 -124s169.5 -43 265.5 -43c88.667 0 173 11.833 253 35.5s156 62.5 228 116.5l40 -46c13.333 -15.333 27.333 -30 42 -44c-84.667 -68 -173.667 -117.833 -267 -149.5s-194 -47.5 -302 -47.5c-115.333 0 -221.666 17.667 -318.999 53
s-181.5 86.166 -252.5 152.499s-126.333 146.833 -166 241.5s-59.5 201 -59.5 319c0 78 9.16699 153.333 27.5 226s44.666 140.667 78.999 204s76 121.166 125 173.499s104 97.166 165 134.499s127.333 66.333 199 87s147.5 31 227.5 31
c65.333 0 128.5 -7.16699 189.5 -21.5s118.167 -35 171.5 -62s102 -60.167 146 -99.5s81.833 -83.833 113.5 -133.5s56.334 -104.334 74.001 -164.001s26.5 -123.5 26.5 -191.5c0 -44.667 -5.16699 -89.834 -15.5 -135.501s-25.166 -89.667 -44.499 -132
s-43 -81.833 -71 -118.5s-59.833 -68.834 -95.5 -96.501s-75 -49.334 -118 -65.001s-89.167 -23.5 -138.5 -23.5zM1018 727.004c0 14.667 -2.66504 28.999 -7.99805 42.999s-12.833 26.5 -22.5 37.5s-21 19.833 -34 26.5s-27.167 10 -42.5 10
c-26.667 0 -52 -7.33301 -76 -22s-46.333 -33.834 -67 -57.501s-39.5 -50.5 -56.5 -80.5s-31.5 -60.667 -43.5 -92s-21.167 -61.666 -27.5 -90.999s-9.5 -55 -9.5 -77c0 -18 1.83301 -35.667 5.5 -53s10 -32.833 19 -46.5s20.5 -24.667 34.5 -33s31.667 -12.5 53 -12.5
c24 0 47.333 8.33301 70 25s44.167 38.334 64.5 65.001s39.166 56.5 56.499 89.5s32.166 66.167 44.499 99.5s22 64.833 29 94.5s10.5 54.5 10.5 74.5z" />
    <glyph glyph-name="A" unicode="A" horiz-adv-x="1239" 
d="M821 1485l198.5 -743.5l199.5 -741.5h-279l-50.5 185.5l-49.5 185.5h-441l-49 -185.5l-51 -185.5h-281l200 741.5l200 743.5h403zM446 602h347l-86.5 342l-85.5 342l-3 -2z" />
    <glyph glyph-name="B" unicode="B" horiz-adv-x="1204" 
d="M643 1485c62.667 0 122.332 -7.16406 178.999 -21.4971s106.334 -37.333 149.001 -69s76.5 -72.167 101.5 -121.5s37.5 -109 37.5 -179c0 -42.667 -6.16699 -81.334 -18.5 -116.001s-29.833 -65.334 -52.5 -92.001s-50 -49.5 -82 -68.5s-67.667 -34.167 -107 -45.5
c40.667 -10 78.5 -26 113.5 -48s65.5 -48.167 91.5 -78.5s46.5 -64.5 61.5 -102.5s22.5 -78.333 22.5 -121c0 -72.667 -12.667 -135.5 -38 -188.5s-59.833 -96.833 -103.5 -131.5s-95 -60.334 -154 -77.001s-122.5 -25 -190.5 -25h-534v1485h524zM615.998 238.003
c36.667 0 70.334 3.16602 101.001 9.49902s57 17.5 79 33.5s39.167 37.333 51.5 64s18.5 60.334 18.5 101.001c0 41.333 -6.33301 75.5 -19 102.5s-30.334 48.333 -53.001 64s-49.5 26.667 -80.5 33s-64.833 9.5 -101.5 9.5h-227v-417h231zM611.998 858.002
c30.667 0 60.334 3.66699 89.001 11s54 19 76 35s39.667 36.333 53 61s20 54.667 20 90c0 40.667 -7.5 73.5 -22.5 98.5s-34.833 44.5 -59.5 58.5s-52.834 23.333 -84.501 28s-64.167 7 -97.5 7h-201v-389h227z" />
    <glyph glyph-name="C" unicode="C" 
d="M1016 119c-21.333 -23.333 -46.8301 -43.8438 -76.4971 -61.5107s-61.334 -32.5 -95.001 -44.5s-67.834 -21 -102.501 -27s-67 -9 -97 -9c-72.667 0 -137.5 9.83301 -194.5 29.5s-106.667 46.834 -149 81.501s-78.166 75.834 -107.499 123.501s-53 99.334 -71 155.001
s-31 114.334 -39 176.001s-12 123.834 -12 186.501s4.33301 125.334 13 188.001s22.334 122.834 41.001 180.501s43 111.334 73 161.001s66.667 93 110 130s93.5 66 150.5 87s122.167 31.5 195.5 31.5c32 0 64.167 -3.33301 96.5 -10s64.166 -16 95.499 -28
s61.333 -26.333 90 -43s55 -35.334 79 -56.001v-297h-2c-16 19.333 -33.833 39.5 -53.5 60.5s-41.834 40.167 -66.501 57.5s-52.167 31.666 -82.5 42.999s-63.833 17 -100.5 17c-48.667 0 -91.5 -7.16699 -128.5 -21.5s-68.833 -34 -95.5 -59s-48.834 -54.333 -66.501 -88
s-31.667 -69.667 -42 -108s-17.666 -78.166 -21.999 -119.499s-6.5 -82 -6.5 -122c0 -30.667 3.16699 -64.5 9.5 -101.5s16 -74.167 29 -111.5s29 -73.666 48 -108.999s41.167 -66.666 66.5 -93.999s53.5 -49.166 84.5 -65.499s65.167 -24.5 102.5 -24.5
c36.667 0 71.167 6.33301 103.5 19s62 28.667 89 48s51.667 40.333 74 63s42.166 44.334 59.499 65.001v-303v0z" />
    <glyph glyph-name="D" unicode="D" horiz-adv-x="1276" 
d="M485 1485c54.667 0 109.666 -1.33203 164.999 -3.99902s109 -11.667 161 -27c51.333 -15.333 96.833 -36.166 136.5 -62.499s74.167 -57 103.5 -92s53.833 -73.667 73.5 -116s35.5 -86.5 47.5 -132.5s20.667 -93.333 26 -142s8 -97 8 -145
c0 -79.333 -8 -158.166 -24 -236.499s-41.833 -150.833 -77.5 -217.5s-82.167 -124.834 -139.5 -174.501s-127.666 -85.834 -210.999 -108.501c-44 -12.667 -88.5 -20.334 -133.5 -23.001s-90.167 -4 -135.5 -4h-366v1485h366zM542.999 252.001
c51.333 0 96.668 6.99805 136.001 20.998s73.333 33.167 102 57.5s52.5 53 71.5 86s34.333 69 46 108s19.834 79.833 24.501 122.5s7 85.667 7 129c0 76.667 -6.66699 144.334 -20 203.001s-36.333 107.834 -69 147.501s-76.167 69.667 -130.5 90s-122.5 30.5 -204.5 30.5
c-20.667 0 -40.834 -0.333008 -60.501 -1s-39.834 -1 -60.501 -1v-993h158z" />
    <glyph glyph-name="E" unicode="E" horiz-adv-x="1010" 
d="M922 1485v-244h-537v-369h514v-239h-514v-395h539v-238h-805v1485h803z" />
    <glyph glyph-name="F" unicode="F" horiz-adv-x="999" 
d="M944 1241h-559v-375h537v-239h-537v-627h-266v1485h825v-244z" />
    <glyph glyph-name="G" unicode="G" horiz-adv-x="1229" 
d="M1137 848l0.00390625 -368.998c0 -83.333 -13.333 -156.333 -40 -219s-62.334 -115.167 -107.001 -157.5s-96.334 -74.166 -155.001 -95.499s-120 -32 -184 -32c-73.333 0 -138.666 10.167 -195.999 30.5s-107.5 48.5 -150.5 84.5s-79.333 78.5 -109 127.5
s-53.667 102.167 -72 159.5s-31.5 117.5 -39.5 180.5s-12 126.5 -12 190.5c0 66 4.66699 129.167 14 189.5s23.666 117.833 42.999 172.5c22.667 66 52.5 123.833 89.5 173.5s79.333 91 127 124s99.834 57.833 156.501 74.5s116.667 25 180 25c31.333 0 63.333 -2 96 -6
s65 -10.833 97 -20.5s63.333 -22.834 94 -39.501s60 -37.667 88 -63v-288c-42 49.333 -91.5 89.5 -148.5 120.5s-120.833 46.5 -191.5 46.5c-56 0 -104 -10 -144 -30s-76 -47.333 -108 -82c-43.333 -47.333 -74.666 -107 -93.999 -179s-29 -150.333 -29 -235
c0 -33.333 2.33301 -68.833 7 -106.5s12.167 -75.334 22.5 -113.001s23.833 -73.667 40.5 -108s37 -64.833 61 -91.5s52.167 -47.834 84.5 -63.501s69.166 -23.5 110.499 -23.5c51.333 0 91.166 9.5 119.499 28.5s49.166 45.333 62.499 79s21.166 73.5 23.499 119.5
s3.5 96 3.5 150h-193v246h453z" />
    <glyph glyph-name="H" unicode="H" horiz-adv-x="1251" 
d="M385 1485v-615h483v615h265v-1485h-265v639h-483v-639h-266v1485h266z" />
    <glyph glyph-name="I" unicode="I" horiz-adv-x="485" 
d="M111 0v1485h264v-1485h-264z" />
    <glyph glyph-name="J" unicode="J" horiz-adv-x="815" 
d="M27 330c30.667 -33.333 65.502 -58.833 104.502 -76.5s80.5 -26.5 124.5 -26.5c34 0 62 5.16699 84 15.5s39.667 24 53 41s23 37 29 60s10.167 47 12.5 72s3.16602 50.5 2.49902 76.5s-1 51 -1 75v918h264v-1053c0 -63.333 -6.33301 -122.833 -19 -178.5
s-33.5 -104.167 -62.5 -145.5s-67.667 -73.833 -116 -97.5s-107.833 -35.5 -178.5 -35.5c-56.667 0 -108.334 7.33301 -155.001 22s-94 36 -142 64v269v0z" />
    <glyph glyph-name="K" unicode="K" horiz-adv-x="1151" 
d="M829 0c-16 30.667 -35.833 65.833 -59.5 105.5l-76.5 125l-85 135l-85 135.5l-76.5 125.5c-23.667 39.667 -43.5 75.167 -59.5 106.5v-2c0 -122.667 -0.333008 -244.5 -1 -365.5s-1 -242.833 -1 -365.5h-266v1485h268c0 -110 -0.333008 -219.333 -1 -328s-1 -218 -1 -328
l66.5 100.5l81 118.5l86.5 125.5l83.5 122l72 107.5c21.667 32.667 39.167 60 52.5 82h295l-236 -355.5l-237 -355.5l244 -387l244 -387h-308z" />
    <glyph glyph-name="L" unicode="L" horiz-adv-x="891" 
d="M119 0v1485h266v-1239h473v-246h-739z" />
    <glyph glyph-name="M" unicode="M" horiz-adv-x="1612" 
d="M506 1485l138.498 -506.005l135.5 -506c6.66699 -23.333 11.834 -46.666 15.501 -69.999s7.5 -46.333 11.5 -69c4 22.667 9.33301 49 16 79s12.334 57 17.001 81l132 494l134 497h385v-1485h-248c0 175.333 0.333008 349.833 1 523.5s1 348.834 1 525.501v198
c-8 -50 -18.333 -97.667 -31 -143l-151 -552l-154 -552h-217l-144.5 533.5l-144.5 533.5c-3.33301 11.333 -6.5 24 -9.5 38l-9 43l-9 43l-8.5 38c0 -25.333 -0.333008 -50.666 -1 -75.999s-1 -50.666 -1 -75.999c1.33301 -181.333 2 -361.166 2 -539.499
s0.666992 -357.5 2 -537.5h-248v1485h385z" />
    <glyph glyph-name="N" unicode="N" horiz-adv-x="1329" 
d="M451 1485l71 -153.501l81 -176.5l85 -187l83 -184l192 -428v140c0 165.333 -0.333008 330 -1 494s-1 329 -1 495h247v-1485h-307l-238 504.5l-237 507.5l-13.5 32.5l-15.5 38.5l-15.5 39.5c-5 13 -9.16699 24.5 -12.5 34.5c0 -25.333 -0.333008 -50.666 -1 -75.999
s-1 -50.333 -1 -75v-175c0 -66.667 0.166992 -138.5 0.5 -215.5s0.5 -153.167 0.5 -228.5s0.166992 -146.833 0.5 -214.5s0.5 -125.167 0.5 -172.5h-248v1485h330z" />
    <glyph glyph-name="O" unicode="O" horiz-adv-x="1341" 
d="M670 -23c-73.333 0 -139.168 10 -197.501 30s-109.5 47.833 -153.5 83.5s-81.667 77.667 -113 126s-57 100.833 -77 157.5s-34.5 116.334 -43.5 179.001s-13.5 126 -13.5 190c0 64.667 4.5 128.667 13.5 192s23.333 123.166 43 179.499s45.167 108.5 76.5 156.5
s69.166 89.5 113.499 124.5s95.833 62.333 154.5 82s125 29.5 199 29.5c72.667 0 137.834 -9.66699 195.501 -29s108.667 -46 153 -80s82.333 -74.667 114 -122s57.5 -99.166 77.5 -155.499s34.667 -116 44 -179s14 -127.5 14 -193.5c0 -64 -4.66699 -127.667 -14 -191
s-23.833 -123.5 -43.5 -180.5s-45.167 -109.833 -76.5 -158.5s-69.333 -90.834 -114 -126.501s-96.167 -63.667 -154.5 -84s-124.166 -30.5 -197.499 -30.5zM663.998 238c39.333 0 74.8281 8.49902 106.495 25.499s60 39.5 85 67.5s46.5 59.833 64.5 95.5
s32.833 72.5 44.5 110.5s20.334 75.333 26.001 112s8.5 69.667 8.5 99c0 36.667 -1.66699 74.5 -5 113.5s-9.5 77 -18.5 114s-21.167 72 -36.5 105s-35.166 62 -59.499 87s-53.5 44.833 -87.5 59.5s-74 22 -120 22c-43.333 0 -81.666 -8 -114.999 -24
s-62.333 -37.167 -87 -63.5s-45.167 -57 -61.5 -92s-29.333 -71.333 -39 -109s-16.667 -75.667 -21 -114s-6.5 -74.166 -6.5 -107.499c0 -30 2.83301 -63 8.5 -99s14.334 -72.667 26.001 -110s26.334 -73.5 44.001 -108.5s38.5 -66 62.5 -93s51 -48.833 81 -65.5
s63.333 -25 100 -25z" />
    <glyph glyph-name="P" unicode="P" horiz-adv-x="1176" 
d="M506 1485c46 0 92.5 -0.668945 139.5 -2.00195s93.167 -7.66602 138.5 -18.999c56.667 -14 106.667 -35.167 150 -63.5s79.5 -62.166 108.5 -101.499s50.833 -83.833 65.5 -133.5s22 -103.5 22 -161.5c0 -94 -18.5 -174.833 -55.5 -242.5s-96.167 -125.5 -177.5 -173.5
c-31.333 -18.667 -68.833 -33 -112.5 -43s-89 -17.5 -136 -22.5s-93.667 -8 -140 -9s-87.5 -1.5 -123.5 -1.5v-512h-266v1399c0 14 0.333008 28.167 1 42.5s1 28.833 1 43.5h385zM553 742.998c41.333 0 80.1641 4.83301 116.497 14.5s68 25 95 46s48.333 47.833 64 80.5
s23.5 71.667 23.5 117c0 44 -7.16699 80.667 -21.5 110s-33.666 53 -57.999 71s-52.166 31.5 -83.499 40.5s-64.333 15.167 -99 18.5s-69.667 4.83301 -105 4.5s-68.666 -0.5 -99.999 -0.5v-502h168z" />
    <glyph glyph-name="Q" unicode="Q" horiz-adv-x="1343" 
d="M874 354c22 28.667 40.8291 60.167 56.4961 94.5s28.5 69.166 38.5 104.499s17.5 69.833 22.5 103.5s7.5 64.167 7.5 91.5c0 36.667 -1.66699 74.5 -5 113.5s-9.5 77 -18.5 114s-21.167 72 -36.5 105s-35.166 62 -59.499 87s-53.5 44.833 -87.5 59.5s-74 22 -120 22
c-43.333 0 -81.666 -8 -114.999 -24s-62.333 -37.167 -87 -63.5s-45.167 -57 -61.5 -92s-29.333 -71.333 -39 -109s-16.667 -75.667 -21 -114s-6.5 -74.166 -6.5 -107.499c0 -30 2.83301 -63 8.5 -99s14.334 -72.667 26.001 -110s26.334 -73.5 44.001 -108.5
s38.5 -66 62.5 -93s51 -48.833 81 -65.5s63.333 -25 100 -25c26 0 51 4 75 12l-71 90l151 72l55 -58v0zM1032 -125l-119.001 152.001c-34.667 -16.667 -72 -29.167 -112 -37.5s-83.667 -12.5 -131 -12.5c-73.333 0 -139.166 10 -197.499 30s-109.5 47.833 -153.5 83.5
s-81.667 77.667 -113 126s-57 100.833 -77 157.5s-34.5 116.334 -43.5 179.001s-13.5 126 -13.5 190c0 64.667 4.5 128.667 13.5 192s23.333 123.166 43 179.499s45.167 108.5 76.5 156.5s69.166 89.5 113.499 124.5s95.833 62.333 154.5 82s125 29.5 199 29.5
c72.667 0 137.834 -9.66699 195.501 -29s108.667 -46 153 -80s82.333 -74.667 114 -122s57.5 -99.166 77.5 -155.499s34.667 -116 44 -179s14 -127.5 14 -193.5c0 -56.667 -3.5 -112.834 -10.5 -168.501s-18 -109.334 -33 -161.001s-34.5 -100.667 -58.5 -147
s-53 -87.833 -87 -124.5l170 -172z" />
    <glyph glyph-name="R" unicode="R" horiz-adv-x="1188" 
d="M627 1485c72.667 0 139.497 -8 200.497 -24s113.667 -41.5 158 -76.5s78.833 -80.333 103.5 -136s37 -122.834 37 -201.501c0 -48.667 -6.5 -92.5 -19.5 -131.5s-30.333 -73.5 -52 -103.5s-46.5 -56 -74.5 -78s-57.167 -40 -87.5 -54s-60.666 -24.333 -90.999 -31
s-58.5 -10 -84.5 -10c73.333 -108.667 149.333 -215.167 228 -319.5s155 -210.833 229 -319.5h-310l-197.5 306.5l-197.5 305.5c-6 0.666992 -12.667 0.833984 -20 0.500977s-14.666 -0.833008 -21.999 -1.5s-14.666 -1 -21.999 -1s-14 0.666992 -20 2v-612h-266v1485h508z
M384.997 811c33.333 -2 66.501 -3.16406 99.501 -3.49707s66.167 -0.5 99.5 -0.5c34 0 67 4.83301 99 14.5s60.333 24 85 43s44.5 42.667 59.5 71s22.5 61.166 22.5 98.499c0 39.333 -6 72.166 -18 98.499s-28.5 47.333 -49.5 63s-46.333 27.167 -76 34.5
s-61.834 11.666 -96.501 12.999c-38 2 -75.5 3.16699 -112.5 3.5s-74.5 0.5 -112.5 0.5v-436v0z" />
    <glyph glyph-name="S" unicode="S" horiz-adv-x="1036" 
d="M102 406c19.333 -26 42.168 -50.002 68.501 -72.002s54.833 -41 85.5 -57s62.5 -28.333 95.5 -37s66.167 -13 99.5 -13c26.667 0 53.667 5 81 15s52.333 23.833 75 41.5s41.167 38.834 55.5 63.501s21.5 51.667 21.5 81c0 36.667 -8.83301 67 -26.5 91s-41 44.5 -70 61.5
s-61.833 32 -98.5 45l-113 41.5c-38.667 14.667 -76.334 31.667 -113.001 51s-69.5 44 -98.5 74s-52.333 66.667 -70 110s-26.5 96.333 -26.5 159c0 66.667 11.5 127.334 34.5 182.001s55 101.5 96 140.5s89.5 69.333 145.5 91s116.667 32.5 182 32.5
c70.667 0 138.834 -8.66699 204.501 -26s127.167 -46.666 184.5 -87.999v-297c-44 45.333 -94.333 82.5 -151 111.5s-117.334 43.5 -182.001 43.5c-24.667 0 -50.5 -5 -77.5 -15s-51.667 -23.5 -74 -40.5s-40.666 -37.333 -54.999 -61s-21.5 -48.834 -21.5 -75.501
c0 -36.667 8.83301 -66.667 26.5 -90s41 -43 70 -59s62 -30.167 99 -42.5l113 -39c38.333 -13.667 76 -29.667 113 -48s70 -42 99 -71s52.333 -64.667 70 -107s26.5 -94.5 26.5 -156.5c0 -73.333 -12.833 -139 -38.5 -197s-60.834 -107.167 -105.501 -147.5
s-97.5 -71.166 -158.5 -92.499s-126.833 -32 -197.5 -32c-68 0 -133 9.66699 -195 29s-120 50.666 -174 93.999v306v0z" />
    <glyph glyph-name="T" unicode="T" horiz-adv-x="1022" 
d="M643 1239v-1239h-264v1239h-348v246h962v-246h-350z" />
    <glyph glyph-name="U" unicode="U" horiz-adv-x="1253" 
d="M383 1485l0.00195312 -969c0 -41.333 4 -79.666 12 -114.999s21.5 -65.833 40.5 -91.5s44.167 -45.834 75.5 -60.501s70 -22 116 -22c48.667 0 88.667 7.33301 120 22s56.166 35 74.499 61s31 57 38 93s10.5 75.667 10.5 119v963h267v-967
c0 -86.667 -9.5 -163.5 -28.5 -230.5s-49 -123.5 -90 -169.5s-93.833 -81 -158.5 -105s-142.334 -36 -233.001 -36c-174 0 -302.5 45 -385.5 135s-124.5 220.667 -124.5 392v981h266z" />
    <glyph glyph-name="V" unicode="V" horiz-adv-x="1212" 
d="M301 1485l133.5 -520l132.5 -521c3.33301 -12 6.83301 -25.5 10.5 -40.5l11 -46.5l10.5 -46.5l9 -40.5c4 24.667 8.66699 49 14 73l17 73l276 1069h281l-207.5 -743.5l-208.5 -741.5h-348l-207.5 741.5l-208.5 743.5h285z" />
    <glyph glyph-name="W" unicode="W" horiz-adv-x="1753" 
d="M297 1485l103.501 -550.001l103.5 -550c8 -45.333 14 -91 18 -137c1.33301 12 3 25 5 39l6 43l6 43c2 14 4 27 6 39l91.5 535.5l92.5 537.5h297l89 -541l87 -541c4 -23.333 7.66699 -46.833 11 -70.5s6 -47.167 8 -70.5c1.33301 12 3.16602 25.333 5.49902 40l7 45.5
l7 45.5c2.33301 14.667 4.5 27.667 6.5 39l103.5 526.5l103.5 526.5h277l-163.5 -743l-162.5 -742h-332l-86.5 505l-85.5 505l-6.5 43.5c-2.33301 15.667 -4.5 31.667 -6.5 48l-6 48c-2 15.667 -3.66699 29.834 -5 42.501h-3l-28.5 -168.5l-35.5 -205l-39 -222.5
l-38.5 -222.5l-35 -205c-11 -64.333 -20.167 -120.5 -27.5 -168.5h-330l-157.5 742l-157.5 743h272z" />
    <glyph glyph-name="X" unicode="X" horiz-adv-x="1141" 
d="M35 1485h295l243 -520l250 520h285l-379 -723l393 -762h-293l-258 524l-264 -524h-289l396 766z" />
    <glyph glyph-name="Y" unicode="Y" horiz-adv-x="1120" 
d="M295 1485l37 -93.5l42 -107l44 -112.5l43 -110l98 -255l100 257l43 110l44 112.5l42 106.5l37 92h275l-103.5 -229l-108 -234.5l-104 -235c-33.667 -78.333 -64.5 -155.5 -92.5 -231.5c0 -15.333 -0.333008 -37.333 -1 -66s-1 -60.667 -1 -96
c0 -34.667 0.166992 -71.167 0.5 -109.5s0.5 -75.333 0.5 -111s0.166992 -68.667 0.5 -99s0.5 -54.833 0.5 -73.5h-266v393v162c-28 76 -58.667 153.167 -92 231.5l-103 235l-107.5 234.5l-103.5 229h275z" />
    <glyph glyph-name="Z" unicode="Z" horiz-adv-x="985" 
d="M70 1241v244h872l-29 -209l-204 -395l-87.5 -169.5l-89 -172l-83.5 -162l-72 -139.5h545v-238h-881l20 160l204 407l337 674h-532z" />
    <glyph glyph-name="bracketleft" unicode="[" horiz-adv-x="600" 
d="M137 -258v1855h369v-120h-184v-1614h184v-121h-369z" />
    <glyph glyph-name="backslash" unicode="\" horiz-adv-x="918" 
d="M51 1491c30 4 60.167 8.33301 90.5 13l91.5 14l337.5 -793l336.5 -793l-90 -12l-90 -12l-338 791z" />
    <glyph glyph-name="bracketright" unicode="]" horiz-adv-x="600" 
d="M96 -258v121h185v1614h-185v120h367v-1855h-367z" />
    <glyph glyph-name="asciicircum" unicode="^" horiz-adv-x="1204" 
d="M891 723l-289 573l-291 -573h-194l391 762h188l391 -762h-196z" />
    <glyph glyph-name="underscore" unicode="_" horiz-adv-x="1051" 
d="M0 -264v108h1051v-108h-1051z" />
    <glyph glyph-name="grave" unicode="`" horiz-adv-x="643" 
d="M354 1182l-241 303h278l139 -303h-176z" />
    <glyph glyph-name="a" unicode="a" horiz-adv-x="993" 
d="M901 672c0 -112 -0.330078 -224.005 -0.99707 -336.005s-1 -224 -1 -336h-233v150h-2c-35.333 -60.667 -77.333 -103.5 -126 -128.5s-107.334 -37.5 -176.001 -37.5c-40 0 -77.5 7 -112.5 21s-65.333 33.5 -91 58.5s-45.834 54.5 -60.501 88.5s-22 71.333 -22 112
c0 46.667 7.83301 86.334 23.5 119.001s36.167 60.334 61.5 83.001s54.333 41.334 87 56.001s66.167 27.334 100.5 38.001s67.833 20.167 100.5 28.5s61.667 17.333 87 27s45.833 21.334 61.5 35.001s23.5 30.834 23.5 51.501c0 56.667 -16.833 100.667 -50.5 132
s-77.834 47 -132.501 47c-27.333 0 -54.666 -4.16699 -81.999 -12.5s-54.166 -19.5 -80.499 -33.5s-51.333 -29.833 -75 -47.5s-44.834 -35.834 -63.501 -54.501v230c28 18 56.333 35.167 85 51.5s58 30.5 88 42.5s61 21.5 93 28.5s65 10.5 99 10.5
c66.667 0 125 -10 175 -30s91.667 -48.5 125 -85.5s58.166 -81.5 74.499 -133.5s24.5 -110.333 24.5 -175zM653.003 527.995c-9.33301 -8 -20 -14.5 -32 -19.5s-23.667 -10.5 -35 -16.5c-15.333 -8 -33.333 -15.667 -54 -23l-64 -23c-22 -8 -43.667 -16.833 -65 -26.5
s-40.5 -20.667 -57.5 -33s-30.667 -26.833 -41 -43.5s-15.5 -36 -15.5 -58c0 -43.333 13.167 -75.666 39.5 -96.999s60.166 -32 101.499 -32c34 0 63 5.66699 87 17s44.333 26.5 61 45.5s29.834 41 39.501 66s17.167 51.333 22.5 79s8.83301 55.667 10.5 84
s2.5 55.166 2.5 80.499z" />
    <glyph glyph-name="b" unicode="b" horiz-adv-x="1110" 
d="M358 1491c-0.666992 -24.667 -0.999023 -52.8359 -0.999023 -84.5029s-0.166992 -65.167 -0.5 -100.5s-0.5 -71.666 -0.5 -108.999s-0.166992 -73.666 -0.5 -108.999l-1 -101.5c-0.333008 -32.333 -0.5 -60.833 -0.5 -85.5c30 56.667 72.5 101.834 127.5 135.501
s119.167 50.5 192.5 50.5c48.667 0 91.834 -7.66699 129.501 -23s70.5 -36 98.5 -62s51.5 -56.667 70.5 -92s34.333 -73 46 -113s20 -81.333 25 -124s7.5 -84.667 7.5 -126c0 -42.667 -2.83301 -86.5 -8.5 -131.5s-14.667 -88.5 -27 -130.5s-28.833 -81.5 -49.5 -118.5
s-45.834 -69.333 -75.501 -97s-64.5 -49.5 -104.5 -65.5s-85.667 -24 -137 -24c-33.333 0 -65.333 4.5 -96 13.5s-59 22.167 -85 39.5s-49.333 38.333 -70 63s-37.334 52.667 -50.001 84l-2 -2v-178h-242v1491h254zM578.001 847.998
c-39.333 0 -72.667 -7.66602 -100 -22.999s-50.666 -36.333 -69.999 -63c-12 -16 -21.833 -33.833 -29.5 -53.5s-13.834 -40 -18.501 -61s-7.83398 -42.333 -9.50098 -64s-2.5 -42.834 -2.5 -63.501c0 -38 3.33301 -75.333 10 -112s18.334 -69.5 35.001 -98.5
s39 -52.333 67 -70s63.667 -26.5 107 -26.5c45.333 0 82.333 10.833 111 32.5s51.167 49 67.5 82s27.5 69.167 33.5 108.5s9 77 9 113c0 35.333 -3 70.833 -9 106.5s-16.833 67.667 -32.5 96s-37 51.5 -64 69.5s-61.833 27 -104.5 27z" />
    <glyph glyph-name="c" unicode="c" horiz-adv-x="850" 
d="M803 90c-41.333 -40 -89.3291 -68.3379 -143.996 -85.0049s-110.334 -25 -167.001 -25c-51.333 0 -97.666 7.83301 -138.999 23.5s-77.833 37 -109.5 64s-58.667 58.833 -81 95.5s-40.666 75.834 -54.999 117.501s-24.833 85 -31.5 130s-10 89.833 -10 134.5
c0 76 9.16699 147 27.5 213s46.666 123.167 84.999 171.5s87.166 86.333 146.499 114s130 41.5 212 41.5c49.333 0 96.333 -8.33301 141 -25s85.667 -41.667 123 -75v-258c-28 41.333 -61.667 73.166 -101 95.499s-84.333 33.5 -135 33.5
c-46.667 0 -85.834 -9.66699 -117.501 -29s-57.334 -44.5 -77.001 -75.5s-33.834 -66 -42.501 -105s-13 -78.5 -13 -118.5c0 -39.333 4.5 -78.166 13.5 -116.499s23.333 -72.666 43 -102.999s45.167 -54.833 76.5 -73.5s69.666 -28 114.999 -28
c22 0 44.833 3.83301 68.5 11.5s46.334 17.834 68.001 30.501s41.5 27.334 59.5 44.001s32.667 34.334 44 53.001v-256v0z" />
    <glyph glyph-name="d" unicode="d" horiz-adv-x="1114" 
d="M776 178c-28.667 -64.667 -68.8311 -113.835 -120.498 -147.502s-114.5 -50.5 -188.5 -50.5c-27.333 0 -51.333 4 -72 12c-65.333 10 -118.833 33.333 -160.5 70s-74.834 81.334 -99.501 134.001s-41.667 110 -51 172s-14 123 -14 183c0 75.333 8.33301 145.833 25 211.5
s41.5 122.667 74.5 171s73.833 86.5 122.5 114.5s105 42 169 42c68 0 126.667 -15.833 176 -47.5s91.666 -74.834 126.999 -129.501h2c-0.666992 24.667 -1 52.667 -1 84s-0.166992 64.333 -0.5 99s-0.5 70.334 -0.5 107.001v107v98.5v82.5h252v-1491h-240v61v26.5v33.5
c0 11.333 0.166992 22.333 0.5 33s0.833008 19.334 1.5 26.001h-1c-0.666992 0 -1 -0.666992 -1 -2zM553.003 212.999c44.667 0 81.333 9.83594 110 29.5029s51.334 45.167 68.001 76.5s28 66.5 34 105.5s9 77.833 9 116.5c0 37.333 -3.33301 74.333 -10 111
s-18.667 69.667 -36 99s-40.833 53.166 -70.5 71.499s-67.167 27.5 -112.5 27.5c-44.667 0 -81 -9.83301 -109 -29.5s-49.833 -44.834 -65.5 -75.501s-26.334 -64.834 -32.001 -102.501s-8.5 -74.5 -8.5 -110.5s3.5 -72.833 10.5 -110.5s19 -72 36 -103
s39.833 -56.333 68.5 -76s64.667 -29.5 108 -29.5z" />
    <glyph glyph-name="e" unicode="e" horiz-adv-x="1014" 
d="M899 100c-28 -25.333 -57 -45.6689 -87 -61.002s-60.667 -27.5 -92 -36.5s-63 -15 -95 -18s-63.667 -4.5 -95 -4.5c-87.333 0 -160.5 14.667 -219.5 44s-106.5 69.333 -142.5 120s-61.667 109.834 -77 177.501s-23 140.167 -23 217.5c0 76 8.83301 147.333 26.5 214
s45.5 125 83.5 175s86.833 89.5 146.5 118.5s131.167 43.5 214.5 43.5c64.667 0 123.167 -11 175.5 -33s97 -53.833 134 -95.5s65.333 -92.667 85 -153s29.5 -129.166 29.5 -206.499c0 -8 -0.166992 -16.667 -0.5 -26l-1 -29c-0.333008 -10 -1 -19.833 -2 -29.5
s-2.16699 -18.167 -3.5 -25.5c-107.333 0 -213.833 0.333008 -319.5 1s-211.5 1 -317.5 1c0 -44 4.5 -84.667 13.5 -122s23.667 -69.5 44 -96.5s47 -48 80 -63s73.5 -22.5 121.5 -22.5c66.667 0 126 14.167 178 42.5s99.667 65.5 143 111.5v-244v0zM750 638.997
c-0.666992 30 -4.33301 58.668 -11 86.001s-17.167 51.666 -31.5 72.999s-33 38.333 -56 51s-51.167 19 -84.5 19c-72 0 -129.5 -20.5 -172.5 -61.5s-68.167 -97.5 -75.5 -169.5c72.667 0 144.5 0.333008 215.5 1s142.833 1 215.5 1z" />
    <glyph glyph-name="f" unicode="f" horiz-adv-x="717" 
d="M20 782l0.00195312 214.997h156v40.5v46c0 15.667 0.166992 30.834 0.5 45.501s0.833008 27.334 1.5 38.001c2.66699 48 10.167 92.333 22.5 133s31.5 75.834 57.5 105.501s59.667 53 101 70s91.666 25.5 150.999 25.5c41.333 0 79.833 -4.5 115.5 -13.5
s71.5 -22.833 107.5 -41.5v-223c-20.667 20.667 -42.5 36 -65.5 46s-49.5 15 -79.5 15c-34 0 -61.5 -5.83301 -82.5 -17.5s-37.333 -27.167 -49 -46.5s-19.334 -42 -23.001 -68s-5.5 -53 -5.5 -81v-74h289v-215h-289v-782h-250v782h-158z" />
    <glyph glyph-name="g" unicode="g" horiz-adv-x="1114" 
d="M1022 53c0 -74.667 -11.165 -140.171 -33.498 -196.504s-54 -103.166 -95 -140.499s-90.833 -65.5 -149.5 -84.5s-124.334 -28.5 -197.001 -28.5c-62 0 -123.333 7.66699 -184 23s-116 41 -166 77v223c43.333 -36.667 91.833 -64.5 145.5 -83.5
s108.834 -28.5 165.501 -28.5c42.667 0 79 4.83301 109 14.5s55 23.167 75 40.5s35.667 38 47 62s20 50.333 26 79s9.66699 59.334 11 92.001s2 66.334 2 101.001l-2 -2c-18 -32 -37.333 -59.5 -58 -82.5s-43.5 -41.833 -68.5 -56.5s-52.667 -25.334 -83 -32.001
s-64.166 -10 -101.499 -10c-66.667 0 -123.667 13.333 -171 40s-86.333 61.834 -117 105.501s-53.834 93.334 -69.501 149.001s-24.834 112.5 -27.501 170.5c0 7.33301 -0.333008 14.5 -1 21.5s-1 14.167 -1 21.5c0 43.333 2.66699 87.333 8 132s14.333 87.834 27 129.501
s29.167 80.667 49.5 117s45.333 68.166 75 95.499s64.667 48.833 105 64.5s86.5 23.5 138.5 23.5c30.667 0 61.167 -3.83301 91.5 -11.5s58.666 -19.167 84.999 -34.5s49.833 -34.5 70.5 -57.5s36.667 -49.5 48 -79.5v164h246v-1018zM561.002 255.996
c40.667 0 74.665 9.83203 101.998 29.499s49.333 44.5 66 74.5s28.667 63 36 99s11 70.667 11 104c0 36.667 -3.5 72.334 -10.5 107.001s-18.833 65.5 -35.5 92.5s-39 48.667 -67 65s-63.333 24.5 -106 24.5c-43.333 0 -79 -9 -107 -27s-50.333 -41.5 -67 -70.5
s-28.334 -61.5 -35.001 -97.5s-10 -72 -10 -108c0 -38.667 3.33301 -75.667 10 -111s18.334 -66.5 35.001 -93.5s39.334 -48.5 68.001 -64.5s65.334 -24 110.001 -24z" />
    <glyph glyph-name="h" unicode="h" 
d="M358 1491l-0.00292969 -573.001c39.333 55.333 84.333 98.166 135 128.499s111 45.5 181 45.5c50.667 0 95.667 -9 135 -27s72.333 -42.667 99 -74s46.834 -68.166 60.501 -110.499s20.5 -87.5 20.5 -135.5v-745h-252v614c0 30 -1.5 59.833 -4.5 89.5
s-10.167 56.334 -21.5 80.001s-28 43 -50 58s-52 22.5 -90 22.5c-42 0 -76.667 -10 -104 -30s-49.166 -45.167 -65.499 -75.5s-27.666 -63.833 -33.999 -100.5s-9.5 -71.667 -9.5 -105v-553h-249v1491h249z" />
    <glyph glyph-name="i" unicode="i" horiz-adv-x="457" 
d="M102 0v1071h252v-1071h-252zM74 1331c0 20.667 4 40.334 12 59.001s19 35 33 49s30.167 25.167 48.5 33.5s38.166 12.5 59.499 12.5s41.5 -4.16699 60.5 -12.5s35.5 -19.5 49.5 -33.5s25.167 -30.333 33.5 -49s12.5 -38.334 12.5 -59.001
c0 -21.333 -4.16699 -41.333 -12.5 -60s-19.5 -35 -33.5 -49s-30.5 -25.167 -49.5 -33.5s-39.167 -12.5 -60.5 -12.5s-41.166 4 -59.499 12s-34.5 19 -48.5 33s-25 30.5 -33 49.5s-12 39.167 -12 60.5z" />
    <glyph glyph-name="j" unicode="j" horiz-adv-x="485" 
d="M377 -45c0 -54 -5.83301 -104 -17.5 -150s-30.667 -85.833 -57 -119.5s-60.666 -60 -102.999 -79s-93.833 -28.5 -154.5 -28.5c-35.333 0 -71.333 5.33301 -108 16s-71 23.667 -103 39v228c21.333 -12.667 44.166 -22.667 68.499 -30s49.166 -11 74.499 -11
c30.667 0 55.834 4.5 75.501 13.5s35 21.667 46 38s18.5 36 22.5 59s6 48.167 6 75.5v1065h250v-1116zM98 1331c0 20.667 4 40.334 12 59.001s19 35 33 49s30.333 25.167 49 33.5s38.667 12.5 60 12.5s41.5 -4.16699 60.5 -12.5s35.5 -19.5 49.5 -33.5
s25.167 -30.333 33.5 -49s12.5 -38.334 12.5 -59.001c0 -21.333 -4.16699 -41.333 -12.5 -60s-19.5 -35 -33.5 -49s-30.5 -25.167 -49.5 -33.5s-39.167 -12.5 -60.5 -12.5s-41.333 4 -60 12s-35 19 -49 33s-25 30.5 -33 49.5s-12 39.167 -12 60.5z" />
    <glyph glyph-name="k" unicode="k" horiz-adv-x="979" 
d="M356 1491l-6 -909l156.5 244l155.5 245h276l-173 -256l-173 -256l375 -559h-289l-326 504v-252c0 -83.333 -0.666992 -167.333 -2 -252h-248v1491h254z" />
    <glyph glyph-name="l" unicode="l" horiz-adv-x="457" 
d="M102 0v1491h250v-1491h-250z" />
    <glyph glyph-name="m" unicode="m" horiz-adv-x="1649" 
d="M350 1071c0 -30.667 -0.333984 -61.0078 -1.00098 -91.0078s-1.66699 -60.333 -3 -91c26.667 60.667 64.5 107.834 113.5 141.501s106.833 50.5 173.5 50.5c38.667 0 72.834 -3.83301 102.501 -11.5s56 -19.5 79 -35.5s43.5 -36.5 61.5 -61.5s34.667 -54.833 50 -89.5
c26.667 70.667 68 122.834 124 156.501s121 50.5 195 50.5c42.667 0 81.167 -6.66699 115.5 -20s64.166 -32.166 89.499 -56.499s45.5 -53.5 60.5 -87.5s24.167 -71.667 27.5 -113c2 -20.667 3.16699 -41.167 3.5 -61.5s0.5 -40.166 0.5 -59.499v-692h-250v565
c0 28.667 -0.333008 59.5 -1 92.5s-5.16699 63.667 -13.5 92s-22.833 51.833 -43.5 70.5s-51 28 -91 28c-23.333 0 -45.666 -5.83301 -66.999 -17.5s-40.5 -26.667 -57.5 -45s-31.167 -38.666 -42.5 -60.999s-18.666 -44.166 -21.999 -65.499
c-3.33301 -20.667 -5.16602 -41.667 -5.49902 -63s-0.5 -42.666 -0.5 -63.999v-532h-250v545c0 17.333 0.166992 36.5 0.5 57.5s-0.333984 42.333 -2.00098 64s-5 42.667 -10 63s-12.667 38.333 -23 54s-24 28.334 -41 38.001s-38.167 14.5 -63.5 14.5
c-50.667 0 -89.834 -11.5 -117.501 -34.5s-48 -52.333 -61 -88s-20.667 -74.5 -23 -116.5s-3.5 -82 -3.5 -120v-477h-250v1071h246z" />
    <glyph glyph-name="n" unicode="n" 
d="M352 1071v-172c33.333 64 76.5 111.833 129.5 143.5s115.833 47.5 188.5 47.5c50 0 92.5 -6.16699 127.5 -18.5s64.167 -29.5 87.5 -51.5s41.666 -47.833 54.999 -77.5s23.333 -61.834 30 -96.501s10.834 -71.167 12.501 -109.5s2.5 -76.833 2.5 -115.5v-621h-252v662
c0 26 -3 51.167 -9 75.5s-15.5 45.833 -28.5 64.5s-29.833 33.667 -50.5 45s-46 17 -76 17c-48.667 0 -87.167 -10.667 -115.5 -32s-49.833 -48.5 -64.5 -81.5s-24.167 -69.667 -28.5 -110s-6.5 -79.166 -6.5 -116.499v-524h-250v1071h248z" />
    <glyph glyph-name="o" unicode="o" horiz-adv-x="1116" 
d="M559 -20c-85.333 0 -158.832 14.168 -220.499 42.501s-112.834 67.333 -153.501 117s-70.667 108.5 -90 176.5s-29 141.667 -29 221c0 80 9.5 153.833 28.5 221.5s48.333 126 88 175s90.5 87.333 152.5 115s136 41.5 222 41.5c84.667 0 158.167 -13.5 220.5 -40.5
s113.666 -64.833 153.999 -113.5s70.333 -106.334 90 -173.001s29.5 -140 29.5 -220c0 -78.667 -9.66699 -152.167 -29 -220.5s-49.166 -127.833 -89.499 -178.5s-91.5 -90.667 -153.5 -120s-135.333 -44 -220 -44zM557.001 864.001
c-50.667 0 -91.834 -9.66992 -123.501 -29.0029s-56.167 -44.833 -73.5 -76.5s-29.166 -67.667 -35.499 -108s-9.5 -81.166 -9.5 -122.499c0 -40 3.5 -79.667 10.5 -119s19.5 -74.5 37.5 -105.5s42.667 -56.167 74 -75.5s71.333 -29 120 -29
c49.333 0 89.666 10.167 120.999 30.5s56 46.833 74 79.5s30.333 69.334 37 110.001s10 81.334 10 122.001c0 41.333 -3.33301 81.5 -10 120.5s-19 73.5 -37 103.5s-42.667 54 -74 72s-71.666 27 -120.999 27z" />
    <glyph glyph-name="p" unicode="p" horiz-adv-x="1114" 
d="M348 1071c0 -28.667 -0.333984 -56.9971 -1.00098 -84.9971s-1 -56.333 -1 -85c31.333 56.667 72 101.5 122 134.5s112.333 49.5 187 49.5c53.333 0 100 -7.83301 140 -23.5s74.5 -37 103.5 -64s53.167 -58.833 72.5 -95.5s34.833 -75.834 46.5 -117.501
s19.834 -85 24.501 -130s7 -89.167 7 -132.5c0 -66 -6.83301 -130.833 -20.5 -194.5s-36.167 -120.5 -67.5 -170.5s-73 -90.333 -125 -121s-116.333 -46 -193 -46c-30 0 -59.167 4.16699 -87.5 12.5s-55 20.166 -80 35.499s-48 33.666 -69 54.999s-39.167 45 -54.5 71v-494
h-252v1401h248zM568.999 850.003c-45.333 0 -82.501 -9.50098 -111.501 -28.501s-51.833 -43.5 -68.5 -73.5s-28.334 -63.667 -35.001 -101s-10 -74.666 -10 -111.999s3.33301 -75 10 -113s18.334 -72.167 35.001 -102.5s39.5 -55 68.5 -74s66.167 -28.5 111.5 -28.5
c44.667 0 81.167 10.167 109.5 30.5s50.666 46.166 66.999 77.499s27.5 66.166 33.5 104.499s9 75.5 9 111.5s-3.33301 72.333 -10 109s-18.167 69.834 -34.5 99.501s-38.666 53.834 -66.999 72.501s-64.166 28 -107.499 28z" />
    <glyph glyph-name="q" unicode="q" horiz-adv-x="1114" 
d="M762 -330c0 82.667 0.333008 165.001 1 247.001s1 164.333 1 247v-2c-31.333 -58 -72.833 -101.167 -124.5 -129.5s-109.834 -42.5 -174.501 -42.5c-16.667 0 -31 1.66699 -43 5l-41 11l-50 15.5c-16 5 -32 11.5 -48 19.5c-42.667 23.333 -78 54 -106 92
s-50.167 79.5 -66.5 124.5s-27.833 91.667 -34.5 140s-10 94.833 -10 139.5c0 41.333 2.66699 83.666 8 126.999s14 85.5 26 126.5s27.833 79.667 47.5 116s43.834 68 72.501 95s62.167 48.5 100.5 64.5s82.5 24 132.5 24c72.667 0 135 -18.5 187 -55.5s94 -87.5 126 -151.5
l2 2c-1.33301 30.667 -2.33301 61.667 -3 93s-1 62.333 -1 93h250v-1401h-252zM547 217.001c44.667 0 81.332 9.50195 109.999 28.502s51.334 43.667 68.001 74s28 64.166 34 101.499s9 74.333 9 111c0 38.667 -3.5 77 -10.5 115s-19.333 72 -37 102s-41.5 54.333 -71.5 73
s-68 28 -114 28c-44 0 -79.667 -9.83301 -107 -29.5s-48.5 -45 -63.5 -76s-25.167 -65.333 -30.5 -103s-8 -74.167 -8 -109.5c0 -34.667 3.66699 -70.667 11 -108s19.5 -71.333 36.5 -102s39.667 -55.834 68 -75.501s63.5 -29.5 105.5 -29.5z" />
    <glyph glyph-name="r" unicode="r" horiz-adv-x="729" 
d="M352 1071c-1.33301 -30 -2.00195 -59.3359 -2.00195 -88.0029s-0.666992 -58 -2 -88h2c12 26 24.833 50.833 38.5 74.5s29.834 44.334 48.501 62.001s39.834 31.834 63.501 42.501s51.5 16 83.5 16c23.333 0 45.666 -3.83301 66.999 -11.5s41.333 -18.167 60 -31.5v-236
c-21.333 17.333 -45 30.5 -71 39.5s-53 13.5 -81 13.5c-38.667 0 -70.667 -8.5 -96 -25.5s-45.5 -39.167 -60.5 -66.5s-26 -58.5 -33 -93.5s-11.667 -70.667 -14 -107s-3.16602 -71.666 -2.49902 -105.999s1 -64.5 1 -90.5v-375h-252v1071h250z" />
    <glyph glyph-name="s" unicode="s" horiz-adv-x="834" 
d="M84 309c36 -39.333 76.666 -71.335 121.999 -96.002s94.666 -37 147.999 -37c20 0 39.833 3.33301 59.5 10s37.167 16.167 52.5 28.5s27.833 27.166 37.5 44.499s14.5 36.666 14.5 57.999c0 26 -6.5 47.167 -19.5 63.5s-30.333 29.833 -52 40.5
s-46.167 19.834 -73.5 27.501s-55.5 16.167 -84.5 25.5s-57.167 20.333 -84.5 33s-51.833 29.5 -73.5 50.5s-39 47.333 -52 79s-19.5 70.834 -19.5 117.501c0 54.667 10.5 103 31.5 145s49.333 77.167 85 105.5s76.667 49.666 123 63.999s94.833 21.5 145.5 21.5
c55.333 0 105.833 -8.66699 151.5 -26s91.5 -40.333 137.5 -69v-231c-36 36 -74.5 65.167 -115.5 87.5s-87.833 33.5 -140.5 33.5c-20 0 -39.667 -3.33301 -59 -10s-36.666 -16 -51.999 -28s-27.666 -26.667 -36.999 -44s-14 -36.666 -14 -57.999
c0 -23.333 6.5 -42.166 19.5 -56.499s30.333 -26.5 52 -36.5s46.167 -18.833 73.5 -26.5s55.5 -16.167 84.5 -25.5s57.167 -20.5 84.5 -33.5s51.833 -30 73.5 -51s39 -47.167 52 -78.5s19.5 -69.666 19.5 -114.999c0 -55.333 -10.167 -104.333 -30.5 -147
s-47.833 -78.5 -82.5 -107.5s-75 -50.833 -121 -65.5s-95 -22 -147 -22c-56.667 0 -111 7.5 -163 22.5s-100.667 40.167 -146 75.5v231v0z" />
    <glyph glyph-name="t" unicode="t" horiz-adv-x="723" 
d="M238 0v860h-211v207h209v285h249v-285h211v-207h-209v-860h-249z" />
    <glyph glyph-name="u" unicode="u" horiz-adv-x="1092" 
d="M741 0c0 28.667 0.168945 57 0.501953 85s1.5 56.333 3.5 85c-16 -26.667 -35.833 -51.667 -59.5 -75s-49.5 -43.5 -77.5 -60.5s-57.833 -30.333 -89.5 -40s-63.834 -14.5 -96.501 -14.5c-70.667 0 -127 12.667 -169 38s-74 58.833 -96 100.5s-36.333 89.334 -43 143.001
s-10 108.5 -10 164.5v645h250v-618c0 -27.333 2.16699 -55.833 6.5 -85.5s12.666 -56.834 24.999 -81.501s29.333 -45 51 -61s49.5 -24 83.5 -24c44.667 0 81 9.5 109 28.5s50 43.5 66 73.5s27 63.667 33 101s9 74 9 110v557h250v-1071h-246z" />
    <glyph glyph-name="v" unicode="v" horiz-adv-x="1006" 
d="M281 1071l98.001 -360.5l98 -360.5l14 -59c5.33301 -22.667 9.66602 -42.667 12.999 -60c3.33301 17.333 7 34.5 11 51.5s7.66699 34.167 11 51.5l100.5 368.5l100.5 368.5h262l-167.5 -536l-166.5 -535h-303l-168.5 535l-167.5 536h265z" />
    <glyph glyph-name="w" unicode="w" horiz-adv-x="1458" 
d="M279 1071l73.499 -355.999l71.5 -357c4 -20.667 7.5 -41.167 10.5 -61.5s6.16699 -40.5 9.5 -60.5l7.5 36.5c3 14.333 5.83301 29.166 8.5 44.499l8 45c2.66699 14.667 5 27 7 37l68.5 336.5l66.5 335.5h240l135 -706c4 -19.333 7.33301 -38.833 10 -58.5
s6.33398 -39.167 11.001 -58.5c1.33301 10 3.33301 22 6 36l8.5 43l8.5 43l7 36l74 332.5l74 332.5h248l-258 -1071h-287l-22 113l-28 141.5l-31 155.5l-31 155.5l-28 141.5l-22 114l-23.5 -114l-29 -141.5l-32.5 -155.5l-32.5 -155.5l-29 -141.5l-23.5 -113h-285
l-121.5 535l-121.5 536h252z" />
    <glyph glyph-name="x" unicode="x" horiz-adv-x="977" 
d="M37 1071h272l187 -366l186 366h268l-313 -528l319 -543h-278l-195 385l-198 -385h-267l324 543z" />
    <glyph glyph-name="y" unicode="y" horiz-adv-x="983" 
d="M373 63l-176.5 503.999l-176.5 504h263l92.5 -285.5l89.5 -285.5c2.66699 -10 6 -21.167 10 -33.5s7.66699 -24.833 11 -37.5l10 -37.5c3.33301 -12.333 6 -23.5 8 -33.5c4 19.333 8.33301 38.333 13 57s9.66699 37.334 15 56.001l87.5 300l87.5 300h256l-232 -702.5
l-233 -700.5h-258l67.5 198z" />
    <glyph glyph-name="z" unicode="z" horiz-adv-x="852" 
d="M88 854v217h705l-15 -119l-424 -727h432v-225h-739l12 125l428 729h-399z" />
    <glyph glyph-name="braceleft" unicode="{" horiz-adv-x="676" 
d="M506 -256c-58 0 -104.502 9.00293 -139.502 27.0029s-61.833 42.5 -80.5 73.5s-31 67.5 -37 109.5s-9 87.333 -9 136c0 45.333 0.666992 90 2 134s2 88.667 2 134c0 30 -2.5 59 -7.5 87s-14 53.167 -27 75.5s-30.667 40.5 -53 54.5s-50.5 21.667 -84.5 23v152
c36 2.66699 65.333 11 88 25s40.334 32.167 53.001 54.5s21.334 47.666 26.001 75.999s7 58.166 7 89.499c0 48 -0.666992 95.667 -2 143s-2 94.666 -2 141.999c0 48 4 91.667 12 131s22 72.666 42 99.999s47.333 48.5 82 63.5s78.667 22.5 132 22.5h94v-147
c-34.667 -2 -65 -5.5 -91 -10.5s-47.5 -14.167 -64.5 -27.5s-29.833 -31.833 -38.5 -55.5s-13 -55.167 -13 -94.5c0 -60.667 2.16699 -120.834 6.5 -180.501s6.5 -119.834 6.5 -180.501s-16.5 -109 -49.5 -145s-76.833 -63.333 -131.5 -82c28 -10.667 53.167 -23 75.5 -37
s41.333 -30.333 57 -49s27.667 -40.167 36 -64.5s12.5 -52.166 12.5 -83.499c0 -60.667 -1.83301 -120.667 -5.5 -180s-5.5 -119.333 -5.5 -180c0 -37.333 4 -68.166 12 -92.499s20.5 -43.666 37.5 -57.999s38.333 -24.333 64 -30s56.167 -8.5 91.5 -8.5v-147h-98z" />
    <glyph glyph-name="bar" unicode="|" horiz-adv-x="659" 
d="M246 -180v1730h192v-1730h-192z" />
    <glyph glyph-name="braceright" unicode="}" horiz-adv-x="676" 
d="M166 1597c53.333 0 97.3311 -7.50293 131.998 -22.5029s62 -36.167 82 -63.5s34 -60.666 42 -99.999s12 -83 12 -131c0 -47.333 -0.666992 -94.666 -2 -141.999s-2 -95 -2 -143c0 -31.333 2.33301 -61.166 7 -89.499s13.334 -53.666 26.001 -75.999
s30.334 -40.5 53.001 -54.5s52 -22.333 88 -25v-152c-34 -1.33301 -62.167 -9 -84.5 -23s-40 -32.167 -53 -54.5s-22 -47.5 -27 -75.5s-7.5 -57 -7.5 -87c0 -45.333 0.666992 -90 2 -134s2 -88.667 2 -134c0 -48.667 -3 -94 -9 -136s-18.5 -78.5 -37.5 -109.5
s-45.833 -55.5 -80.5 -73.5s-81 -27 -139 -27h-98v147c35.333 0 65.833 2.83301 91.5 8.5s46.834 15.667 63.501 30s29 33.666 37 57.999s12 55.166 12 92.499c0 60.667 -1.66699 120.667 -5 180s-5 119.333 -5 180c0 31.333 4.16699 59.166 12.5 83.499
s20.333 45.833 36 64.5s34.667 35 57 49s47.166 26.333 74.499 37c-54 18.667 -97.5 46 -130.5 82s-49.5 84.333 -49.5 145s2.16699 120.834 6.5 180.501s6.5 119.834 6.5 180.501c0 39.333 -4.33301 70.833 -13 94.5s-21.5 42.167 -38.5 55.5s-38.5 22.5 -64.5 27.5
s-56.333 8.5 -91 10.5v147h94v0z" />
    <glyph glyph-name="asciitilde" unicode="~" horiz-adv-x="1298" 
d="M1114 848c-12 -25.333 -27.3301 -49.666 -45.9971 -72.999s-40 -44 -64 -62s-50 -32.5 -78 -43.5s-56.667 -16.5 -86 -16.5c-40 0 -77.667 7.33301 -113 22s-70.5 31 -105.5 49s-70.833 34.333 -107.5 49s-76.334 22 -119.001 22c-24.667 0 -45.834 -4 -63.501 -12
s-33.334 -18.833 -47.001 -32.5s-26.334 -29.5 -38.001 -47.5l-35.5 -56l-78 148l50.5 73c16.333 23.333 34.333 44 54 62s42.5 32.333 68.5 43s57.667 16 95 16c40.667 0 80.667 -7.5 120 -22.5s77.833 -31.333 115.5 -49s74.334 -34 110.001 -49s69.5 -22.5 101.5 -22.5
c21.333 0 41.333 4.5 60 13.5s35.667 20.667 51 35s29.5 30.166 42.5 47.499s24.5 34.333 34.5 51l78 -145v0z" />
    <glyph glyph-name="Zcaron" horiz-adv-x="985" 
d="M70 1241v244h872l-29 -209l-204 -395l-87.5 -169.5l-89 -172l-83.5 -162l-72 -139.5h545v-238h-881l20 160l204 407l337 674h-532zM639 1585h-266l-193 313h211l121 -184l121 184h211z" />
    <glyph glyph-name="Zcaron" unicode="&#x17d;" horiz-adv-x="985" 
d="M70 1241v244h872l-29 -209l-204 -395l-87.5 -169.5l-89 -172l-83.5 -162l-72 -139.5h545v-238h-881l20 160l204 407l337 674h-532zM639 1585h-266l-193 313h211l121 -184l121 184h211z" />
    <glyph glyph-name="zcaron" horiz-adv-x="852" 
d="M88 854v217h705l-15 -119l-424 -727h432v-225h-739l12 125l428 729h-399zM573 1176h-266l-192 313h211l120 -184l121 184h211z" />
    <glyph glyph-name="zcaron" unicode="&#x17e;" horiz-adv-x="852" 
d="M88 854v217h705l-15 -119l-424 -727h432v-225h-739l12 125l428 729h-399zM573 1176h-266l-192 313h211l120 -184l121 184h211z" />
    <glyph glyph-name="nonbreakingspace" unicode="&#xa0;" horiz-adv-x="551" 
 />
    <glyph glyph-name="exclamdown" unicode="&#xa1;" horiz-adv-x="528" 
d="M416 1190c0 -22 -3.83496 -42.332 -11.502 -60.999s-18.167 -34.667 -31.5 -48s-29.333 -23.833 -48 -31.5s-39 -11.5 -61 -11.5c-21.333 0 -41.166 3.83301 -59.499 11.5s-34.166 18.334 -47.499 32.001s-24 29.834 -32 48.501s-12 38.667 -12 60
s3.83301 41.166 11.5 59.499s18.167 34.166 31.5 47.499s29 23.666 47 30.999s37.667 11 59 11c22 0 42.333 -3.66699 61 -11s35 -17.5 49 -30.5s24.833 -28.667 32.5 -47s11.5 -38.5 11.5 -60.5zM114.998 -144.999c6 178 11.667 354.667 17 530s11.333 352 18 530h215
c6 -178 11.5 -354.667 16.5 -530l15.5 -530h-282z" />
    <glyph glyph-name="cent" unicode="&#xa2;" horiz-adv-x="850" 
d="M463 -166l0.00195312 145.998c-72 4.66699 -133.333 24.5 -184 59.5s-91.667 79.333 -123 133s-54.166 113 -68.499 178s-21.5 129.833 -21.5 194.5c0 70 7.83301 135.833 23.5 197.5s39.667 116.167 72 163.5s73.5 86.333 123.5 117s109.333 50 178 58v154h158v-158
c32.667 -7.33301 64.167 -18.833 94.5 -34.5s58.833 -34.834 85.5 -57.501v-258c-28 41.333 -61.667 73.166 -101 95.499s-84.333 33.5 -135 33.5c-46.667 0 -85.834 -9.66699 -117.501 -29s-57.334 -44.5 -77.001 -75.5s-33.834 -66 -42.501 -105s-13 -78.5 -13 -118.5
c0 -39.333 4.5 -78.166 13.5 -116.499s23.333 -72.666 43 -102.999s45.167 -54.833 76.5 -73.5s69.666 -28 114.999 -28c22 0 44.833 3.83301 68.5 11.5s46.334 17.834 68.001 30.501s41.5 27.334 59.5 44.001s32.667 34.334 44 53.001v-256
c-25.333 -24.667 -53.5 -44.834 -84.5 -60.501s-63.5 -27.5 -97.5 -35.5v-160h-158z" />
    <glyph glyph-name="sterling" unicode="&#xa3;" horiz-adv-x="1102" 
d="M561 680c6 -28.667 9.5 -58.6641 10.5 -89.9971s-2.5 -64.333 -10.5 -99s-21.167 -71.5 -39.5 -110.5s-43.5 -80.5 -75.5 -124.5l85.5 -18c32.333 -6.66699 66.333 -12.834 102 -18.501s72 -9.66699 109 -12s73 -1.66602 108 2.00098s68.167 11 99.5 22
s58.666 27.5 81.999 49.5l55 -207c-36.667 -30 -79.667 -51.333 -129 -64s-100.666 -19.667 -153.999 -21s-106.5 1.16699 -159.5 7.5s-101.167 14.166 -144.5 23.499l-98.5 20.5c-33.667 7 -67.167 10.5 -100.5 10.5c-35.333 0 -68.5 -6.66699 -99.5 -20
s-60.5 -29.666 -88.5 -48.999l-80 204c32 26 65.5 44.833 100.5 56.5s72.5 18.167 112.5 19.5c16.667 40.667 28.167 79.5 34.5 116.5s9 72.667 8 107s-5.16699 67.666 -12.5 99.999s-16 63.833 -26 94.5h-184v141h131c-16.667 43.333 -31.5 86.166 -44.5 128.499
s-19.5 85.5 -19.5 129.5c0 60 12.333 114.333 37 163s60 92 106 130c38.667 32 81.834 57.167 129.501 75.5s96.834 30.666 147.501 36.999s101.667 6.83301 153 1.5s100.666 -15.333 147.999 -30c35.333 -11.333 69.5 -25.333 102.5 -42s65.167 -35.334 96.5 -56.001
l-119 -213c-18.667 12 -39.167 23.5 -61.5 34.5s-45.5 20.667 -69.5 29s-48.333 14.833 -73 19.5s-49 7 -73 7c-27.333 0 -53.333 -3.66699 -78 -11s-46.334 -19.166 -65.001 -35.499s-33.5 -38 -44.5 -65s-16.5 -60.167 -16.5 -99.5c0 -34 6 -67.333 18 -100
s25.667 -67 41 -103h324v-141h-275z" />
    <glyph glyph-name="currency" unicode="&#xa4;" horiz-adv-x="1276" 
d="M657 1016c-43.333 0 -84.167 -8.33398 -122.5 -25.001s-72.5 -40.334 -102.5 -71.001c-30 -30 -52.833 -64.167 -68.5 -102.5s-23.5 -78.166 -23.5 -119.499v-6c0 -43.333 8 -84.166 24 -122.499s38.333 -71.833 67 -100.5s62.5 -51.5 101.5 -68.5
s81.167 -25.5 126.5 -25.5c44.667 0 86 7.83301 124 23.5s72 38.5 102 68.5c30.667 32 54 67.333 70 106s24 79.667 24 123c-0.666992 42.667 -9.16699 83.5 -25.5 122.5s-38.833 73 -67.5 102s-62.5 52.167 -101.5 69.5s-81.5 26 -127.5 26zM198.999 1251l90.999 -90.499
l91 -89.5c40 30 84 52.833 132 68.5s96.667 23.5 146 23.5c50.667 0 99.5 -7.83301 146.5 -23.5s90.5 -38.5 130.5 -68.5l91 90.5l91 89.5l51.5 -50.5l51.5 -49.5l-183 -182c30 -40 52.5 -83.333 67.5 -130s22.5 -95 22.5 -145c0 -49.333 -7.5 -97.166 -22.5 -143.499
s-37.5 -89.166 -67.5 -128.499l183 -182l-103 -103l-90.5 92l-91.5 90c-40 -30.667 -83.667 -53.667 -131 -69s-96 -23 -146 -23s-98.667 7.83301 -146 23.5s-90.666 38.5 -129.999 68.5l-91.5 -90.5l-90.5 -91.5l-103 103l91.5 90l91.5 92
c-32 39.333 -55.833 82.166 -71.5 128.499s-23.5 94.166 -23.5 143.499c0 50 8 98.167 24 144.5s39 89.166 69 128.499l-90.5 92l-92.5 92l51.5 49.5z" />
    <glyph glyph-name="yen" unicode="&#xa5;" horiz-adv-x="1120" 
d="M692 543c0 -16.667 -0.334961 -38 -1.00195 -64s-1 -54.667 -1 -86c0 -34.667 0.166992 -71.167 0.5 -109.5s0.5 -75.333 0.5 -111s0.166992 -68.667 0.5 -99s0.5 -54.833 0.5 -73.5h-266v393v150h-336v108h299l-24.5 62.5c-8.33301 21 -17.166 41.833 -26.499 62.5h-248
v109h203l-139 303l-134 297h275l37 -93.5l42 -107l44 -112.5l43 -110l98 -255l100 257l43 110l44 112.5l42 106.5l37 92h275c-42 -97.333 -87 -196.333 -135 -297l-138 -303h203v-109h-250c-9.33301 -20.667 -18.166 -41.5 -26.499 -62.5l-24.5 -62.5h301v-108h-338z" />
    <glyph glyph-name="brokenbar" unicode="&#xa6;" horiz-adv-x="733" 
d="M274 655v723h187v-723h-187zM274 -348v723h187v-723h-187z" />
    <glyph glyph-name="section" unicode="&#xa7;" horiz-adv-x="1106" 
d="M373 602c0 -25.333 7.33203 -50.1689 21.999 -74.502s32.667 -46.166 54 -65.499s44.333 -35 69 -47s46.667 -18 66 -18c22 0 42.167 7.16699 60.5 21.5s34.333 32 48 53s24.167 43.333 31.5 67s11 44.834 11 63.501c0 24 -6.83301 47.667 -20.5 71
s-31 44.666 -52 63.999s-44 35.333 -69 48s-48.833 20.667 -71.5 24c-23.333 -7.33301 -44.166 -17.666 -62.499 -30.999s-33.833 -29 -46.5 -47s-22.5 -38 -29.5 -60s-10.5 -45 -10.5 -69zM546.999 -84.0029c14 0 28.667 3.32715 44 9.99414s29.333 15.667 42 27
s23 24 31 38s12 28.667 12 44c0 36 -8 65.667 -24 89s-37 42.833 -63 58.5s-55.5 29.167 -88.5 40.5l-102 34.5c-35 11.667 -69 25 -102 40s-62.5 34.333 -88.5 58s-47 53 -63 88s-24 78.167 -24 129.5c0 40.667 6 77.334 18 110.001s28.667 61.667 50 87
s46.666 47.666 75.999 66.999s61.666 36.666 96.999 51.999c-62.667 25.333 -111 59.833 -145 103.5s-51 99.834 -51 168.501c0 53.333 10 101.333 30 144s47.167 79 81.5 109s74.166 53 119.499 69s93.333 24 144 24c46.667 0 90.167 -6 130.5 -18
s76.833 -29.5 109.5 -52.5s61.167 -51.833 85.5 -86.5s43.5 -74.334 57.5 -119.001l-71 -49.5l-73 -48.5c-12 23.333 -25.667 45.833 -41 67.5s-32.666 40.667 -51.999 57s-41 29.333 -65 39s-50.333 14.5 -79 14.5c-47.333 0 -84.833 -13.167 -112.5 -39.5
s-41.5 -63.166 -41.5 -110.499c0 -33.333 8.5 -60.5 25.5 -81.5s39.5 -38.667 67.5 -53s59.833 -26.666 95.5 -36.999l109.5 -33c37.333 -11.667 73.833 -25.5 109.5 -41.5s67.5 -36.667 95.5 -62s50.5 -57 67.5 -95s25.5 -84.667 25.5 -140
c0 -38.667 -6.33301 -74.167 -19 -106.5s-30 -61.166 -52 -86.499s-48 -47.166 -78 -65.499s-62.333 -33.166 -97 -44.499c30.667 -15.333 58.334 -32 83.001 -50s45.5 -38.167 62.5 -60.5s30.167 -47.833 39.5 -76.5s14 -61 14 -97c0 -59.333 -10.5 -110.833 -31.5 -154.5
s-49.667 -80 -86 -109s-78.666 -50.667 -126.999 -65s-99.833 -21.5 -154.5 -21.5c-76.667 0 -146.167 15.167 -208.5 45.5s-116.5 75.833 -162.5 136.5v276c24.667 -27.333 52.667 -54.166 84 -80.499s63.833 -50.166 97.5 -71.499s67.5 -38.5 101.5 -51.5
s66 -19.5 96 -19.5z" />
    <glyph glyph-name="dieresis" unicode="&#xa8;" horiz-adv-x="733" 
d="M8 1331c0 20.667 4.00098 40.334 12.001 59.001s19 35 33 49s30.333 25.167 49 33.5s38.667 12.5 60 12.5s41.5 -4.16699 60.5 -12.5s35.667 -19.5 50 -33.5s25.666 -30.333 33.999 -49s12.5 -38.334 12.5 -59.001c0 -21.333 -4 -41.333 -12 -60s-19 -35 -33 -49
s-30.5 -25.167 -49.5 -33.5s-39.167 -12.5 -60.5 -12.5s-41.333 4 -60 12s-35 19 -49 33s-25 30.5 -33 49.5s-12 39.167 -12 60.5h-2zM414.001 1331c0 20.667 4.00293 40.334 12.0029 59.001s19 35 33 49s30.167 25.167 48.5 33.5s38.166 12.5 59.499 12.5
s41.666 -4.16699 60.999 -12.5s36.166 -19.5 50.499 -33.5s25.666 -30.333 33.999 -49s12.5 -38.334 12.5 -59.001c0 -21.333 -4.16699 -41.333 -12.5 -60s-19.5 -35 -33.5 -49s-30.5 -25.167 -49.5 -33.5s-39.167 -12.5 -60.5 -12.5s-41.166 4 -59.499 12
s-34.5 19 -48.5 33s-25 30.5 -33 49.5s-12 39.167 -12 60.5h-2z" />
    <glyph glyph-name="copyright" unicode="&#xa9;" horiz-adv-x="1647" 
d="M1036 887c-8 51.333 -29.8311 92.1709 -65.498 122.504s-80.5 45.5 -134.5 45.5c-43.333 0 -80.333 -9.33301 -111 -28s-55.667 -43.167 -75 -73.5s-33.5 -64.833 -42.5 -103.5s-13.5 -77.667 -13.5 -117c0 -41.333 4.5 -81 13.5 -119s23.333 -71.667 43 -101
s45 -52.833 76 -70.5s68.833 -26.5 113.5 -26.5c28.667 0 54.5 4.66699 77.5 14s43 22 60 38s30.5 35.167 40.5 57.5s16.667 46.5 20 72.5h174c-6 -50.667 -19.833 -96 -41.5 -136s-49.167 -73.667 -82.5 -101s-71.333 -48.333 -114 -63s-88 -22 -136 -22
c-68.667 0 -129.667 11.167 -183 33.5s-98.333 53.666 -135 93.999s-64.5 88.166 -83.5 143.499s-28.5 116 -28.5 182s9.33301 127.167 28 183.5s46.167 105 82.5 146s81.166 73.167 134.499 96.5s115 35 185 35c46.667 0 91.167 -6.33301 133.5 -19
s80.166 -31.834 113.499 -57.501s60.833 -57.334 82.5 -95.001s35.167 -81.5 40.5 -131.5h-172zM823.002 1356c-89.333 0 -171.332 -16.832 -245.999 -50.499s-139.167 -78.834 -193.5 -135.501s-96.666 -122.667 -126.999 -198s-45.5 -154.333 -45.5 -237v-30
c3.33301 -69.333 17.333 -135.666 42 -198.999s59.667 -122 105 -176c58 -68 126.833 -121.5 206.5 -160.5s165.834 -58.5 258.501 -58.5c93.333 0 180.166 19.5 260.499 58.5s149.166 92.5 206.499 160.5c48 55.333 84.667 117.166 110 185.499s38 140.833 38 217.5
c0 86.667 -16 168 -48 244s-75.833 142 -131.5 198s-120.834 100.167 -195.501 132.5s-154.667 48.5 -240 48.5zM821.003 1483.01c70 0 137.332 -8.83691 201.999 -26.5039s125 -42.667 181 -75s106.833 -71.166 152.5 -116.499s84.667 -95.833 117 -151.5
s57.333 -115.667 75 -180s26.5 -131.166 26.5 -200.499c0 -113.333 -22.5 -218.5 -67.5 -315.5s-109.167 -180.833 -192.5 -251.5c-68 -58 -143.833 -102.833 -227.5 -134.5s-172.5 -47.5 -266.5 -47.5c-56 0 -110.667 6 -164 18s-104 29.5 -152 52.5
s-93.333 50.667 -136 83s-81.667 69.166 -117 110.499c-56.667 64.667 -100.167 135.334 -130.5 212.001s-47.5 156 -51.5 238v31c0 66.667 8.5 131.5 25.5 194.5s41.167 122.5 72.5 178.5s69.333 107.333 114 154s94.834 86.834 150.501 120.501
s116.167 59.834 181.5 78.501s134.333 28 207 28z" />
    <glyph glyph-name="ordfeminine" unicode="&#xaa;" horiz-adv-x="719" 
d="M618 1241c0 -68 -0.335938 -135.166 -1.00293 -201.499s-1 -133.5 -1 -201.5h-153v90h-2c-22.667 -36 -50.167 -61.833 -82.5 -77.5s-71.166 -23.5 -116.499 -23.5c-27.333 0 -52.5 4.16699 -75.5 12.5s-43 20 -60 35s-30.333 32.833 -40 53.5s-14.5 43 -14.5 67
c0 38 8.83301 68.5 26.5 91.5s39.834 41.5 66.501 55.5s55.667 24.833 87 32.5l87 22c26.667 7 48.834 15.167 66.501 24.5s26.5 22.333 26.5 39c0 34 -11.167 60.167 -33.5 78.5s-51.5 27.5 -87.5 27.5c-18 0 -36 -2.5 -54 -7.5s-35.667 -11.667 -53 -20
s-33.833 -17.833 -49.5 -28.5s-29.5 -21.334 -41.5 -32.001v137c36.667 22.667 74.5 41.667 113.5 57s81.5 23 127.5 23c88 0 154 -22.833 198 -68.5s66 -107.5 66 -185.5zM454.997 1155c-6.66699 -5.33301 -13.998 -9.5 -21.998 -12.5s-15.667 -6.16699 -23 -9.5
c-15.333 -8 -34.333 -15.167 -57 -21.5s-44.334 -14 -65.001 -23s-38.334 -19.667 -53.001 -32s-22 -28.5 -22 -48.5c0 -26 8.66699 -45.167 26 -57.5s40 -18.5 68 -18.5c33.333 0 59.833 7.33301 79.5 22s34.5 33 44.5 55s16.5 46 19.5 72s4.5 50.667 4.5 74z" />
    <glyph glyph-name="guillemotleft" unicode="&#xab;" horiz-adv-x="815" 
d="M610 168l-239 405l239 398l156 -47l-215 -351l215 -358zM289 168l-242 405l242 398l157 -47l-215 -351l215 -358z" />
    <glyph glyph-name="logicalnot" unicode="&#xac;" horiz-adv-x="1450" 
d="M1094 289v344h-920v180h1100v-524h-180z" />
    <glyph glyph-name="uni00AD" unicode="&#xad;" horiz-adv-x="737" 
d="M100 492v221h537v-221h-537z" />
    <glyph glyph-name="registered" unicode="&#xae;" horiz-adv-x="1647" 
d="M1575 733c0 -69.333 -9.00391 -136.171 -27.0039 -200.504s-43.333 -124.166 -76 -179.499s-72 -105.666 -118 -150.999s-96.833 -84.166 -152.5 -116.499s-115.667 -57.333 -180 -75s-131.166 -26.5 -200.499 -26.5c-64.667 0 -128 8.66699 -190 26
s-120.833 41.833 -176.5 73.5s-107 69.667 -154 114s-87.5 93.333 -121.5 147s-60.667 111.167 -80 172.5s-29 125.333 -29 192c0 71.333 8.5 140 25.5 206s41.167 127.667 72.5 185s69.333 109.5 114 156.5s94.834 87.333 150.501 121s116.167 59.667 181.5 78
s134.333 27.5 207 27.5c70 0 137.167 -8.83301 201.5 -26.5s124.5 -42.5 180.5 -74.5s106.833 -70.833 152.5 -116.5s84.834 -96.167 117.501 -151.5s57.834 -115.166 75.501 -179.499s26.5 -131.5 26.5 -201.5zM1438 732.995c0 86 -15.832 166.833 -47.499 242.5
s-75.167 141.667 -130.5 198s-120.333 100.833 -195 133.5s-155.334 49 -242.001 49c-90.667 0 -173.5 -16.833 -248.5 -50.5s-139.5 -79.667 -193.5 -138s-95.833 -126.333 -125.5 -204s-44.5 -160.5 -44.5 -248.5c0 -54.667 7.66699 -107.5 23 -158.5
s36.666 -98.833 63.999 -143.5s60 -85.667 98 -123s79.667 -69.166 125 -95.499s93.5 -46.833 144.5 -61.5s103.5 -22 157.5 -22c56.667 0 111.334 7.5 164.001 22.5s101.834 36.167 147.501 63.5s87.167 60 124.5 98s69.166 80.167 95.499 126.5
s46.833 95.666 61.5 147.999s22 106.833 22 163.5zM996.997 300.995l-121.499 190.502l-121.5 188.5c-7.33301 1.33301 -16 1.16602 -26 -0.500977s-18.667 -1.5 -26 0.5v-379h-163v918h311c44.667 0 86 -5 124 -15s70.667 -25.833 98 -47.5s48.666 -49.667 63.999 -84
s23 -75.833 23 -124.5c0 -44.667 -8.66699 -82.834 -26 -114.501s-38.666 -57.667 -63.999 -78s-52.833 -35.333 -82.5 -45s-56.834 -14.5 -81.501 -14.5l141.5 -196.5c48.333 -64.333 95.5 -130.5 141.5 -198.5h-191zM986.998 939.997c0 24.667 -3.5 45.002 -10.5 61.002
s-17 29 -30 39s-28.5 17.333 -46.5 22s-38 7.66699 -60 9c-22.667 1.33301 -45.5 2 -68.5 2h-69.5v-270c20.667 -1.33301 41.167 -2 61.5 -2h59.5c21.333 0 42 3 62 9s37.5 14.667 52.5 26s27 25.666 36 42.999s13.5 37.666 13.5 60.999z" />
    <glyph glyph-name="macron" unicode="&#xaf;" horiz-adv-x="733" 
d="M119 1276v154h497v-154h-497z" />
    <glyph glyph-name="degree" unicode="&#xb0;" horiz-adv-x="733" 
d="M367 1354c-26.667 0 -50.8369 -4.83203 -72.5039 -14.499s-40.334 -22.5 -56.001 -38.5s-27.667 -34.5 -36 -55.5s-12.5 -42.833 -12.5 -65.5c0 -3.33301 0.5 -6.5 1.5 -9.5s1.5 -6.16699 1.5 -9.5c1.33301 -21.333 6.5 -41.666 15.5 -60.999s21.167 -36.333 36.5 -51
s33.333 -26.334 54 -35.001s43.334 -13 68.001 -13c28.667 0 54.834 6.66699 78.501 20s43.834 30.666 60.501 51.999c12 15.333 20.833 31.666 26.5 48.999s8.5 34.666 8.5 51.999v18c-1.33301 22 -6.66602 42.833 -15.999 62.5s-21.666 36.834 -36.999 51.501
s-33.333 26.334 -54 35.001s-43 13 -67 13zM366.997 1475c81.333 0 151.666 -29.667 210.999 -89c28 -28 49.333 -59.833 64 -95.5s22 -71.834 22 -108.501v-6c-0.666992 -39.333 -8.5 -76.833 -23.5 -112.5s-35.833 -67 -62.5 -94s-58.167 -48.5 -94.5 -64.5
s-75.833 -24 -118.5 -24c-40 0 -77.833 7.33301 -113.5 22s-67.5 36 -95.5 64c-28 28.667 -49.333 60.667 -64 96s-22 71.333 -22 108v9c0.666992 38.667 8.33398 75.834 23.001 111.501s35.167 67 61.5 94s57.5 48.667 93.5 65s75.667 24.5 119 24.5z" />
    <glyph glyph-name="plusminus" unicode="&#xb1;" horiz-adv-x="1450" 
d="M817 623v-316h-184v316h-459v180h459v315h184v-315h457v-180h-457zM174 -10v180h1100v-180h-1100z" />
    <glyph glyph-name="twosuperior" unicode="&#xb2;" horiz-adv-x="682" 
d="M84 774l51.498 45.4971l64 57.5l68 66c23 23.333 44.5 47 64.5 71c26.667 32.667 49.334 64.834 68.001 96.501s28 60.167 28 85.5c0 16 -3.5 31.667 -10.5 47s-16.667 28.833 -29 40.5s-27 21.167 -44 28.5s-35.5 11 -55.5 11c-22 0 -42.667 -3.16699 -62 -9.5
s-37.166 -14.666 -53.499 -24.999s-31.5 -22.166 -45.5 -35.499s-26.667 -27 -38 -41v156c18 11.333 36 22 54 32s36.833 18.833 56.5 26.5s40.667 13.834 63 18.501s47.166 7 74.499 7c40 0 76.167 -5.5 108.5 -16.5s60 -26.5 83 -46.5s40.833 -43.833 53.5 -71.5
s19 -57.834 19 -90.501c0 -30 -4.5 -58.333 -13.5 -85s-21.667 -52.667 -38 -78s-36 -50.333 -59 -75s-48.833 -50 -77.5 -76c-8 -7.33301 -18 -16 -30 -26l-37.5 -30.5l-38 -30.5c-12.333 -10 -23.166 -18.333 -32.499 -25h336v-133h-528v106v0z" />
    <glyph glyph-name="threesuperior" unicode="&#xb3;" horiz-adv-x="678" 
d="M598 879c0 -34 -7.16895 -64.833 -21.502 -92.5s-34.333 -51.5 -60 -71.5s-55.667 -35.333 -90 -46s-71.5 -16 -111.5 -16c-44 0 -85.167 4.66699 -123.5 14s-75.5 24.666 -111.5 45.999v133c10 -10 22.5 -19.167 37.5 -27.5s30.833 -15.5 47.5 -21.5
s33.667 -10.667 51 -14s34 -5 50 -5c22.667 0 43.834 2.33301 63.501 7s36.834 11.834 51.501 21.501s26.167 22 34.5 37s12.5 32.833 12.5 53.5c0 21.333 -6 39 -18 53s-27 25 -45 33s-38 13.5 -60 16.5s-43 4.5 -63 4.5c-9.33301 0.666992 -17.666 1 -24.999 1
s-14.5 -0.333008 -21.5 -1s-14.667 -1.33398 -23 -2.00098s-18.166 -1.66699 -29.499 -3v113c23.333 -3.33301 42.666 -5.16602 57.999 -5.49902s32.333 -0.5 51 -0.5c21.333 0 42.666 1.5 63.999 4.5s40.5 8.33301 57.5 16s30.667 18.167 41 31.5s15.5 30.666 15.5 51.999
c0 20 -4.16699 37.333 -12.5 52s-19.833 26.834 -34.5 36.501s-31.834 16.834 -51.501 21.501s-40.834 7 -63.501 7c-15.333 0 -31.666 -1.66699 -48.999 -5s-34.166 -8 -50.499 -14s-32 -13 -47 -21s-27.5 -16.333 -37.5 -25v131c36 20.667 72.833 35.334 110.5 44.001
s78.5 13 122.5 13c40 0 77.167 -5.33301 111.5 -16s64 -25.834 89 -45.501s44.667 -43 59 -70s21.5 -56.833 21.5 -89.5c0 -39.333 -10.167 -73.5 -30.5 -102.5s-47.166 -52.833 -80.499 -71.5c33.333 -19.333 60.166 -43.833 80.499 -73.5s30.5 -63.834 30.5 -102.501z" />
    <glyph glyph-name="acute" unicode="&#xb4;" horiz-adv-x="561" 
d="M270 1169h-176l139 316h279z" />
    <glyph glyph-name="mu" unicode="&#xb5;" horiz-adv-x="1257" 
d="M424 1128c-7.33301 -51.333 -13.833 -107.329 -19.5 -167.996s-10.334 -122.167 -14.001 -184.5s-6.5 -123.833 -8.5 -184.5s-3 -116.334 -3 -167.001c0 -33.333 3 -64.666 9 -93.999s16.333 -55 31 -77s34.5 -39.333 59.5 -52s56.5 -19 94.5 -19
c49.333 0 90.833 12.167 124.5 36.5s61.667 56.333 84 96s39.833 84.834 52.5 135.501s22.5 102.167 29.5 154.5s12 103.166 15 152.499s5.83301 92.666 8.5 129.999c3.33301 40 6 80.167 8 120.5s4.66699 80.5 8 120.5h250l-49 -564c-16 -186.667 -29 -374.667 -39 -564
h-225l4 88l4 88h-2c-31.333 -62 -71.666 -110.167 -120.999 -144.5s-109.333 -51.5 -180 -51.5c-42 0 -80.167 8.16699 -114.5 24.5s-63.833 42.166 -88.5 77.499c-7.33301 -72.667 -14 -145.334 -20 -218.001s-13 -145.334 -21 -218.001h-246l58.5 741l60.5 741h250z" />
    <glyph glyph-name="paragraph" unicode="&#xb6;" horiz-adv-x="1106" 
d="M1008 1350l-53.999 -0.000976562v-1491h-153v1489h-199v-1489h-151v891c-49.333 0 -97.333 8.83301 -144 26.5s-88.334 42.334 -125.001 74.001s-66 69.167 -88 112.5s-33 91 -33 143c0 62.667 11.167 116.667 33.5 162s52.5 82.833 90.5 112.5s82.5 51.667 133.5 66
s105.167 21.5 162.5 21.5h527v-118z" />
    <glyph glyph-name="periodcentered" unicode="&#xb7;" horiz-adv-x="608" 
d="M166 836c4 17.333 11.333 32.9971 22 46.9971s23.5 26 38.5 36s31.5 17.667 49.5 23s36.667 8 56 8c17.333 0 34.833 -2.5 52.5 -7.5s34.167 -13.167 49.5 -24.5c10.667 -19.333 18.834 -40.166 24.501 -62.499s8.5 -45.5 8.5 -69.5
c0 -23.333 -2.83301 -46.166 -8.5 -68.499s-13.834 -43.166 -24.501 -62.499c-17.333 -11.333 -36 -19.5 -56 -24.5s-40.333 -7.5 -61 -7.5s-41.167 2.83301 -61.5 8.5s-38.5 13.5 -54.5 23.5c-10.667 26 -19.167 54.333 -25.5 85s-9.5 62.667 -9.5 96z" />
    <glyph glyph-name="cedilla" unicode="&#xb8;" horiz-adv-x="733" 
d="M190 -221c14.667 -1.33301 28.8359 -3.33496 42.5029 -6.00195s27.5 -4 41.5 -4c14.667 0 28.334 2.83301 41.001 8.5s19 17.167 19 34.5c0 8.66699 -3.16699 15.167 -9.5 19.5s-13.833 7 -22.5 8s-17.5 1.33301 -26.5 1s-16.167 -0.5 -21.5 -0.5l15.5 42l17 46l17 46
l15.5 42h97l-25 -88c17.333 -7.33301 33.666 -14.833 48.999 -22.5s28.666 -16.167 39.999 -25.5s20.166 -20.5 26.499 -33.5s9.5 -28.833 9.5 -47.5c0 -30 -6 -54.5 -18 -73.5s-27.833 -34.167 -47.5 -45.5s-41.834 -19.166 -66.501 -23.499s-49.667 -6.16602 -75 -5.49902
s-50 3 -74 7s-45 8.66699 -63 14z" />
    <glyph glyph-name="onesuperior" unicode="&#xb9;" horiz-adv-x="614" 
d="M268 1284c-11.333 -8.66699 -26.834 -18.833 -46.501 -30.5l-61 -35.5c-21 -12 -41.167 -23 -60.5 -33s-34.333 -18 -45 -24v119c48.667 21.333 94.334 44.333 137.001 69s85 53.667 127 87h132v-779h-183v627v0z" />
    <glyph glyph-name="ordmasculine" unicode="&#xba;" horiz-adv-x="635" 
d="M328 788c-46.667 -1.33301 -86.5 6.66699 -119.5 24s-60 40.833 -81 70.5s-36.5 63.667 -46.5 102s-16 78.166 -18 119.499c-1.33301 40.667 1.83398 80.5 9.50098 119.5s21 73.833 40 104.5s44.333 55.5 76 74.5s71.167 29.5 118.5 31.5
c46 1.33301 85.5 -6.33398 118.5 -23.001s60 -39.5 81 -68.5s36.667 -62.667 47 -101s16.166 -78.166 17.499 -119.499c2 -40 -0.833008 -79.667 -8.5 -119s-21 -74.666 -40 -105.999s-44.5 -56.833 -76.5 -76.5s-71.333 -30.5 -118 -32.5zM322 899
c24.667 0.666992 44.8291 9.16699 60.4961 25.5s27.834 36.166 36.501 59.499s14.5 47.666 17.5 72.999s4.16699 47 3.5 65c-1.33301 22.667 -3.16602 46.334 -5.49902 71.001s-7.83301 46.834 -16.5 66.501s-21.334 35.667 -38.001 48s-39.667 18.166 -69 17.499
c-27.333 -1.33301 -49.166 -9.16602 -65.499 -23.499s-28.666 -32.166 -36.999 -53.499s-13.666 -44.333 -15.999 -69s-3.16602 -47.667 -2.49902 -69c0.666992 -19.333 3.5 -41.333 8.5 -66s12.833 -47.834 23.5 -69.501s24.167 -40 40.5 -55s36.166 -21.833 59.499 -20.5z
" />
    <glyph glyph-name="guillemotright" unicode="&#xbb;" horiz-adv-x="815" 
d="M766 573l-240 -405l-157 47l215 358l-215 351l157 47zM446 573l-241 -405l-158 47l217 358l-217 351l158 47z" />
    <glyph glyph-name="onequarter" unicode="&#xbc;" horiz-adv-x="1536" 
d="M268 1284c-11.333 -8.66699 -26.834 -18.833 -46.501 -30.5l-61 -35.5c-21 -12 -41.167 -23 -60.5 -33s-34.333 -18 -45 -24v119c48.667 21.333 94.334 44.333 137.001 69s85 53.667 127 87h132v-779h-183v627v0zM333.999 -52.999h-90l936 1437h88zM833.999 125.001v147
l150 233l151 230h241v-487h99v-121h-99v-178h-162v176h-380zM960.999 248.001h256v397h-3z" />
    <glyph glyph-name="onehalf" unicode="&#xbd;" horiz-adv-x="1536" 
d="M334 -53h-90l936 1437h88zM268 1284c-11.333 -8.66699 -26.834 -18.833 -46.501 -30.5l-61 -35.5c-21 -12 -41.167 -23 -60.5 -33s-34.333 -18 -45 -24v119c48.667 21.333 94.334 44.333 137.001 69s85 53.667 127 87h132v-779h-183v627v0zM908.999 76.001
l51.9941 45.501l63.5 57.5l68 65.5c23 23 44.5 46.5 64.5 70.5c26.667 32 49.334 63.667 68.001 95s28 60 28 86c0 16 -3.5 31.5 -10.5 46.5s-16.667 28.5 -29 40.5s-27 21.667 -44 29s-35.5 11 -55.5 11c-21.333 0 -41.666 -3.16699 -60.999 -9.5
s-37.166 -14.833 -53.499 -25.5s-31.666 -22.5 -45.999 -35.5s-27.166 -26.5 -38.499 -40.5v156c18 12 36 23 54 33s36.833 18.833 56.5 26.5s40.667 13.667 63 18s47.166 6.5 74.499 6.5c40 0 76.333 -5.66699 109 -17s60.834 -27 84.501 -47s41.834 -43.667 54.501 -71
s19 -57 19 -89c0 -30.667 -4.5 -59.334 -13.5 -86.001s-21.833 -52.667 -38.5 -78s-36.667 -50.333 -60 -75s-49 -50 -77 -76c-8 -8 -18 -17 -30 -27l-37 -30.5l-37.5 -30l-32.5 -25.5h334v-131h-529v107v0z" />
    <glyph glyph-name="threequarters" unicode="&#xbe;" horiz-adv-x="1536" 
d="M346 -53h-90l936 1437h86zM598 879c0 -34 -7.16895 -64.833 -21.502 -92.5s-34.333 -51.5 -60 -71.5s-55.667 -35.333 -90 -46s-71.5 -16 -111.5 -16c-44 0 -85.167 4.66699 -123.5 14s-75.5 24.666 -111.5 45.999v133c10 -10 22.5 -19.167 37.5 -27.5
s30.833 -15.5 47.5 -21.5s33.667 -10.667 51 -14s34 -5 50 -5c22.667 0 43.834 2.33301 63.501 7s36.834 11.834 51.501 21.501s26.167 22 34.5 37s12.5 32.833 12.5 53.5c0 21.333 -6 39 -18 53s-27 25 -45 33s-38 13.5 -60 16.5s-43 4.5 -63 4.5
c-9.33301 0.666992 -17.666 1 -24.999 1s-14.5 -0.333008 -21.5 -1s-14.667 -1.33398 -23 -2.00098s-18.166 -1.66699 -29.499 -3v113c23.333 -3.33301 42.666 -5.16602 57.999 -5.49902s32.333 -0.5 51 -0.5c21.333 0 42.666 1.5 63.999 4.5s40.5 8.33301 57.5 16
s30.667 18.167 41 31.5s15.5 30.666 15.5 51.999c0 20 -4.16699 37.333 -12.5 52s-19.833 26.834 -34.5 36.501s-31.834 16.834 -51.501 21.501s-40.834 7 -63.501 7c-15.333 0 -31.666 -1.66699 -48.999 -5s-34.166 -8 -50.499 -14s-32 -13 -47 -21
s-27.5 -16.333 -37.5 -25v131c36 20.667 72.833 35.334 110.5 44.001s78.5 13 122.5 13c40 0 77.167 -5.33301 111.5 -16s64 -25.834 89 -45.501s44.667 -43 59 -70s21.5 -56.833 21.5 -89.5c0 -39.333 -10.167 -73.5 -30.5 -102.5s-47.166 -52.833 -80.499 -71.5
c33.333 -19.333 60.166 -43.833 80.499 -73.5s30.5 -63.834 30.5 -102.501zM863.998 125v147l151 233l150 230h242v-487h98v-121h-98v-178h-162v176h-381zM990.998 248h256v397h-2z" />
    <glyph glyph-name="questiondown" unicode="&#xbf;" horiz-adv-x="938" 
d="M692 1268c0 -22 -3.83398 -42.3311 -11.501 -60.998s-18.334 -34.667 -32.001 -48s-29.667 -23.833 -48 -31.5s-38.166 -11.5 -59.499 -11.5s-41.333 4 -60 12s-34.834 18.833 -48.501 32.5s-24.334 29.667 -32.001 48s-11.5 38.166 -11.5 59.499
c0 20.667 3.83301 40.167 11.5 58.5s18.334 34.166 32.001 47.499s29.5 23.833 47.5 31.5s37.667 11.5 59 11.5c22 0 42.333 -3.66699 61 -11s34.834 -17.5 48.501 -30.5s24.334 -28.667 32.001 -47s11.5 -38.5 11.5 -60.5zM849.999 39.002
c-56.667 -40 -114.671 -71.502 -174.004 -94.502s-123.666 -34.5 -192.999 -34.5c-57.333 0 -110.166 8.33301 -158.499 25s-90 41 -125 73s-62.333 71 -82 117s-29.5 98.667 -29.5 158c0 45.333 9.66699 88.5 29 129.5s42.833 81 70.5 120s57.167 77 88.5 114
s59.166 74.333 83.499 112s42.5 76 54.5 115s12.667 79.5 2 121.5c41.333 0 81.833 -0.333008 121.5 -1s79.5 -1 119.5 -1c4.66699 -19.333 7.66699 -39.5 9 -60.5s2 -41.167 2 -60.5c0 -32.667 -7.5 -64.5 -22.5 -95.5s-33.667 -61.833 -56 -92.5
s-46.666 -61.167 -72.999 -91.5s-50.666 -60.666 -72.999 -90.999s-41 -60.833 -56 -91.5s-22.5 -61.667 -22.5 -93c0 -29.333 5 -54.5 15 -75.5s23.667 -38.167 41 -51.5s37.666 -23.333 60.999 -30s48.333 -10 75 -10c32 0 61.833 5 89.5 15s53.334 23.333 77.001 40
s45.834 35.834 66.501 57.501s40.667 44.167 60 67.5v-291v0z" />
    <glyph glyph-name="Agrave" unicode="&#xc0;" horiz-adv-x="1239" 
d="M821 1485l198.5 -743.5l199.5 -741.5h-279l-50.5 185.5l-49.5 185.5h-441l-49 -185.5l-51 -185.5h-281l200 741.5l200 743.5h403zM446 602h347l-86.5 342l-85.5 342l-3 -2zM651 1591l-241 303h278l139 -303h-176z" />
    <glyph glyph-name="Aacute" unicode="&#xc1;" horiz-adv-x="1239" 
d="M821 1485l198.5 -743.5l199.5 -741.5h-279l-50.5 185.5l-49.5 185.5h-441l-49 -185.5l-51 -185.5h-281l200 741.5l200 743.5h403zM446 602h347l-86.5 342l-85.5 342l-3 -2zM586 1579h-176l139 315h278z" />
    <glyph glyph-name="Acircumflex" unicode="&#xc2;" horiz-adv-x="1239" 
d="M821 1485l198.5 -743.5l199.5 -741.5h-279l-50.5 185.5l-49.5 185.5h-441l-49 -185.5l-51 -185.5h-281l200 741.5l200 743.5h403zM446 602h347l-86.5 342l-85.5 342l-3 -2zM741 1583l-120 184l-121 -184h-211l205 315h266l190 -315h-209z" />
    <glyph glyph-name="Atilde" unicode="&#xc3;" horiz-adv-x="1239" 
d="M821 1485l198.5 -743.5l199.5 -741.5h-279l-50.5 185.5l-49.5 185.5h-441l-49 -185.5l-51 -185.5h-281l200 741.5l200 743.5h403zM446 602h347l-86.5 342l-85.5 342l-3 -2zM297 1634c0.666992 28 3.49805 55.834 8.49805 83.501s14 52.5 27 74.5s31.167 39.833 54.5 53.5
s54 20.5 92 20.5c22.667 0 44.834 -3 66.501 -9s43.5 -12.667 65.5 -20s44.5 -14 67.5 -20s46.833 -9 71.5 -9c23.333 0 41.333 6.16699 54 18.5s22.667 28.833 30 49.5h106c-1.33301 -29.333 -4.83301 -58.333 -10.5 -87s-15.834 -54.5 -30.501 -77.5s-35 -41.667 -61 -56
s-60.333 -21.5 -103 -21.5c-16 0 -34.667 3.5 -56 10.5l-66.5 22.5c-23 8 -46 15.5 -69 22.5s-44.5 10.5 -64.5 10.5c-17.333 0 -31.666 -6.33301 -42.999 -19s-20.666 -28.334 -27.999 -47.001h-111z" />
    <glyph glyph-name="Adieresis" unicode="&#xc4;" horiz-adv-x="1239" 
d="M821 1485l198.5 -743.5l199.5 -741.5h-279l-50.5 185.5l-49.5 185.5h-441l-49 -185.5l-51 -185.5h-281l200 741.5l200 743.5h403zM446 602h347l-86.5 342l-85.5 342l-3 -2zM260 1741c0 20.667 4.00098 40.333 12.001 59s19 35 33 49s30.333 25 49 33s38.667 12 60 12
s41.5 -4 60.5 -12s35.667 -19 50 -33s25.666 -30.333 33.999 -49s12.5 -38.334 12.5 -59.001c0 -21.333 -4 -41.333 -12 -60s-19 -35.167 -33 -49.5s-30.5 -25.666 -49.5 -33.999s-39.167 -12.5 -60.5 -12.5s-41.333 4.16699 -60 12.5s-35 19.5 -49 33.5s-25 30.5 -33 49.5
s-12 39.167 -12 60.5h-2zM666.001 1741c0 20.667 4.00293 40.333 12.0029 59s19 35 33 49s30.167 25 48.5 33s38.166 12 59.499 12s41.666 -4 60.999 -12s36.166 -19 50.499 -33s25.666 -30.333 33.999 -49s12.5 -38.334 12.5 -59.001c0 -21.333 -4.16699 -41.333 -12.5 -60
s-19.5 -35.167 -33.5 -49.5s-30.5 -25.666 -49.5 -33.999s-39.167 -12.5 -60.5 -12.5s-41.166 4.16699 -59.499 12.5s-34.5 19.5 -48.5 33.5s-25 30.5 -33 49.5s-12 39.167 -12 60.5h-2z" />
    <glyph glyph-name="Aring" unicode="&#xc5;" horiz-adv-x="1239" 
d="M821 1485l198.5 -743.5l199.5 -741.5h-279l-50.5 185.5l-49.5 185.5h-441l-49 -185.5l-51 -185.5h-281l200 741.5l200 743.5h403zM446 602h347l-86.5 342l-85.5 342l-3 -2zM506 1741c0 -16.667 3.17188 -32.166 9.50488 -46.499s14.666 -26.666 24.999 -36.999
s22 -18.5 35 -24.5s26.5 -9 40.5 -9c15.333 0 30.166 2.83301 44.499 8.5s27 13.667 38 24s19.833 22.666 26.5 36.999s10 30.166 10 47.499c0 16.667 -3.16699 32 -9.5 46s-14.833 26 -25.5 36s-22.834 17.833 -36.501 23.5s-27.834 8.5 -42.501 8.5
c-15.333 0 -29.833 -2.66699 -43.5 -8s-25.834 -12.833 -36.501 -22.5s-19.167 -21.5 -25.5 -35.5s-9.5 -30 -9.5 -48zM393.005 1741c0 32.667 5.99707 62.835 17.9971 90.502s28.333 51.667 49 72s44.5 36.166 71.5 47.499s55.167 17 84.5 17
c30 0 58.833 -5.66699 86.5 -17s52.167 -27.166 73.5 -47.499s38.333 -44.333 51 -72s19 -57.834 19 -90.501c0 -32 -6.16699 -62 -18.5 -90s-28.833 -52.167 -49.5 -72.5s-44.667 -36.333 -72 -48s-55.666 -17.5 -84.999 -17.5s-57.666 5.66699 -84.999 17
s-51.666 27.166 -72.999 47.499s-38.333 44.5 -51 72.5s-19 58.333 -19 91z" />
    <glyph glyph-name="AE" unicode="&#xc6;" horiz-adv-x="1466" 
d="M399 371l-49 -185.5l-51 -185.5h-281l200 741.5l200 743.5h1007v-244h-536v-369h514v-239h-514v-395h538v-238h-804v371h-224zM446 602l177 2v686z" />
    <glyph glyph-name="Ccedilla" unicode="&#xc7;" 
d="M473 -221c14.667 -1.33301 28.668 -3.34277 42.001 -6.00977s27.333 -4 42 -4s28.167 2.83301 40.5 8.5s18.5 17.167 18.5 34.5c0 8.66699 -3.16699 15.167 -9.5 19.5s-13.666 7 -21.999 8s-17 1.33301 -26 1s-16.167 -0.5 -21.5 -0.5l24.5 68l26.5 72
c-65.333 4.66699 -123.5 18.167 -174.5 40.5s-95.667 51.333 -134 87s-70.666 76.834 -96.999 123.501s-47.666 96.834 -63.999 150.501s-28.166 110 -35.499 169s-11 118.5 -11 178.5c0 62.667 4.33301 125.334 13 188.001s22.334 122.834 41.001 180.501
s43 111.334 73 161.001s66.667 93 110 130s93.5 66 150.5 87s122.167 31.5 195.5 31.5c32 0 64.167 -3.33301 96.5 -10s64.166 -16 95.499 -28s61.333 -26.333 90 -43s55 -35.334 79 -56.001v-297h-2c-16 19.333 -33.833 39.5 -53.5 60.5s-41.834 40.167 -66.501 57.5
s-52.167 31.666 -82.5 42.999s-63.833 17 -100.5 17c-48.667 0 -91.5 -7.16699 -128.5 -21.5s-68.833 -34 -95.5 -59s-48.834 -54.333 -66.501 -88s-31.667 -69.667 -42 -108s-17.666 -78.166 -21.999 -119.499s-6.5 -82 -6.5 -122c0 -30.667 3.16699 -64.5 9.5 -101.5
s16 -74.167 29 -111.5s29 -73.666 48 -108.999s41.167 -66.666 66.5 -93.999s53.5 -49.166 84.5 -65.499s65.167 -24.5 102.5 -24.5c36.667 0 71.167 6.33301 103.5 19s62 28.667 89 48s51.667 40.333 74 63s42.166 44.334 59.499 65.001v-303
c-19.333 -20.667 -41.833 -39 -67.5 -55s-53 -29.833 -82 -41.5s-58.833 -21 -89.5 -28s-60.334 -11.833 -89.001 -14.5l-14 -52c17.333 -7.33301 33.5 -14.833 48.5 -22.5s28.167 -16.167 39.5 -25.5s20.333 -20.5 27 -33.5s10 -28.833 10 -47.5c0 -30 -6 -54.5 -18 -73.5
s-27.833 -34.167 -47.5 -45.5s-41.834 -19.166 -66.501 -23.499s-49.834 -6.16602 -75.501 -5.49902s-50.5 3 -74.5 7s-44.667 8.66699 -62 14z" />
    <glyph glyph-name="Egrave" unicode="&#xc8;" horiz-adv-x="1010" 
d="M922 1485v-244h-537v-369h514v-239h-514v-395h539v-238h-805v1485h803zM537 1591l-242 303h278l140 -303h-176z" />
    <glyph glyph-name="Eacute" unicode="&#xc9;" horiz-adv-x="1010" 
d="M922 1485v-244h-537v-369h514v-239h-514v-395h539v-238h-805v1485h803zM512 1579h-176l139 315h279z" />
    <glyph glyph-name="Ecircumflex" unicode="&#xca;" horiz-adv-x="1010" 
d="M922 1485v-244h-537v-369h514v-239h-514v-395h539v-238h-805v1485h803zM627 1583l-121 184l-121 -184h-211l205 315h266l191 -315h-209z" />
    <glyph glyph-name="Edieresis" unicode="&#xcb;" horiz-adv-x="1010" 
d="M922 1485v-244h-537v-369h514v-239h-514v-395h539v-238h-805v1485h803zM145 1741c0 20.667 4.00293 40.333 12.0029 59s19 35 33 49s30.333 25 49 33s38.667 12 60 12s41.666 -4 60.999 -12s36.166 -19 50.499 -33s25.666 -30.333 33.999 -49s12.5 -38.334 12.5 -59.001
c0 -21.333 -4.16699 -41.333 -12.5 -60s-19.5 -35.167 -33.5 -49.5s-30.5 -25.666 -49.5 -33.999s-39.167 -12.5 -60.5 -12.5s-41.333 4.16699 -60 12.5s-35 19.5 -49 33.5s-25 30.5 -33 49.5s-12 39.167 -12 60.5h-2zM551.003 1741c0 20.667 4.00098 40.333 12.001 59
s19 35 33 49s30.333 25 49 33s38.667 12 60 12s41.5 -4 60.5 -12s35.667 -19 50 -33s25.666 -30.333 33.999 -49s12.5 -38.334 12.5 -59.001c0 -21.333 -4 -41.333 -12 -60s-19 -35.167 -33 -49.5s-30.5 -25.666 -49.5 -33.999s-39.167 -12.5 -60.5 -12.5
s-41.333 4.16699 -60 12.5s-35 19.5 -49 33.5s-25 30.5 -33 49.5s-12 39.167 -12 60.5h-2z" />
    <glyph glyph-name="Igrave" unicode="&#xcc;" horiz-adv-x="485" 
d="M111 0v1485h264v-1485h-264zM276 1591l-241 303h278l140 -303h-177z" />
    <glyph glyph-name="Iacute" unicode="&#xcd;" horiz-adv-x="485" 
d="M111 0v1485h264v-1485h-264zM211 1579h-176l139 315h279z" />
    <glyph glyph-name="Icircumflex" unicode="&#xce;" horiz-adv-x="485" 
d="M111 0v1485h264v-1485h-264zM365 1583l-121 184l-121 -184h-211l205 315h266l190 -315h-208z" />
    <glyph glyph-name="Idieresis" unicode="&#xcf;" horiz-adv-x="485" 
d="M111 0v1485h264v-1485h-264zM-115 1741c0 20.667 4.00293 40.333 12.0029 59s19 35 33 49s30.333 25 49 33s38.667 12 60 12s41.666 -4 60.999 -12s36.166 -19 50.499 -33s25.666 -30.333 33.999 -49s12.5 -38.334 12.5 -59.001c0 -21.333 -4.16699 -41.333 -12.5 -60
s-19.5 -35.167 -33.5 -49.5s-30.5 -25.666 -49.5 -33.999s-39.167 -12.5 -60.5 -12.5s-41.333 4.16699 -60 12.5s-35 19.5 -49 33.5s-25 30.5 -33 49.5s-12 39.167 -12 60.5h-2zM291.003 1741c0 20.667 4.00293 40.333 12.0029 59s19 35 33 49s30.167 25 48.5 33
s38.166 12 59.499 12s41.666 -4 60.999 -12s36.166 -19 50.499 -33s25.666 -30.333 33.999 -49s12.5 -38.334 12.5 -59.001c0 -21.333 -4.16699 -41.333 -12.5 -60s-19.5 -35.167 -33.5 -49.5s-30.5 -25.666 -49.5 -33.999s-39.167 -12.5 -60.5 -12.5
s-41.166 4.16699 -59.499 12.5s-34.5 19.5 -48.5 33.5s-25 30.5 -33 49.5s-12 39.167 -12 60.5h-2z" />
    <glyph glyph-name="Eth" unicode="&#xd0;" horiz-adv-x="1276" 
d="M119 1485l365.999 -0.00195312c54.667 0 109.667 -1.33301 165 -4s109 -11.667 161 -27c51.333 -15.333 96.833 -36.166 136.5 -62.499s74.167 -57 103.5 -92s53.833 -73.667 73.5 -116s35.5 -86.5 47.5 -132.5s20.667 -93.333 26 -142s8 -97 8 -145
c0 -79.333 -8 -158.166 -24 -236.499s-41.833 -150.666 -77.5 -216.999s-82.167 -124.5 -139.5 -174.5s-127.666 -86.333 -210.999 -109c-44 -12.667 -88.5 -20.334 -133.5 -23.001s-90.167 -4 -135.5 -4h-366v719h-117v170h117v596zM384.999 718.998l0.00195312 -467.002
h158c51.333 0 96.666 7 135.999 21s73.333 33.167 102 57.5s52.5 53 71.5 86s34.333 69 46 108s19.834 79.833 24.501 122.5s7 85.667 7 129c0 76.667 -6.66699 144.334 -20 203.001s-36.333 107.834 -69 147.501s-76.167 69.667 -130.5 90s-122.5 30.5 -204.5 30.5
c-20.667 0 -40.834 -0.333008 -60.501 -1s-39.834 -1 -60.501 -1v-356h264v-170h-264z" />
    <glyph glyph-name="Ntilde" unicode="&#xd1;" horiz-adv-x="1329" 
d="M451 1485l71 -153.501l81 -176.5l85 -187l83 -184l192 -428v140c0 165.333 -0.333008 330 -1 494s-1 329 -1 495h247v-1485h-307l-238 504.5l-237 507.5l-13.5 32.5l-15.5 38.5l-15.5 39.5c-5 13 -9.16699 24.5 -12.5 34.5c0 -25.333 -0.333008 -50.666 -1 -75.999
s-1 -50.333 -1 -75v-175c0 -66.667 0.166992 -138.5 0.5 -215.5s0.5 -153.167 0.5 -228.5s0.166992 -146.833 0.5 -214.5s0.5 -125.167 0.5 -172.5h-248v1485h330zM342 1634c0.666992 28 3.49805 55.834 8.49805 83.501s14 52.5 27 74.5s31.167 39.833 54.5 53.5
s54 20.5 92 20.5c22.667 0 44.834 -3 66.501 -9s43.5 -12.667 65.5 -20s44.5 -14 67.5 -20s46.833 -9 71.5 -9c23.333 0 41.333 6.16699 54 18.5s22.667 28.833 30 49.5h106c-1.33301 -29.333 -4.83301 -58.333 -10.5 -87s-15.834 -54.5 -30.501 -77.5s-35 -41.667 -61 -56
s-60.333 -21.5 -103 -21.5c-16 0 -34.667 3.5 -56 10.5l-66.5 22.5c-23 8 -46 15.5 -69 22.5s-44.5 10.5 -64.5 10.5c-17.333 0 -31.666 -6.33301 -42.999 -19s-20.666 -28.334 -27.999 -47.001h-111z" />
    <glyph glyph-name="Ograve" unicode="&#xd2;" horiz-adv-x="1341" 
d="M670 -23c-73.333 0 -139.168 10 -197.501 30s-109.5 47.833 -153.5 83.5s-81.667 77.667 -113 126s-57 100.833 -77 157.5s-34.5 116.334 -43.5 179.001s-13.5 126 -13.5 190c0 64.667 4.5 128.667 13.5 192s23.333 123.166 43 179.499s45.167 108.5 76.5 156.5
s69.166 89.5 113.499 124.5s95.833 62.333 154.5 82s125 29.5 199 29.5c72.667 0 137.834 -9.66699 195.501 -29s108.667 -46 153 -80s82.333 -74.667 114 -122s57.5 -99.166 77.5 -155.499s34.667 -116 44 -179s14 -127.5 14 -193.5c0 -64 -4.66699 -127.667 -14 -191
s-23.833 -123.5 -43.5 -180.5s-45.167 -109.833 -76.5 -158.5s-69.333 -90.834 -114 -126.501s-96.167 -63.667 -154.5 -84s-124.166 -30.5 -197.499 -30.5zM663.998 238c39.333 0 74.8281 8.49902 106.495 25.499s60 39.5 85 67.5s46.5 59.833 64.5 95.5
s32.833 72.5 44.5 110.5s20.334 75.333 26.001 112s8.5 69.667 8.5 99c0 36.667 -1.66699 74.5 -5 113.5s-9.5 77 -18.5 114s-21.167 72 -36.5 105s-35.166 62 -59.499 87s-53.5 44.833 -87.5 59.5s-74 22 -120 22c-43.333 0 -81.666 -8 -114.999 -24
s-62.333 -37.167 -87 -63.5s-45.167 -57 -61.5 -92s-29.333 -71.333 -39 -109s-16.667 -75.667 -21 -114s-6.5 -74.166 -6.5 -107.499c0 -30 2.83301 -63 8.5 -99s14.334 -72.667 26.001 -110s26.334 -73.5 44.001 -108.5s38.5 -66 62.5 -93s51 -48.833 81 -65.5
s63.333 -25 100 -25zM701.993 1591l-241 303h278l140 -303h-177z" />
    <glyph glyph-name="Oacute" unicode="&#xd3;" horiz-adv-x="1341" 
d="M670 -23c-73.333 0 -139.168 10 -197.501 30s-109.5 47.833 -153.5 83.5s-81.667 77.667 -113 126s-57 100.833 -77 157.5s-34.5 116.334 -43.5 179.001s-13.5 126 -13.5 190c0 64.667 4.5 128.667 13.5 192s23.333 123.166 43 179.499s45.167 108.5 76.5 156.5
s69.166 89.5 113.499 124.5s95.833 62.333 154.5 82s125 29.5 199 29.5c72.667 0 137.834 -9.66699 195.501 -29s108.667 -46 153 -80s82.333 -74.667 114 -122s57.5 -99.166 77.5 -155.499s34.667 -116 44 -179s14 -127.5 14 -193.5c0 -64 -4.66699 -127.667 -14 -191
s-23.833 -123.5 -43.5 -180.5s-45.167 -109.833 -76.5 -158.5s-69.333 -90.834 -114 -126.501s-96.167 -63.667 -154.5 -84s-124.166 -30.5 -197.499 -30.5zM663.998 238c39.333 0 74.8281 8.49902 106.495 25.499s60 39.5 85 67.5s46.5 59.833 64.5 95.5
s32.833 72.5 44.5 110.5s20.334 75.333 26.001 112s8.5 69.667 8.5 99c0 36.667 -1.66699 74.5 -5 113.5s-9.5 77 -18.5 114s-21.167 72 -36.5 105s-35.166 62 -59.499 87s-53.5 44.833 -87.5 59.5s-74 22 -120 22c-43.333 0 -81.666 -8 -114.999 -24
s-62.333 -37.167 -87 -63.5s-45.167 -57 -61.5 -92s-29.333 -71.333 -39 -109s-16.667 -75.667 -21 -114s-6.5 -74.166 -6.5 -107.499c0 -30 2.83301 -63 8.5 -99s14.334 -72.667 26.001 -110s26.334 -73.5 44.001 -108.5s38.5 -66 62.5 -93s51 -48.833 81 -65.5
s63.333 -25 100 -25zM677.993 1579h-176l139 315h279z" />
    <glyph glyph-name="Ocircumflex" unicode="&#xd4;" horiz-adv-x="1341" 
d="M670 -23c-73.333 0 -139.168 10 -197.501 30s-109.5 47.833 -153.5 83.5s-81.667 77.667 -113 126s-57 100.833 -77 157.5s-34.5 116.334 -43.5 179.001s-13.5 126 -13.5 190c0 64.667 4.5 128.667 13.5 192s23.333 123.166 43 179.499s45.167 108.5 76.5 156.5
s69.166 89.5 113.499 124.5s95.833 62.333 154.5 82s125 29.5 199 29.5c72.667 0 137.834 -9.66699 195.501 -29s108.667 -46 153 -80s82.333 -74.667 114 -122s57.5 -99.166 77.5 -155.499s34.667 -116 44 -179s14 -127.5 14 -193.5c0 -64 -4.66699 -127.667 -14 -191
s-23.833 -123.5 -43.5 -180.5s-45.167 -109.833 -76.5 -158.5s-69.333 -90.834 -114 -126.501s-96.167 -63.667 -154.5 -84s-124.166 -30.5 -197.499 -30.5zM663.998 238c39.333 0 74.8281 8.49902 106.495 25.499s60 39.5 85 67.5s46.5 59.833 64.5 95.5
s32.833 72.5 44.5 110.5s20.334 75.333 26.001 112s8.5 69.667 8.5 99c0 36.667 -1.66699 74.5 -5 113.5s-9.5 77 -18.5 114s-21.167 72 -36.5 105s-35.166 62 -59.499 87s-53.5 44.833 -87.5 59.5s-74 22 -120 22c-43.333 0 -81.666 -8 -114.999 -24
s-62.333 -37.167 -87 -63.5s-45.167 -57 -61.5 -92s-29.333 -71.333 -39 -109s-16.667 -75.667 -21 -114s-6.5 -74.166 -6.5 -107.499c0 -30 2.83301 -63 8.5 -99s14.334 -72.667 26.001 -110s26.334 -73.5 44.001 -108.5s38.5 -66 62.5 -93s51 -48.833 81 -65.5
s63.333 -25 100 -25zM792.993 1583l-121 184l-121 -184h-211l205 315h266l190 -315h-208z" />
    <glyph glyph-name="Otilde" unicode="&#xd5;" horiz-adv-x="1341" 
d="M670 -23c-73.333 0 -139.168 10 -197.501 30s-109.5 47.833 -153.5 83.5s-81.667 77.667 -113 126s-57 100.833 -77 157.5s-34.5 116.334 -43.5 179.001s-13.5 126 -13.5 190c0 64.667 4.5 128.667 13.5 192s23.333 123.166 43 179.499s45.167 108.5 76.5 156.5
s69.166 89.5 113.499 124.5s95.833 62.333 154.5 82s125 29.5 199 29.5c72.667 0 137.834 -9.66699 195.501 -29s108.667 -46 153 -80s82.333 -74.667 114 -122s57.5 -99.166 77.5 -155.499s34.667 -116 44 -179s14 -127.5 14 -193.5c0 -64 -4.66699 -127.667 -14 -191
s-23.833 -123.5 -43.5 -180.5s-45.167 -109.833 -76.5 -158.5s-69.333 -90.834 -114 -126.501s-96.167 -63.667 -154.5 -84s-124.166 -30.5 -197.499 -30.5zM663.998 238c39.333 0 74.8281 8.49902 106.495 25.499s60 39.5 85 67.5s46.5 59.833 64.5 95.5
s32.833 72.5 44.5 110.5s20.334 75.333 26.001 112s8.5 69.667 8.5 99c0 36.667 -1.66699 74.5 -5 113.5s-9.5 77 -18.5 114s-21.167 72 -36.5 105s-35.166 62 -59.499 87s-53.5 44.833 -87.5 59.5s-74 22 -120 22c-43.333 0 -81.666 -8 -114.999 -24
s-62.333 -37.167 -87 -63.5s-45.167 -57 -61.5 -92s-29.333 -71.333 -39 -109s-16.667 -75.667 -21 -114s-6.5 -74.166 -6.5 -107.499c0 -30 2.83301 -63 8.5 -99s14.334 -72.667 26.001 -110s26.334 -73.5 44.001 -108.5s38.5 -66 62.5 -93s51 -48.833 81 -65.5
s63.333 -25 100 -25zM347.993 1634c0.666992 28 3.49805 55.834 8.49805 83.501s14 52.5 27 74.5s31.167 39.833 54.5 53.5s54 20.5 92 20.5c22.667 0 44.834 -3 66.501 -9s43.5 -12.667 65.5 -20s44.5 -14 67.5 -20s46.833 -9 71.5 -9c23.333 0 41.333 6.16699 54 18.5
s22.667 28.833 30 49.5h106c-1.33301 -29.333 -4.83301 -58.333 -10.5 -87s-15.834 -54.5 -30.501 -77.5s-35 -41.667 -61 -56s-60.333 -21.5 -103 -21.5c-16 0 -34.667 3.5 -56 10.5l-66.5 22.5c-23 8 -46 15.5 -69 22.5s-44.5 10.5 -64.5 10.5
c-17.333 0 -31.666 -6.33301 -42.999 -19s-20.666 -28.334 -27.999 -47.001h-111z" />
    <glyph glyph-name="Odieresis" unicode="&#xd6;" horiz-adv-x="1341" 
d="M670 -23c-73.333 0 -139.168 10 -197.501 30s-109.5 47.833 -153.5 83.5s-81.667 77.667 -113 126s-57 100.833 -77 157.5s-34.5 116.334 -43.5 179.001s-13.5 126 -13.5 190c0 64.667 4.5 128.667 13.5 192s23.333 123.166 43 179.499s45.167 108.5 76.5 156.5
s69.166 89.5 113.499 124.5s95.833 62.333 154.5 82s125 29.5 199 29.5c72.667 0 137.834 -9.66699 195.501 -29s108.667 -46 153 -80s82.333 -74.667 114 -122s57.5 -99.166 77.5 -155.499s34.667 -116 44 -179s14 -127.5 14 -193.5c0 -64 -4.66699 -127.667 -14 -191
s-23.833 -123.5 -43.5 -180.5s-45.167 -109.833 -76.5 -158.5s-69.333 -90.834 -114 -126.501s-96.167 -63.667 -154.5 -84s-124.166 -30.5 -197.499 -30.5zM663.998 238c39.333 0 74.8281 8.49902 106.495 25.499s60 39.5 85 67.5s46.5 59.833 64.5 95.5
s32.833 72.5 44.5 110.5s20.334 75.333 26.001 112s8.5 69.667 8.5 99c0 36.667 -1.66699 74.5 -5 113.5s-9.5 77 -18.5 114s-21.167 72 -36.5 105s-35.166 62 -59.499 87s-53.5 44.833 -87.5 59.5s-74 22 -120 22c-43.333 0 -81.666 -8 -114.999 -24
s-62.333 -37.167 -87 -63.5s-45.167 -57 -61.5 -92s-29.333 -71.333 -39 -109s-16.667 -75.667 -21 -114s-6.5 -74.166 -6.5 -107.499c0 -30 2.83301 -63 8.5 -99s14.334 -72.667 26.001 -110s26.334 -73.5 44.001 -108.5s38.5 -66 62.5 -93s51 -48.833 81 -65.5
s63.333 -25 100 -25zM310.993 1741c0 20.667 4.00293 40.333 12.0029 59s19 35 33 49s30.333 25 49 33s38.667 12 60 12s41.666 -4 60.999 -12s36.166 -19 50.499 -33s25.666 -30.333 33.999 -49s12.5 -38.334 12.5 -59.001c0 -21.333 -4.16699 -41.333 -12.5 -60
s-19.5 -35.167 -33.5 -49.5s-30.5 -25.666 -49.5 -33.999s-39.167 -12.5 -60.5 -12.5s-41.333 4.16699 -60 12.5s-35 19.5 -49 33.5s-25 30.5 -33 49.5s-12 39.167 -12 60.5h-2zM716.996 1741c0 20.667 4.00293 40.333 12.0029 59s19 35 33 49s30.167 25 48.5 33
s38.166 12 59.499 12s41.666 -4 60.999 -12s36.166 -19 50.499 -33s25.666 -30.333 33.999 -49s12.5 -38.334 12.5 -59.001c0 -21.333 -4.16699 -41.333 -12.5 -60s-19.5 -35.167 -33.5 -49.5s-30.5 -25.666 -49.5 -33.999s-39.167 -12.5 -60.5 -12.5
s-41.166 4.16699 -59.499 12.5s-34.5 19.5 -48.5 33.5s-25 30.5 -33 49.5s-12 39.167 -12 60.5h-2z" />
    <glyph glyph-name="multiply" unicode="&#xd7;" horiz-adv-x="1450" 
d="M1135 29l-404 399l-399 -399l-127 125l401 399l-401 401l127 125l399 -399l404 399l127 -125l-404 -401l404 -399z" />
    <glyph glyph-name="Oslash" unicode="&#xd8;" horiz-adv-x="1341" 
d="M1128 1282c25.333 -35.333 47.001 -73.666 65.001 -114.999s32.667 -84.666 44 -129.999s19.666 -92.333 24.999 -141s8 -98 8 -148c0 -64 -4.66699 -127.667 -14 -191s-23.833 -123.5 -43.5 -180.5s-45.167 -109.833 -76.5 -158.5s-69.333 -90.834 -114 -126.501
s-96.167 -63.667 -154.5 -84s-124.166 -30.5 -197.499 -30.5c-83.333 0 -156.833 13 -220.5 39s-118.5 61 -164.5 105l-95 -131l-98 71l113 156c-23.333 36 -43.5 74.5 -60.5 115.5s-30.833 84 -41.5 129s-18.5 91.167 -23.5 138.5s-7.5 95 -7.5 143
c0 64.667 4.5 128.667 13.5 192s23.333 123.166 43 179.499s45.167 108.5 76.5 156.5s69.166 89.5 113.499 124.5s95.833 62.333 154.5 82s125 29.5 199 29.5c80 0 151 -11.5 213 -34.5s116 -55.167 162 -96.5l98 135l98 -71zM889.001 1157
c-24.667 28.667 -54.6689 51.167 -90.002 67.5s-77.666 24.5 -126.999 24.5c-43.333 0 -81.666 -8 -114.999 -24s-62.333 -37.167 -87 -63.5s-45.167 -57 -61.5 -92s-29.333 -71.333 -39 -109s-16.667 -75.667 -21 -114s-6.5 -74.166 -6.5 -107.499
c0 -36.667 4.5 -77.834 13.5 -123.501s22.167 -91.167 39.5 -136.5l494 678v0zM998.999 748c0 48 -3.16895 97.833 -9.50195 149.5s-18.166 100.5 -35.499 146.5l-495 -684c25.333 -36 55 -65.333 89 -88s72.667 -34 116 -34c39.333 0 74.833 8.5 106.5 25.5
s60 39.5 85 67.5s46.5 59.833 64.5 95.5s32.833 72.5 44.5 110.5s20.334 75.333 26.001 112s8.5 69.667 8.5 99z" />
    <glyph glyph-name="Ugrave" unicode="&#xd9;" horiz-adv-x="1253" 
d="M383 1485l0.00195312 -969c0 -41.333 4 -79.666 12 -114.999s21.5 -65.833 40.5 -91.5s44.167 -45.834 75.5 -60.501s70 -22 116 -22c48.667 0 88.667 7.33301 120 22s56.166 35 74.499 61s31 57 38 93s10.5 75.667 10.5 119v963h267v-967
c0 -86.667 -9.5 -163.5 -28.5 -230.5s-49 -123.5 -90 -169.5s-93.833 -81 -158.5 -105s-142.334 -36 -233.001 -36c-174 0 -302.5 45 -385.5 135s-124.5 220.667 -124.5 392v981h266zM659.002 1591l-241 303h278l140 -303h-177z" />
    <glyph glyph-name="Uacute" unicode="&#xda;" horiz-adv-x="1253" 
d="M383 1485l0.00195312 -969c0 -41.333 4 -79.666 12 -114.999s21.5 -65.833 40.5 -91.5s44.167 -45.834 75.5 -60.501s70 -22 116 -22c48.667 0 88.667 7.33301 120 22s56.166 35 74.499 61s31 57 38 93s10.5 75.667 10.5 119v963h267v-967
c0 -86.667 -9.5 -163.5 -28.5 -230.5s-49 -123.5 -90 -169.5s-93.833 -81 -158.5 -105s-142.334 -36 -233.001 -36c-174 0 -302.5 45 -385.5 135s-124.5 220.667 -124.5 392v981h266zM635.002 1579h-176l139 315h279z" />
    <glyph glyph-name="Ucircumflex" unicode="&#xdb;" horiz-adv-x="1253" 
d="M383 1485l0.00195312 -969c0 -41.333 4 -79.666 12 -114.999s21.5 -65.833 40.5 -91.5s44.167 -45.834 75.5 -60.501s70 -22 116 -22c48.667 0 88.667 7.33301 120 22s56.166 35 74.499 61s31 57 38 93s10.5 75.667 10.5 119v963h267v-967
c0 -86.667 -9.5 -163.5 -28.5 -230.5s-49 -123.5 -90 -169.5s-93.833 -81 -158.5 -105s-142.334 -36 -233.001 -36c-174 0 -302.5 45 -385.5 135s-124.5 220.667 -124.5 392v981h266zM748.002 1583l-121 184l-121 -184h-211l205 315h266l190 -315h-208z" />
    <glyph glyph-name="Udieresis" unicode="&#xdc;" horiz-adv-x="1253" 
d="M383 1485l0.00195312 -969c0 -41.333 4 -79.666 12 -114.999s21.5 -65.833 40.5 -91.5s44.167 -45.834 75.5 -60.501s70 -22 116 -22c48.667 0 88.667 7.33301 120 22s56.166 35 74.499 61s31 57 38 93s10.5 75.667 10.5 119v963h267v-967
c0 -86.667 -9.5 -163.5 -28.5 -230.5s-49 -123.5 -90 -169.5s-93.833 -81 -158.5 -105s-142.334 -36 -233.001 -36c-174 0 -302.5 45 -385.5 135s-124.5 220.667 -124.5 392v981h266zM268.002 1741c0 20.667 4.00293 40.333 12.0029 59s19 35 33 49s30.333 25 49 33
s38.667 12 60 12s41.666 -4 60.999 -12s36.166 -19 50.499 -33s25.666 -30.333 33.999 -49s12.5 -38.334 12.5 -59.001c0 -21.333 -4.16699 -41.333 -12.5 -60s-19.5 -35.167 -33.5 -49.5s-30.5 -25.666 -49.5 -33.999s-39.167 -12.5 -60.5 -12.5s-41.333 4.16699 -60 12.5
s-35 19.5 -49 33.5s-25 30.5 -33 49.5s-12 39.167 -12 60.5h-2zM674.005 1741c0 20.667 4.00293 40.333 12.0029 59s19 35 33 49s30.167 25 48.5 33s38.166 12 59.499 12s41.666 -4 60.999 -12s36.166 -19 50.499 -33s25.666 -30.333 33.999 -49s12.5 -38.334 12.5 -59.001
c0 -21.333 -4.16699 -41.333 -12.5 -60s-19.5 -35.167 -33.5 -49.5s-30.5 -25.666 -49.5 -33.999s-39.167 -12.5 -60.5 -12.5s-41.166 4.16699 -59.499 12.5s-34.5 19.5 -48.5 33.5s-25 30.5 -33 49.5s-12 39.167 -12 60.5h-2z" />
    <glyph glyph-name="Yacute" unicode="&#xdd;" horiz-adv-x="1120" 
d="M295 1485l37 -93.5l42 -107l44 -112.5l43 -110l98 -255l100 257l43 110l44 112.5l42 106.5l37 92h275l-103.5 -229l-108 -234.5l-104 -235c-33.667 -78.333 -64.5 -155.5 -92.5 -231.5c0 -15.333 -0.333008 -37.333 -1 -66s-1 -60.667 -1 -96
c0 -34.667 0.166992 -71.167 0.5 -109.5s0.5 -75.333 0.5 -111s0.166992 -68.667 0.5 -99s0.5 -54.833 0.5 -73.5h-266v393v162c-28 76 -58.667 153.167 -92 231.5l-103 235l-107.5 234.5l-103.5 229h275zM588 1579h-176l139 315h278z" />
    <glyph glyph-name="Thorn" unicode="&#xde;" horiz-adv-x="1176" 
d="M1130 764c0 -93.333 -18.5 -173.999 -55.5 -241.999s-96.167 -126 -177.5 -174c-31.333 -18.667 -68.833 -33 -112.5 -43s-89 -17.5 -136 -22.5s-93.667 -8 -140 -9s-87.5 -1.5 -123.5 -1.5v-272h-266v1489h266v-244h121c46 0 92.5 -0.5 139.5 -1.5
s93.167 -7.16699 138.5 -18.5c56.667 -14.667 106.667 -36 150 -64s79.5 -61.833 108.5 -101.5s50.833 -84.334 65.5 -134.001s22 -103.5 22 -161.5zM852 762.001c0 44 -7.16895 80.498 -21.502 109.498s-33.666 52.667 -57.999 71s-52.166 31.833 -83.499 40.5
s-64.333 14.834 -99 18.501s-69.667 5.33398 -105 5.00098s-68.666 -0.5 -99.999 -0.5v-146v-356h168c41.333 0 80.166 4.83301 116.499 14.5s68 25 95 46s48.333 47.833 64 80.5s23.5 71.667 23.5 117z" />
    <glyph glyph-name="germandbls" unicode="&#xdf;" horiz-adv-x="1200" 
d="M1155 322c0 -55.333 -10.1592 -104.331 -30.4922 -146.998s-47.833 -78.5 -82.5 -107.5s-75 -50.833 -121 -65.5s-95 -22 -147 -22c-56.667 0 -111 7.5 -163 22.5s-100.667 40.167 -146 75.5v231c36 -39.333 76.667 -71.333 122 -96s94.666 -37 147.999 -37
c20 0 39.833 3.33301 59.5 10s37.167 16.167 52.5 28.5s27.833 27.166 37.5 44.499s14.5 36.666 14.5 57.999c0 26 -6.33301 46.5 -19 61.5s-29.334 27.333 -50.001 37s-44.334 17.667 -71.001 24s-53.667 13.666 -81 21.999s-54.333 18.666 -81 30.999
s-50.334 29.333 -71.001 51s-37.334 49.334 -50.001 83.001s-19 75.5 -19 125.5c0 54.667 9 102.334 27 143.001s39.333 75 64 103s49.834 50.167 75.501 66.5s46.5 27.5 62.5 33.5c0.666992 30 -3 56.667 -11 80s-19.5 42.833 -34.5 58.5s-32.667 27.5 -53 35.5
s-42.833 12 -67.5 12c-34 0 -61.5 -5.83301 -82.5 -17.5s-37.333 -27.167 -49 -46.5s-19.334 -42 -23.001 -68s-5.5 -53 -5.5 -81v-1071h-249v1167c0 48 7.66699 92.667 23 134s38.333 77.166 69 107.499s68.5 54.333 113.5 72s97.167 26.5 156.5 26.5
c13.333 0 34.333 -1.16699 63 -3.5s60.334 -8.16602 95.001 -17.499s70.334 -23.333 107.001 -42s70.167 -44.667 100.5 -78s55.166 -75 74.499 -125s29 -110.667 29 -182c-78.667 -26.667 -138.667 -65.334 -180 -116.001s-62 -111 -62 -181
c0 -23.333 6.5 -42.5 19.5 -57.5s30.167 -28 51.5 -39s45.666 -20.667 72.999 -29s55.166 -17.666 83.499 -27.999s56.166 -22.5 83.499 -36.5s51.666 -32 72.999 -54s38.5 -48.833 51.5 -80.5s19.5 -70.167 19.5 -115.5z" />
    <glyph glyph-name="agrave" unicode="&#xe0;" horiz-adv-x="993" 
d="M901 672c0 -112 -0.330078 -224.005 -0.99707 -336.005s-1 -224 -1 -336h-233v150h-2c-35.333 -60.667 -77.333 -103.5 -126 -128.5s-107.334 -37.5 -176.001 -37.5c-40 0 -77.5 7 -112.5 21s-65.333 33.5 -91 58.5s-45.834 54.5 -60.501 88.5s-22 71.333 -22 112
c0 46.667 7.83301 86.334 23.5 119.001s36.167 60.334 61.5 83.001s54.333 41.334 87 56.001s66.167 27.334 100.5 38.001s67.833 20.167 100.5 28.5s61.667 17.333 87 27s45.833 21.334 61.5 35.001s23.5 30.834 23.5 51.501c0 56.667 -16.833 100.667 -50.5 132
s-77.834 47 -132.501 47c-27.333 0 -54.666 -4.16699 -81.999 -12.5s-54.166 -19.5 -80.499 -33.5s-51.333 -29.833 -75 -47.5s-44.834 -35.834 -63.501 -54.501v230c28 18 56.333 35.167 85 51.5s58 30.5 88 42.5s61 21.5 93 28.5s65 10.5 99 10.5
c66.667 0 125 -10 175 -30s91.667 -48.5 125 -85.5s58.166 -81.5 74.499 -133.5s24.5 -110.333 24.5 -175zM653.003 527.995c-9.33301 -8 -20 -14.5 -32 -19.5s-23.667 -10.5 -35 -16.5c-15.333 -8 -33.333 -15.667 -54 -23l-64 -23c-22 -8 -43.667 -16.833 -65 -26.5
s-40.5 -20.667 -57.5 -33s-30.667 -26.833 -41 -43.5s-15.5 -36 -15.5 -58c0 -43.333 13.167 -75.666 39.5 -96.999s60.166 -32 101.499 -32c34 0 63 5.66699 87 17s44.333 26.5 61 45.5s29.834 41 39.501 66s17.167 51.333 22.5 79s8.83301 55.667 10.5 84
s2.5 55.166 2.5 80.499zM528.003 1182l-241 303h278l140 -303h-177z" />
    <glyph glyph-name="aacute" unicode="&#xe1;" horiz-adv-x="993" 
d="M901 672c0 -112 -0.330078 -224.005 -0.99707 -336.005s-1 -224 -1 -336h-233v150h-2c-35.333 -60.667 -77.333 -103.5 -126 -128.5s-107.334 -37.5 -176.001 -37.5c-40 0 -77.5 7 -112.5 21s-65.333 33.5 -91 58.5s-45.834 54.5 -60.501 88.5s-22 71.333 -22 112
c0 46.667 7.83301 86.334 23.5 119.001s36.167 60.334 61.5 83.001s54.333 41.334 87 56.001s66.167 27.334 100.5 38.001s67.833 20.167 100.5 28.5s61.667 17.333 87 27s45.833 21.334 61.5 35.001s23.5 30.834 23.5 51.501c0 56.667 -16.833 100.667 -50.5 132
s-77.834 47 -132.501 47c-27.333 0 -54.666 -4.16699 -81.999 -12.5s-54.166 -19.5 -80.499 -33.5s-51.333 -29.833 -75 -47.5s-44.834 -35.834 -63.501 -54.501v230c28 18 56.333 35.167 85 51.5s58 30.5 88 42.5s61 21.5 93 28.5s65 10.5 99 10.5
c66.667 0 125 -10 175 -30s91.667 -48.5 125 -85.5s58.166 -81.5 74.499 -133.5s24.5 -110.333 24.5 -175zM653.003 527.995c-9.33301 -8 -20 -14.5 -32 -19.5s-23.667 -10.5 -35 -16.5c-15.333 -8 -33.333 -15.667 -54 -23l-64 -23c-22 -8 -43.667 -16.833 -65 -26.5
s-40.5 -20.667 -57.5 -33s-30.667 -26.833 -41 -43.5s-15.5 -36 -15.5 -58c0 -43.333 13.167 -75.666 39.5 -96.999s60.166 -32 101.499 -32c34 0 63 5.66699 87 17s44.333 26.5 61 45.5s29.834 41 39.501 66s17.167 51.333 22.5 79s8.83301 55.667 10.5 84
s2.5 55.166 2.5 80.499zM463.003 1169h-176l139 316h279z" />
    <glyph glyph-name="acircumflex" unicode="&#xe2;" horiz-adv-x="993" 
d="M901 672c0 -112 -0.330078 -224.005 -0.99707 -336.005s-1 -224 -1 -336h-233v150h-2c-35.333 -60.667 -77.333 -103.5 -126 -128.5s-107.334 -37.5 -176.001 -37.5c-40 0 -77.5 7 -112.5 21s-65.333 33.5 -91 58.5s-45.834 54.5 -60.501 88.5s-22 71.333 -22 112
c0 46.667 7.83301 86.334 23.5 119.001s36.167 60.334 61.5 83.001s54.333 41.334 87 56.001s66.167 27.334 100.5 38.001s67.833 20.167 100.5 28.5s61.667 17.333 87 27s45.833 21.334 61.5 35.001s23.5 30.834 23.5 51.501c0 56.667 -16.833 100.667 -50.5 132
s-77.834 47 -132.501 47c-27.333 0 -54.666 -4.16699 -81.999 -12.5s-54.166 -19.5 -80.499 -33.5s-51.333 -29.833 -75 -47.5s-44.834 -35.834 -63.501 -54.501v230c28 18 56.333 35.167 85 51.5s58 30.5 88 42.5s61 21.5 93 28.5s65 10.5 99 10.5
c66.667 0 125 -10 175 -30s91.667 -48.5 125 -85.5s58.166 -81.5 74.499 -133.5s24.5 -110.333 24.5 -175zM653.003 527.995c-9.33301 -8 -20 -14.5 -32 -19.5s-23.667 -10.5 -35 -16.5c-15.333 -8 -33.333 -15.667 -54 -23l-64 -23c-22 -8 -43.667 -16.833 -65 -26.5
s-40.5 -20.667 -57.5 -33s-30.667 -26.833 -41 -43.5s-15.5 -36 -15.5 -58c0 -43.333 13.167 -75.666 39.5 -96.999s60.166 -32 101.499 -32c34 0 63 5.66699 87 17s44.333 26.5 61 45.5s29.834 41 39.501 66s17.167 51.333 22.5 79s8.83301 55.667 10.5 84
s2.5 55.166 2.5 80.499zM618.003 1174l-120 184l-121 -184h-211l205 315h266l190 -315h-209z" />
    <glyph glyph-name="atilde" unicode="&#xe3;" horiz-adv-x="993" 
d="M901 672c0 -112 -0.330078 -224.005 -0.99707 -336.005s-1 -224 -1 -336h-233v150h-2c-35.333 -60.667 -77.333 -103.5 -126 -128.5s-107.334 -37.5 -176.001 -37.5c-40 0 -77.5 7 -112.5 21s-65.333 33.5 -91 58.5s-45.834 54.5 -60.501 88.5s-22 71.333 -22 112
c0 46.667 7.83301 86.334 23.5 119.001s36.167 60.334 61.5 83.001s54.333 41.334 87 56.001s66.167 27.334 100.5 38.001s67.833 20.167 100.5 28.5s61.667 17.333 87 27s45.833 21.334 61.5 35.001s23.5 30.834 23.5 51.501c0 56.667 -16.833 100.667 -50.5 132
s-77.834 47 -132.501 47c-27.333 0 -54.666 -4.16699 -81.999 -12.5s-54.166 -19.5 -80.499 -33.5s-51.333 -29.833 -75 -47.5s-44.834 -35.834 -63.501 -54.501v230c28 18 56.333 35.167 85 51.5s58 30.5 88 42.5s61 21.5 93 28.5s65 10.5 99 10.5
c66.667 0 125 -10 175 -30s91.667 -48.5 125 -85.5s58.166 -81.5 74.499 -133.5s24.5 -110.333 24.5 -175zM653.003 527.995c-9.33301 -8 -20 -14.5 -32 -19.5s-23.667 -10.5 -35 -16.5c-15.333 -8 -33.333 -15.667 -54 -23l-64 -23c-22 -8 -43.667 -16.833 -65 -26.5
s-40.5 -20.667 -57.5 -33s-30.667 -26.833 -41 -43.5s-15.5 -36 -15.5 -58c0 -43.333 13.167 -75.666 39.5 -96.999s60.166 -32 101.499 -32c34 0 63 5.66699 87 17s44.333 26.5 61 45.5s29.834 41 39.501 66s17.167 51.333 22.5 79s8.83301 55.667 10.5 84
s2.5 55.166 2.5 80.499zM174.003 1225c0.666992 27.333 3.49805 54.834 8.49805 82.501s14 52.5 27 74.5s31.167 39.833 54.5 53.5s54 20.5 92 20.5c22.667 0 44.834 -3 66.501 -9s43.5 -12.5 65.5 -19.5s44.5 -13.5 67.5 -19.5s46.833 -9 71.5 -9c23.333 0 41.333 6 54 18
s22.667 28.333 30 49h106c-1.33301 -29.333 -4.83301 -58.333 -10.5 -87s-15.834 -54.334 -30.501 -77.001s-35 -41.167 -61 -55.5s-60.333 -21.5 -103 -21.5c-16 0 -34.667 3.33301 -56 10s-43.5 14.167 -66.5 22.5s-46 15.833 -69 22.5s-44.5 10 -64.5 10
c-17.333 0 -31.666 -6.16699 -42.999 -18.5s-20.666 -27.833 -27.999 -46.5h-111z" />
    <glyph glyph-name="adieresis" unicode="&#xe4;" horiz-adv-x="993" 
d="M901 672c0 -112 -0.330078 -224.005 -0.99707 -336.005s-1 -224 -1 -336h-233v150h-2c-35.333 -60.667 -77.333 -103.5 -126 -128.5s-107.334 -37.5 -176.001 -37.5c-40 0 -77.5 7 -112.5 21s-65.333 33.5 -91 58.5s-45.834 54.5 -60.501 88.5s-22 71.333 -22 112
c0 46.667 7.83301 86.334 23.5 119.001s36.167 60.334 61.5 83.001s54.333 41.334 87 56.001s66.167 27.334 100.5 38.001s67.833 20.167 100.5 28.5s61.667 17.333 87 27s45.833 21.334 61.5 35.001s23.5 30.834 23.5 51.501c0 56.667 -16.833 100.667 -50.5 132
s-77.834 47 -132.501 47c-27.333 0 -54.666 -4.16699 -81.999 -12.5s-54.166 -19.5 -80.499 -33.5s-51.333 -29.833 -75 -47.5s-44.834 -35.834 -63.501 -54.501v230c28 18 56.333 35.167 85 51.5s58 30.5 88 42.5s61 21.5 93 28.5s65 10.5 99 10.5
c66.667 0 125 -10 175 -30s91.667 -48.5 125 -85.5s58.166 -81.5 74.499 -133.5s24.5 -110.333 24.5 -175zM653.003 527.995c-9.33301 -8 -20 -14.5 -32 -19.5s-23.667 -10.5 -35 -16.5c-15.333 -8 -33.333 -15.667 -54 -23l-64 -23c-22 -8 -43.667 -16.833 -65 -26.5
s-40.5 -20.667 -57.5 -33s-30.667 -26.833 -41 -43.5s-15.5 -36 -15.5 -58c0 -43.333 13.167 -75.666 39.5 -96.999s60.166 -32 101.499 -32c34 0 63 5.66699 87 17s44.333 26.5 61 45.5s29.834 41 39.501 66s17.167 51.333 22.5 79s8.83301 55.667 10.5 84
s2.5 55.166 2.5 80.499zM137.003 1331c0 20.667 4.00293 40.334 12.0029 59.001s19 35 33 49s30.333 25.167 49 33.5s38.667 12.5 60 12.5s41.666 -4.16699 60.999 -12.5s36.166 -19.5 50.499 -33.5s25.666 -30.333 33.999 -49s12.5 -38.334 12.5 -59.001
c0 -21.333 -4.16699 -41.333 -12.5 -60s-19.5 -35 -33.5 -49s-30.5 -25.167 -49.5 -33.5s-39.167 -12.5 -60.5 -12.5s-41.333 4 -60 12s-35 19 -49 33s-25 30.5 -33 49.5s-12 39.167 -12 60.5h-2zM543.006 1331c0 20.667 4.00293 40.334 12.0029 59.001s19 35 33 49
s30.167 25.167 48.5 33.5s38.166 12.5 59.499 12.5s41.666 -4.16699 60.999 -12.5s36.166 -19.5 50.499 -33.5s25.666 -30.333 33.999 -49s12.5 -38.334 12.5 -59.001c0 -21.333 -4.16699 -41.333 -12.5 -60s-19.5 -35 -33.5 -49s-30.5 -25.167 -49.5 -33.5
s-39.167 -12.5 -60.5 -12.5s-41.166 4 -59.499 12s-34.5 19 -48.5 33s-25 30.5 -33 49.5s-12 39.167 -12 60.5h-2z" />
    <glyph glyph-name="aring" unicode="&#xe5;" horiz-adv-x="993" 
d="M901 672c0 -112 -0.330078 -224.005 -0.99707 -336.005s-1 -224 -1 -336h-233v150h-2c-35.333 -60.667 -77.333 -103.5 -126 -128.5s-107.334 -37.5 -176.001 -37.5c-40 0 -77.5 7 -112.5 21s-65.333 33.5 -91 58.5s-45.834 54.5 -60.501 88.5s-22 71.333 -22 112
c0 46.667 7.83301 86.334 23.5 119.001s36.167 60.334 61.5 83.001s54.333 41.334 87 56.001s66.167 27.334 100.5 38.001s67.833 20.167 100.5 28.5s61.667 17.333 87 27s45.833 21.334 61.5 35.001s23.5 30.834 23.5 51.501c0 56.667 -16.833 100.667 -50.5 132
s-77.834 47 -132.501 47c-27.333 0 -54.666 -4.16699 -81.999 -12.5s-54.166 -19.5 -80.499 -33.5s-51.333 -29.833 -75 -47.5s-44.834 -35.834 -63.501 -54.501v230c28 18 56.333 35.167 85 51.5s58 30.5 88 42.5s61 21.5 93 28.5s65 10.5 99 10.5
c66.667 0 125 -10 175 -30s91.667 -48.5 125 -85.5s58.166 -81.5 74.499 -133.5s24.5 -110.333 24.5 -175zM653.003 527.995c-9.33301 -8 -20 -14.5 -32 -19.5s-23.667 -10.5 -35 -16.5c-15.333 -8 -33.333 -15.667 -54 -23l-64 -23c-22 -8 -43.667 -16.833 -65 -26.5
s-40.5 -20.667 -57.5 -33s-30.667 -26.833 -41 -43.5s-15.5 -36 -15.5 -58c0 -43.333 13.167 -75.666 39.5 -96.999s60.166 -32 101.499 -32c34 0 63 5.66699 87 17s44.333 26.5 61 45.5s29.834 41 39.501 66s17.167 51.333 22.5 79s8.83301 55.667 10.5 84
s2.5 55.166 2.5 80.499zM383.003 1331c0 -16 3.17188 -31.165 9.50488 -45.498s14.666 -26.833 24.999 -37.5s22.166 -19 35.499 -25s27 -9 41 -9c15.333 0 30 2.83301 44 8.5s26.5 13.667 37.5 24s19.833 22.666 26.5 36.999s10 30.166 10 47.499
c0 16.667 -3.16699 32.167 -9.5 46.5s-14.833 26.5 -25.5 36.5s-22.834 17.833 -36.501 23.5s-27.834 8.5 -42.501 8.5c-15.333 0 -29.833 -2.66699 -43.5 -8s-25.834 -12.833 -36.501 -22.5s-19.167 -21.667 -25.5 -36s-9.5 -30.5 -9.5 -48.5zM270.008 1331
c0 32.667 6.16504 63 18.498 91s28.666 52.167 48.999 72.5s44 36.166 71 47.499s55.5 17 85.5 17c29.333 0 57.833 -5.66699 85.5 -17s52.167 -27.166 73.5 -47.499s38.333 -44.5 51 -72.5s19 -58.333 19 -91c0 -32 -6.16699 -61.833 -18.5 -89.5
s-28.833 -51.667 -49.5 -72s-44.667 -36.333 -72 -48s-55.666 -17.5 -84.999 -17.5s-57.666 5.66699 -84.999 17s-51.666 27.166 -72.999 47.499s-38.333 44.333 -51 72s-19 57.834 -19 90.501z" />
    <glyph glyph-name="ae" unicode="&#xe6;" horiz-adv-x="1593" 
d="M899 0l-232.997 -0.00683594v150h-2c-35.333 -60.667 -77.333 -103.5 -126 -128.5s-107.334 -37.5 -176.001 -37.5c-40 0 -77.5 7 -112.5 21s-65.333 33.5 -91 58.5s-45.834 54.5 -60.501 88.5s-22 71.333 -22 112c0 46.667 7.83301 86.334 23.5 119.001
s36.167 60.334 61.5 83.001s54.333 41.334 87 56.001s66.167 27.334 100.5 38.001s67.833 20.167 100.5 28.5s61.667 17.333 87 27s45.833 21.334 61.5 35.001s23.5 30.834 23.5 51.501c0 56.667 -16.833 100.667 -50.5 132s-77.834 47 -132.501 47
c-27.333 0 -54.666 -4.16699 -81.999 -12.5s-54.166 -19.5 -80.499 -33.5s-51.333 -29.833 -75 -47.5s-44.834 -35.834 -63.501 -54.501v230c28 18 56.333 35.167 85 51.5s58 30.5 88 42.5s61 21.5 93 28.5s65 10.5 99 10.5c68.667 0 128.334 -10.333 179.001 -31
s92.667 -50.667 126 -90c36 36 80 64.167 132 84.5s113 30.5 183 30.5c64.667 0 123.167 -11 175.5 -33s97 -53.833 134 -95.5s65.333 -92.667 85 -153s29.5 -129.166 29.5 -206.499c0 -8 -0.166992 -16.667 -0.5 -26l-1 -29c-0.333008 -10 -1 -19.833 -2 -29.5
s-1.83301 -18.167 -2.5 -25.5c-107.333 0 -213.833 0.333008 -319.5 1s-211.5 1 -317.5 1c0 -44 4.5 -84.667 13.5 -122s23.5 -69.5 43.5 -96.5s46.5 -48 79.5 -63s73.5 -22.5 121.5 -22.5c66.667 0 126.167 14.167 178.5 42.5s100.166 65.5 143.499 111.5v-244
c-28 -25.333 -57 -45.666 -87 -60.999s-60.667 -27.5 -92 -36.5s-63 -15 -95 -18s-63.667 -4.5 -95 -4.5c-43.333 0 -82.833 3.83301 -118.5 11.5s-67.834 18.167 -96.501 31.5v-23zM1333 638.993c-0.666992 30 -4.16797 58.668 -10.501 86.001
s-16.666 51.666 -30.999 72.999s-33 38.333 -56 51s-51.167 19 -84.5 19c-72 0 -129.5 -20.5 -172.5 -61.5s-68.167 -97.5 -75.5 -169.5c72.667 0 144.5 0.333008 215.5 1s142.5 1 214.5 1zM653.002 527.994c-9.33301 -8 -20 -14.5 -32 -19.5s-23.667 -10.5 -35 -16.5
c-15.333 -8 -33.333 -15.667 -54 -23l-64 -23c-22 -8 -43.667 -16.833 -65 -26.5s-40.5 -20.667 -57.5 -33s-30.667 -26.833 -41 -43.5s-15.5 -36 -15.5 -58c0 -43.333 13.167 -75.666 39.5 -96.999s60.166 -32 101.499 -32c34 0 63 5.66699 87 17s44.333 26.5 61 45.5
s29.834 41 39.501 66s17.167 51.333 22.5 79s8.83301 55.667 10.5 84s2.5 55.166 2.5 80.499z" />
    <glyph glyph-name="ccedilla" unicode="&#xe7;" horiz-adv-x="850" 
d="M332 -221c14 -1.33301 27.8398 -3.33887 41.5068 -6.00586s27.834 -4 42.501 -4c14 0 27.333 2.83301 40 8.5s19 17.167 19 34.5c0 8.66699 -3.16699 15.167 -9.5 19.5s-13.666 7 -21.999 8s-17 1.33301 -26 1s-16.5 -0.5 -22.5 -0.5l25.5 69.5l28.5 72.5
c-46.667 4 -88.5 15 -125.5 33s-69.667 40.667 -98 68s-52.5 59 -72.5 95s-36.5 74 -49.5 114s-22.5 81.5 -28.5 124.5s-9 85.833 -9 128.5c0 76 9.16699 147 27.5 213s46.666 123.167 84.999 171.5s87.166 86.333 146.499 114s130 41.5 212 41.5
c49.333 0 96.333 -8.33301 141 -25s85.667 -41.667 123 -75v-258c-28 41.333 -61.667 73.166 -101 95.499s-84.333 33.5 -135 33.5c-46.667 0 -85.834 -9.66699 -117.501 -29s-57.334 -44.5 -77.001 -75.5s-33.834 -66 -42.501 -105s-13 -78.5 -13 -118.5
c0 -39.333 4.5 -78.166 13.5 -116.499s23.333 -72.666 43 -102.999s45.167 -54.833 76.5 -73.5s69.666 -28 114.999 -28c22 0 44.833 3.83301 68.5 11.5s46.334 17.834 68.001 30.501s41.5 27.334 59.5 44.001s32.667 34.334 44 53.001v-256
c-35.333 -34 -75 -59.167 -119 -75.5s-89.667 -26.5 -137 -30.5l-15 -56c17.333 -7.33301 33.666 -14.833 48.999 -22.5s28.666 -16.167 39.999 -25.5s20.166 -20.5 26.499 -33.5s9.5 -28.833 9.5 -47.5c0 -30 -6 -54.5 -18 -73.5s-27.833 -34.167 -47.5 -45.5
s-41.834 -19.166 -66.501 -23.499s-49.667 -6.16602 -75 -5.49902s-50 3 -74 7s-45 8.66699 -63 14z" />
    <glyph glyph-name="egrave" unicode="&#xe8;" horiz-adv-x="1014" 
d="M899 100c-28 -25.333 -57 -45.6689 -87 -61.002s-60.667 -27.5 -92 -36.5s-63 -15 -95 -18s-63.667 -4.5 -95 -4.5c-87.333 0 -160.5 14.667 -219.5 44s-106.5 69.333 -142.5 120s-61.667 109.834 -77 177.501s-23 140.167 -23 217.5c0 76 8.83301 147.333 26.5 214
s45.5 125 83.5 175s86.833 89.5 146.5 118.5s131.167 43.5 214.5 43.5c64.667 0 123.167 -11 175.5 -33s97 -53.833 134 -95.5s65.333 -92.667 85 -153s29.5 -129.166 29.5 -206.499c0 -8 -0.166992 -16.667 -0.5 -26l-1 -29c-0.333008 -10 -1 -19.833 -2 -29.5
s-2.16699 -18.167 -3.5 -25.5c-107.333 0 -213.833 0.333008 -319.5 1s-211.5 1 -317.5 1c0 -44 4.5 -84.667 13.5 -122s23.667 -69.5 44 -96.5s47 -48 80 -63s73.5 -22.5 121.5 -22.5c66.667 0 126 14.167 178 42.5s99.667 65.5 143 111.5v-244v0zM750 638.997
c-0.666992 30 -4.33301 58.668 -11 86.001s-17.167 51.666 -31.5 72.999s-33 38.333 -56 51s-51.167 19 -84.5 19c-72 0 -129.5 -20.5 -172.5 -61.5s-68.167 -97.5 -75.5 -169.5c72.667 0 144.5 0.333008 215.5 1s142.833 1 215.5 1zM539.001 1182l-242 303h278l140 -303
h-176z" />
    <glyph glyph-name="eacute" unicode="&#xe9;" horiz-adv-x="1014" 
d="M899 100c-28 -25.333 -57 -45.6689 -87 -61.002s-60.667 -27.5 -92 -36.5s-63 -15 -95 -18s-63.667 -4.5 -95 -4.5c-87.333 0 -160.5 14.667 -219.5 44s-106.5 69.333 -142.5 120s-61.667 109.834 -77 177.501s-23 140.167 -23 217.5c0 76 8.83301 147.333 26.5 214
s45.5 125 83.5 175s86.833 89.5 146.5 118.5s131.167 43.5 214.5 43.5c64.667 0 123.167 -11 175.5 -33s97 -53.833 134 -95.5s65.333 -92.667 85 -153s29.5 -129.166 29.5 -206.499c0 -8 -0.166992 -16.667 -0.5 -26l-1 -29c-0.333008 -10 -1 -19.833 -2 -29.5
s-2.16699 -18.167 -3.5 -25.5c-107.333 0 -213.833 0.333008 -319.5 1s-211.5 1 -317.5 1c0 -44 4.5 -84.667 13.5 -122s23.667 -69.5 44 -96.5s47 -48 80 -63s73.5 -22.5 121.5 -22.5c66.667 0 126 14.167 178 42.5s99.667 65.5 143 111.5v-244v0zM750 638.997
c-0.666992 30 -4.33301 58.668 -11 86.001s-17.167 51.666 -31.5 72.999s-33 38.333 -56 51s-51.167 19 -84.5 19c-72 0 -129.5 -20.5 -172.5 -61.5s-68.167 -97.5 -75.5 -169.5c72.667 0 144.5 0.333008 215.5 1s142.833 1 215.5 1zM535.001 1169h-177l140 316h278z" />
    <glyph glyph-name="ecircumflex" unicode="&#xea;" horiz-adv-x="1014" 
d="M899 100c-28 -25.333 -57 -45.6689 -87 -61.002s-60.667 -27.5 -92 -36.5s-63 -15 -95 -18s-63.667 -4.5 -95 -4.5c-87.333 0 -160.5 14.667 -219.5 44s-106.5 69.333 -142.5 120s-61.667 109.834 -77 177.501s-23 140.167 -23 217.5c0 76 8.83301 147.333 26.5 214
s45.5 125 83.5 175s86.833 89.5 146.5 118.5s131.167 43.5 214.5 43.5c64.667 0 123.167 -11 175.5 -33s97 -53.833 134 -95.5s65.333 -92.667 85 -153s29.5 -129.166 29.5 -206.499c0 -8 -0.166992 -16.667 -0.5 -26l-1 -29c-0.333008 -10 -1 -19.833 -2 -29.5
s-2.16699 -18.167 -3.5 -25.5c-107.333 0 -213.833 0.333008 -319.5 1s-211.5 1 -317.5 1c0 -44 4.5 -84.667 13.5 -122s23.667 -69.5 44 -96.5s47 -48 80 -63s73.5 -22.5 121.5 -22.5c66.667 0 126 14.167 178 42.5s99.667 65.5 143 111.5v-244v0zM750 638.997
c-0.666992 30 -4.33301 58.668 -11 86.001s-17.167 51.666 -31.5 72.999s-33 38.333 -56 51s-51.167 19 -84.5 19c-72 0 -129.5 -20.5 -172.5 -61.5s-68.167 -97.5 -75.5 -169.5c72.667 0 144.5 0.333008 215.5 1s142.833 1 215.5 1zM629.001 1174l-121 184l-121 -184h-211
l205 315h266l191 -315h-209z" />
    <glyph glyph-name="edieresis" unicode="&#xeb;" horiz-adv-x="1014" 
d="M899 100c-28 -25.333 -57 -45.6689 -87 -61.002s-60.667 -27.5 -92 -36.5s-63 -15 -95 -18s-63.667 -4.5 -95 -4.5c-87.333 0 -160.5 14.667 -219.5 44s-106.5 69.333 -142.5 120s-61.667 109.834 -77 177.501s-23 140.167 -23 217.5c0 76 8.83301 147.333 26.5 214
s45.5 125 83.5 175s86.833 89.5 146.5 118.5s131.167 43.5 214.5 43.5c64.667 0 123.167 -11 175.5 -33s97 -53.833 134 -95.5s65.333 -92.667 85 -153s29.5 -129.166 29.5 -206.499c0 -8 -0.166992 -16.667 -0.5 -26l-1 -29c-0.333008 -10 -1 -19.833 -2 -29.5
s-2.16699 -18.167 -3.5 -25.5c-107.333 0 -213.833 0.333008 -319.5 1s-211.5 1 -317.5 1c0 -44 4.5 -84.667 13.5 -122s23.667 -69.5 44 -96.5s47 -48 80 -63s73.5 -22.5 121.5 -22.5c66.667 0 126 14.167 178 42.5s99.667 65.5 143 111.5v-244v0zM750 638.997
c-0.666992 30 -4.33301 58.668 -11 86.001s-17.167 51.666 -31.5 72.999s-33 38.333 -56 51s-51.167 19 -84.5 19c-72 0 -129.5 -20.5 -172.5 -61.5s-68.167 -97.5 -75.5 -169.5c72.667 0 144.5 0.333008 215.5 1s142.833 1 215.5 1zM147.001 1331
c0 20.667 4.00195 40.334 12.002 59.001s19 35 33 49s30.333 25.167 49 33.5s38.667 12.5 60 12.5s41.666 -4.16699 60.999 -12.5s36.166 -19.5 50.499 -33.5s25.666 -30.333 33.999 -49s12.5 -38.334 12.5 -59.001c0 -21.333 -4.16699 -41.333 -12.5 -60
s-19.5 -35 -33.5 -49s-30.5 -25.167 -49.5 -33.5s-39.167 -12.5 -60.5 -12.5s-41.166 4 -59.499 12s-34.5 19 -48.5 33s-25 30.5 -33 49.5s-12 39.167 -12 60.5h-3zM553.003 1331c0 20.667 4.00098 40.334 12.001 59.001s19 35 33 49s30.333 25.167 49 33.5
s38.667 12.5 60 12.5s41.5 -4.16699 60.5 -12.5s35.667 -19.5 50 -33.5s25.666 -30.333 33.999 -49s12.5 -38.334 12.5 -59.001c0 -21.333 -4 -41.333 -12 -60s-19 -35 -33 -49s-30.5 -25.167 -49.5 -33.5s-39.167 -12.5 -60.5 -12.5s-41.333 4 -60 12s-35 19 -49 33
s-25 30.5 -33 49.5s-12 39.167 -12 60.5h-2z" />
    <glyph glyph-name="igrave" unicode="&#xec;" horiz-adv-x="457" 
d="M102 0v1071h252v-1071h-252zM262 1182l-242 303h279l139 -303h-176z" />
    <glyph glyph-name="iacute" unicode="&#xed;" horiz-adv-x="457" 
d="M102 0v1071h252v-1071h-252zM197 1169h-177l140 316h278z" />
    <glyph glyph-name="icircumflex" unicode="&#xee;" horiz-adv-x="457" 
d="M102 0v1071h252v-1071h-252zM350 1174l-121 184l-120 -184h-211l204 315h267l190 -315h-209z" />
    <glyph glyph-name="idieresis" unicode="&#xef;" horiz-adv-x="457" 
d="M102 0v1071h252v-1071h-252zM-129 1331c0 20.667 4.00098 40.334 12.001 59.001s19 35 33 49s30.333 25.167 49 33.5s38.667 12.5 60 12.5s41.5 -4.16699 60.5 -12.5s35.667 -19.5 50 -33.5s25.666 -30.333 33.999 -49s12.5 -38.334 12.5 -59.001
c0 -21.333 -4 -41.333 -12 -60s-19 -35 -33 -49s-30.5 -25.167 -49.5 -33.5s-39.167 -12.5 -60.5 -12.5s-41.333 4 -60 12s-35 19 -49 33s-25 30.5 -33 49.5s-12 39.167 -12 60.5h-2zM276.001 1331c0 20.667 4.00195 40.334 12.002 59.001s19 35 33 49
s30.333 25.167 49 33.5s38.667 12.5 60 12.5s41.666 -4.16699 60.999 -12.5s36.166 -19.5 50.499 -33.5s25.666 -30.333 33.999 -49s12.5 -38.334 12.5 -59.001c0 -21.333 -4.16699 -41.333 -12.5 -60s-19.5 -35 -33.5 -49s-30.5 -25.167 -49.5 -33.5
s-39.167 -12.5 -60.5 -12.5s-41.166 4 -59.499 12s-34.5 19 -48.5 33s-25 30.5 -33 49.5s-12 39.167 -12 60.5h-3z" />
    <glyph glyph-name="eth" unicode="&#xf0;" horiz-adv-x="1112" 
d="M1051 543c0 -78.667 -9.66992 -152.166 -29.0029 -220.499s-49.166 -127.833 -89.499 -178.5s-91.5 -90.667 -153.5 -120s-135.333 -44 -220 -44c-85.333 0 -158.833 14.167 -220.5 42.5s-112.834 67.333 -153.501 117s-70.667 108.5 -90 176.5s-29 141.667 -29 221
c0 80 8.33301 153.833 25 221.5s43.834 126 81.501 175s86.334 87.333 146.001 115s132.5 41.5 218.5 41.5c11.333 0 28 -3 50 -9s44.667 -16 68 -30c-5.33301 10 -12.333 21.5 -21 34.5l-28 40.5l-29.5 41c-9.66699 13.333 -17.5 25 -23.5 35l-313 -74l-23 103l270 63
c-28 36 -57.5 70.167 -88.5 102.5s-64.167 61.833 -99.5 88.5l188 2c29.333 -21.333 57.666 -45 84.999 -71s54.333 -53.667 81 -83l303 72l23 -102l-248 -60c41.333 -50 81.333 -102 120 -156s72.834 -110.167 102.501 -168.5s53.334 -118.833 71.001 -181.5
s26.5 -127.334 26.5 -194.001zM798.997 541.001c0 41.333 -3.33301 81.4971 -10 120.497s-19 73.5 -37 103.5s-42.667 54 -74 72s-71.666 27 -120.999 27c-50.667 0 -91.834 -9.66699 -123.501 -29s-56.167 -44.833 -73.5 -76.5s-29.166 -67.667 -35.499 -108
s-9.5 -81.166 -9.5 -122.499c0 -40 3.5 -79.667 10.5 -119s19.5 -74.5 37.5 -105.5s42.667 -56.167 74 -75.5s71.333 -29 120 -29c49.333 0 89.666 10.167 120.999 30.5s56 46.833 74 79.5s30.333 69.334 37 110.001s10 81.334 10 122.001z" />
    <glyph glyph-name="ntilde" unicode="&#xf1;" 
d="M352 1071v-172c33.333 64 76.5 111.833 129.5 143.5s115.833 47.5 188.5 47.5c50 0 92.5 -6.16699 127.5 -18.5s64.167 -29.5 87.5 -51.5s41.666 -47.833 54.999 -77.5s23.333 -61.834 30 -96.501s10.834 -71.167 12.501 -109.5s2.5 -76.833 2.5 -115.5v-621h-252v662
c0 26 -3 51.167 -9 75.5s-15.5 45.833 -28.5 64.5s-29.833 33.667 -50.5 45s-46 17 -76 17c-48.667 0 -87.167 -10.667 -115.5 -32s-49.833 -48.5 -64.5 -81.5s-24.167 -69.667 -28.5 -110s-6.5 -79.166 -6.5 -116.499v-524h-250v1071h248zM223 1225
c0.666992 27.333 3.49902 54.834 8.49902 82.501s14 52.5 27 74.5s31.167 39.833 54.5 53.5s54.333 20.5 93 20.5c22.667 0 44.834 -3 66.501 -9s43.5 -12.5 65.5 -19.5s44.333 -13.5 67 -19.5s46.334 -9 71.001 -9c23.333 0 41.333 6 54 18s22.667 28.333 30 49h106
c-1.33301 -29.333 -4.83301 -58.333 -10.5 -87s-15.834 -54.334 -30.501 -77.001s-35 -41.167 -61 -55.5s-60 -21.5 -102 -21.5c-16.667 0 -35.667 3.33301 -57 10s-43.5 14.167 -66.5 22.5s-45.833 15.833 -68.5 22.5s-44 10 -64 10
c-17.333 0 -31.833 -6.16699 -43.5 -18.5s-21.167 -27.833 -28.5 -46.5h-111z" />
    <glyph glyph-name="ograve" unicode="&#xf2;" horiz-adv-x="1116" 
d="M559 -20c-85.333 0 -158.832 14.168 -220.499 42.501s-112.834 67.333 -153.501 117s-70.667 108.5 -90 176.5s-29 141.667 -29 221c0 80 9.5 153.833 28.5 221.5s48.333 126 88 175s90.5 87.333 152.5 115s136 41.5 222 41.5c84.667 0 158.167 -13.5 220.5 -40.5
s113.666 -64.833 153.999 -113.5s70.333 -106.334 90 -173.001s29.5 -140 29.5 -220c0 -78.667 -9.66699 -152.167 -29 -220.5s-49.166 -127.833 -89.499 -178.5s-91.5 -90.667 -153.5 -120s-135.333 -44 -220 -44zM557.001 864.001
c-50.667 0 -91.834 -9.66992 -123.501 -29.0029s-56.167 -44.833 -73.5 -76.5s-29.166 -67.667 -35.499 -108s-9.5 -81.166 -9.5 -122.499c0 -40 3.5 -79.667 10.5 -119s19.5 -74.5 37.5 -105.5s42.667 -56.167 74 -75.5s71.333 -29 120 -29
c49.333 0 89.666 10.167 120.999 30.5s56 46.833 74 79.5s30.333 69.334 37 110.001s10 81.334 10 122.001c0 41.333 -3.33301 81.5 -10 120.5s-19 73.5 -37 103.5s-42.667 54 -74 72s-71.666 27 -120.999 27zM590.001 1182l-242 303h279l139 -303h-176z" />
    <glyph glyph-name="oacute" unicode="&#xf3;" horiz-adv-x="1116" 
d="M559 -20c-85.333 0 -158.832 14.168 -220.499 42.501s-112.834 67.333 -153.501 117s-70.667 108.5 -90 176.5s-29 141.667 -29 221c0 80 9.5 153.833 28.5 221.5s48.333 126 88 175s90.5 87.333 152.5 115s136 41.5 222 41.5c84.667 0 158.167 -13.5 220.5 -40.5
s113.666 -64.833 153.999 -113.5s70.333 -106.334 90 -173.001s29.5 -140 29.5 -220c0 -78.667 -9.66699 -152.167 -29 -220.5s-49.166 -127.833 -89.499 -178.5s-91.5 -90.667 -153.5 -120s-135.333 -44 -220 -44zM557.001 864.001
c-50.667 0 -91.834 -9.66992 -123.501 -29.0029s-56.167 -44.833 -73.5 -76.5s-29.166 -67.667 -35.499 -108s-9.5 -81.166 -9.5 -122.499c0 -40 3.5 -79.667 10.5 -119s19.5 -74.5 37.5 -105.5s42.667 -56.167 74 -75.5s71.333 -29 120 -29
c49.333 0 89.666 10.167 120.999 30.5s56 46.833 74 79.5s30.333 69.334 37 110.001s10 81.334 10 122.001c0 41.333 -3.33301 81.5 -10 120.5s-19 73.5 -37 103.5s-42.667 54 -74 72s-71.666 27 -120.999 27zM586.001 1169h-176l139 316h278z" />
    <glyph glyph-name="ocircumflex" unicode="&#xf4;" horiz-adv-x="1116" 
d="M559 -20c-85.333 0 -158.832 14.168 -220.499 42.501s-112.834 67.333 -153.501 117s-70.667 108.5 -90 176.5s-29 141.667 -29 221c0 80 9.5 153.833 28.5 221.5s48.333 126 88 175s90.5 87.333 152.5 115s136 41.5 222 41.5c84.667 0 158.167 -13.5 220.5 -40.5
s113.666 -64.833 153.999 -113.5s70.333 -106.334 90 -173.001s29.5 -140 29.5 -220c0 -78.667 -9.66699 -152.167 -29 -220.5s-49.166 -127.833 -89.499 -178.5s-91.5 -90.667 -153.5 -120s-135.333 -44 -220 -44zM557.001 864.001
c-50.667 0 -91.834 -9.66992 -123.501 -29.0029s-56.167 -44.833 -73.5 -76.5s-29.166 -67.667 -35.499 -108s-9.5 -81.166 -9.5 -122.499c0 -40 3.5 -79.667 10.5 -119s19.5 -74.5 37.5 -105.5s42.667 -56.167 74 -75.5s71.333 -29 120 -29
c49.333 0 89.666 10.167 120.999 30.5s56 46.833 74 79.5s30.333 69.334 37 110.001s10 81.334 10 122.001c0 41.333 -3.33301 81.5 -10 120.5s-19 73.5 -37 103.5s-42.667 54 -74 72s-71.666 27 -120.999 27zM680.001 1174l-121 184l-121 -184h-211l205 315h266l191 -315
h-209z" />
    <glyph glyph-name="otilde" unicode="&#xf5;" horiz-adv-x="1116" 
d="M559 -20c-85.333 0 -158.832 14.168 -220.499 42.501s-112.834 67.333 -153.501 117s-70.667 108.5 -90 176.5s-29 141.667 -29 221c0 80 9.5 153.833 28.5 221.5s48.333 126 88 175s90.5 87.333 152.5 115s136 41.5 222 41.5c84.667 0 158.167 -13.5 220.5 -40.5
s113.666 -64.833 153.999 -113.5s70.333 -106.334 90 -173.001s29.5 -140 29.5 -220c0 -78.667 -9.66699 -152.167 -29 -220.5s-49.166 -127.833 -89.499 -178.5s-91.5 -90.667 -153.5 -120s-135.333 -44 -220 -44zM557.001 864.001
c-50.667 0 -91.834 -9.66992 -123.501 -29.0029s-56.167 -44.833 -73.5 -76.5s-29.166 -67.667 -35.499 -108s-9.5 -81.166 -9.5 -122.499c0 -40 3.5 -79.667 10.5 -119s19.5 -74.5 37.5 -105.5s42.667 -56.167 74 -75.5s71.333 -29 120 -29
c49.333 0 89.666 10.167 120.999 30.5s56 46.833 74 79.5s30.333 69.334 37 110.001s10 81.334 10 122.001c0 41.333 -3.33301 81.5 -10 120.5s-19 73.5 -37 103.5s-42.667 54 -74 72s-71.666 27 -120.999 27zM236.001 1225c0.666992 27.333 3.33105 54.834 7.99805 82.501
s13.5 52.5 26.5 74.5s31.167 39.833 54.5 53.5s54.333 20.5 93 20.5c22.667 0 44.834 -3 66.501 -9s43.5 -12.5 65.5 -19.5s44.333 -13.5 67 -19.5s46.334 -9 71.001 -9c23.333 0 41.333 6 54 18s22.667 28.333 30 49h107c-2 -29.333 -5.83301 -58.333 -11.5 -87
s-15.667 -54.334 -30 -77.001s-34.5 -41.167 -60.5 -55.5s-60.333 -21.5 -103 -21.5c-16.667 0 -35.5 3.33301 -56.5 10s-43 14.167 -66 22.5s-46 15.833 -69 22.5s-44.5 10 -64.5 10c-17.333 0 -31.833 -6.16699 -43.5 -18.5s-21.167 -27.833 -28.5 -46.5h-110z" />
    <glyph glyph-name="odieresis" unicode="&#xf6;" horiz-adv-x="1116" 
d="M559 -20c-85.333 0 -158.832 14.168 -220.499 42.501s-112.834 67.333 -153.501 117s-70.667 108.5 -90 176.5s-29 141.667 -29 221c0 80 9.5 153.833 28.5 221.5s48.333 126 88 175s90.5 87.333 152.5 115s136 41.5 222 41.5c84.667 0 158.167 -13.5 220.5 -40.5
s113.666 -64.833 153.999 -113.5s70.333 -106.334 90 -173.001s29.5 -140 29.5 -220c0 -78.667 -9.66699 -152.167 -29 -220.5s-49.166 -127.833 -89.499 -178.5s-91.5 -90.667 -153.5 -120s-135.333 -44 -220 -44zM557.001 864.001
c-50.667 0 -91.834 -9.66992 -123.501 -29.0029s-56.167 -44.833 -73.5 -76.5s-29.166 -67.667 -35.499 -108s-9.5 -81.166 -9.5 -122.499c0 -40 3.5 -79.667 10.5 -119s19.5 -74.5 37.5 -105.5s42.667 -56.167 74 -75.5s71.333 -29 120 -29
c49.333 0 89.666 10.167 120.999 30.5s56 46.833 74 79.5s30.333 69.334 37 110.001s10 81.334 10 122.001c0 41.333 -3.33301 81.5 -10 120.5s-19 73.5 -37 103.5s-42.667 54 -74 72s-71.666 27 -120.999 27zM199.001 1331c0 20.667 4.00293 40.334 12.0029 59.001
s19 35 33 49s30.167 25.167 48.5 33.5s38.166 12.5 59.499 12.5s41.666 -4.16699 60.999 -12.5s36.166 -19.5 50.499 -33.5s25.666 -30.333 33.999 -49s12.5 -38.334 12.5 -59.001c0 -21.333 -4.16699 -41.333 -12.5 -60s-19.5 -35 -33.5 -49s-30.5 -25.167 -49.5 -33.5
s-39.167 -12.5 -60.5 -12.5s-41.166 4 -59.499 12s-34.5 19 -48.5 33s-25 30.5 -33 49.5s-12 39.167 -12 60.5h-2zM604.004 1331c0 20.667 4.00098 40.334 12.001 59.001s19 35 33 49s30.333 25.167 49 33.5s38.667 12.5 60 12.5s41.5 -4.16699 60.5 -12.5
s35.667 -19.5 50 -33.5s25.666 -30.333 33.999 -49s12.5 -38.334 12.5 -59.001c0 -21.333 -4 -41.333 -12 -60s-19 -35 -33 -49s-30.5 -25.167 -49.5 -33.5s-39.167 -12.5 -60.5 -12.5s-41.333 4 -60 12s-35 19 -49 33s-25 30.5 -33 49.5s-12 39.167 -12 60.5h-2z" />
    <glyph glyph-name="divide" unicode="&#xf7;" horiz-adv-x="1442" 
d="M721 283c18.667 0 36.334 -3.5 53.001 -10.5s31.667 -17.167 45 -30.5s23.166 -28.833 29.499 -46.5s9.5 -35.167 9.5 -52.5s-3.33301 -34.166 -10 -50.499s-16.167 -30.666 -28.5 -42.999s-26.833 -22.333 -43.5 -30s-35 -11.5 -55 -11.5
c-19.333 0 -37.333 3.83301 -54 11.5s-31.167 17.667 -43.5 30s-22 26.666 -29 42.999s-10.5 33.166 -10.5 50.499s3.16699 34.5 9.5 51.5s16.833 32.833 31.5 47.5c27.333 27.333 59.333 41 96 41zM1268 645v-182h-1094v182h1094zM721 1100
c38.667 0 70.667 -13.6699 96 -41.0029c14.667 -15.333 25.167 -31.166 31.5 -47.499s9.5 -33.166 9.5 -50.499c0 -18 -3.5 -35.167 -10.5 -51.5s-16.667 -30.833 -29 -43.5s-26.833 -22.667 -43.5 -30s-34.667 -11 -54 -11c-20 0 -38.333 3.66699 -55 11
s-31.167 17.333 -43.5 30s-21.833 27.167 -28.5 43.5s-10 33.5 -10 51.5c0 17.333 3.16699 34.333 9.5 51s16.833 32.334 31.5 47.001c25.333 27.333 57.333 41 96 41z" />
    <glyph glyph-name="oslash" unicode="&#xf8;" horiz-adv-x="1116" 
d="M924 946c43.333 -49.333 75.332 -108.002 95.999 -176.002s31 -143.667 31 -227c0 -78.667 -9.66699 -152.167 -29 -220.5s-49.166 -127.833 -89.499 -178.5s-91.5 -90.667 -153.5 -120s-135.333 -44 -220 -44c-60 0 -113.833 6.83301 -161.5 20.5
s-90.167 33.167 -127.5 58.5l-90 -122l-98 71l100 135c-40 50.667 -69.333 109.334 -88 176.001s-28 139.334 -28 218.001c0 80 9.5 153.833 28.5 221.5s48.333 126 88 175s90.5 87.333 152.5 115s136 41.5 222 41.5c56 0 106.333 -6 151 -18s85 -28.667 121 -50l99 135
l98 -72zM687.999 830.998c-16.667 10.667 -35.667 18.832 -57 24.499s-46 8.5 -74 8.5c-50.667 0 -91.834 -9.66699 -123.501 -29s-56.167 -44.833 -73.5 -76.5s-29.166 -67.667 -35.499 -108s-9.5 -81.166 -9.5 -122.499c0 -30 1.83301 -59.333 5.5 -88
s10.167 -56.667 19.5 -84l348 475v0zM798.999 540.996c0 34.667 -2.33105 68.3311 -6.99805 100.998s-12.667 63 -24 91l-358 -485c17.333 -15.333 38.166 -27.333 62.499 -36s52.5 -13 84.5 -13c49.333 0 89.666 10.167 120.999 30.5s56 46.833 74 79.5
s30.333 69.334 37 110.001s10 81.334 10 122.001z" />
    <glyph glyph-name="ugrave" unicode="&#xf9;" horiz-adv-x="1092" 
d="M741 0c0 28.667 0.168945 57 0.501953 85s1.5 56.333 3.5 85c-16 -26.667 -35.833 -51.667 -59.5 -75s-49.5 -43.5 -77.5 -60.5s-57.833 -30.333 -89.5 -40s-63.834 -14.5 -96.501 -14.5c-70.667 0 -127 12.667 -169 38s-74 58.833 -96 100.5s-36.333 89.334 -43 143.001
s-10 108.5 -10 164.5v645h250v-618c0 -27.333 2.16699 -55.833 6.5 -85.5s12.666 -56.834 24.999 -81.501s29.333 -45 51 -61s49.5 -24 83.5 -24c44.667 0 81 9.5 109 28.5s50 43.5 66 73.5s27 63.667 33 101s9 74 9 110v557h250v-1071h-246zM578.002 1182l-242 303h278
l140 -303h-176z" />
    <glyph glyph-name="uacute" unicode="&#xfa;" horiz-adv-x="1092" 
d="M741 0c0 28.667 0.168945 57 0.501953 85s1.5 56.333 3.5 85c-16 -26.667 -35.833 -51.667 -59.5 -75s-49.5 -43.5 -77.5 -60.5s-57.833 -30.333 -89.5 -40s-63.834 -14.5 -96.501 -14.5c-70.667 0 -127 12.667 -169 38s-74 58.833 -96 100.5s-36.333 89.334 -43 143.001
s-10 108.5 -10 164.5v645h250v-618c0 -27.333 2.16699 -55.833 6.5 -85.5s12.666 -56.834 24.999 -81.501s29.333 -45 51 -61s49.5 -24 83.5 -24c44.667 0 81 9.5 109 28.5s50 43.5 66 73.5s27 63.667 33 101s9 74 9 110v557h250v-1071h-246zM553.002 1169h-176l139 316h279
z" />
    <glyph glyph-name="ucircumflex" unicode="&#xfb;" horiz-adv-x="1092" 
d="M741 0c0 28.667 0.168945 57 0.501953 85s1.5 56.333 3.5 85c-16 -26.667 -35.833 -51.667 -59.5 -75s-49.5 -43.5 -77.5 -60.5s-57.833 -30.333 -89.5 -40s-63.834 -14.5 -96.501 -14.5c-70.667 0 -127 12.667 -169 38s-74 58.833 -96 100.5s-36.333 89.334 -43 143.001
s-10 108.5 -10 164.5v645h250v-618c0 -27.333 2.16699 -55.833 6.5 -85.5s12.666 -56.834 24.999 -81.501s29.333 -45 51 -61s49.5 -24 83.5 -24c44.667 0 81 9.5 109 28.5s50 43.5 66 73.5s27 63.667 33 101s9 74 9 110v557h250v-1071h-246zM668.002 1174l-121 184
l-121 -184h-211l205 315h266l191 -315h-209z" />
    <glyph glyph-name="udieresis" unicode="&#xfc;" horiz-adv-x="1092" 
d="M741 0c0 28.667 0.168945 57 0.501953 85s1.5 56.333 3.5 85c-16 -26.667 -35.833 -51.667 -59.5 -75s-49.5 -43.5 -77.5 -60.5s-57.833 -30.333 -89.5 -40s-63.834 -14.5 -96.501 -14.5c-70.667 0 -127 12.667 -169 38s-74 58.833 -96 100.5s-36.333 89.334 -43 143.001
s-10 108.5 -10 164.5v645h250v-618c0 -27.333 2.16699 -55.833 6.5 -85.5s12.666 -56.834 24.999 -81.501s29.333 -45 51 -61s49.5 -24 83.5 -24c44.667 0 81 9.5 109 28.5s50 43.5 66 73.5s27 63.667 33 101s9 74 9 110v557h250v-1071h-246zM186.002 1331
c0 20.667 4.00293 40.334 12.0029 59.001s19 35 33 49s30.333 25.167 49 33.5s38.667 12.5 60 12.5s41.666 -4.16699 60.999 -12.5s36.166 -19.5 50.499 -33.5s25.666 -30.333 33.999 -49s12.5 -38.334 12.5 -59.001c0 -21.333 -4.16699 -41.333 -12.5 -60
s-19.5 -35 -33.5 -49s-30.5 -25.167 -49.5 -33.5s-39.167 -12.5 -60.5 -12.5s-41.333 4 -60 12s-35 19 -49 33s-25 30.5 -33 49.5s-12 39.167 -12 60.5h-2zM592.005 1331c0 20.667 4.00195 40.334 12.002 59.001s19 35 33 49s30.333 25.167 49 33.5s38.334 12.5 59.001 12.5
c21.333 0 41.666 -4.16699 60.999 -12.5s36.166 -19.5 50.499 -33.5s25.666 -30.333 33.999 -49s12.5 -38.334 12.5 -59.001c0 -21.333 -4 -41.333 -12 -60s-19 -35 -33 -49s-30.5 -25.167 -49.5 -33.5s-39.167 -12.5 -60.5 -12.5s-41.333 4 -60 12s-35 19 -49 33
s-25 30.5 -33 49.5s-12 39.167 -12 60.5h-2z" />
    <glyph glyph-name="yacute" unicode="&#xfd;" horiz-adv-x="983" 
d="M373 63l-176.5 503.999l-176.5 504h263l92.5 -285.5l89.5 -285.5c2.66699 -10 6 -21.167 10 -33.5s7.66699 -24.833 11 -37.5l10 -37.5c3.33301 -12.333 6 -23.5 8 -33.5c4 19.333 8.33301 38.333 13 57s9.66699 37.334 15 56.001l87.5 300l87.5 300h256l-232 -702.5
l-233 -700.5h-258l67.5 198zM520 1169h-176l139 316h279z" />
    <glyph glyph-name="thorn" unicode="&#xfe;" horiz-adv-x="1114" 
d="M348 1489l-0.000976562 -59.501c0 -30.333 -0.166992 -65.666 -0.5 -105.999s-0.5 -83.166 -0.5 -128.499s-0.166992 -88.166 -0.5 -128.499s-0.5 -75.666 -0.5 -105.999v-59.5c31.333 56.667 72 101.5 122 134.5s112.333 49.5 187 49.5c53.333 0 100 -7.83301 140 -23.5
s74.5 -37 103.5 -64s53.167 -58.833 72.5 -95.5s34.833 -75.834 46.5 -117.501s19.834 -85 24.501 -130s7 -89.167 7 -132.5c0 -66 -6.83301 -130.833 -20.5 -194.5s-36.167 -120.5 -67.5 -170.5s-73 -90.333 -125 -121s-116.333 -46 -193 -46
c-30 0 -59.167 4.16699 -87.5 12.5s-55 20.166 -80 35.499s-48 33.666 -69 54.999s-39.167 45 -54.5 71v-494h-252v1819h248zM568.999 849.999c-45.333 0 -82.501 -9.50098 -111.501 -28.501s-51.833 -43.5 -68.5 -73.5s-28.334 -63.667 -35.001 -101
s-10 -74.666 -10 -111.999s3.33301 -75 10 -113s18.334 -72.167 35.001 -102.5s39.5 -55 68.5 -74s66.167 -28.5 111.5 -28.5c44.667 0 81.167 10.167 109.5 30.5s50.666 46.166 66.999 77.499s27.5 66.166 33.5 104.499s9 75.5 9 111.5s-3.33301 72.333 -10 109
s-18.167 69.834 -34.5 99.501s-38.666 53.834 -66.999 72.501s-64.166 28 -107.499 28z" />
    <glyph glyph-name="ydieresis" unicode="&#xff;" horiz-adv-x="983" 
d="M373 63l-176.5 503.999l-176.5 504h263l92.5 -285.5l89.5 -285.5c2.66699 -10 6 -21.167 10 -33.5s7.66699 -24.833 11 -37.5l10 -37.5c3.33301 -12.333 6 -23.5 8 -33.5c4 19.333 8.33301 38.333 13 57s9.66699 37.334 15 56.001l87.5 300l87.5 300h256l-232 -702.5
l-233 -700.5h-258l67.5 198zM133 1331c0 20.667 4.00098 40.334 12.001 59.001s19 35 33 49s30.333 25.167 49 33.5s38.667 12.5 60 12.5s41.5 -4.16699 60.5 -12.5s35.667 -19.5 50 -33.5s25.666 -30.333 33.999 -49s12.5 -38.334 12.5 -59.001
c0 -21.333 -4 -41.333 -12 -60s-19 -35 -33 -49s-30.5 -25.167 -49.5 -33.5s-39.167 -12.5 -60.5 -12.5s-41.333 4 -60 12s-35 19 -49 33s-25 30.5 -33 49.5s-12 39.167 -12 60.5h-2zM539.001 1331c0 20.667 4.00293 40.334 12.0029 59.001s19 35 33 49
s30.167 25.167 48.5 33.5s38.166 12.5 59.499 12.5s41.666 -4.16699 60.999 -12.5s36.166 -19.5 50.499 -33.5s25.666 -30.333 33.999 -49s12.5 -38.334 12.5 -59.001c0 -21.333 -4.16699 -41.333 -12.5 -60s-19.5 -35 -33.5 -49s-30.5 -25.167 -49.5 -33.5
s-39.167 -12.5 -60.5 -12.5s-41.166 4 -59.499 12s-34.5 19 -48.5 33s-25 30.5 -33 49.5s-12 39.167 -12 60.5h-2z" />
    <glyph glyph-name="Amacron" unicode="&#x100;" horiz-adv-x="1239" 
d="M821 1485l198.5 -743.5l199.5 -741.5h-279l-50.5 185.5l-49.5 185.5h-441l-49 -185.5l-51 -185.5h-281l200 741.5l200 743.5h403zM446 602h347l-86.5 342l-85.5 342l-3 -2zM371 1686v153h497v-153h-497z" />
    <glyph glyph-name="amacron" unicode="&#x101;" horiz-adv-x="993" 
d="M901 672c0 -112 -0.330078 -224.005 -0.99707 -336.005s-1 -224 -1 -336h-233v150h-2c-35.333 -60.667 -77.333 -103.5 -126 -128.5s-107.334 -37.5 -176.001 -37.5c-40 0 -77.5 7 -112.5 21s-65.333 33.5 -91 58.5s-45.834 54.5 -60.501 88.5s-22 71.333 -22 112
c0 46.667 7.83301 86.334 23.5 119.001s36.167 60.334 61.5 83.001s54.333 41.334 87 56.001s66.167 27.334 100.5 38.001s67.833 20.167 100.5 28.5s61.667 17.333 87 27s45.833 21.334 61.5 35.001s23.5 30.834 23.5 51.501c0 56.667 -16.833 100.667 -50.5 132
s-77.834 47 -132.501 47c-27.333 0 -54.666 -4.16699 -81.999 -12.5s-54.166 -19.5 -80.499 -33.5s-51.333 -29.833 -75 -47.5s-44.834 -35.834 -63.501 -54.501v230c28 18 56.333 35.167 85 51.5s58 30.5 88 42.5s61 21.5 93 28.5s65 10.5 99 10.5
c66.667 0 125 -10 175 -30s91.667 -48.5 125 -85.5s58.166 -81.5 74.499 -133.5s24.5 -110.333 24.5 -175zM653.003 527.995c-9.33301 -8 -20 -14.5 -32 -19.5s-23.667 -10.5 -35 -16.5c-15.333 -8 -33.333 -15.667 -54 -23l-64 -23c-22 -8 -43.667 -16.833 -65 -26.5
s-40.5 -20.667 -57.5 -33s-30.667 -26.833 -41 -43.5s-15.5 -36 -15.5 -58c0 -43.333 13.167 -75.666 39.5 -96.999s60.166 -32 101.499 -32c34 0 63 5.66699 87 17s44.333 26.5 61 45.5s29.834 41 39.501 66s17.167 51.333 22.5 79s8.83301 55.667 10.5 84
s2.5 55.166 2.5 80.499zM248.003 1276v154h497v-154h-497z" />
    <glyph glyph-name="Abreve" unicode="&#x102;" horiz-adv-x="1239" 
d="M821 1485l198.5 -743.5l199.5 -741.5h-279l-50.5 185.5l-49.5 185.5h-441l-49 -185.5l-51 -185.5h-281l200 741.5l200 743.5h403zM446 602h347l-86.5 342l-85.5 342l-3 -2zM502 1892c6 -42 21.4971 -72.998 46.4971 -92.998s52.5 -30 82.5 -30
c16 0 31.5 2.83301 46.5 8.5s28.5 13.667 40.5 24s21.833 23.166 29.5 38.499s11.834 32.666 12.501 51.999h135c-3.33301 -40.667 -11 -78 -23 -112s-29.167 -63.167 -51.5 -87.5s-50.166 -43.166 -83.499 -56.499s-73 -20 -119 -20c-45.333 0 -84.666 6.66699 -117.999 20
s-61.333 32.166 -84 56.499s-40 53.5 -52 87.5s-19.333 71.333 -22 112h160z" />
    <glyph glyph-name="abreve" unicode="&#x103;" horiz-adv-x="993" 
d="M901 672c0 -112 -0.330078 -224.005 -0.99707 -336.005s-1 -224 -1 -336h-233v150h-2c-35.333 -60.667 -77.333 -103.5 -126 -128.5s-107.334 -37.5 -176.001 -37.5c-40 0 -77.5 7 -112.5 21s-65.333 33.5 -91 58.5s-45.834 54.5 -60.501 88.5s-22 71.333 -22 112
c0 46.667 7.83301 86.334 23.5 119.001s36.167 60.334 61.5 83.001s54.333 41.334 87 56.001s66.167 27.334 100.5 38.001s67.833 20.167 100.5 28.5s61.667 17.333 87 27s45.833 21.334 61.5 35.001s23.5 30.834 23.5 51.501c0 56.667 -16.833 100.667 -50.5 132
s-77.834 47 -132.501 47c-27.333 0 -54.666 -4.16699 -81.999 -12.5s-54.166 -19.5 -80.499 -33.5s-51.333 -29.833 -75 -47.5s-44.834 -35.834 -63.501 -54.501v230c28 18 56.333 35.167 85 51.5s58 30.5 88 42.5s61 21.5 93 28.5s65 10.5 99 10.5
c66.667 0 125 -10 175 -30s91.667 -48.5 125 -85.5s58.166 -81.5 74.499 -133.5s24.5 -110.333 24.5 -175zM653.003 527.995c-9.33301 -8 -20 -14.5 -32 -19.5s-23.667 -10.5 -35 -16.5c-15.333 -8 -33.333 -15.667 -54 -23l-64 -23c-22 -8 -43.667 -16.833 -65 -26.5
s-40.5 -20.667 -57.5 -33s-30.667 -26.833 -41 -43.5s-15.5 -36 -15.5 -58c0 -43.333 13.167 -75.666 39.5 -96.999s60.166 -32 101.499 -32c34 0 63 5.66699 87 17s44.333 26.5 61 45.5s29.834 41 39.501 66s17.167 51.333 22.5 79s8.83301 55.667 10.5 84
s2.5 55.166 2.5 80.499zM379.003 1483c2.66699 -21.333 8.16504 -39.666 16.498 -54.999s18.333 -28 30 -38s24.667 -17.5 39 -22.5s28.833 -7.5 43.5 -7.5c16 0 31.5 2.66699 46.5 8s28.5 13.333 40.5 24s21.833 23.667 29.5 39s11.834 32.666 12.501 51.999h135
c-3.33301 -41.333 -11 -78.833 -23 -112.5s-29.167 -62.834 -51.5 -87.501s-50.166 -43.667 -83.499 -57s-72.666 -20 -117.999 -20s-84.833 6.66699 -118.5 20s-61.834 32.333 -84.501 57s-40 53.834 -52 87.501s-19.333 71.167 -22 112.5h160z" />
    <glyph glyph-name="Aogonek" unicode="&#x104;" horiz-adv-x="1239" 
d="M1178 -328c-9.33301 0 -22.834 -0.333008 -40.501 -1s-37.167 -1 -58.5 -1c-38 0 -71.167 4 -99.5 12s-52.166 18.833 -71.499 32.5s-33.833 29.5 -43.5 47.5s-14.5 37.333 -14.5 58c0 32.667 8.16699 64.5 24.5 95.5s39.5 59.167 69.5 84.5h-4l-50.5 185.5l-49.5 185.5
h-441l-49 -185.5l-51 -185.5h-281l200 741.5l200 743.5h403l198.5 -743.5l199.5 -741.5c-16 -0 -34.667 0.333008 -56 1s-41.833 -1.5 -61.5 -6.5s-36.167 -14.167 -49.5 -27.5s-20 -34.333 -20 -63c0 -9.33301 2.66699 -18.5 8 -27.5s13.666 -16.667 24.999 -23
s26.333 -10.5 45 -12.5s41.334 -0.333008 68.001 5v-174v0zM792.999 602l-86.5 342l-85.5 342l-3 -2l-172 -682h347v0z" />
    <glyph glyph-name="aogonek" unicode="&#x105;" horiz-adv-x="993" 
d="M895 -328c-9.33301 0 -22.6641 -0.337891 -39.9971 -1.00488s-36.666 -1 -57.999 -1c-38 0 -71.333 4 -100 12s-52.667 18.833 -72 32.5s-33.833 29.5 -43.5 47.5s-14.5 37.333 -14.5 58c0 34 8.66699 66.833 26 98.5s41.666 60.167 72.999 85.5v146h-2
c-35.333 -60.667 -77.333 -103.5 -126 -128.5s-107.334 -37.5 -176.001 -37.5c-40 0 -77.5 7 -112.5 21s-65.333 33.5 -91 58.5s-45.834 54.5 -60.501 88.5s-22 71.333 -22 112c0 46.667 7.83301 86.334 23.5 119.001s36.167 60.334 61.5 83.001s54.333 41.334 87 56.001
s66.167 27.334 100.5 38.001s67.833 20.167 100.5 28.5s61.667 17.333 87 27s45.833 21.334 61.5 35.001s23.5 30.834 23.5 51.501c0 56.667 -16.833 100.667 -50.5 132s-77.834 47 -132.501 47c-27.333 0 -54.666 -4.16699 -81.999 -12.5s-54.166 -19.5 -80.499 -33.5
s-51.333 -29.833 -75 -47.5s-44.834 -35.834 -63.501 -54.501v230c28 18 56.333 35.167 85 51.5s58 30.5 88 42.5s61 21.5 93 28.5s65 10.5 99 10.5c66.667 0 125 -10 175 -30s91.667 -48.5 125 -85.5s58.166 -81.5 74.499 -133.5s24.5 -110.333 24.5 -175
c0 -112 -0.333008 -224 -1 -336s-1 -224 -1 -336c-14.667 0 -30.667 -0.5 -48 -1.5s-33.5 -4.5 -48.5 -10.5s-27.5 -15.5 -37.5 -28.5s-15 -31.5 -15 -55.5c0 -9.33301 2.5 -18.5 7.5 -27.5s13.333 -16.667 25 -23s26.667 -10.5 45 -12.5s40.833 -0.333008 67.5 5v-174v0z
M653.002 527.995c-9.33301 -8 -20 -14.5 -32 -19.5s-23.667 -10.5 -35 -16.5c-15.333 -8 -33.333 -15.667 -54 -23l-64 -23c-22 -8 -43.667 -16.833 -65 -26.5s-40.5 -20.667 -57.5 -33s-30.667 -26.833 -41 -43.5s-15.5 -36 -15.5 -58
c0 -43.333 13.167 -75.666 39.5 -96.999s60.166 -32 101.499 -32c34 0 63 5.66699 87 17s44.333 26.5 61 45.5s29.834 41 39.501 66s17.167 51.333 22.5 79s8.83301 55.667 10.5 84s2.5 55.166 2.5 80.499z" />
    <glyph glyph-name="Cacute" unicode="&#x106;" 
d="M1016 119c-21.333 -23.333 -46.8301 -43.8438 -76.4971 -61.5107s-61.334 -32.5 -95.001 -44.5s-67.834 -21 -102.501 -27s-67 -9 -97 -9c-72.667 0 -137.5 9.83301 -194.5 29.5s-106.667 46.834 -149 81.501s-78.166 75.834 -107.499 123.501s-53 99.334 -71 155.001
s-31 114.334 -39 176.001s-12 123.834 -12 186.501s4.33301 125.334 13 188.001s22.334 122.834 41.001 180.501s43 111.334 73 161.001s66.667 93 110 130s93.5 66 150.5 87s122.167 31.5 195.5 31.5c32 0 64.167 -3.33301 96.5 -10s64.166 -16 95.499 -28
s61.333 -26.333 90 -43s55 -35.334 79 -56.001v-297h-2c-16 19.333 -33.833 39.5 -53.5 60.5s-41.834 40.167 -66.501 57.5s-52.167 31.666 -82.5 42.999s-63.833 17 -100.5 17c-48.667 0 -91.5 -7.16699 -128.5 -21.5s-68.833 -34 -95.5 -59s-48.834 -54.333 -66.501 -88
s-31.667 -69.667 -42 -108s-17.666 -78.166 -21.999 -119.499s-6.5 -82 -6.5 -122c0 -30.667 3.16699 -64.5 9.5 -101.5s16 -74.167 29 -111.5s29 -73.666 48 -108.999s41.167 -66.666 66.5 -93.999s53.5 -49.166 84.5 -65.499s65.167 -24.5 102.5 -24.5
c36.667 0 71.167 6.33301 103.5 19s62 28.667 89 48s51.667 40.333 74 63s42.166 44.334 59.499 65.001v-303v0zM614.003 1578.99h-176l140 315h278z" />
    <glyph glyph-name="cacute" unicode="&#x107;" horiz-adv-x="850" 
d="M803 90c-41.333 -40 -89.3291 -68.3379 -143.996 -85.0049s-110.334 -25 -167.001 -25c-51.333 0 -97.666 7.83301 -138.999 23.5s-77.833 37 -109.5 64s-58.667 58.833 -81 95.5s-40.666 75.834 -54.999 117.501s-24.833 85 -31.5 130s-10 89.833 -10 134.5
c0 76 9.16699 147 27.5 213s46.666 123.167 84.999 171.5s87.166 86.333 146.499 114s130 41.5 212 41.5c49.333 0 96.333 -8.33301 141 -25s85.667 -41.667 123 -75v-258c-28 41.333 -61.667 73.166 -101 95.499s-84.333 33.5 -135 33.5
c-46.667 0 -85.834 -9.66699 -117.501 -29s-57.334 -44.5 -77.001 -75.5s-33.834 -66 -42.501 -105s-13 -78.5 -13 -118.5c0 -39.333 4.5 -78.166 13.5 -116.499s23.333 -72.666 43 -102.999s45.167 -54.833 76.5 -73.5s69.666 -28 114.999 -28
c22 0 44.833 3.83301 68.5 11.5s46.334 17.834 68.001 30.501s41.5 27.334 59.5 44.001s32.667 34.334 44 53.001v-256v0zM514.004 1169h-176l139 316h279z" />
    <glyph glyph-name="Ccircumflex" unicode="&#x108;" 
d="M1016 119c-21.333 -23.333 -46.8301 -43.8438 -76.4971 -61.5107s-61.334 -32.5 -95.001 -44.5s-67.834 -21 -102.501 -27s-67 -9 -97 -9c-72.667 0 -137.5 9.83301 -194.5 29.5s-106.667 46.834 -149 81.501s-78.166 75.834 -107.499 123.501s-53 99.334 -71 155.001
s-31 114.334 -39 176.001s-12 123.834 -12 186.501s4.33301 125.334 13 188.001s22.334 122.834 41.001 180.501s43 111.334 73 161.001s66.667 93 110 130s93.5 66 150.5 87s122.167 31.5 195.5 31.5c32 0 64.167 -3.33301 96.5 -10s64.166 -16 95.499 -28
s61.333 -26.333 90 -43s55 -35.334 79 -56.001v-297h-2c-16 19.333 -33.833 39.5 -53.5 60.5s-41.834 40.167 -66.501 57.5s-52.167 31.666 -82.5 42.999s-63.833 17 -100.5 17c-48.667 0 -91.5 -7.16699 -128.5 -21.5s-68.833 -34 -95.5 -59s-48.834 -54.333 -66.501 -88
s-31.667 -69.667 -42 -108s-17.666 -78.166 -21.999 -119.499s-6.5 -82 -6.5 -122c0 -30.667 3.16699 -64.5 9.5 -101.5s16 -74.167 29 -111.5s29 -73.666 48 -108.999s41.167 -66.666 66.5 -93.999s53.5 -49.166 84.5 -65.499s65.167 -24.5 102.5 -24.5
c36.667 0 71.167 6.33301 103.5 19s62 28.667 89 48s51.667 40.333 74 63s42.166 44.334 59.499 65.001v-303v0zM727.003 1582.99l-121 184l-121 -184h-211l205 315h266l191 -315h-209z" />
    <glyph glyph-name="ccircumflex" unicode="&#x109;" horiz-adv-x="850" 
d="M803 90c-41.333 -40 -89.3291 -68.3379 -143.996 -85.0049s-110.334 -25 -167.001 -25c-51.333 0 -97.666 7.83301 -138.999 23.5s-77.833 37 -109.5 64s-58.667 58.833 -81 95.5s-40.666 75.834 -54.999 117.501s-24.833 85 -31.5 130s-10 89.833 -10 134.5
c0 76 9.16699 147 27.5 213s46.666 123.167 84.999 171.5s87.166 86.333 146.499 114s130 41.5 212 41.5c49.333 0 96.333 -8.33301 141 -25s85.667 -41.667 123 -75v-258c-28 41.333 -61.667 73.166 -101 95.499s-84.333 33.5 -135 33.5
c-46.667 0 -85.834 -9.66699 -117.501 -29s-57.334 -44.5 -77.001 -75.5s-33.834 -66 -42.501 -105s-13 -78.5 -13 -118.5c0 -39.333 4.5 -78.166 13.5 -116.499s23.333 -72.666 43 -102.999s45.167 -54.833 76.5 -73.5s69.666 -28 114.999 -28
c22 0 44.833 3.83301 68.5 11.5s46.334 17.834 68.001 30.501s41.5 27.334 59.5 44.001s32.667 34.334 44 53.001v-256v0zM629.004 1174l-121 184l-121 -184h-211l205 315h266l191 -315h-209z" />
    <glyph glyph-name="Cdotaccent" unicode="&#x10a;" 
d="M1016 119c-21.333 -23.333 -46.8301 -43.8438 -76.4971 -61.5107s-61.334 -32.5 -95.001 -44.5s-67.834 -21 -102.501 -27s-67 -9 -97 -9c-72.667 0 -137.5 9.83301 -194.5 29.5s-106.667 46.834 -149 81.501s-78.166 75.834 -107.499 123.501s-53 99.334 -71 155.001
s-31 114.334 -39 176.001s-12 123.834 -12 186.501s4.33301 125.334 13 188.001s22.334 122.834 41.001 180.501s43 111.334 73 161.001s66.667 93 110 130s93.5 66 150.5 87s122.167 31.5 195.5 31.5c32 0 64.167 -3.33301 96.5 -10s64.166 -16 95.499 -28
s61.333 -26.333 90 -43s55 -35.334 79 -56.001v-297h-2c-16 19.333 -33.833 39.5 -53.5 60.5s-41.834 40.167 -66.501 57.5s-52.167 31.666 -82.5 42.999s-63.833 17 -100.5 17c-48.667 0 -91.5 -7.16699 -128.5 -21.5s-68.833 -34 -95.5 -59s-48.834 -54.333 -66.501 -88
s-31.667 -69.667 -42 -108s-17.666 -78.166 -21.999 -119.499s-6.5 -82 -6.5 -122c0 -30.667 3.16699 -64.5 9.5 -101.5s16 -74.167 29 -111.5s29 -73.666 48 -108.999s41.167 -66.666 66.5 -93.999s53.5 -49.166 84.5 -65.499s65.167 -24.5 102.5 -24.5
c36.667 0 71.167 6.33301 103.5 19s62 28.667 89 48s51.667 40.333 74 63s42.166 44.334 59.499 65.001v-303v0zM492.003 1740.99c0 20.667 4 40.333 12 59s19 35 33 49s30.167 25 48.5 33s38.166 12 59.499 12s41.5 -4 60.5 -12s35.5 -19 49.5 -33s25.167 -30.333 33.5 -49
s12.5 -38.334 12.5 -59.001c0 -21.333 -4.16699 -41.333 -12.5 -60s-19.5 -35.167 -33.5 -49.5s-30.5 -25.666 -49.5 -33.999s-39.167 -12.5 -60.5 -12.5s-41.166 4.16699 -59.499 12.5s-34.5 19.5 -48.5 33.5s-25 30.5 -33 49.5s-12 39.167 -12 60.5z" />
    <glyph glyph-name="cdotaccent" unicode="&#x10b;" horiz-adv-x="850" 
d="M803 90c-41.333 -40 -89.3291 -68.3379 -143.996 -85.0049s-110.334 -25 -167.001 -25c-51.333 0 -97.666 7.83301 -138.999 23.5s-77.833 37 -109.5 64s-58.667 58.833 -81 95.5s-40.666 75.834 -54.999 117.501s-24.833 85 -31.5 130s-10 89.833 -10 134.5
c0 76 9.16699 147 27.5 213s46.666 123.167 84.999 171.5s87.166 86.333 146.499 114s130 41.5 212 41.5c49.333 0 96.333 -8.33301 141 -25s85.667 -41.667 123 -75v-258c-28 41.333 -61.667 73.166 -101 95.499s-84.333 33.5 -135 33.5
c-46.667 0 -85.834 -9.66699 -117.501 -29s-57.334 -44.5 -77.001 -75.5s-33.834 -66 -42.501 -105s-13 -78.5 -13 -118.5c0 -39.333 4.5 -78.166 13.5 -116.499s23.333 -72.666 43 -102.999s45.167 -54.833 76.5 -73.5s69.666 -28 114.999 -28
c22 0 44.833 3.83301 68.5 11.5s46.334 17.834 68.001 30.501s41.5 27.334 59.5 44.001s32.667 34.334 44 53.001v-256v0zM352.004 1331c0 20.667 4 40.334 12 59.001s19 35 33 49s30.333 25.167 49 33.5s38.667 12.5 60 12.5s41.5 -4.16699 60.5 -12.5
s35.5 -19.5 49.5 -33.5s25.167 -30.333 33.5 -49s12.5 -38.334 12.5 -59.001c0 -21.333 -4.16699 -41.333 -12.5 -60s-19.5 -35 -33.5 -49s-30.5 -25.167 -49.5 -33.5s-39.167 -12.5 -60.5 -12.5s-41.333 4 -60 12s-35 19 -49 33s-25 30.5 -33 49.5s-12 39.167 -12 60.5z
" />
    <glyph glyph-name="Ccaron" unicode="&#x10c;" 
d="M1016 119c-21.333 -23.333 -46.8301 -43.8438 -76.4971 -61.5107s-61.334 -32.5 -95.001 -44.5s-67.834 -21 -102.501 -27s-67 -9 -97 -9c-72.667 0 -137.5 9.83301 -194.5 29.5s-106.667 46.834 -149 81.501s-78.166 75.834 -107.499 123.501s-53 99.334 -71 155.001
s-31 114.334 -39 176.001s-12 123.834 -12 186.501s4.33301 125.334 13 188.001s22.334 122.834 41.001 180.501s43 111.334 73 161.001s66.667 93 110 130s93.5 66 150.5 87s122.167 31.5 195.5 31.5c32 0 64.167 -3.33301 96.5 -10s64.166 -16 95.499 -28
s61.333 -26.333 90 -43s55 -35.334 79 -56.001v-297h-2c-16 19.333 -33.833 39.5 -53.5 60.5s-41.834 40.167 -66.501 57.5s-52.167 31.666 -82.5 42.999s-63.833 17 -100.5 17c-48.667 0 -91.5 -7.16699 -128.5 -21.5s-68.833 -34 -95.5 -59s-48.834 -54.333 -66.501 -88
s-31.667 -69.667 -42 -108s-17.666 -78.166 -21.999 -119.499s-6.5 -82 -6.5 -122c0 -30.667 3.16699 -64.5 9.5 -101.5s16 -74.167 29 -111.5s29 -73.666 48 -108.999s41.167 -66.666 66.5 -93.999s53.5 -49.166 84.5 -65.499s65.167 -24.5 102.5 -24.5
c36.667 0 71.167 6.33301 103.5 19s62 28.667 89 48s51.667 40.333 74 63s42.166 44.334 59.499 65.001v-303v0zM754.003 1584.99h-267l-192 313h211l121 -184l121 184h210z" />
    <glyph glyph-name="ccaron" unicode="&#x10d;" horiz-adv-x="850" 
d="M803 90c-41.333 -40 -89.3291 -68.3379 -143.996 -85.0049s-110.334 -25 -167.001 -25c-51.333 0 -97.666 7.83301 -138.999 23.5s-77.833 37 -109.5 64s-58.667 58.833 -81 95.5s-40.666 75.834 -54.999 117.501s-24.833 85 -31.5 130s-10 89.833 -10 134.5
c0 76 9.16699 147 27.5 213s46.666 123.167 84.999 171.5s87.166 86.333 146.499 114s130 41.5 212 41.5c49.333 0 96.333 -8.33301 141 -25s85.667 -41.667 123 -75v-258c-28 41.333 -61.667 73.166 -101 95.499s-84.333 33.5 -135 33.5
c-46.667 0 -85.834 -9.66699 -117.501 -29s-57.334 -44.5 -77.001 -75.5s-33.834 -66 -42.501 -105s-13 -78.5 -13 -118.5c0 -39.333 4.5 -78.166 13.5 -116.499s23.333 -72.666 43 -102.999s45.167 -54.833 76.5 -73.5s69.666 -28 114.999 -28
c22 0 44.833 3.83301 68.5 11.5s46.334 17.834 68.001 30.501s41.5 27.334 59.5 44.001s32.667 34.334 44 53.001v-256v0zM653.004 1176h-266l-192 313h211l120 -184l121 184h211z" />
    <glyph glyph-name="Dcaron" unicode="&#x10e;" horiz-adv-x="1276" 
d="M485 1485c54.667 0 109.666 -1.33203 164.999 -3.99902s109 -11.667 161 -27c51.333 -15.333 96.833 -36.166 136.5 -62.499s74.167 -57 103.5 -92s53.833 -73.667 73.5 -116s35.5 -86.5 47.5 -132.5s20.667 -93.333 26 -142s8 -97 8 -145
c0 -79.333 -8 -158.166 -24 -236.499s-41.833 -150.833 -77.5 -217.5s-82.167 -124.834 -139.5 -174.501s-127.666 -85.834 -210.999 -108.501c-44 -12.667 -88.5 -20.334 -133.5 -23.001s-90.167 -4 -135.5 -4h-366v1485h366zM542.999 252.001
c51.333 0 96.668 6.99805 136.001 20.998s73.333 33.167 102 57.5s52.5 53 71.5 86s34.333 69 46 108s19.834 79.833 24.501 122.5s7 85.667 7 129c0 76.667 -6.66699 144.334 -20 203.001s-36.333 107.834 -69 147.501s-76.167 69.667 -130.5 90s-122.5 30.5 -204.5 30.5
c-20.667 0 -40.834 -0.333008 -60.501 -1s-39.834 -1 -60.501 -1v-993h158zM702.001 1585h-266l-192 313h211l120 -184l121 184h211z" />
    <glyph glyph-name="dcaron" unicode="&#x10f;" horiz-adv-x="1483" 
d="M776 178c-28.667 -64.667 -68.8311 -113.835 -120.498 -147.502s-114.5 -50.5 -188.5 -50.5c-27.333 0 -51.333 4 -72 12c-65.333 10 -118.833 33.333 -160.5 70s-74.834 81.334 -99.501 134.001s-41.667 110 -51 172s-14 123 -14 183c0 75.333 8.33301 145.833 25 211.5
s41.5 122.667 74.5 171s73.833 86.5 122.5 114.5s105 42 169 42c68 0 126.667 -15.833 176 -47.5s91.666 -74.834 126.999 -129.501h2c-0.666992 24.667 -1 52.667 -1 84s-0.166992 64.333 -0.5 99s-0.5 70.334 -0.5 107.001v107v98.5v82.5h252v-1491h-240v61v26.5v33.5
c0 11.333 0.166992 22.333 0.5 33s0.833008 19.334 1.5 26.001h-1c-0.666992 0 -1 -0.666992 -1 -2zM553.003 212.999c44.667 0 81.333 9.83594 110 29.5029s51.334 45.167 68.001 76.5s28 66.5 34 105.5s9 77.833 9 116.5c0 37.333 -3.33301 74.333 -10 111
s-18.667 69.667 -36 99s-40.833 53.166 -70.5 71.499s-67.167 27.5 -112.5 27.5c-44.667 0 -81 -9.83301 -109 -29.5s-49.833 -44.834 -65.5 -75.501s-26.334 -64.834 -32.001 -102.501s-8.5 -74.5 -8.5 -110.5s3.5 -72.833 10.5 -110.5s19 -72 36 -103
s39.833 -56.333 68.5 -76s64.667 -29.5 108 -29.5zM1333 1038h-184l117 461h252z" />
    <glyph glyph-name="Dcroat" unicode="&#x110;" horiz-adv-x="1276" 
d="M119 1485l365.999 0.000976562c54.667 0 109.667 -1.33301 165 -4s109 -11.667 161 -27c51.333 -15.333 96.833 -36.166 136.5 -62.499s74.167 -57 103.5 -92s53.833 -73.667 73.5 -116s35.5 -86.5 47.5 -132.5s20.667 -93.333 26 -142s8 -97 8 -145
c0 -79.333 -8 -158.166 -24 -236.499s-41.833 -150.833 -77.5 -217.5s-82.167 -124.834 -139.5 -174.501s-127.666 -85.834 -210.999 -108.501c-44 -12.667 -88.5 -20.334 -133.5 -23.001s-90.167 -4 -135.5 -4h-366v719h-117v170h117v596zM384.999 719.001
l0.00195312 -467.002h158c51.333 0 96.666 7 135.999 21s73.333 33.167 102 57.5s52.5 53 71.5 86s34.333 69 46 108s19.834 79.833 24.501 122.5s7 85.667 7 129c0 76.667 -6.66699 144.334 -20 203.001s-36.333 107.834 -69 147.501s-76.167 69.667 -130.5 90
s-122.5 30.5 -204.5 30.5c-20.667 0 -40.834 -0.333008 -60.501 -1s-39.834 -1 -60.501 -1v-356h264v-170h-264z" />
    <glyph glyph-name="dcroat" unicode="&#x111;" horiz-adv-x="1114" 
d="M776 0l0.00292969 61v26.5v33.5c0 11.333 0.166992 22.333 0.5 33s0.833008 19.334 1.5 26.001h-1c-0.666992 0 -1 -0.666992 -1 -2c-28.667 -64.667 -68.834 -113.834 -120.501 -147.501s-114.5 -50.5 -188.5 -50.5c-27.333 0 -51.333 4 -72 12
c-65.333 10 -118.833 33.333 -160.5 70s-74.834 81.334 -99.501 134.001s-41.667 110 -51 172s-14 123 -14 183c0 75.333 8.33301 145.833 25 211.5s41.5 122.667 74.5 171s73.833 86.5 122.5 114.5s105 42 169 42c68 0 126.667 -15.833 176 -47.5
s91.666 -74.834 126.999 -129.501h2c0 34 -0.333008 73.833 -1 119.5s-1 93.5 -1 143.5h-318v155h318v160h252v-160h106v-155h-106v-1176h-240zM774.003 541c0 37.333 -3.33398 74.3359 -10.001 111.003s-18.667 69.667 -36 99s-40.833 53.166 -70.5 71.499
s-67.167 27.5 -112.5 27.5c-44.667 0 -81 -9.83301 -109 -29.5s-49.833 -44.834 -65.5 -75.501s-26.334 -64.834 -32.001 -102.501s-8.5 -74.5 -8.5 -110.5s3.5 -72.833 10.5 -110.5s19 -72 36 -103s39.833 -56.333 68.5 -76s64.667 -29.5 108 -29.5
c44.667 0 81.334 9.83301 110.001 29.5s51.334 45.167 68.001 76.5s28 66.5 34 105.5s9 77.833 9 116.5z" />
    <glyph glyph-name="Emacron" unicode="&#x112;" horiz-adv-x="1010" 
d="M922 1485v-244h-537v-369h514v-239h-514v-395h539v-238h-805v1485h803zM256 1686v153h498v-153h-498z" />
    <glyph glyph-name="emacron" unicode="&#x113;" horiz-adv-x="1014" 
d="M899 100c-28 -25.333 -57 -45.6689 -87 -61.002s-60.667 -27.5 -92 -36.5s-63 -15 -95 -18s-63.667 -4.5 -95 -4.5c-87.333 0 -160.5 14.667 -219.5 44s-106.5 69.333 -142.5 120s-61.667 109.834 -77 177.501s-23 140.167 -23 217.5c0 76 8.83301 147.333 26.5 214
s45.5 125 83.5 175s86.833 89.5 146.5 118.5s131.167 43.5 214.5 43.5c64.667 0 123.167 -11 175.5 -33s97 -53.833 134 -95.5s65.333 -92.667 85 -153s29.5 -129.166 29.5 -206.499c0 -8 -0.166992 -16.667 -0.5 -26l-1 -29c-0.333008 -10 -1 -19.833 -2 -29.5
s-2.16699 -18.167 -3.5 -25.5c-107.333 0 -213.833 0.333008 -319.5 1s-211.5 1 -317.5 1c0 -44 4.5 -84.667 13.5 -122s23.667 -69.5 44 -96.5s47 -48 80 -63s73.5 -22.5 121.5 -22.5c66.667 0 126 14.167 178 42.5s99.667 65.5 143 111.5v-244v0zM750 638.997
c-0.666992 30 -4.33301 58.668 -11 86.001s-17.167 51.666 -31.5 72.999s-33 38.333 -56 51s-51.167 19 -84.5 19c-72 0 -129.5 -20.5 -172.5 -61.5s-68.167 -97.5 -75.5 -169.5c72.667 0 144.5 0.333008 215.5 1s142.833 1 215.5 1zM258.001 1276v154h498v-154h-498z" />
    <glyph glyph-name="Ebreve" unicode="&#x114;" horiz-adv-x="1010" 
d="M922 1485v-244h-537v-369h514v-239h-514v-395h539v-238h-805v1485h803zM387 1892c2.66699 -21.333 8.16406 -39.665 16.4971 -54.998s18.333 -28 30 -38s24.667 -17.5 39 -22.5s28.833 -7.5 43.5 -7.5c16 0 31.667 2.83301 47 8.5s29 13.667 41 24
s21.667 23.166 29 38.499s11.333 32.666 12 51.999h135c-3.33301 -40.667 -11 -78 -23 -112s-29.167 -63.167 -51.5 -87.5s-50.166 -43.166 -83.499 -56.499s-72.666 -20 -117.999 -20s-84.666 6.66699 -117.999 20s-61.333 32.166 -84 56.499s-40.167 53.5 -52.5 87.5
s-19.833 71.333 -22.5 112h160z" />
    <glyph glyph-name="ebreve" unicode="&#x115;" horiz-adv-x="1014" 
d="M899 100c-28 -25.333 -57 -45.6689 -87 -61.002s-60.667 -27.5 -92 -36.5s-63 -15 -95 -18s-63.667 -4.5 -95 -4.5c-87.333 0 -160.5 14.667 -219.5 44s-106.5 69.333 -142.5 120s-61.667 109.834 -77 177.501s-23 140.167 -23 217.5c0 76 8.83301 147.333 26.5 214
s45.5 125 83.5 175s86.833 89.5 146.5 118.5s131.167 43.5 214.5 43.5c64.667 0 123.167 -11 175.5 -33s97 -53.833 134 -95.5s65.333 -92.667 85 -153s29.5 -129.166 29.5 -206.499c0 -8 -0.166992 -16.667 -0.5 -26l-1 -29c-0.333008 -10 -1 -19.833 -2 -29.5
s-2.16699 -18.167 -3.5 -25.5c-107.333 0 -213.833 0.333008 -319.5 1s-211.5 1 -317.5 1c0 -44 4.5 -84.667 13.5 -122s23.667 -69.5 44 -96.5s47 -48 80 -63s73.5 -22.5 121.5 -22.5c66.667 0 126 14.167 178 42.5s99.667 65.5 143 111.5v-244v0zM750 638.997
c-0.666992 30 -4.33301 58.668 -11 86.001s-17.167 51.666 -31.5 72.999s-33 38.333 -56 51s-51.167 19 -84.5 19c-72 0 -129.5 -20.5 -172.5 -61.5s-68.167 -97.5 -75.5 -169.5c72.667 0 144.5 0.333008 215.5 1s142.833 1 215.5 1zM389.001 1483
c2.66699 -21.333 8.16406 -39.666 16.4971 -54.999s18.333 -28 30 -38s24.667 -17.5 39 -22.5s28.833 -7.5 43.5 -7.5c16 0 31.667 2.66699 47 8s29 13.333 41 24s21.667 23.667 29 39s11.333 32.666 12 51.999h135c-3.33301 -41.333 -11 -78.833 -23 -112.5
s-29.167 -62.834 -51.5 -87.501s-50.166 -43.667 -83.499 -57s-72.666 -20 -117.999 -20s-84.666 6.66699 -117.999 20s-61.333 32.333 -84 57s-40.167 53.834 -52.5 87.501s-19.833 71.167 -22.5 112.5h160z" />
    <glyph glyph-name="Edotaccent" unicode="&#x116;" horiz-adv-x="1010" 
d="M922 1485v-244h-537v-369h514v-239h-514v-395h539v-238h-805v1485h803zM350 1741c0 20.667 4 40.333 12 59s19 35 33 49s30.333 25 49 33s38.667 12 60 12s41.5 -4 60.5 -12s35.5 -19 49.5 -33s25 -30.333 33 -49s12 -38.334 12 -59.001c0 -21.333 -4 -41.333 -12 -60
s-19 -35.167 -33 -49.5s-30.5 -25.666 -49.5 -33.999s-39.167 -12.5 -60.5 -12.5s-41.333 4.16699 -60 12.5s-35 19.5 -49 33.5s-25 30.5 -33 49.5s-12 39.167 -12 60.5z" />
    <glyph glyph-name="edotaccent" unicode="&#x117;" horiz-adv-x="1014" 
d="M899 100c-28 -25.333 -57 -45.6689 -87 -61.002s-60.667 -27.5 -92 -36.5s-63 -15 -95 -18s-63.667 -4.5 -95 -4.5c-87.333 0 -160.5 14.667 -219.5 44s-106.5 69.333 -142.5 120s-61.667 109.834 -77 177.501s-23 140.167 -23 217.5c0 76 8.83301 147.333 26.5 214
s45.5 125 83.5 175s86.833 89.5 146.5 118.5s131.167 43.5 214.5 43.5c64.667 0 123.167 -11 175.5 -33s97 -53.833 134 -95.5s65.333 -92.667 85 -153s29.5 -129.166 29.5 -206.499c0 -8 -0.166992 -16.667 -0.5 -26l-1 -29c-0.333008 -10 -1 -19.833 -2 -29.5
s-2.16699 -18.167 -3.5 -25.5c-107.333 0 -213.833 0.333008 -319.5 1s-211.5 1 -317.5 1c0 -44 4.5 -84.667 13.5 -122s23.667 -69.5 44 -96.5s47 -48 80 -63s73.5 -22.5 121.5 -22.5c66.667 0 126 14.167 178 42.5s99.667 65.5 143 111.5v-244v0zM750 638.997
c-0.666992 30 -4.33301 58.668 -11 86.001s-17.167 51.666 -31.5 72.999s-33 38.333 -56 51s-51.167 19 -84.5 19c-72 0 -129.5 -20.5 -172.5 -61.5s-68.167 -97.5 -75.5 -169.5c72.667 0 144.5 0.333008 215.5 1s142.833 1 215.5 1zM352.001 1331
c0 20.667 4 40.334 12 59.001s19 35 33 49s30.333 25.167 49 33.5s38.667 12.5 60 12.5s41.5 -4.16699 60.5 -12.5s35.5 -19.5 49.5 -33.5s25.167 -30.333 33.5 -49s12.5 -38.334 12.5 -59.001c0 -21.333 -4.16699 -41.333 -12.5 -60s-19.5 -35 -33.5 -49
s-30.5 -25.167 -49.5 -33.5s-39.167 -12.5 -60.5 -12.5s-41.333 4 -60 12s-35 19 -49 33s-25 30.5 -33 49.5s-12 39.167 -12 60.5z" />
    <glyph glyph-name="Eogonek" unicode="&#x118;" horiz-adv-x="1010" 
d="M926 -328c-9.33301 0 -22.8359 -0.334961 -40.5029 -1.00195s-37.167 -1 -58.5 -1c-38 0 -71.167 4 -99.5 12s-52.166 18.833 -71.499 32.5s-33.833 29.5 -43.5 47.5s-14.5 37.333 -14.5 58c0 32.667 8.83301 64.667 26.5 96s42.834 59.333 75.501 84h-581v1485h803v-244
h-537v-369h514v-239h-514v-395h539v-238c-19.333 -1.33301 -37.666 -4.16602 -54.999 -8.49902s-32.5 -10.5 -45.5 -18.5s-23.5 -17.667 -31.5 -29s-12 -24.666 -12 -39.999c0 -9.33301 2.66699 -18.5 8 -27.5s13.666 -16.667 24.999 -23s26.333 -10.5 45 -12.5
s41.334 -0.333008 68.001 5v-174v0z" />
    <glyph glyph-name="eogonek" unicode="&#x119;" horiz-adv-x="1014" 
d="M963 602c0 -8 -0.168945 -16.6699 -0.501953 -26.0029l-1 -29c-0.333008 -10 -1 -19.833 -2 -29.5s-2.16699 -18.167 -3.5 -25.5c-107.333 0 -213.833 0.333008 -319.5 1s-211.5 1 -317.5 1c0 -44 4.5 -84.667 13.5 -122s23.667 -69.5 44 -96.5s47 -48 80 -63
s73.5 -22.5 121.5 -22.5c66.667 0 126 14.167 178 42.5s99.667 65.5 143 111.5v-244c-12.667 -11.333 -22.667 -19.833 -30 -25.5s-14.333 -10.834 -21 -15.501s-14 -9.5 -22 -14.5l-33 -21.5l-41.5 -27c-12.333 -8 -22.833 -16.333 -31.5 -25s-15.167 -18.167 -19.5 -28.5
s-6.5 -23.166 -6.5 -38.499c0 -9.33301 2.66699 -18.5 8 -27.5s13.666 -16.667 24.999 -23s26.333 -10.5 45 -12.5s41.334 -0.333008 68.001 5v-174c-9.33301 0 -22.833 -0.333008 -40.5 -1s-37.167 -1 -58.5 -1c-38 0 -71.167 4 -99.5 12s-52.166 18.833 -71.499 32.5
s-33.833 29.5 -43.5 47.5s-14.5 37.333 -14.5 58c0 28.667 6.5 56.834 19.5 84.501s31.167 53.5 54.5 77.5c-9.33301 -1.33301 -18.666 -2 -27.999 -2h-28c-87.333 0 -160.5 14.667 -219.5 44s-106.5 69.333 -142.5 120s-61.667 109.834 -77 177.501s-23 140.167 -23 217.5
c0 76 8.83301 147.333 26.5 214s45.5 125 83.5 175s86.833 89.5 146.5 118.5s131.167 43.5 214.5 43.5c64.667 0 123.167 -11 175.5 -33s97 -53.833 134 -95.5s65.333 -92.667 85 -153s29.5 -129.166 29.5 -206.499zM749.998 638.997
c-0.666992 30 -4.33301 58.668 -11 86.001s-17.167 51.666 -31.5 72.999s-33 38.333 -56 51s-51.167 19 -84.5 19c-72 0 -129.5 -20.5 -172.5 -61.5s-68.167 -97.5 -75.5 -169.5c72.667 0 144.5 0.333008 215.5 1s142.833 1 215.5 1z" />
    <glyph glyph-name="Ecaron" unicode="&#x11a;" horiz-adv-x="1010" 
d="M922 1485v-244h-537v-369h514v-239h-514v-395h539v-238h-805v1485h803zM651 1585h-266l-192 313h210l121 -184l121 184h211z" />
    <glyph glyph-name="ecaron" unicode="&#x11b;" horiz-adv-x="1014" 
d="M899 100c-28 -25.333 -57 -45.6689 -87 -61.002s-60.667 -27.5 -92 -36.5s-63 -15 -95 -18s-63.667 -4.5 -95 -4.5c-87.333 0 -160.5 14.667 -219.5 44s-106.5 69.333 -142.5 120s-61.667 109.834 -77 177.501s-23 140.167 -23 217.5c0 76 8.83301 147.333 26.5 214
s45.5 125 83.5 175s86.833 89.5 146.5 118.5s131.167 43.5 214.5 43.5c64.667 0 123.167 -11 175.5 -33s97 -53.833 134 -95.5s65.333 -92.667 85 -153s29.5 -129.166 29.5 -206.499c0 -8 -0.166992 -16.667 -0.5 -26l-1 -29c-0.333008 -10 -1 -19.833 -2 -29.5
s-2.16699 -18.167 -3.5 -25.5c-107.333 0 -213.833 0.333008 -319.5 1s-211.5 1 -317.5 1c0 -44 4.5 -84.667 13.5 -122s23.667 -69.5 44 -96.5s47 -48 80 -63s73.5 -22.5 121.5 -22.5c66.667 0 126 14.167 178 42.5s99.667 65.5 143 111.5v-244v0zM750 638.997
c-0.666992 30 -4.33301 58.668 -11 86.001s-17.167 51.666 -31.5 72.999s-33 38.333 -56 51s-51.167 19 -84.5 19c-72 0 -129.5 -20.5 -172.5 -61.5s-68.167 -97.5 -75.5 -169.5c72.667 0 144.5 0.333008 215.5 1s142.833 1 215.5 1zM674.001 1176h-266l-193 313h211
l121 -184l121 184h211z" />
    <glyph glyph-name="Gcircumflex" unicode="&#x11c;" horiz-adv-x="1229" 
d="M1137 848l0.00390625 -368.998c0 -83.333 -13.333 -156.333 -40 -219s-62.334 -115.167 -107.001 -157.5s-96.334 -74.166 -155.001 -95.499s-120 -32 -184 -32c-73.333 0 -138.666 10.167 -195.999 30.5s-107.5 48.5 -150.5 84.5s-79.333 78.5 -109 127.5
s-53.667 102.167 -72 159.5s-31.5 117.5 -39.5 180.5s-12 126.5 -12 190.5c0 66 4.66699 129.167 14 189.5s23.666 117.833 42.999 172.5c22.667 66 52.5 123.833 89.5 173.5s79.333 91 127 124s99.834 57.833 156.501 74.5s116.667 25 180 25c31.333 0 63.333 -2 96 -6
s65 -10.833 97 -20.5s63.333 -22.834 94 -39.501s60 -37.667 88 -63v-288c-42 49.333 -91.5 89.5 -148.5 120.5s-120.833 46.5 -191.5 46.5c-56 0 -104 -10 -144 -30s-76 -47.333 -108 -82c-43.333 -47.333 -74.666 -107 -93.999 -179s-29 -150.333 -29 -235
c0 -33.333 2.33301 -68.833 7 -106.5s12.167 -75.334 22.5 -113.001s23.833 -73.667 40.5 -108s37 -64.833 61 -91.5s52.167 -47.834 84.5 -63.501s69.166 -23.5 110.499 -23.5c51.333 0 91.166 9.5 119.499 28.5s49.166 45.333 62.499 79s21.166 73.5 23.499 119.5
s3.5 96 3.5 150h-193v246h453zM735.004 1583l-121 184l-120 -184h-211l204 315h267l190 -315h-209z" />
    <glyph glyph-name="gcircumflex" unicode="&#x11d;" horiz-adv-x="1114" 
d="M1022 53c0 -74.667 -11.165 -140.171 -33.498 -196.504s-54 -103.166 -95 -140.499s-90.833 -65.5 -149.5 -84.5s-124.334 -28.5 -197.001 -28.5c-62 0 -123.333 7.66699 -184 23s-116 41 -166 77v223c43.333 -36.667 91.833 -64.5 145.5 -83.5
s108.834 -28.5 165.501 -28.5c42.667 0 79 4.83301 109 14.5s55 23.167 75 40.5s35.667 38 47 62s20 50.333 26 79s9.66699 59.334 11 92.001s2 66.334 2 101.001l-2 -2c-18 -32 -37.333 -59.5 -58 -82.5s-43.5 -41.833 -68.5 -56.5s-52.667 -25.334 -83 -32.001
s-64.166 -10 -101.499 -10c-66.667 0 -123.667 13.333 -171 40s-86.333 61.834 -117 105.501s-53.834 93.334 -69.501 149.001s-24.834 112.5 -27.501 170.5c0 7.33301 -0.333008 14.5 -1 21.5s-1 14.167 -1 21.5c0 43.333 2.66699 87.333 8 132s14.333 87.834 27 129.501
s29.167 80.667 49.5 117s45.333 68.166 75 95.499s64.667 48.833 105 64.5s86.5 23.5 138.5 23.5c30.667 0 61.167 -3.83301 91.5 -11.5s58.666 -19.167 84.999 -34.5s49.833 -34.5 70.5 -57.5s36.667 -49.5 48 -79.5v164h246v-1018zM561.002 255.996
c40.667 0 74.665 9.83203 101.998 29.499s49.333 44.5 66 74.5s28.667 63 36 99s11 70.667 11 104c0 36.667 -3.5 72.334 -10.5 107.001s-18.833 65.5 -35.5 92.5s-39 48.667 -67 65s-63.333 24.5 -106 24.5c-43.333 0 -79 -9 -107 -27s-50.333 -41.5 -67 -70.5
s-28.334 -61.5 -35.001 -97.5s-10 -72 -10 -108c0 -38.667 3.33301 -75.667 10 -111s18.334 -66.5 35.001 -93.5s39.334 -48.5 68.001 -64.5s65.334 -24 110.001 -24zM678 1174l-121 184l-121 -184h-211l205 315h266l191 -315h-209z" />
    <glyph glyph-name="Gbreve" unicode="&#x11e;" horiz-adv-x="1229" 
d="M1137 848l0.00390625 -368.998c0 -83.333 -13.333 -156.333 -40 -219s-62.334 -115.167 -107.001 -157.5s-96.334 -74.166 -155.001 -95.499s-120 -32 -184 -32c-73.333 0 -138.666 10.167 -195.999 30.5s-107.5 48.5 -150.5 84.5s-79.333 78.5 -109 127.5
s-53.667 102.167 -72 159.5s-31.5 117.5 -39.5 180.5s-12 126.5 -12 190.5c0 66 4.66699 129.167 14 189.5s23.666 117.833 42.999 172.5c22.667 66 52.5 123.833 89.5 173.5s79.333 91 127 124s99.834 57.833 156.501 74.5s116.667 25 180 25c31.333 0 63.333 -2 96 -6
s65 -10.833 97 -20.5s63.333 -22.834 94 -39.501s60 -37.667 88 -63v-288c-42 49.333 -91.5 89.5 -148.5 120.5s-120.833 46.5 -191.5 46.5c-56 0 -104 -10 -144 -30s-76 -47.333 -108 -82c-43.333 -47.333 -74.666 -107 -93.999 -179s-29 -150.333 -29 -235
c0 -33.333 2.33301 -68.833 7 -106.5s12.167 -75.334 22.5 -113.001s23.833 -73.667 40.5 -108s37 -64.833 61 -91.5s52.167 -47.834 84.5 -63.501s69.166 -23.5 110.499 -23.5c51.333 0 91.166 9.5 119.499 28.5s49.166 45.333 62.499 79s21.166 73.5 23.499 119.5
s3.5 96 3.5 150h-193v246h453zM498.004 1892c6 -42 21.4971 -72.998 46.4971 -92.998s52.5 -30 82.5 -30c16 0 31.5 2.83301 46.5 8.5s28.5 13.667 40.5 24s21.833 23.166 29.5 38.499s11.834 32.666 12.501 51.999h135c-3.33301 -40.667 -11 -78 -23 -112
s-29.167 -63.167 -51.5 -87.5s-50.166 -43.166 -83.499 -56.499s-73 -20 -119 -20c-45.333 0 -84.666 6.66699 -117.999 20s-61.333 32.166 -84 56.499s-40 53.5 -52 87.5s-19.333 71.333 -22 112h160z" />
    <glyph glyph-name="gbreve" unicode="&#x11f;" horiz-adv-x="1114" 
d="M1022 53c0 -74.667 -11.165 -140.171 -33.498 -196.504s-54 -103.166 -95 -140.499s-90.833 -65.5 -149.5 -84.5s-124.334 -28.5 -197.001 -28.5c-62 0 -123.333 7.66699 -184 23s-116 41 -166 77v223c43.333 -36.667 91.833 -64.5 145.5 -83.5
s108.834 -28.5 165.501 -28.5c42.667 0 79 4.83301 109 14.5s55 23.167 75 40.5s35.667 38 47 62s20 50.333 26 79s9.66699 59.334 11 92.001s2 66.334 2 101.001l-2 -2c-18 -32 -37.333 -59.5 -58 -82.5s-43.5 -41.833 -68.5 -56.5s-52.667 -25.334 -83 -32.001
s-64.166 -10 -101.499 -10c-66.667 0 -123.667 13.333 -171 40s-86.333 61.834 -117 105.501s-53.834 93.334 -69.501 149.001s-24.834 112.5 -27.501 170.5c0 7.33301 -0.333008 14.5 -1 21.5s-1 14.167 -1 21.5c0 43.333 2.66699 87.333 8 132s14.333 87.834 27 129.501
s29.167 80.667 49.5 117s45.333 68.166 75 95.499s64.667 48.833 105 64.5s86.5 23.5 138.5 23.5c30.667 0 61.167 -3.83301 91.5 -11.5s58.666 -19.167 84.999 -34.5s49.833 -34.5 70.5 -57.5s36.667 -49.5 48 -79.5v164h246v-1018zM561.002 255.996
c40.667 0 74.665 9.83203 101.998 29.499s49.333 44.5 66 74.5s28.667 63 36 99s11 70.667 11 104c0 36.667 -3.5 72.334 -10.5 107.001s-18.833 65.5 -35.5 92.5s-39 48.667 -67 65s-63.333 24.5 -106 24.5c-43.333 0 -79 -9 -107 -27s-50.333 -41.5 -67 -70.5
s-28.334 -61.5 -35.001 -97.5s-10 -72 -10 -108c0 -38.667 3.33301 -75.667 10 -111s18.334 -66.5 35.001 -93.5s39.334 -48.5 68.001 -64.5s65.334 -24 110.001 -24zM440 1483c6.66699 -42 22.3311 -72.999 46.998 -92.999s52 -30 82 -30c16 0 31.667 2.66699 47 8
s29 13.333 41 24s21.667 23.667 29 39s11.333 32.666 12 51.999h136c-3.33301 -41.333 -11 -78.833 -23 -112.5s-29.333 -62.834 -52 -87.501s-50.667 -43.667 -84 -57s-72.666 -20 -117.999 -20s-84.666 6.66699 -117.999 20s-61.333 32.333 -84 57s-40 53.834 -52 87.501
s-19.333 71.167 -22 112.5h159z" />
    <glyph glyph-name="Gdotaccent" unicode="&#x120;" horiz-adv-x="1229" 
d="M1137 848l0.00390625 -368.998c0 -83.333 -13.333 -156.333 -40 -219s-62.334 -115.167 -107.001 -157.5s-96.334 -74.166 -155.001 -95.499s-120 -32 -184 -32c-73.333 0 -138.666 10.167 -195.999 30.5s-107.5 48.5 -150.5 84.5s-79.333 78.5 -109 127.5
s-53.667 102.167 -72 159.5s-31.5 117.5 -39.5 180.5s-12 126.5 -12 190.5c0 66 4.66699 129.167 14 189.5s23.666 117.833 42.999 172.5c22.667 66 52.5 123.833 89.5 173.5s79.333 91 127 124s99.834 57.833 156.501 74.5s116.667 25 180 25c31.333 0 63.333 -2 96 -6
s65 -10.833 97 -20.5s63.333 -22.834 94 -39.501s60 -37.667 88 -63v-288c-42 49.333 -91.5 89.5 -148.5 120.5s-120.833 46.5 -191.5 46.5c-56 0 -104 -10 -144 -30s-76 -47.333 -108 -82c-43.333 -47.333 -74.666 -107 -93.999 -179s-29 -150.333 -29 -235
c0 -33.333 2.33301 -68.833 7 -106.5s12.167 -75.334 22.5 -113.001s23.833 -73.667 40.5 -108s37 -64.833 61 -91.5s52.167 -47.834 84.5 -63.501s69.166 -23.5 110.499 -23.5c51.333 0 91.166 9.5 119.499 28.5s49.166 45.333 62.499 79s21.166 73.5 23.499 119.5
s3.5 96 3.5 150h-193v246h453zM500.004 1741c0 20.667 4 40.333 12 59s19 35 33 49s30.167 25 48.5 33s38.166 12 59.499 12s41.5 -4 60.5 -12s35.5 -19 49.5 -33s25.167 -30.333 33.5 -49s12.5 -38.334 12.5 -59.001c0 -21.333 -4.16699 -41.333 -12.5 -60
s-19.5 -35.167 -33.5 -49.5s-30.5 -25.666 -49.5 -33.999s-39.167 -12.5 -60.5 -12.5s-41.166 4.16699 -59.499 12.5s-34.5 19.5 -48.5 33.5s-25 30.5 -33 49.5s-12 39.167 -12 60.5z" />
    <glyph glyph-name="gdotaccent" unicode="&#x121;" horiz-adv-x="1114" 
d="M1022 53c0 -74.667 -11.165 -140.171 -33.498 -196.504s-54 -103.166 -95 -140.499s-90.833 -65.5 -149.5 -84.5s-124.334 -28.5 -197.001 -28.5c-62 0 -123.333 7.66699 -184 23s-116 41 -166 77v223c43.333 -36.667 91.833 -64.5 145.5 -83.5
s108.834 -28.5 165.501 -28.5c42.667 0 79 4.83301 109 14.5s55 23.167 75 40.5s35.667 38 47 62s20 50.333 26 79s9.66699 59.334 11 92.001s2 66.334 2 101.001l-2 -2c-18 -32 -37.333 -59.5 -58 -82.5s-43.5 -41.833 -68.5 -56.5s-52.667 -25.334 -83 -32.001
s-64.166 -10 -101.499 -10c-66.667 0 -123.667 13.333 -171 40s-86.333 61.834 -117 105.501s-53.834 93.334 -69.501 149.001s-24.834 112.5 -27.501 170.5c0 7.33301 -0.333008 14.5 -1 21.5s-1 14.167 -1 21.5c0 43.333 2.66699 87.333 8 132s14.333 87.834 27 129.501
s29.167 80.667 49.5 117s45.333 68.166 75 95.499s64.667 48.833 105 64.5s86.5 23.5 138.5 23.5c30.667 0 61.167 -3.83301 91.5 -11.5s58.666 -19.167 84.999 -34.5s49.833 -34.5 70.5 -57.5s36.667 -49.5 48 -79.5v164h246v-1018zM561.002 255.996
c40.667 0 74.665 9.83203 101.998 29.499s49.333 44.5 66 74.5s28.667 63 36 99s11 70.667 11 104c0 36.667 -3.5 72.334 -10.5 107.001s-18.833 65.5 -35.5 92.5s-39 48.667 -67 65s-63.333 24.5 -106 24.5c-43.333 0 -79 -9 -107 -27s-50.333 -41.5 -67 -70.5
s-28.334 -61.5 -35.001 -97.5s-10 -72 -10 -108c0 -38.667 3.33301 -75.667 10 -111s18.334 -66.5 35.001 -93.5s39.334 -48.5 68.001 -64.5s65.334 -24 110.001 -24zM401 1331c0 20.667 4 40.334 12 59.001s19 35 33 49s30.333 25.167 49 33.5s38.667 12.5 60 12.5
s41.5 -4.16699 60.5 -12.5s35.5 -19.5 49.5 -33.5s25.167 -30.333 33.5 -49s12.5 -38.334 12.5 -59.001c0 -21.333 -4.16699 -41.333 -12.5 -60s-19.5 -35 -33.5 -49s-30.5 -25.167 -49.5 -33.5s-39.167 -12.5 -60.5 -12.5s-41.333 4 -60 12s-35 19 -49 33
s-25 30.5 -33 49.5s-12 39.167 -12 60.5z" />
    <glyph glyph-name="Gcommaaccent" unicode="&#x122;" horiz-adv-x="1229" 
d="M1137 848l0.00390625 -368.998c0 -83.333 -13.333 -156.333 -40 -219s-62.334 -115.167 -107.001 -157.5s-96.334 -74.166 -155.001 -95.499s-120 -32 -184 -32c-73.333 0 -138.666 10.167 -195.999 30.5s-107.5 48.5 -150.5 84.5s-79.333 78.5 -109 127.5
s-53.667 102.167 -72 159.5s-31.5 117.5 -39.5 180.5s-12 126.5 -12 190.5c0 66 4.66699 129.167 14 189.5s23.666 117.833 42.999 172.5c22.667 66 52.5 123.833 89.5 173.5s79.333 91 127 124s99.834 57.833 156.501 74.5s116.667 25 180 25c31.333 0 63.333 -2 96 -6
s65 -10.833 97 -20.5s63.333 -22.834 94 -39.501s60 -37.667 88 -63v-288c-42 49.333 -91.5 89.5 -148.5 120.5s-120.833 46.5 -191.5 46.5c-56 0 -104 -10 -144 -30s-76 -47.333 -108 -82c-43.333 -47.333 -74.666 -107 -93.999 -179s-29 -150.333 -29 -235
c0 -33.333 2.33301 -68.833 7 -106.5s12.167 -75.334 22.5 -113.001s23.833 -73.667 40.5 -108s37 -64.833 61 -91.5s52.167 -47.834 84.5 -63.501s69.166 -23.5 110.499 -23.5c51.333 0 91.166 9.5 119.499 28.5s49.166 45.333 62.499 79s21.166 73.5 23.499 119.5
s3.5 96 3.5 150h-193v246h453zM627.004 -355.998h-174l82 276h241z" />
    <glyph glyph-name="gcommaaccent" unicode="&#x123;" horiz-adv-x="1114" 
d="M1022 53c0 -74.667 -11.165 -140.171 -33.498 -196.504s-54 -103.166 -95 -140.499s-90.833 -65.5 -149.5 -84.5s-124.334 -28.5 -197.001 -28.5c-62 0 -123.333 7.66699 -184 23s-116 41 -166 77v223c43.333 -36.667 91.833 -64.5 145.5 -83.5
s108.834 -28.5 165.501 -28.5c42.667 0 79 4.83301 109 14.5s55 23.167 75 40.5s35.667 38 47 62s20 50.333 26 79s9.66699 59.334 11 92.001s2 66.334 2 101.001l-2 -2c-18 -32 -37.333 -59.5 -58 -82.5s-43.5 -41.833 -68.5 -56.5s-52.667 -25.334 -83 -32.001
s-64.166 -10 -101.499 -10c-66.667 0 -123.667 13.333 -171 40s-86.333 61.834 -117 105.501s-53.834 93.334 -69.501 149.001s-24.834 112.5 -27.501 170.5c0 7.33301 -0.333008 14.5 -1 21.5s-1 14.167 -1 21.5c0 43.333 2.66699 87.333 8 132s14.333 87.834 27 129.501
s29.167 80.667 49.5 117s45.333 68.166 75 95.499s64.667 48.833 105 64.5s86.5 23.5 138.5 23.5c30.667 0 61.167 -3.83301 91.5 -11.5s58.666 -19.167 84.999 -34.5s49.833 -34.5 70.5 -57.5s36.667 -49.5 48 -79.5v164h246v-1018zM561.002 255.996
c40.667 0 74.665 9.83203 101.998 29.499s49.333 44.5 66 74.5s28.667 63 36 99s11 70.667 11 104c0 36.667 -3.5 72.334 -10.5 107.001s-18.833 65.5 -35.5 92.5s-39 48.667 -67 65s-63.333 24.5 -106 24.5c-43.333 0 -79 -9 -107 -27s-50.333 -41.5 -67 -70.5
s-28.334 -61.5 -35.001 -97.5s-10 -72 -10 -108c0 -38.667 3.33301 -75.667 10 -111s18.334 -66.5 35.001 -93.5s39.334 -48.5 68.001 -64.5s65.334 -24 110.001 -24zM621 1487l174 2l-82 -279h-242z" />
    <glyph glyph-name="Hcircumflex" unicode="&#x124;" horiz-adv-x="1251" 
d="M385 1485v-615h483v615h265v-1485h-265v639h-483v-639h-266v1485h266zM748 1583l-121 184l-121 -184h-211l205 315h266l190 -315h-208z" />
    <glyph glyph-name="hcircumflex" unicode="&#x125;" 
d="M358 1491l-0.00292969 -573.001c39.333 55.333 84.333 98.166 135 128.499s111 45.5 181 45.5c50.667 0 95.667 -9 135 -27s72.333 -42.667 99 -74s46.834 -68.166 60.501 -110.499s20.5 -87.5 20.5 -135.5v-745h-252v614c0 30 -1.5 59.833 -4.5 89.5
s-10.167 56.334 -21.5 80.001s-28 43 -50 58s-52 22.5 -90 22.5c-42 0 -76.667 -10 -104 -30s-49.166 -45.167 -65.499 -75.5s-27.666 -63.833 -33.999 -100.5s-9.5 -71.667 -9.5 -105v-553h-249v1491h249zM753.997 1511l-121 185l-121 -185h-211l205 316h266l191 -316h-209
z" />
    <glyph glyph-name="Hbar" unicode="&#x126;" horiz-adv-x="1251" 
d="M385 870h483v181h-483v-181zM868 0v639h-483v-639h-266v1051h-96v155h96v279h266v-279h483v279h265v-279h88v-155h-88v-1051h-265z" />
    <glyph glyph-name="hbar" unicode="&#x127;" 
d="M737 0l-0.00292969 613.999c0 30 -1.5 59.833 -4.5 89.5s-10.167 56.334 -21.5 80.001s-28 43 -50 58s-52 22.5 -90 22.5c-42 0 -76.667 -10 -104 -30s-49.166 -45.167 -65.499 -75.5s-27.666 -63.833 -33.999 -100.5s-9.5 -71.667 -9.5 -105v-553h-249v1182h-109v131
h109v178h249v-178h383v-131h-383v-264c39.333 55.333 84.333 98.166 135 128.499s111 45.5 181 45.5c50.667 0 95.667 -9 135 -27s72.333 -42.667 99 -74s46.834 -68.166 60.501 -110.499s20.5 -87.5 20.5 -135.5v-745h-252z" />
    <glyph glyph-name="Itilde" unicode="&#x128;" horiz-adv-x="485" 
d="M111 0v1485h264v-1485h-264zM-78 1634c0.666992 28 3.49805 55.834 8.49805 83.501s14 52.5 27 74.5s31.167 39.833 54.5 53.5s54 20.5 92 20.5c22.667 0 44.834 -3 66.501 -9s43.5 -12.667 65.5 -20s44.5 -14 67.5 -20s46.833 -9 71.5 -9
c23.333 0 41.333 6.16699 54 18.5s22.667 28.833 30 49.5h106c-1.33301 -29.333 -4.83301 -58.333 -10.5 -87s-15.834 -54.5 -30.501 -77.5s-35 -41.667 -61 -56s-60.333 -21.5 -103 -21.5c-16 0 -34.667 3.5 -56 10.5l-66.5 22.5c-23 8 -46 15.5 -69 22.5
s-44.5 10.5 -64.5 10.5c-17.333 0 -31.666 -6.33301 -42.999 -19s-20.666 -28.334 -27.999 -47.001h-111z" />
    <glyph glyph-name="itilde" unicode="&#x129;" horiz-adv-x="457" 
d="M102 0v1071h252v-1071h-252zM-92 1225c0.666992 27.333 3.5 54.834 8.5 82.501s14 52.5 27 74.5s31.167 39.833 54.5 53.5s54 20.5 92 20.5c22.667 0 44.834 -3 66.501 -9s43.5 -12.5 65.5 -19.5s44.333 -13.5 67 -19.5s46.334 -9 71.001 -9c24 0 42.167 6 54.5 18
s22.166 28.333 29.499 49h107c-1.33301 -29.333 -4.83301 -58.333 -10.5 -87s-15.834 -54.334 -30.501 -77.001s-35 -41.167 -61 -55.5s-60.333 -21.5 -103 -21.5c-16 0 -34.667 3.33301 -56 10s-43.5 14.167 -66.5 22.5s-46 15.833 -69 22.5s-44.5 10 -64.5 10
c-17.333 0 -31.833 -6.16699 -43.5 -18.5s-21.167 -27.833 -28.5 -46.5h-110z" />
    <glyph glyph-name="Imacron" unicode="&#x12a;" horiz-adv-x="485" 
d="M111 0v1485h264v-1485h-264zM-6 1686v153h498v-153h-498z" />
    <glyph glyph-name="imacron" unicode="&#x12b;" horiz-adv-x="457" 
d="M102 0v1071h252v-1071h-252zM-20 1276v154h497v-154h-497z" />
    <glyph glyph-name="Ibreve" unicode="&#x12c;" horiz-adv-x="485" 
d="M111 0v1485h264v-1485h-264zM127 1892c2.66699 -21.333 8.16504 -39.665 16.498 -54.998s18.333 -28 30 -38s24.667 -17.5 39 -22.5s28.833 -7.5 43.5 -7.5c16 0 31.5 2.83301 46.5 8.5s28.5 13.667 40.5 24s21.833 23.166 29.5 38.499s11.834 32.666 12.501 51.999h135
c-3.33301 -40.667 -11 -78 -23 -112s-29.167 -63.167 -51.5 -87.5s-50.166 -43.166 -83.499 -56.499s-72.666 -20 -117.999 -20s-84.833 6.66699 -118.5 20s-61.834 32.166 -84.501 56.499s-40 53.5 -52 87.5s-19.333 71.333 -22 112h160z" />
    <glyph glyph-name="ibreve" unicode="&#x12d;" horiz-adv-x="457" 
d="M102 0v1071h252v-1071h-252zM113 1483c6 -42 21.4971 -72.999 46.4971 -92.999s52.5 -30 82.5 -30c16 0 31.5 2.66699 46.5 8s28.5 13.333 40.5 24s21.833 23.667 29.5 39s11.834 32.666 12.501 51.999h135c-3.33301 -41.333 -11 -78.833 -23 -112.5
s-29.167 -62.834 -51.5 -87.501s-50.166 -43.667 -83.499 -57s-73 -20 -119 -20c-45.333 0 -84.666 6.66699 -117.999 20s-61.333 32.333 -84 57s-40 53.834 -52 87.501s-19.333 71.167 -22 112.5h160z" />
    <glyph glyph-name="Iogonek" unicode="&#x12e;" horiz-adv-x="485" 
d="M324 0c-18.667 -12.667 -33.668 -25.999 -45.001 -39.999s-17 -32.667 -17 -56c0 -9.33301 2.66699 -18.5 8 -27.5s13.666 -16.667 24.999 -23s26.333 -10.5 45 -12.5s41.334 -0.333008 68.001 5v-174c-9.33301 0 -22.833 -0.333008 -40.5 -1s-37.167 -1 -58.5 -1
c-38 0 -71.167 4 -99.5 12s-52.166 18.833 -71.499 32.5s-33.833 29.5 -43.5 47.5s-14.5 37.333 -14.5 58c0 34 8.16699 66.167 24.5 96.5s39.5 58.166 69.5 83.499h-63v1485h264v-1485h-51z" />
    <glyph glyph-name="iogonek" unicode="&#x12f;" horiz-adv-x="457" 
d="M309 0c-18.667 -12.667 -33.502 -25.999 -44.502 -39.999s-16.5 -32.667 -16.5 -56c0 -9.33301 2.5 -18.5 7.5 -27.5s13.333 -16.667 25 -23s26.667 -10.5 45 -12.5s40.833 -0.333008 67.5 5v-174c-9.33301 0 -22.666 -0.333008 -39.999 -1s-36.666 -1 -57.999 -1
c-38 0 -71.333 4 -100 12s-52.5 18.833 -71.5 32.5s-33.333 29.5 -43 47.5s-14.5 37.333 -14.5 58c0 34 8.16699 66.167 24.5 96.5s39.5 58.166 69.5 83.499h-58v1071h252v-1071h-45zM73.998 1331c0 20.667 4 40.334 12 59.001s19 35 33 49s30.167 25.167 48.5 33.5
s38.166 12.5 59.499 12.5s41.5 -4.16699 60.5 -12.5s35.5 -19.5 49.5 -33.5s25.167 -30.333 33.5 -49s12.5 -38.334 12.5 -59.001c0 -21.333 -4.16699 -41.333 -12.5 -60s-19.5 -35 -33.5 -49s-30.5 -25.167 -49.5 -33.5s-39.167 -12.5 -60.5 -12.5s-41.166 4 -59.499 12
s-34.5 19 -48.5 33s-25 30.5 -33 49.5s-12 39.167 -12 60.5z" />
    <glyph glyph-name="Idotaccent" unicode="&#x130;" horiz-adv-x="485" 
d="M111 0v1485h264v-1485h-264zM88 1741c0 20.667 4 40.333 12 59s19 35 33 49s30.333 25 49 33s38.667 12 60 12s41.5 -4 60.5 -12s35.5 -19 49.5 -33s25 -30.333 33 -49s12 -38.334 12 -59.001c0 -21.333 -4 -41.333 -12 -60s-19 -35.167 -33 -49.5
s-30.5 -25.666 -49.5 -33.999s-39.167 -12.5 -60.5 -12.5s-41.333 4.16699 -60 12.5s-35 19.5 -49 33.5s-25 30.5 -33 49.5s-12 39.167 -12 60.5z" />
    <glyph glyph-name="dotlessi" unicode="&#x131;" horiz-adv-x="457" 
d="M102 0v1071h252v-1071h-252z" />
    <glyph glyph-name="IJ" unicode="&#x132;" horiz-adv-x="1300" 
d="M111 0v1485h264v-1485h-264zM512 330c30.667 -33.333 65.502 -58.833 104.502 -76.5s80.5 -26.5 124.5 -26.5c34 0 62 5.16699 84 15.5s39.667 24 53 41s23.166 37 29.499 60s10.5 47 12.5 72s2.83301 50.5 2.5 76.5s-0.5 51 -0.5 75v918h264v-1053
c0 -63.333 -6.33301 -122.833 -19 -178.5s-33.667 -104.167 -63 -145.5s-68 -73.833 -116 -97.5s-107.667 -35.5 -179 -35.5c-56.667 0 -108.334 7.33301 -155.001 22s-94 36 -142 64v269v0z" />
    <glyph glyph-name="ij" unicode="&#x133;" horiz-adv-x="942" 
d="M102 0v1071h252v-1071h-252zM74 1331c0 20.667 4 40.334 12 59.001s19 35 33 49s30.167 25.167 48.5 33.5s38.166 12.5 59.499 12.5s41.5 -4.16699 60.5 -12.5s35.5 -19.5 49.5 -33.5s25.167 -30.333 33.5 -49s12.5 -38.334 12.5 -59.001
c0 -21.333 -4.16699 -41.333 -12.5 -60s-19.5 -35 -33.5 -49s-30.5 -25.167 -49.5 -33.5s-39.167 -12.5 -60.5 -12.5s-41.166 4 -59.499 12s-34.5 19 -48.5 33s-25 30.5 -33 49.5s-12 39.167 -12 60.5zM834 -45c0 -54 -5.83301 -104 -17.5 -150s-30.667 -85.833 -57 -119.5
s-60.666 -60 -102.999 -79s-93.833 -28.5 -154.5 -28.5c-35.333 0 -71.333 5.33301 -108 16s-71 23.667 -103 39v228c21.333 -12.667 44.166 -22.667 68.499 -30s49.166 -11 74.499 -11c30.667 0 55.834 4.5 75.501 13.5s35 21.667 46 38s18.5 36 22.5 59s6 48.167 6 75.5
v1065h250v-1116zM555 1331c0 20.667 4 40.334 12 59.001s19 35 33 49s30.333 25.167 49 33.5s38.667 12.5 60 12.5s41.5 -4.16699 60.5 -12.5s35.5 -19.5 49.5 -33.5s25 -30.333 33 -49s12 -38.334 12 -59.001c0 -21.333 -4 -41.333 -12 -60s-19 -35 -33 -49
s-30.5 -25.167 -49.5 -33.5s-39.167 -12.5 -60.5 -12.5s-41.333 4 -60 12s-35 19 -49 33s-25 30.5 -33 49.5s-12 39.167 -12 60.5z" />
    <glyph glyph-name="Jcircumflex" unicode="&#x134;" horiz-adv-x="815" 
d="M27 330c30.667 -33.333 65.502 -58.833 104.502 -76.5s80.5 -26.5 124.5 -26.5c34 0 62 5.16699 84 15.5s39.667 24 53 41s23 37 29 60s10.167 47 12.5 72s3.16602 50.5 2.49902 76.5s-1 51 -1 75v918h264v-1053c0 -63.333 -6.33301 -122.833 -19 -178.5
s-33.5 -104.167 -62.5 -145.5s-67.667 -73.833 -116 -97.5s-107.833 -35.5 -178.5 -35.5c-56.667 0 -108.334 7.33301 -155.001 22s-94 36 -142 64v269v0zM672.002 1583l-121 184l-121 -184h-211l205 315h266l191 -315h-209z" />
    <glyph glyph-name="jcircumflex" unicode="&#x135;" horiz-adv-x="485" 
d="M377 -45c0 -54 -5.83301 -104 -17.5 -150s-30.667 -85.833 -57 -119.5s-60.666 -60 -102.999 -79s-93.833 -28.5 -154.5 -28.5c-35.333 0 -71.333 5.33301 -108 16s-71 23.667 -103 39v228c21.333 -12.667 44.166 -22.667 68.499 -30s49.166 -11 74.499 -11
c30.667 0 55.834 4.5 75.501 13.5s35 21.667 46 38s18.5 36 22.5 59s6 48.167 6 75.5v1065h250v-1116zM365 1174l-121 184l-121 -184h-211l205 315h266l190 -315h-208z" />
    <glyph glyph-name="Kcommaaccent" unicode="&#x136;" horiz-adv-x="1151" 
d="M829 0c-16 30.667 -35.833 65.833 -59.5 105.5l-76.5 125l-85 135l-85 135.5l-76.5 125.5c-23.667 39.667 -43.5 75.167 -59.5 106.5v-2c0 -122.667 -0.333008 -244.5 -1 -365.5s-1 -242.833 -1 -365.5h-266v1485h268c0 -110 -0.333008 -219.333 -1 -328s-1 -218 -1 -328
l66.5 100.5l81 118.5l86.5 125.5l83.5 122l72 107.5c21.667 32.667 39.167 60 52.5 82h295l-236 -355.5l-237 -355.5l244 -387l244 -387h-308zM588 -356.001h-174l82 276h241z" />
    <glyph glyph-name="kcommaaccent" unicode="&#x137;" horiz-adv-x="979" 
d="M356 1491l-6 -909l156.5 244l155.5 245h276l-173 -256l-173 -256l375 -559h-289l-326 504v-252c0 -83.333 -0.666992 -167.333 -2 -252h-248v1491h254zM502 -356h-174l82 276h241z" />
    <glyph glyph-name="kgreenlandic" unicode="&#x138;" horiz-adv-x="979" 
d="M356 1075l-6 -493l156.5 244l155.5 245h276l-173 -256l-173 -256l375 -559h-289l-326 504v-252c0 -83.333 -0.666992 -167.333 -2 -252h-248v1075h254z" />
    <glyph glyph-name="Lacute" unicode="&#x139;" horiz-adv-x="891" 
d="M119 0v1485h266v-1239h473v-246h-739zM350 1579h-176l139 315h279z" />
    <glyph glyph-name="lacute" unicode="&#x13a;" horiz-adv-x="457" 
d="M102 0v1491h250v-1491h-250zM264 1552h-176l139 316h279z" />
    <glyph glyph-name="Lcommaaccent" unicode="&#x13b;" horiz-adv-x="891" 
d="M119 0v1485h266v-1239h473v-246h-739zM457 -356h-174l82 276h241z" />
    <glyph glyph-name="lcommaaccent" unicode="&#x13c;" horiz-adv-x="457" 
d="M102 0v1491h250v-1491h-250zM242 -356h-174l82 276h241z" />
    <glyph glyph-name="Lcaron" unicode="&#x13d;" horiz-adv-x="891" 
d="M119 0v1485h266v-1239h473v-246h-739zM772 1032h-184l117 461h251z" />
    <glyph glyph-name="lcaron" unicode="&#x13e;" horiz-adv-x="827" 
d="M102 0v1491h250v-1491h-250zM672 1038h-185l117 461h252z" />
    <glyph glyph-name="Ldot" unicode="&#x13f;" horiz-adv-x="891" 
d="M119 0v1485h266v-1239h473v-246h-739zM569 799c0 22 3.83301 42.167 11.5 60.5s18.167 34.333 31.5 48s29.333 24.167 48 31.5s39 11 61 11c20.667 0 40.167 -3.83301 58.5 -11.5s34.166 -18.334 47.499 -32.001s23.833 -29.667 31.5 -48s11.5 -38.166 11.5 -59.499
s-3.83301 -41.166 -11.5 -59.499s-18.167 -34.166 -31.5 -47.499s-29.166 -23.833 -47.499 -31.5s-37.833 -11.5 -58.5 -11.5c-22 0 -42.333 3.66699 -61 11s-34.667 17.666 -48 30.999s-23.833 29.166 -31.5 47.499s-11.5 38.5 -11.5 60.5z" />
    <glyph glyph-name="ldot" unicode="&#x140;" horiz-adv-x="809" 
d="M102 0v1491h250v-1491h-250zM471 768c0 22 3.83301 42.335 11.5 61.002s18.167 34.667 31.5 48s29.333 23.833 48 31.5s39 11.5 61 11.5c20.667 0 40.167 -3.83301 58.5 -11.5s34.166 -18.334 47.499 -32.001s23.833 -29.834 31.5 -48.501s11.5 -38.667 11.5 -60
s-3.83301 -41.166 -11.5 -59.499s-18.167 -34.166 -31.5 -47.499s-29.166 -23.833 -47.499 -31.5s-37.833 -11.5 -58.5 -11.5c-22 0 -42.333 3.66699 -61 11s-34.667 17.666 -48 30.999s-23.833 29.166 -31.5 47.499s-11.5 38.5 -11.5 60.5z" />
    <glyph glyph-name="Lslash" unicode="&#x141;" horiz-adv-x="944" 
d="M444 702v-456h474v-246h-740v588l-166 -72v178l166 72v719h266v-602l342 147v-180z" />
    <glyph glyph-name="lslash" unicode="&#x142;" horiz-adv-x="668" 
d="M217 0v702l-190 -92v197l190 92v592h250v-477l184 86v-199l-184 -86v-815h-250z" />
    <glyph glyph-name="Nacute" unicode="&#x143;" horiz-adv-x="1329" 
d="M451 1485l71 -153.501l81 -176.5l85 -187l83 -184l192 -428v140c0 165.333 -0.333008 330 -1 494s-1 329 -1 495h247v-1485h-307l-238 504.5l-237 507.5l-13.5 32.5l-15.5 38.5l-15.5 39.5c-5 13 -9.16699 24.5 -12.5 34.5c0 -25.333 -0.333008 -50.666 -1 -75.999
s-1 -50.333 -1 -75v-175c0 -66.667 0.166992 -138.5 0.5 -215.5s0.5 -153.167 0.5 -228.5s0.166992 -146.833 0.5 -214.5s0.5 -125.167 0.5 -172.5h-248v1485h330zM692 1579h-176l139 315h279z" />
    <glyph glyph-name="nacute" unicode="&#x144;" 
d="M352 1071v-172c33.333 64 76.5 111.833 129.5 143.5s115.833 47.5 188.5 47.5c50 0 92.5 -6.16699 127.5 -18.5s64.167 -29.5 87.5 -51.5s41.666 -47.833 54.999 -77.5s23.333 -61.834 30 -96.501s10.834 -71.167 12.501 -109.5s2.5 -76.833 2.5 -115.5v-621h-252v662
c0 26 -3 51.167 -9 75.5s-15.5 45.833 -28.5 64.5s-29.833 33.667 -50.5 45s-46 17 -76 17c-48.667 0 -87.167 -10.667 -115.5 -32s-49.833 -48.5 -64.5 -81.5s-24.167 -69.667 -28.5 -110s-6.5 -79.166 -6.5 -116.499v-524h-250v1071h248zM573 1169h-176l140 316h278z" />
    </font>
</defs>
</svg>
